<svg version="1.1" xmlns="http://www.w3.org/2000/svg" xmlns:xlink="http://www.w3.org/1999/xlink" width="1980" height="1156"><defs/><g><g transform="translate(10,-6) scale(1,1)"><path fill="none" stroke="#000000" d="M 0 16 L 1960 16 L 1960 1152 L 0 1152 L 0 16" stroke-miterlimit="10"/></g><g transform="translate(10,-6) scale(1,1)"><path fill="#ffffff" stroke="none" d="M 0 16 L 0 38 L 144.63525390625 38 L 155.63525390625 27 L 155.63525390625 16 L 0 16"/></g><g transform="translate(10,-6) scale(1,1)"><path fill="none" stroke="#000000" d="M 0 16 L 0 38 L 144.63525390625 38 L 155.63525390625 27 L 155.63525390625 16 L 0 16 L 0 16" stroke-miterlimit="10"/></g><g transform="translate(10,-6) scale(1,1)"><g><path fill="none" stroke="none"/><text fill="#000000" stroke="none" font-family="Arial" font-size="13px" font-style="normal" font-weight="normal" text-decoration="none" x="24.72998046875" y="33.5">SequenceDiagram1</text></g></g><g transform="translate(10,-6) scale(1,1)"><g><path fill="none" stroke="none"/><text fill="#000000" stroke="none" font-family="Arial" font-size="13px" font-style="normal" font-weight="bold" text-decoration="none" x="5" y="33.5">sd</text></g></g><g transform="translate(10,-6) scale(1,1)"><rect fill="#C0C0C0" stroke="none" x="191" y="47" width="162.76171875" height="39" opacity="0.2"/></g><g transform="translate(10,-6) scale(1,1)"><rect fill="#ffffff" stroke="none" x="184" y="40" width="162.76171875" height="39"/></g><g transform="translate(10,-6) scale(1,1)"><path fill="none" stroke="#000000" d="M 184 40 L 346.76171875 40 L 346.76171875 79 L 184 79 L 184 40 Z Z" stroke-miterlimit="10"/></g><g transform="translate(10,-6) scale(1,1)"><g><path fill="none" stroke="none"/><text fill="#000000" stroke="none" font-family="Arial" font-size="13px" font-style="normal" font-weight="normal" text-decoration="none" x="235.03271484375" y="57.5">«Window»</text></g></g><g transform="translate(10,-6) scale(1,1)"><g><path fill="none" stroke="none"/><text fill="#000000" stroke="none" font-family="Arial" font-size="13px" font-style="normal" font-weight="bold" text-decoration="none" x="225.27001953125" y="72.5">dataBreaches</text></g></g><g transform="translate(10,-6) scale(1,1)"><path fill="none" stroke="#000000" d="M 266.5 80 L 266.5 1152" stroke-miterlimit="10" stroke-dasharray="3"/></g><g transform="translate(10,-6) scale(1,1)"><rect fill="#C0C0C0" stroke="none" x="471" y="47" width="112.1708984375" height="39" opacity="0.2"/></g><g transform="translate(10,-6) scale(1,1)"><rect fill="#ffffff" stroke="none" x="464" y="40" width="112.1708984375" height="39"/></g><g transform="translate(10,-6) scale(1,1)"><path fill="none" stroke="#000000" d="M 464 40 L 576.1708984375 40 L 576.1708984375 79 L 464 79 L 464 40 Z Z" stroke-miterlimit="10"/></g><g transform="translate(10,-6) scale(1,1)"><g><path fill="none" stroke="none"/><text fill="#000000" stroke="none" font-family="Arial" font-size="13px" font-style="normal" font-weight="bold" text-decoration="none" x="476.724609375" y="59.5">openFileDialog</text></g></g><g transform="translate(10,-6) scale(1,1)"><path fill="none" stroke="#000000" d="M 521.5 80 L 521.5 1152" stroke-miterlimit="10" stroke-dasharray="3"/></g><g transform="translate(10,-6) scale(1,1)"><path fill="#000000" stroke="none" d="M 48 135.5 C 48 131.6340064 51.1340064 128.5 55 128.5 C 58.8659936 128.5 62 131.6340064 62 135.5 C 62 139.3659936 58.8659936 142.5 55 142.5 C 51.1340064 142.5 48 139.3659936 48 135.5 Z"/></g><g transform="translate(10,-6) scale(1,1)"><rect fill="#C0C0C0" stroke="none" x="615" y="275" width="216" height="39" opacity="0.2"/></g><g transform="translate(10,-6) scale(1,1)"><rect fill="#ffffff" stroke="none" x="608" y="268" width="216" height="39"/></g><g transform="translate(10,-6) scale(1,1)"><path fill="none" stroke="#000000" d="M 608 268 L 824 268 L 824 307 L 608 307 L 608 268 Z Z" stroke-miterlimit="10"/></g><g transform="translate(10,-6) scale(1,1)"><g><path fill="none" stroke="none"/><text fill="#000000" stroke="none" font-family="Arial" font-size="13px" font-style="normal" font-weight="bold" text-decoration="none" x="661.435546875" y="287.5">dataBreachReader</text></g></g><g transform="translate(10,-6) scale(1,1)"><path fill="none" stroke="#000000" d="M 717.5 308 L 717.5 1152" stroke-miterlimit="10" stroke-dasharray="3"/></g><g transform="translate(10,-6) scale(1,1)"><rect fill="#C0C0C0" stroke="none" x="615" y="467" width="215.9931640625" height="39" opacity="0.2"/></g><g transform="translate(10,-6) scale(1,1)"><rect fill="#ffffff" stroke="none" x="608" y="460" width="215.9931640625" height="39"/></g><g transform="translate(10,-6) scale(1,1)"><path fill="none" stroke="#000000" d="M 608 460 L 823.9931640625 460 L 823.9931640625 499 L 608 499 L 608 460 Z Z" stroke-miterlimit="10"/></g><g transform="translate(10,-6) scale(1,1)"><g><path fill="none" stroke="none"/><text fill="#000000" stroke="none" font-family="Arial" font-size="13px" font-style="normal" font-weight="bold" text-decoration="none" x="661.43212890625" y="479.5">dataBreachReader</text></g></g><g transform="translate(10,-6) scale(1,1)"><path fill="none" stroke="#000000" d="M 716.5 500 L 716.5 651" stroke-miterlimit="10" stroke-dasharray="3"/></g><g transform="translate(10,-6) scale(1,1)"><rect fill="#C0C0C0" stroke="none" x="863" y="667" width="133.1435546875" height="39" opacity="0.2"/></g><g transform="translate(10,-6) scale(1,1)"><rect fill="#ffffff" stroke="none" x="856" y="660" width="133.1435546875" height="39"/></g><g transform="translate(10,-6) scale(1,1)"><path fill="none" stroke="#000000" d="M 856 660 L 989.1435546875 660 L 989.1435546875 699 L 856 699 L 856 660 Z Z" stroke-miterlimit="10"/></g><g transform="translate(10,-6) scale(1,1)"><g><path fill="none" stroke="none"/><text fill="#000000" stroke="none" font-family="Arial" font-size="13px" font-style="normal" font-weight="bold" text-decoration="none" x="869.81640625" y="679.5">dataBreachReport</text></g></g><g transform="translate(10,-6) scale(1,1)"><path fill="none" stroke="#000000" d="M 923.5 700 L 923.5 1152" stroke-miterlimit="10" stroke-dasharray="3"/></g><g transform="translate(10,-6) scale(1,1)"><rect fill="#C0C0C0" stroke="none" x="959" y="47" width="179.38623046875" height="39" opacity="0.2"/></g><g transform="translate(10,-6) scale(1,1)"><rect fill="#ffffff" stroke="none" x="952" y="40" width="179.38623046875" height="39"/></g><g transform="translate(10,-6) scale(1,1)"><path fill="none" stroke="#000000" d="M 952 40 L 1131.38623046875 40 L 1131.38623046875 79 L 952 79 L 952 40 Z Z" stroke-miterlimit="10"/></g><g transform="translate(10,-6) scale(1,1)"><g><path fill="none" stroke="none"/><text fill="#000000" stroke="none" font-family="Arial" font-size="13px" font-style="normal" font-weight="bold" text-decoration="none" x="966.911376953125" y="59.5">_myDataBreachController</text></g></g><g transform="translate(10,-6) scale(1,1)"><path fill="none" stroke="#000000" d="M 1042.5 80 L 1042.5 1152" stroke-miterlimit="10" stroke-dasharray="3"/></g><g transform="translate(10,-6) scale(1,1)"><rect fill="#C0C0C0" stroke="none" x="1207" y="47" width="269.021484375" height="39" opacity="0.2"/></g><g transform="translate(10,-6) scale(1,1)"><rect fill="#ffffff" stroke="none" x="1200" y="40" width="269.021484375" height="39"/></g><g transform="translate(10,-6) scale(1,1)"><path fill="none" stroke="#000000" d="M 1200 40 L 1469.021484375 40 L 1469.021484375 79 L 1200 79 L 1200 40 Z Z" stroke-miterlimit="10"/></g><g transform="translate(10,-6) scale(1,1)"><g><path fill="none" stroke="none"/><text fill="#000000" stroke="none" font-family="Arial" font-size="13px" font-style="normal" font-weight="bold" text-decoration="none" x="1216.36181640625" y="59.5">_dataBreaches: IDataAccessDataBreach</text></g></g><g transform="translate(10,-6) scale(1,1)"><path fill="none" stroke="#000000" d="M 1335.5 80 L 1335.5 1152" stroke-miterlimit="10" stroke-dasharray="3"/></g><g transform="translate(10,-6) scale(1,1)"><rect fill="#C0C0C0" stroke="none" x="1767" y="47" width="89.2939453125" height="39" opacity="0.2"/></g><g transform="translate(10,-6) scale(1,1)"><rect fill="#ffffff" stroke="none" x="1760" y="40" width="89.2939453125" height="39"/></g><g transform="translate(10,-6) scale(1,1)"><path fill="none" stroke="#000000" d="M 1760 40 L 1849.2939453125 40 L 1849.2939453125 79 L 1760 79 L 1760 40 Z Z" stroke-miterlimit="10"/></g><g transform="translate(10,-6) scale(1,1)"><g><path fill="none" stroke="none"/><text fill="#000000" stroke="none" font-family="Arial" font-size="13px" font-style="normal" font-weight="bold" text-decoration="none" x="1770.9345703125" y="59.5">DATABASE</text></g></g><g transform="translate(10,-6) scale(1,1)"><path fill="none" stroke="#000000" d="M 1805.5 80 L 1805.5 1152" stroke-miterlimit="10" stroke-dasharray="3"/></g><g transform="translate(10,-6) scale(1,1)"><path fill="#000000" stroke="none" d="M 64 1055.5 C 64 1051.6340064 67.1340064 1048.5 71 1048.5 C 74.8659936 1048.5 78 1051.6340064 78 1055.5 C 78 1059.3659936 74.8659936 1062.5 71 1062.5 C 67.1340064 1062.5 64 1059.3659936 64 1055.5 Z"/></g><g transform="translate(10,-6) scale(1,1)"><path fill="#000000" stroke="none" d="M 56 471.5 C 56 467.6340064 59.1340064 464.5 63 464.5 C 66.8659936 464.5 70 467.6340064 70 471.5 C 70 475.3659936 66.8659936 478.5 63 478.5 C 59.1340064 478.5 56 475.3659936 56 471.5 Z"/></g><g transform="translate(10,-6) scale(1,1)"><path fill="none" stroke="#000000" d="M 62 136 L 259 136" stroke-miterlimit="10"/></g><g transform="translate(10,-6) scale(1,1)"><path fill="#000000" stroke="none" d="M 248.83732514237585 140.209517756016 L 259 136 L 248.83732514237585 131.790482243984"/></g><g transform="translate(10,-6) scale(1,1)"><path fill="none" stroke="#000000" d="M 248.83732514237585 140.209517756016 L 259 136 L 248.83732514237585 131.790482243984 L 248.83732514237585 140.209517756016" stroke-miterlimit="10"/></g><g transform="translate(10,-6) scale(1,1)"><g><path fill="none" stroke="none"/><text fill="#000000" stroke="none" font-family="Arial" font-size="13px" font-style="normal" font-weight="normal" text-decoration="none" x="95.5" y="155.5">1 : Add file DataBreach</text></g></g><g transform="translate(10,-6) scale(1,1)"><rect fill="#ffffff" stroke="none" x="259" y="136" width="13" height="264"/></g><g transform="translate(10,-6) scale(1,1)"><path fill="none" stroke="#000000" d="M 259 136 L 272 136 L 272 400 L 259 400 L 259 136 Z Z" stroke-miterlimit="10"/></g><g transform="translate(10,-6) scale(1,1)"><path fill="none" stroke="#000000" d="M 272 152 L 514 152" stroke-miterlimit="10"/></g><g transform="translate(10,-6) scale(1,1)"><path fill="#000000" stroke="none" d="M 503.83732514237585 156.209517756016 L 514 152 L 503.83732514237585 147.790482243984"/></g><g transform="translate(10,-6) scale(1,1)"><path fill="none" stroke="#000000" d="M 503.83732514237585 156.209517756016 L 514 152 L 503.83732514237585 147.790482243984 L 503.83732514237585 156.209517756016" stroke-miterlimit="10"/></g><g transform="translate(10,-6) scale(1,1)"><g><path fill="none" stroke="none"/><text fill="#000000" stroke="none" font-family="Arial" font-size="13px" font-style="normal" font-weight="normal" text-decoration="none" x="350.5" y="148.5">2 : showDialog</text></g></g><g transform="translate(10,-6) scale(1,1)"><rect fill="#ffffff" stroke="none" x="514" y="152" width="13" height="64"/></g><g transform="translate(10,-6) scale(1,1)"><path fill="none" stroke="#000000" d="M 514 152 L 527 152 L 527 216 L 514 216 L 514 152 Z Z" stroke-miterlimit="10"/></g><g transform="translate(10,-6) scale(1,1)"><path fill="none" stroke="#000000" d="M 514 208 L 272 208" stroke-miterlimit="10" stroke-dasharray="3"/></g><g transform="translate(10,-6) scale(1,1)"><path fill="none" stroke="#000000" d="M 282.16267485762415 203.790482243984 L 272 208 L 282.16267485762415 212.209517756016" stroke-miterlimit="10"/></g><g transform="translate(10,-6) scale(1,1)"><g><path fill="none" stroke="none"/><text fill="#000000" stroke="none" font-family="Arial" font-size="13px" font-style="normal" font-weight="normal" text-decoration="none" x="357.42333984375" y="224.5">3 : fileString</text></g></g><g transform="translate(10,-6) scale(1,1)"><path fill="none" stroke="#000000" d="M 272 288 L 608 288" stroke-miterlimit="10" stroke-dasharray="3"/></g><g transform="translate(10,-6) scale(1,1)"><path fill="none" stroke="#000000" d="M 597.8373251423759 292.209517756016 L 608 288 L 597.8373251423758 283.790482243984" stroke-miterlimit="10"/></g><g transform="translate(10,-6) scale(1,1)"><g><path fill="none" stroke="none"/><text fill="#000000" stroke="none" font-family="Arial" font-size="13px" font-style="normal" font-weight="normal" text-decoration="none" x="282.5" y="283.5">4 : new DataBreachReaderFromTextFile</text></g></g><g transform="translate(10,-6) scale(1,1)"><g><path fill="none" stroke="none"/><text fill="#000000" stroke="none" font-family="Arial" font-size="13px" font-style="normal" font-weight="normal" text-decoration="none" x="414.5" y="269.5">«create»</text></g></g><g transform="translate(10,-6) scale(1,1)"><path fill="none" stroke="#000000" d="M 272 361 L 710 361" stroke-miterlimit="10"/></g><g transform="translate(10,-6) scale(1,1)"><path fill="#000000" stroke="none" d="M 699.8373251423759 365.209517756016 L 710 361 L 699.8373251423758 356.790482243984"/></g><g transform="translate(10,-6) scale(1,1)"><path fill="none" stroke="#000000" d="M 699.8373251423759 365.209517756016 L 710 361 L 699.8373251423758 356.790482243984 L 699.8373251423759 365.209517756016" stroke-miterlimit="10"/></g><g transform="translate(10,-6) scale(1,1)"><g><path fill="none" stroke="none"/><text fill="#000000" stroke="none" font-family="Arial" font-size="13px" font-style="normal" font-weight="normal" text-decoration="none" x="286.5" y="356.5">5 : GetDataBreachEntries(txtDataBreach.Text)</text></g></g><g transform="translate(10,-6) scale(1,1)"><rect fill="#ffffff" stroke="none" x="710" y="361" width="13" height="39"/></g><g transform="translate(10,-6) scale(1,1)"><path fill="none" stroke="#000000" d="M 710 361 L 723 361 L 723 400 L 710 400 L 710 361 Z Z" stroke-miterlimit="10"/></g><g transform="translate(10,-6) scale(1,1)"><path fill="none" stroke="#000000" d="M 710 393 L 272 393" stroke-miterlimit="10" stroke-dasharray="3"/></g><g transform="translate(10,-6) scale(1,1)"><path fill="none" stroke="#000000" d="M 282.16267485762415 388.790482243984 L 272 393 L 282.16267485762415 397.209517756016" stroke-miterlimit="10"/></g><g transform="translate(10,-6) scale(1,1)"><g><path fill="none" stroke="none"/><text fill="#000000" stroke="none" font-family="Arial" font-size="13px" font-style="normal" font-weight="normal" text-decoration="none" x="359.5" y="412.5">6 : dataBreachEntries</text></g></g><g transform="translate(10,-6) scale(1,1)"><path fill="none" stroke="#000000" d="M 70 472 L 259 472" stroke-miterlimit="10"/></g><g transform="translate(10,-6) scale(1,1)"><path fill="#000000" stroke="none" d="M 248.83732514237585 476.209517756016 L 259 472 L 248.83732514237585 467.790482243984"/></g><g transform="translate(10,-6) scale(1,1)"><path fill="none" stroke="#000000" d="M 248.83732514237585 476.209517756016 L 259 472 L 248.83732514237585 467.790482243984 L 248.83732514237585 476.209517756016" stroke-miterlimit="10"/></g><g transform="translate(10,-6) scale(1,1)"><g><path fill="none" stroke="none"/><text fill="#000000" stroke="none" font-family="Arial" font-size="13px" font-style="normal" font-weight="normal" text-decoration="none" x="70.5" y="467.5">7 : Add textbox DataBreach</text></g></g><g transform="translate(10,-6) scale(1,1)"><rect fill="#ffffff" stroke="none" x="259" y="472" width="13" height="592"/></g><g transform="translate(10,-6) scale(1,1)"><path fill="none" stroke="#000000" d="M 259 472 L 272 472 L 272 1064 L 259 1064 L 259 472 Z Z" stroke-miterlimit="10"/></g><g transform="translate(10,-6) scale(1,1)"><path fill="none" stroke="#000000" d="M 272 480 L 608 480" stroke-miterlimit="10" stroke-dasharray="3"/></g><g transform="translate(10,-6) scale(1,1)"><path fill="none" stroke="#000000" d="M 597.8373251423759 484.209517756016 L 608 480 L 597.8373251423758 475.790482243984" stroke-miterlimit="10"/></g><g transform="translate(10,-6) scale(1,1)"><g><path fill="none" stroke="none"/><text fill="#000000" stroke="none" font-family="Arial" font-size="13px" font-style="normal" font-weight="normal" text-decoration="none" x="288.529541015625" y="475.5">8 : new DataBreachReaderFromString</text></g></g><g transform="translate(10,-6) scale(1,1)"><g><path fill="none" stroke="none"/><text fill="#000000" stroke="none" font-family="Arial" font-size="13px" font-style="normal" font-weight="normal" text-decoration="none" x="414.5" y="461.5">«create»</text></g></g><g transform="translate(10,-6) scale(1,1)"><path fill="none" stroke="#000000" d="M 272 565 L 709 565" stroke-miterlimit="10"/></g><g transform="translate(10,-6) scale(1,1)"><path fill="#000000" stroke="none" d="M 698.8373251423759 569.209517756016 L 709 565 L 698.8373251423758 560.790482243984"/></g><g transform="translate(10,-6) scale(1,1)"><path fill="none" stroke="#000000" d="M 698.8373251423759 569.209517756016 L 709 565 L 698.8373251423758 560.790482243984 L 698.8373251423759 569.209517756016" stroke-miterlimit="10"/></g><g transform="translate(10,-6) scale(1,1)"><g><path fill="none" stroke="none"/><text fill="#000000" stroke="none" font-family="Arial" font-size="13px" font-style="normal" font-weight="normal" text-decoration="none" x="283.114990234375" y="563.5">9 : GetDataBreachEntries(txtDataBreach.Text)</text></g></g><g transform="translate(10,-6) scale(1,1)"><rect fill="#ffffff" stroke="none" x="709" y="565" width="13" height="43"/></g><g transform="translate(10,-6) scale(1,1)"><path fill="none" stroke="#000000" d="M 709 565 L 722 565 L 722 608 L 709 608 L 709 565 Z Z" stroke-miterlimit="10"/></g><g transform="translate(10,-6) scale(1,1)"><path fill="none" stroke="#000000" d="M 709 605 L 272 605" stroke-miterlimit="10" stroke-dasharray="3"/></g><g transform="translate(10,-6) scale(1,1)"><path fill="none" stroke="#000000" d="M 282.16267485762415 600.790482243984 L 272 605 L 282.16267485762415 609.209517756016" stroke-miterlimit="10"/></g><g transform="translate(10,-6) scale(1,1)"><g><path fill="none" stroke="none"/><text fill="#000000" stroke="none" font-family="Arial" font-size="13px" font-style="normal" font-weight="normal" text-decoration="none" x="358.5" y="621.5">10 : dataBreachEntries</text></g></g><g transform="translate(10,-6) scale(1,1)"><path fill="none" stroke="#000000" d="M 272 680 L 856 680" stroke-miterlimit="10" stroke-dasharray="3"/></g><g transform="translate(10,-6) scale(1,1)"><path fill="none" stroke="#000000" d="M 845.8373251423759 684.209517756016 L 856 680 L 845.8373251423758 675.790482243984" stroke-miterlimit="10"/></g><g transform="translate(10,-6) scale(1,1)"><g><path fill="none" stroke="none"/><text fill="#000000" stroke="none" font-family="Arial" font-size="13px" font-style="normal" font-weight="normal" text-decoration="none" x="334.982421875" y="676.5">11 : new DataBreachReport(dataBreachEntries, _mySessionController.CurrentUser)</text></g></g><g transform="translate(10,-6) scale(1,1)"><g><path fill="none" stroke="none"/><text fill="#000000" stroke="none" font-family="Arial" font-size="13px" font-style="normal" font-weight="normal" text-decoration="none" x="538.5" y="661.5">«create»</text></g></g><g transform="translate(10,-6) scale(1,1)"><path fill="none" stroke="#000000" d="M 272 776 L 1035 776" stroke-miterlimit="10"/></g><g transform="translate(10,-6) scale(1,1)"><path fill="#000000" stroke="none" d="M 1024.837325142376 780.209517756016 L 1035 776 L 1024.837325142376 771.790482243984"/></g><g transform="translate(10,-6) scale(1,1)"><path fill="none" stroke="#000000" d="M 1024.837325142376 780.209517756016 L 1035 776 L 1024.837325142376 771.790482243984 L 1024.837325142376 780.209517756016" stroke-miterlimit="10"/></g><g transform="translate(10,-6) scale(1,1)"><g><path fill="none" stroke="none"/><text fill="#000000" stroke="none" font-family="Arial" font-size="13px" font-style="normal" font-weight="normal" text-decoration="none" x="349.008544921875" y="771.5">12 : SaveBreachedItems(dataBreachReport)</text></g></g><g transform="translate(10,-6) scale(1,1)"><rect fill="#ffffff" stroke="none" x="1035" y="776" width="13" height="264"/></g><g transform="translate(10,-6) scale(1,1)"><path fill="none" stroke="#000000" d="M 1035 776 L 1048 776 L 1048 1040 L 1035 1040 L 1035 776 Z Z" stroke-miterlimit="10"/></g><g transform="translate(10,-6) scale(1,1)"><path fill="none" stroke="#000000" d="M 1048 792 L 1328 792" stroke-miterlimit="10"/></g><g transform="translate(10,-6) scale(1,1)"><path fill="#000000" stroke="none" d="M 1317.837325142376 796.209517756016 L 1328 792 L 1317.837325142376 787.790482243984"/></g><g transform="translate(10,-6) scale(1,1)"><path fill="none" stroke="#000000" d="M 1317.837325142376 796.209517756016 L 1328 792 L 1317.837325142376 787.790482243984 L 1317.837325142376 796.209517756016" stroke-miterlimit="10"/></g><g transform="translate(10,-6) scale(1,1)"><g><path fill="none" stroke="none"/><text fill="#000000" stroke="none" font-family="Arial" font-size="13px" font-style="normal" font-weight="normal" text-decoration="none" x="1051.5" y="787.5">13 : AddDataBreachReport(dataBreachReport)</text></g></g><g transform="translate(10,-6) scale(1,1)"><rect fill="#ffffff" stroke="none" x="1328" y="792" width="13" height="224"/></g><g transform="translate(10,-6) scale(1,1)"><path fill="none" stroke="#000000" d="M 1328 792 L 1341 792 L 1341 1016 L 1328 1016 L 1328 792 Z Z" stroke-miterlimit="10"/></g><g transform="translate(10,-6) scale(1,1)"><path fill="none" stroke="#000000" d="M 1341 800 L 1798 800" stroke-miterlimit="10"/></g><g transform="translate(10,-6) scale(1,1)"><path fill="#000000" stroke="none" d="M 1787.837325142376 804.209517756016 L 1798 800 L 1787.837325142376 795.790482243984"/></g><g transform="translate(10,-6) scale(1,1)"><path fill="none" stroke="#000000" d="M 1787.837325142376 804.209517756016 L 1798 800 L 1787.837325142376 795.790482243984 L 1787.837325142376 804.209517756016" stroke-miterlimit="10"/></g><g transform="translate(10,-6) scale(1,1)"><g><path fill="none" stroke="none"/><text fill="#000000" stroke="none" font-family="Arial" font-size="13px" font-style="normal" font-weight="normal" text-decoration="none" x="1462.5" y="796.5">14 : Get passwords from currentUser</text></g></g><g transform="translate(10,-6) scale(1,1)"><rect fill="#ffffff" stroke="none" x="1798" y="800" width="13" height="28"/></g><g transform="translate(10,-6) scale(1,1)"><path fill="none" stroke="#000000" d="M 1798 800 L 1811 800 L 1811 828 L 1798 828 L 1798 800 Z Z" stroke-miterlimit="10"/></g><g transform="translate(10,-6) scale(1,1)"><path fill="none" stroke="#000000" d="M 1798 824 L 1341 824" stroke-miterlimit="10" stroke-dasharray="3"/></g><g transform="translate(10,-6) scale(1,1)"><path fill="none" stroke="#000000" d="M 1351.162674857624 819.790482243984 L 1341 824 L 1351.162674857624 828.209517756016" stroke-miterlimit="10"/></g><g transform="translate(10,-6) scale(1,1)"><g><path fill="none" stroke="none"/><text fill="#000000" stroke="none" font-family="Arial" font-size="13px" font-style="normal" font-weight="normal" text-decoration="none" x="1525.5" y="820.5">15 : passwords</text></g></g><g transform="translate(10,-6) scale(1,1)"><path fill="none" stroke="#000000" d="M 1341 848 L 1798 848" stroke-miterlimit="10"/></g><g transform="translate(10,-6) scale(1,1)"><path fill="#000000" stroke="none" d="M 1787.837325142376 852.209517756016 L 1798 848 L 1787.837325142376 843.790482243984"/></g><g transform="translate(10,-6) scale(1,1)"><path fill="none" stroke="#000000" d="M 1787.837325142376 852.209517756016 L 1798 848 L 1787.837325142376 843.790482243984 L 1787.837325142376 852.209517756016" stroke-miterlimit="10"/></g><g transform="translate(10,-6) scale(1,1)"><g><path fill="none" stroke="none"/><text fill="#000000" stroke="none" font-family="Arial" font-size="13px" font-style="normal" font-weight="normal" text-decoration="none" x="1461.5" y="843.5">16 : Get credit card from currentUser</text></g></g><g transform="translate(10,-6) scale(1,1)"><rect fill="#ffffff" stroke="none" x="1798" y="848" width="13" height="28"/></g><g transform="translate(10,-6) scale(1,1)"><path fill="none" stroke="#000000" d="M 1798 848 L 1811 848 L 1811 876 L 1798 876 L 1798 848 Z Z" stroke-miterlimit="10"/></g><g transform="translate(10,-6) scale(1,1)"><path fill="none" stroke="#000000" d="M 1798 872 L 1341 872" stroke-miterlimit="10" stroke-dasharray="3"/></g><g transform="translate(10,-6) scale(1,1)"><path fill="none" stroke="#000000" d="M 1351.162674857624 867.790482243984 L 1341 872 L 1351.162674857624 876.209517756016" stroke-miterlimit="10"/></g><g transform="translate(10,-6) scale(1,1)"><g><path fill="none" stroke="none"/><text fill="#000000" stroke="none" font-family="Arial" font-size="13px" font-style="normal" font-weight="normal" text-decoration="none" x="1539.5" y="867.5">17 : cards</text></g></g><g transform="translate(10,-6) scale(1,1)"><path fill="none" stroke="#000000" d="M 1341 912 L 1371 912 L 1371 932 L 1348 932" stroke-miterlimit="10"/></g><g transform="translate(10,-6) scale(1,1)"><path fill="#000000" stroke="none" d="M 1358.162674857624 927.790482243984 L 1348 932 L 1358.162674857624 936.209517756016"/></g><g transform="translate(10,-6) scale(1,1)"><path fill="none" stroke="#000000" d="M 1358.162674857624 927.790482243984 L 1348 932 L 1358.162674857624 936.209517756016 L 1358.162674857624 927.790482243984" stroke-miterlimit="10"/></g><g transform="translate(10,-6) scale(1,1)"><g><path fill="none" stroke="none"/><text fill="#000000" stroke="none" font-family="Arial" font-size="13px" font-style="normal" font-weight="normal" text-decoration="none" x="1346.5" y="908.5">18 : SynchronizeLocalAndDBUsersDecryptionKey(originalUser, pass.User)</text></g></g><g transform="translate(10,-6) scale(1,1)"><rect fill="#ffffff" stroke="none" x="1335" y="932" width="13" height="28"/></g><g transform="translate(10,-6) scale(1,1)"><path fill="none" stroke="#000000" d="M 1335 932 L 1348 932 L 1348 960 L 1335 960 L 1335 932 Z Z" stroke-miterlimit="10"/></g><g transform="translate(10,-6) scale(1,1)"><path fill="none" stroke="#000000" d="M 1341 992 L 1798 992" stroke-miterlimit="10"/></g><g transform="translate(10,-6) scale(1,1)"><path fill="none" stroke="#000000" d="M 1787.837325142376 996.209517756016 L 1798 992 L 1787.837325142376 987.790482243984" stroke-miterlimit="10"/></g><g transform="translate(10,-6) scale(1,1)"><g><path fill="none" stroke="none"/><text fill="#000000" stroke="none" font-family="Arial" font-size="13px" font-style="normal" font-weight="normal" text-decoration="none" x="1468.5" y="988.5">19 : Add breach report to database</text></g></g><g transform="translate(10,-6) scale(1,1)"><rect fill="#ffffff" stroke="none" x="1798" y="992" width="13" height="80"/></g><g transform="translate(10,-6) scale(1,1)"><path fill="none" stroke="#000000" d="M 1798 992 L 1811 992 L 1811 1072 L 1798 1072 L 1798 992 Z Z" stroke-miterlimit="10"/></g><g transform="translate(10,-6) scale(1,1)"><path fill="none" stroke="#000000" d="M 1328 1008 L 1048 1008" stroke-miterlimit="10" stroke-dasharray="3"/></g><g transform="translate(10,-6) scale(1,1)"><path fill="none" stroke="#000000" d="M 1058.162674857624 1003.790482243984 L 1048 1008 L 1058.162674857624 1012.209517756016" stroke-miterlimit="10"/></g><g transform="translate(10,-6) scale(1,1)"><g><path fill="none" stroke="none"/><text fill="#000000" stroke="none" font-family="Arial" font-size="13px" font-style="normal" font-weight="normal" text-decoration="none" x="1131.5" y="1024.5">20 : breachedItems</text></g></g><g transform="translate(10,-6) scale(1,1)"><path fill="none" stroke="#000000" d="M 1035 1032 L 272 1032" stroke-miterlimit="10" stroke-dasharray="3"/></g><g transform="translate(10,-6) scale(1,1)"><path fill="none" stroke="#000000" d="M 282.16267485762415 1027.7904822439841 L 272 1032 L 282.16267485762415 1036.2095177560159" stroke-miterlimit="10"/></g><g transform="translate(10,-6) scale(1,1)"><g><path fill="none" stroke="none"/><text fill="#000000" stroke="none" font-family="Arial" font-size="13px" font-style="normal" font-weight="normal" text-decoration="none" x="353.5" y="1052.5">21 : breachedItems</text></g></g><g transform="translate(10,-6) scale(1,1)"><path fill="none" stroke="#000000" d="M 259 1056 L 78 1056" stroke-miterlimit="10" stroke-dasharray="3"/></g><g transform="translate(10,-6) scale(1,1)"><path fill="none" stroke="#000000" d="M 88.16267485762415 1051.7904822439841 L 78 1056 L 88.16267485762415 1060.2095177560159" stroke-miterlimit="10"/></g><g transform="translate(10,-6) scale(1,1)"><g><path fill="none" stroke="none"/><text fill="#000000" stroke="none" font-family="Arial" font-size="13px" font-style="normal" font-weight="normal" text-decoration="none" x="120.5" y="1072.5">22 : Show result</text></g></g><g transform="translate(10,-6) scale(1,1)"><path fill="none" stroke="#000000" d="M 40 80 L 840 80 L 840 640 L 40 640 L 40 80" stroke-miterlimit="10"/></g><g transform="translate(10,-6) scale(1,1)"><path fill="#ffffff" stroke="none" d="M 40 80 L 40 102 L 90.68994140625 102 L 101.68994140625 91 L 101.68994140625 80 L 40 80"/></g><g transform="translate(10,-6) scale(1,1)"><path fill="none" stroke="#000000" d="M 40 80 L 40 102 L 90.68994140625 102 L 101.68994140625 91 L 101.68994140625 80 L 40 80 L 40 80" stroke-miterlimit="10"/></g><g transform="translate(10,-6) scale(1,1)"><g><path fill="none" stroke="none"/><text fill="#000000" stroke="none" font-family="Arial" font-size="13px" font-style="normal" font-weight="normal" text-decoration="none" x="71.9599609375" y="97.5">alt</text></g></g><g transform="translate(10,-6) scale(1,1)"><g><path fill="none" stroke="none"/><text fill="#000000" stroke="none" font-family="Arial" font-size="13px" font-style="normal" font-weight="bold" text-decoration="none" x="45" y="97.5">seq</text></g></g><g transform="translate(10,-6) scale(1,1)"><g><path fill="none" stroke="none"/><text fill="#000000" stroke="none" font-family="Arial" font-size="13px" font-style="normal" font-weight="normal" text-decoration="none" x="59.5" y="130.5">[From file]</text></g></g><g transform="translate(10,-6) scale(1,1)"><path fill="none" stroke="#000000" d="M 40 417 L 840 417" stroke-miterlimit="10" stroke-dasharray="10,3"/></g><g transform="translate(10,-6) scale(1,1)"><g><path fill="none" stroke="none"/><text fill="#000000" stroke="none" font-family="Arial" font-size="13px" font-style="normal" font-weight="normal" text-decoration="none" x="59.5" y="444.5">[From textBox]</text></g></g><g transform="translate(10,-6) scale(1,1)"><path fill="none" stroke="#000000" d="M 1136 888 L 1784 888 L 1784 968 L 1136 968 L 1136 888" stroke-miterlimit="10"/></g><g transform="translate(10,-6) scale(1,1)"><path fill="#ffffff" stroke="none" d="M 1136 888 L 1136 910 L 1197.5380859375 910 L 1208.5380859375 899 L 1208.5380859375 888 L 1136 888"/></g><g transform="translate(10,-6) scale(1,1)"><path fill="none" stroke="#000000" d="M 1136 888 L 1136 910 L 1197.5380859375 910 L 1208.5380859375 899 L 1208.5380859375 888 L 1136 888 L 1136 888" stroke-miterlimit="10"/></g><g transform="translate(10,-6) scale(1,1)"><g><path fill="none" stroke="none"/><text fill="#000000" stroke="none" font-family="Arial" font-size="13px" font-style="normal" font-weight="normal" text-decoration="none" x="1167.9599609375" y="905.5">loop</text></g></g><g transform="translate(10,-6) scale(1,1)"><g><path fill="none" stroke="none"/><text fill="#000000" stroke="none" font-family="Arial" font-size="13px" font-style="normal" font-weight="bold" text-decoration="none" x="1141" y="905.5">seq</text></g></g><g transform="translate(10,-6) scale(1,1)"><g><path fill="none" stroke="none"/><text fill="#000000" stroke="none" font-family="Arial" font-size="13px" font-style="normal" font-weight="normal" text-decoration="none" x="1155.5" y="938.5">[foreach databreach entry]</text></g></g></g></svg>