<svg version="1.1" xmlns="http://www.w3.org/2000/svg" xmlns:xlink="http://www.w3.org/1999/xlink" width="2868" height="1388"><defs/><g><g transform="translate(-22,-14) scale(1,1)"><path fill="none" stroke="#000000" d="M 32 24 L 2880 24 L 2880 1392 L 32 1392 L 32 24" stroke-miterlimit="10"/></g><g transform="translate(-22,-14) scale(1,1)"><path fill="#ffffff" stroke="none" d="M 32 24 L 32 46 L 176.63525390625 46 L 187.63525390625 35 L 187.63525390625 24 L 32 24"/></g><g transform="translate(-22,-14) scale(1,1)"><path fill="none" stroke="#000000" d="M 32 24 L 32 46 L 176.63525390625 46 L 187.63525390625 35 L 187.63525390625 24 L 32 24 L 32 24" stroke-miterlimit="10"/></g><g transform="translate(-22,-14) scale(1,1)"><g><path fill="none" stroke="none"/><text fill="#000000" stroke="none" font-family="Arial" font-size="13px" font-style="normal" font-weight="normal" text-decoration="none" x="56.72998046875" y="41.5">SequenceDiagram1</text></g></g><g transform="translate(-22,-14) scale(1,1)"><g><path fill="none" stroke="none"/><text fill="#000000" stroke="none" font-family="Arial" font-size="13px" font-style="normal" font-weight="bold" text-decoration="none" x="37" y="41.5">sd</text></g></g><g transform="translate(-22,-14) scale(1,1)"><rect fill="#C0C0C0" stroke="none" x="191" y="47" width="162.76171875" height="39" opacity="0.2"/></g><g transform="translate(-22,-14) scale(1,1)"><rect fill="#ffffff" stroke="none" x="184" y="40" width="162.76171875" height="39"/></g><g transform="translate(-22,-14) scale(1,1)"><path fill="none" stroke="#000000" d="M 184 40 L 346.76171875 40 L 346.76171875 79 L 184 79 L 184 40 Z Z" stroke-miterlimit="10"/></g><g transform="translate(-22,-14) scale(1,1)"><g><path fill="none" stroke="none"/><text fill="#000000" stroke="none" font-family="Arial" font-size="13px" font-style="normal" font-weight="normal" text-decoration="none" x="235.03271484375" y="57.5">«Window»</text></g></g><g transform="translate(-22,-14) scale(1,1)"><g><path fill="none" stroke="none"/><text fill="#000000" stroke="none" font-family="Arial" font-size="13px" font-style="normal" font-weight="bold" text-decoration="none" x="218.7763671875" y="72.5">createPassword</text></g></g><g transform="translate(-22,-14) scale(1,1)"><path fill="none" stroke="#000000" d="M 266.5 80 L 266.5 1384" stroke-miterlimit="10" stroke-dasharray="3"/></g><g transform="translate(-22,-14) scale(1,1)"><rect fill="#C0C0C0" stroke="none" x="535" y="139" width="198.1435546875" height="39" opacity="0.2"/></g><g transform="translate(-22,-14) scale(1,1)"><rect fill="#ffffff" stroke="none" x="528" y="132" width="198.1435546875" height="39"/></g><g transform="translate(-22,-14) scale(1,1)"><path fill="none" stroke="#000000" d="M 528 132 L 726.1435546875 132 L 726.1435546875 171 L 528 171 L 528 132 Z Z" stroke-miterlimit="10"/></g><g transform="translate(-22,-14) scale(1,1)"><g><path fill="none" stroke="none"/><text fill="#000000" stroke="none" font-family="Arial" font-size="13px" font-style="normal" font-weight="bold" text-decoration="none" x="590.575927734375" y="151.5">usedOptions</text></g></g><g transform="translate(-22,-14) scale(1,1)"><path fill="none" stroke="#000000" d="M 628.5 172 L 628.5 1384" stroke-miterlimit="10" stroke-dasharray="3"/></g><g transform="translate(-22,-14) scale(1,1)"><path fill="#000000" stroke="none" d="M 48 135.5 C 48 131.6340064 51.1340064 128.5 55 128.5 C 58.8659936 128.5 62 131.6340064 62 135.5 C 62 139.3659936 58.8659936 142.5 55 142.5 C 51.1340064 142.5 48 139.3659936 48 135.5 Z"/></g><g transform="translate(-22,-14) scale(1,1)"><rect fill="#C0C0C0" stroke="none" x="743" y="47" width="216" height="39" opacity="0.2"/></g><g transform="translate(-22,-14) scale(1,1)"><rect fill="#ffffff" stroke="none" x="736" y="40" width="216" height="39"/></g><g transform="translate(-22,-14) scale(1,1)"><path fill="none" stroke="#000000" d="M 736 40 L 952 40 L 952 79 L 736 79 L 736 40 Z Z" stroke-miterlimit="10"/></g><g transform="translate(-22,-14) scale(1,1)"><g><path fill="none" stroke="none"/><text fill="#000000" stroke="none" font-family="Arial" font-size="13px" font-style="normal" font-weight="normal" text-decoration="none" x="821.9609375" y="57.5">«class»</text></g></g><g transform="translate(-22,-14) scale(1,1)"><g><path fill="none" stroke="none"/><text fill="#000000" stroke="none" font-family="Arial" font-size="13px" font-style="normal" font-weight="bold" text-decoration="none" x="783.300537109375" y="72.5">PasswordGeneration</text></g></g><g transform="translate(-22,-14) scale(1,1)"><path fill="none" stroke="#000000" d="M 845.5 80 L 845.5 1384" stroke-miterlimit="10" stroke-dasharray="3"/></g><g transform="translate(-22,-14) scale(1,1)"><rect fill="#C0C0C0" stroke="none" x="927" y="355" width="133.16259765625" height="39" opacity="0.2"/></g><g transform="translate(-22,-14) scale(1,1)"><rect fill="#ffffff" stroke="none" x="920" y="348" width="133.16259765625" height="39"/></g><g transform="translate(-22,-14) scale(1,1)"><path fill="none" stroke="#000000" d="M 920 348 L 1053.16259765625 348 L 1053.16259765625 387 L 920 387 L 920 348 Z Z" stroke-miterlimit="10"/></g><g transform="translate(-22,-14) scale(1,1)"><g><path fill="none" stroke="none"/><text fill="#000000" stroke="none" font-family="Arial" font-size="13px" font-style="normal" font-weight="bold" text-decoration="none" x="932.759521484375" y="367.5">_myNewPassword</text></g></g><g transform="translate(-22,-14) scale(1,1)"><path fill="none" stroke="#000000" d="M 987.5 388 L 987.5 1384" stroke-miterlimit="10" stroke-dasharray="3"/></g><g transform="translate(-22,-14) scale(1,1)"><rect fill="#C0C0C0" stroke="none" x="1039" y="47" width="168.54443359375" height="39" opacity="0.2"/></g><g transform="translate(-22,-14) scale(1,1)"><rect fill="#ffffff" stroke="none" x="1032" y="40" width="168.54443359375" height="39"/></g><g transform="translate(-22,-14) scale(1,1)"><path fill="none" stroke="#000000" d="M 1032 40 L 1200.54443359375 40 L 1200.54443359375 79 L 1032 79 L 1032 40 Z Z" stroke-miterlimit="10"/></g><g transform="translate(-22,-14) scale(1,1)"><g><path fill="none" stroke="none"/><text fill="#000000" stroke="none" font-family="Arial" font-size="13px" font-style="normal" font-weight="bold" text-decoration="none" x="1047.2763671875" y="59.5">_myPasswordController</text></g></g><g transform="translate(-22,-14) scale(1,1)"><path fill="none" stroke="#000000" d="M 1117.5 80 L 1117.5 1384" stroke-miterlimit="10" stroke-dasharray="3"/></g><g transform="translate(-22,-14) scale(1,1)"><rect fill="#C0C0C0" stroke="none" x="2023" y="47" width="240.8251953125" height="39" opacity="0.2"/></g><g transform="translate(-22,-14) scale(1,1)"><rect fill="#ffffff" stroke="none" x="2016" y="40" width="240.8251953125" height="39"/></g><g transform="translate(-22,-14) scale(1,1)"><path fill="none" stroke="#000000" d="M 2016 40 L 2256.8251953125 40 L 2256.8251953125 79 L 2016 79 L 2016 40 Z Z" stroke-miterlimit="10"/></g><g transform="translate(-22,-14) scale(1,1)"><g><path fill="none" stroke="none"/><text fill="#000000" stroke="none" font-family="Arial" font-size="13px" font-style="normal" font-weight="bold" text-decoration="none" x="2033.091796875" y="59.5">_passwords: IDataAccessPassword</text></g></g><g transform="translate(-22,-14) scale(1,1)"><path fill="none" stroke="#000000" d="M 2137.5 80 L 2137.5 1384" stroke-miterlimit="10" stroke-dasharray="3"/></g><g transform="translate(-22,-14) scale(1,1)"><rect fill="#C0C0C0" stroke="none" x="2791" y="47" width="89.2939453125" height="39" opacity="0.2"/></g><g transform="translate(-22,-14) scale(1,1)"><rect fill="#ffffff" stroke="none" x="2784" y="40" width="89.2939453125" height="39"/></g><g transform="translate(-22,-14) scale(1,1)"><path fill="none" stroke="#000000" d="M 2784 40 L 2873.2939453125 40 L 2873.2939453125 79 L 2784 79 L 2784 40 Z Z" stroke-miterlimit="10"/></g><g transform="translate(-22,-14) scale(1,1)"><g><path fill="none" stroke="none"/><text fill="#000000" stroke="none" font-family="Arial" font-size="13px" font-style="normal" font-weight="bold" text-decoration="none" x="2794.9345703125" y="59.5">DATABASE</text></g></g><g transform="translate(-22,-14) scale(1,1)"><path fill="none" stroke="#000000" d="M 2829.5 80 L 2829.5 1384" stroke-miterlimit="10" stroke-dasharray="3"/></g><g transform="translate(-22,-14) scale(1,1)"><path fill="#000000" stroke="none" d="M 56 319.5 C 56 315.6340064 59.1340064 312.5 63 312.5 C 66.8659936 312.5 70 315.6340064 70 319.5 C 70 323.3659936 66.8659936 326.5 63 326.5 C 59.1340064 326.5 56 323.3659936 56 319.5 Z"/></g><g transform="translate(-22,-14) scale(1,1)"><rect fill="#C0C0C0" stroke="none" x="1879" y="47" width="136.75537109375" height="39" opacity="0.2"/></g><g transform="translate(-22,-14) scale(1,1)"><rect fill="#ffffff" stroke="none" x="1872" y="40" width="136.75537109375" height="39"/></g><g transform="translate(-22,-14) scale(1,1)"><path fill="none" stroke="#000000" d="M 1872 40 L 2008.75537109375 40 L 2008.75537109375 79 L 1872 79 L 1872 40 Z Z" stroke-miterlimit="10"/></g><g transform="translate(-22,-14) scale(1,1)"><g><path fill="none" stroke="none"/><text fill="#000000" stroke="none" font-family="Arial" font-size="13px" font-style="normal" font-weight="bold" text-decoration="none" x="1886.54638671875" y="59.5">_sessionController</text></g></g><g transform="translate(-22,-14) scale(1,1)"><path fill="none" stroke="#000000" d="M 1941.5 80 L 1941.5 1384" stroke-miterlimit="10" stroke-dasharray="3"/></g><g transform="translate(-22,-14) scale(1,1)"><rect fill="#C0C0C0" stroke="none" x="1455" y="47" width="237.18798828125" height="39" opacity="0.2"/></g><g transform="translate(-22,-14) scale(1,1)"><rect fill="#ffffff" stroke="none" x="1448" y="40" width="237.18798828125" height="39"/></g><g transform="translate(-22,-14) scale(1,1)"><path fill="none" stroke="#000000" d="M 1448 40 L 1685.18798828125 40 L 1685.18798828125 79 L 1448 79 L 1448 40 Z Z" stroke-miterlimit="10"/></g><g transform="translate(-22,-14) scale(1,1)"><g><path fill="none" stroke="none"/><text fill="#000000" stroke="none" font-family="Arial" font-size="13px" font-style="normal" font-weight="bold" text-decoration="none" x="1509.871337890625" y="59.5">_categoryController</text></g></g><g transform="translate(-22,-14) scale(1,1)"><path fill="none" stroke="#000000" d="M 1567.5 80 L 1567.5 1384" stroke-miterlimit="10" stroke-dasharray="3"/></g><g transform="translate(-22,-14) scale(1,1)"><rect fill="#C0C0C0" stroke="none" x="2271" y="47" width="232.8779296875" height="39" opacity="0.2"/></g><g transform="translate(-22,-14) scale(1,1)"><rect fill="#ffffff" stroke="none" x="2264" y="40" width="232.8779296875" height="39"/></g><g transform="translate(-22,-14) scale(1,1)"><path fill="none" stroke="#000000" d="M 2264 40 L 2496.8779296875 40 L 2496.8779296875 79 L 2264 79 L 2264 40 Z Z" stroke-miterlimit="10"/></g><g transform="translate(-22,-14) scale(1,1)"><g><path fill="none" stroke="none"/><text fill="#000000" stroke="none" font-family="Arial" font-size="13px" font-style="normal" font-weight="bold" text-decoration="none" x="2280.36181640625" y="59.5">_categories: IDataAccessCategory</text></g></g><g transform="translate(-22,-14) scale(1,1)"><path fill="none" stroke="#000000" d="M 2381.5 80 L 2381.5 1384" stroke-miterlimit="10" stroke-dasharray="3"/></g><g transform="translate(-22,-14) scale(1,1)"><rect fill="#C0C0C0" stroke="none" x="1703" y="47" width="159.14990234375" height="39" opacity="0.2"/></g><g transform="translate(-22,-14) scale(1,1)"><rect fill="#ffffff" stroke="none" x="1696" y="40" width="159.14990234375" height="39"/></g><g transform="translate(-22,-14) scale(1,1)"><path fill="none" stroke="#000000" d="M 1696 40 L 1855.14990234375 40 L 1855.14990234375 79 L 1696 79 L 1696 40 Z Z" stroke-miterlimit="10"/></g><g transform="translate(-22,-14) scale(1,1)"><g><path fill="none" stroke="none"/><text fill="#000000" stroke="none" font-family="Arial" font-size="13px" font-style="normal" font-weight="bold" text-decoration="none" x="1710.536865234375" y="59.5">_dataBreachController</text></g></g><g transform="translate(-22,-14) scale(1,1)"><path fill="none" stroke="#000000" d="M 1776.5 80 L 1776.5 1384" stroke-miterlimit="10" stroke-dasharray="3"/></g><g transform="translate(-22,-14) scale(1,1)"><rect fill="#C0C0C0" stroke="none" x="2511" y="47" width="270.46875" height="39" opacity="0.2"/></g><g transform="translate(-22,-14) scale(1,1)"><rect fill="#ffffff" stroke="none" x="2504" y="40" width="270.46875" height="39"/></g><g transform="translate(-22,-14) scale(1,1)"><path fill="none" stroke="#000000" d="M 2504 40 L 2774.46875 40 L 2774.46875 79 L 2504 79 L 2504 40 Z Z" stroke-miterlimit="10"/></g><g transform="translate(-22,-14) scale(1,1)"><g><path fill="none" stroke="none"/><text fill="#000000" stroke="none" font-family="Arial" font-size="13px" font-style="normal" font-weight="bold" text-decoration="none" x="2520.00634765625" y="59.5">_DataBreaches; IDataAccessDataBreach</text></g></g><g transform="translate(-22,-14) scale(1,1)"><path fill="none" stroke="#000000" d="M 2640.5 80 L 2640.5 1384" stroke-miterlimit="10" stroke-dasharray="3"/></g><g transform="translate(-22,-14) scale(1,1)"><rect fill="#C0C0C0" stroke="none" x="1215" y="47" width="236.4326171875" height="39" opacity="0.2"/></g><g transform="translate(-22,-14) scale(1,1)"><rect fill="#ffffff" stroke="none" x="1208" y="40" width="236.4326171875" height="39"/></g><g transform="translate(-22,-14) scale(1,1)"><path fill="none" stroke="#000000" d="M 1208 40 L 1444.4326171875 40 L 1444.4326171875 79 L 1208 79 L 1208 40 Z Z" stroke-miterlimit="10"/></g><g transform="translate(-22,-14) scale(1,1)"><g><path fill="none" stroke="none"/><text fill="#000000" stroke="none" font-family="Arial" font-size="13px" font-style="normal" font-weight="bold" text-decoration="none" x="1225.793212890625" y="59.5">_myPassworColorReportController</text></g></g><g transform="translate(-22,-14) scale(1,1)"><path fill="none" stroke="#000000" d="M 1327.5 80 L 1327.5 1384" stroke-miterlimit="10" stroke-dasharray="3"/></g><g transform="translate(-22,-14) scale(1,1)"><path fill="none" stroke="#000000" d="M 62 136 L 259 136" stroke-miterlimit="10"/></g><g transform="translate(-22,-14) scale(1,1)"><path fill="#000000" stroke="none" d="M 248.83732514237585 140.209517756016 L 259 136 L 248.83732514237585 131.790482243984"/></g><g transform="translate(-22,-14) scale(1,1)"><path fill="none" stroke="#000000" d="M 248.83732514237585 140.209517756016 L 259 136 L 248.83732514237585 131.790482243984 L 248.83732514237585 140.209517756016" stroke-miterlimit="10"/></g><g transform="translate(-22,-14) scale(1,1)"><g><path fill="none" stroke="none"/><text fill="#000000" stroke="none" font-family="Arial" font-size="13px" font-style="normal" font-weight="normal" text-decoration="none" x="72.5" y="155.5">1 : Generate random password</text></g></g><g transform="translate(-22,-14) scale(1,1)"><rect fill="#ffffff" stroke="none" x="259" y="136" width="13" height="160"/></g><g transform="translate(-22,-14) scale(1,1)"><path fill="none" stroke="#000000" d="M 259 136 L 272 136 L 272 296 L 259 296 L 259 136 Z Z" stroke-miterlimit="10"/></g><g transform="translate(-22,-14) scale(1,1)"><path fill="none" stroke="#000000" d="M 272 152 L 528 152" stroke-miterlimit="10" stroke-dasharray="3"/></g><g transform="translate(-22,-14) scale(1,1)"><path fill="none" stroke="#000000" d="M 517.8373251423759 156.209517756016 L 528 152 L 517.8373251423758 147.790482243984" stroke-miterlimit="10"/></g><g transform="translate(-22,-14) scale(1,1)"><g><path fill="none" stroke="none"/><text fill="#000000" stroke="none" font-family="Arial" font-size="13px" font-style="normal" font-weight="normal" text-decoration="none" x="294.5" y="148.5">2 : new PasswordGenerationOptions</text></g></g><g transform="translate(-22,-14) scale(1,1)"><g><path fill="none" stroke="none"/><text fill="#000000" stroke="none" font-family="Arial" font-size="13px" font-style="normal" font-weight="normal" text-decoration="none" x="374.5" y="133.5">«create»</text></g></g><g transform="translate(-22,-14) scale(1,1)"><path fill="none" stroke="#000000" d="M 272 224 L 838 224" stroke-miterlimit="10"/></g><g transform="translate(-22,-14) scale(1,1)"><path fill="#000000" stroke="none" d="M 827.8373251423759 228.209517756016 L 838 224 L 827.8373251423758 219.790482243984"/></g><g transform="translate(-22,-14) scale(1,1)"><path fill="none" stroke="#000000" d="M 827.8373251423759 228.209517756016 L 838 224 L 827.8373251423758 219.790482243984 L 827.8373251423759 228.209517756016" stroke-miterlimit="10"/></g><g transform="translate(-22,-14) scale(1,1)"><g><path fill="none" stroke="none"/><text fill="#000000" stroke="none" font-family="Arial" font-size="13px" font-style="normal" font-weight="normal" text-decoration="none" x="318.5" y="219.5">3 : GenerateRandomPassword(usedOptions)</text></g></g><g transform="translate(-22,-14) scale(1,1)"><rect fill="#ffffff" stroke="none" x="838" y="224" width="13" height="48"/></g><g transform="translate(-22,-14) scale(1,1)"><path fill="none" stroke="#000000" d="M 838 224 L 851 224 L 851 272 L 838 272 L 838 224 Z Z" stroke-miterlimit="10"/></g><g transform="translate(-22,-14) scale(1,1)"><path fill="none" stroke="#000000" d="M 845 274 L 272 274" stroke-miterlimit="10" stroke-dasharray="3"/></g><g transform="translate(-22,-14) scale(1,1)"><path fill="none" stroke="#000000" d="M 282.16267485762415 269.790482243984 L 272 274 L 282.16267485762415 278.209517756016" stroke-miterlimit="10"/></g><g transform="translate(-22,-14) scale(1,1)"><g><path fill="none" stroke="none"/><text fill="#000000" stroke="none" font-family="Arial" font-size="13px" font-style="normal" font-weight="normal" text-decoration="none" x="507.5" y="290.5">4 : newPassword</text></g></g><g transform="translate(-22,-14) scale(1,1)"><path fill="none" stroke="#000000" d="M 70 320 L 259 320" stroke-miterlimit="10"/></g><g transform="translate(-22,-14) scale(1,1)"><path fill="#000000" stroke="none" d="M 248.83732514237585 324.209517756016 L 259 320 L 248.83732514237585 315.790482243984"/></g><g transform="translate(-22,-14) scale(1,1)"><path fill="none" stroke="#000000" d="M 248.83732514237585 324.209517756016 L 259 320 L 248.83732514237585 315.790482243984 L 248.83732514237585 324.209517756016" stroke-miterlimit="10"/></g><g transform="translate(-22,-14) scale(1,1)"><g><path fill="none" stroke="none"/><text fill="#000000" stroke="none" font-family="Arial" font-size="13px" font-style="normal" font-weight="normal" text-decoration="none" x="99.76904296875" y="315.5">5 : Add password</text></g></g><g transform="translate(-22,-14) scale(1,1)"><rect fill="#ffffff" stroke="none" x="259" y="320" width="13" height="1016"/></g><g transform="translate(-22,-14) scale(1,1)"><path fill="none" stroke="#000000" d="M 259 320 L 272 320 L 272 1336 L 259 1336 L 259 320 Z Z" stroke-miterlimit="10"/></g><g transform="translate(-22,-14) scale(1,1)"><path fill="none" stroke="#000000" d="M 272 328 L 302 328 L 302 348 L 279 348" stroke-miterlimit="10"/></g><g transform="translate(-22,-14) scale(1,1)"><path fill="#000000" stroke="none" d="M 289.16267485762415 343.790482243984 L 279 348 L 289.16267485762415 352.209517756016"/></g><g transform="translate(-22,-14) scale(1,1)"><path fill="none" stroke="#000000" d="M 289.16267485762415 343.790482243984 L 279 348 L 289.16267485762415 352.209517756016 L 289.16267485762415 343.790482243984" stroke-miterlimit="10"/></g><g transform="translate(-22,-14) scale(1,1)"><g><path fill="none" stroke="none"/><text fill="#000000" stroke="none" font-family="Arial" font-size="13px" font-style="normal" font-weight="normal" text-decoration="none" x="319.5" y="343.5">6 : GeneratePaswordFromFields</text></g></g><g transform="translate(-22,-14) scale(1,1)"><rect fill="#ffffff" stroke="none" x="266" y="348" width="13" height="44"/></g><g transform="translate(-22,-14) scale(1,1)"><path fill="none" stroke="#000000" d="M 266 348 L 279 348 L 279 392 L 266 392 L 266 348 Z Z" stroke-miterlimit="10"/></g><g transform="translate(-22,-14) scale(1,1)"><path fill="none" stroke="#000000" d="M 279 368 L 920 368" stroke-miterlimit="10" stroke-dasharray="3"/></g><g transform="translate(-22,-14) scale(1,1)"><path fill="none" stroke="#000000" d="M 909.8373251423759 372.209517756016 L 920 368 L 909.8373251423758 363.790482243984" stroke-miterlimit="10"/></g><g transform="translate(-22,-14) scale(1,1)"><g><path fill="none" stroke="none"/><text fill="#000000" stroke="none" font-family="Arial" font-size="13px" font-style="normal" font-weight="normal" text-decoration="none" x="653.25341796875" y="364.5">7 : new Password</text></g></g><g transform="translate(-22,-14) scale(1,1)"><g><path fill="none" stroke="none"/><text fill="#000000" stroke="none" font-family="Arial" font-size="13px" font-style="normal" font-weight="normal" text-decoration="none" x="694.5" y="349.5">«create»</text></g></g><g transform="translate(-22,-14) scale(1,1)"><path fill="none" stroke="#000000" d="M 272 400 L 302 400 L 302 420 L 279 420" stroke-miterlimit="10"/></g><g transform="translate(-22,-14) scale(1,1)"><path fill="#000000" stroke="none" d="M 289.16267485762415 415.790482243984 L 279 420 L 289.16267485762415 424.209517756016"/></g><g transform="translate(-22,-14) scale(1,1)"><path fill="none" stroke="#000000" d="M 289.16267485762415 415.790482243984 L 279 420 L 289.16267485762415 424.209517756016 L 289.16267485762415 415.790482243984" stroke-miterlimit="10"/></g><g transform="translate(-22,-14) scale(1,1)"><g><path fill="none" stroke="none"/><text fill="#000000" stroke="none" font-family="Arial" font-size="13px" font-style="normal" font-weight="normal" text-decoration="none" x="311.5" y="412.5">8 : VerifyPassword</text></g></g><g transform="translate(-22,-14) scale(1,1)"><rect fill="#ffffff" stroke="none" x="266" y="420" width="13" height="36"/></g><g transform="translate(-22,-14) scale(1,1)"><path fill="none" stroke="#000000" d="M 266 420 L 279 420 L 279 456 L 266 456 L 266 420 Z Z" stroke-miterlimit="10"/></g><g transform="translate(-22,-14) scale(1,1)"><path fill="none" stroke="#000000" d="M 279 448 L 1110 448" stroke-miterlimit="10"/></g><g transform="translate(-22,-14) scale(1,1)"><path fill="#000000" stroke="none" d="M 1099.837325142376 452.209517756016 L 1110 448 L 1099.837325142376 443.790482243984"/></g><g transform="translate(-22,-14) scale(1,1)"><path fill="none" stroke="#000000" d="M 1099.837325142376 452.209517756016 L 1110 448 L 1099.837325142376 443.790482243984 L 1099.837325142376 452.209517756016" stroke-miterlimit="10"/></g><g transform="translate(-22,-14) scale(1,1)"><g><path fill="none" stroke="none"/><text fill="#000000" stroke="none" font-family="Arial" font-size="13px" font-style="normal" font-weight="normal" text-decoration="none" x="363.5" y="443.5">9 : VerifyPassword(_myNewPassword)</text></g></g><g transform="translate(-22,-14) scale(1,1)"><rect fill="#ffffff" stroke="none" x="1110" y="448" width="13" height="344"/></g><g transform="translate(-22,-14) scale(1,1)"><path fill="none" stroke="#000000" d="M 1110 448 L 1123 448 L 1123 792 L 1110 792 L 1110 448 Z Z" stroke-miterlimit="10"/></g><g transform="translate(-22,-14) scale(1,1)"><path fill="none" stroke="#000000" d="M 1123 464 L 1153 464 L 1153 484 L 1130 484" stroke-miterlimit="10"/></g><g transform="translate(-22,-14) scale(1,1)"><path fill="#000000" stroke="none" d="M 1140.162674857624 479.790482243984 L 1130 484 L 1140.162674857624 488.209517756016"/></g><g transform="translate(-22,-14) scale(1,1)"><path fill="none" stroke="#000000" d="M 1140.162674857624 479.790482243984 L 1130 484 L 1140.162674857624 488.209517756016 L 1140.162674857624 479.790482243984" stroke-miterlimit="10"/></g><g transform="translate(-22,-14) scale(1,1)"><g><path fill="none" stroke="none"/><text fill="#000000" stroke="none" font-family="Arial" font-size="13px" font-style="normal" font-weight="normal" text-decoration="none" x="1157.5" y="476.5">10 : VerifyPasswordBelongToCurrentUser(_myNewPassword)</text></g></g><g transform="translate(-22,-14) scale(1,1)"><rect fill="#ffffff" stroke="none" x="1117" y="484" width="13" height="28"/></g><g transform="translate(-22,-14) scale(1,1)"><path fill="none" stroke="#000000" d="M 1117 484 L 1130 484 L 1130 512 L 1117 512 L 1117 484 Z Z" stroke-miterlimit="10"/></g><g transform="translate(-22,-14) scale(1,1)"><path fill="none" stroke="#000000" d="M 1123 528 L 1153 528 L 1153 548 L 1130 548" stroke-miterlimit="10"/></g><g transform="translate(-22,-14) scale(1,1)"><path fill="#000000" stroke="none" d="M 1140.162674857624 543.790482243984 L 1130 548 L 1140.162674857624 552.209517756016"/></g><g transform="translate(-22,-14) scale(1,1)"><path fill="none" stroke="#000000" d="M 1140.162674857624 543.790482243984 L 1130 548 L 1140.162674857624 552.209517756016 L 1140.162674857624 543.790482243984" stroke-miterlimit="10"/></g><g transform="translate(-22,-14) scale(1,1)"><g><path fill="none" stroke="none"/><text fill="#000000" stroke="none" font-family="Arial" font-size="13px" font-style="normal" font-weight="normal" text-decoration="none" x="1158.5" y="543.5">11 : VerifyPasswordUniqueness(_myNewPassword)</text></g></g><g transform="translate(-22,-14) scale(1,1)"><rect fill="#ffffff" stroke="none" x="1117" y="548" width="13" height="68"/></g><g transform="translate(-22,-14) scale(1,1)"><path fill="none" stroke="#000000" d="M 1117 548 L 1130 548 L 1130 616 L 1117 616 L 1117 548 Z Z" stroke-miterlimit="10"/></g><g transform="translate(-22,-14) scale(1,1)"><path fill="none" stroke="#000000" d="M 1130 572 L 2130 572" stroke-miterlimit="10"/></g><g transform="translate(-22,-14) scale(1,1)"><path fill="#000000" stroke="none" d="M 2119.837325142376 576.209517756016 L 2130 572 L 2119.837325142376 567.790482243984"/></g><g transform="translate(-22,-14) scale(1,1)"><path fill="none" stroke="#000000" d="M 2119.837325142376 576.209517756016 L 2130 572 L 2119.837325142376 567.790482243984 L 2119.837325142376 576.209517756016" stroke-miterlimit="10"/></g><g transform="translate(-22,-14) scale(1,1)"><g><path fill="none" stroke="none"/><text fill="#000000" stroke="none" font-family="Arial" font-size="13px" font-style="normal" font-weight="normal" text-decoration="none" x="1270.5" y="571.5">12 : _passwords.CheckUniqueness(_myNewPassword)</text></g></g><g transform="translate(-22,-14) scale(1,1)"><rect fill="#ffffff" stroke="none" x="2130" y="572" width="13" height="44"/></g><g transform="translate(-22,-14) scale(1,1)"><path fill="none" stroke="#000000" d="M 2130 572 L 2143 572 L 2143 616 L 2130 616 L 2130 572 Z Z" stroke-miterlimit="10"/></g><g transform="translate(-22,-14) scale(1,1)"><path fill="none" stroke="#000000" d="M 2143 584 L 2822 584" stroke-miterlimit="10"/></g><g transform="translate(-22,-14) scale(1,1)"><path fill="#000000" stroke="none" d="M 2811.837325142376 588.209517756016 L 2822 584 L 2811.837325142376 579.790482243984"/></g><g transform="translate(-22,-14) scale(1,1)"><path fill="none" stroke="#000000" d="M 2811.837325142376 588.209517756016 L 2822 584 L 2811.837325142376 579.790482243984 L 2811.837325142376 588.209517756016" stroke-miterlimit="10"/></g><g transform="translate(-22,-14) scale(1,1)"><g><path fill="none" stroke="none"/><text fill="#000000" stroke="none" font-family="Arial" font-size="13px" font-style="normal" font-weight="normal" text-decoration="none" x="2388.5" y="580.5">13 : Check if password is unique</text></g></g><g transform="translate(-22,-14) scale(1,1)"><rect fill="#ffffff" stroke="none" x="2822" y="584" width="13" height="28"/></g><g transform="translate(-22,-14) scale(1,1)"><path fill="none" stroke="#000000" d="M 2822 584 L 2835 584 L 2835 612 L 2822 612 L 2822 584 Z Z" stroke-miterlimit="10"/></g><g transform="translate(-22,-14) scale(1,1)"><path fill="none" stroke="#000000" d="M 2822 600 L 2143 600" stroke-miterlimit="10" stroke-dasharray="3"/></g><g transform="translate(-22,-14) scale(1,1)"><path fill="none" stroke="#000000" d="M 2153.162674857624 595.790482243984 L 2143 600 L 2153.162674857624 604.209517756016" stroke-miterlimit="10"/></g><g transform="translate(-22,-14) scale(1,1)"><g><path fill="none" stroke="none"/><text fill="#000000" stroke="none" font-family="Arial" font-size="13px" font-style="normal" font-weight="normal" text-decoration="none" x="2414.5" y="616.5">14 : passwordIsUnique</text></g></g><g transform="translate(-22,-14) scale(1,1)"><path fill="none" stroke="#000000" d="M 2130 607 L 1130 607" stroke-miterlimit="10" stroke-dasharray="3"/></g><g transform="translate(-22,-14) scale(1,1)"><path fill="none" stroke="#000000" d="M 1140.162674857624 602.790482243984 L 1130 607 L 1140.162674857624 611.209517756016" stroke-miterlimit="10"/></g><g transform="translate(-22,-14) scale(1,1)"><g><path fill="none" stroke="none"/><text fill="#000000" stroke="none" font-family="Arial" font-size="13px" font-style="normal" font-weight="normal" text-decoration="none" x="1310.5" y="620.5">15 : passwordIsUnique</text></g></g><g transform="translate(-22,-14) scale(1,1)"><path fill="none" stroke="#000000" d="M 1123 640 L 1153 640 L 1153 660 L 1130 660" stroke-miterlimit="10"/></g><g transform="translate(-22,-14) scale(1,1)"><path fill="#000000" stroke="none" d="M 1140.162674857624 655.790482243984 L 1130 660 L 1140.162674857624 664.209517756016"/></g><g transform="translate(-22,-14) scale(1,1)"><path fill="none" stroke="#000000" d="M 1140.162674857624 655.790482243984 L 1130 660 L 1140.162674857624 664.209517756016 L 1140.162674857624 655.790482243984" stroke-miterlimit="10"/></g><g transform="translate(-22,-14) scale(1,1)"><g><path fill="none" stroke="none"/><text fill="#000000" stroke="none" font-family="Arial" font-size="13px" font-style="normal" font-weight="normal" text-decoration="none" x="1163.841796875" y="655.5">16 : PasswordTextIsDuplicate(_myNewPassword)</text></g></g><g transform="translate(-22,-14) scale(1,1)"><rect fill="#ffffff" stroke="none" x="1117" y="660" width="13" height="92"/></g><g transform="translate(-22,-14) scale(1,1)"><path fill="none" stroke="#000000" d="M 1117 660 L 1130 660 L 1130 752 L 1117 752 L 1117 660 Z Z" stroke-miterlimit="10"/></g><g transform="translate(-22,-14) scale(1,1)"><path fill="none" stroke="#000000" d="M 1130 688 L 1560 688" stroke-miterlimit="10"/></g><g transform="translate(-22,-14) scale(1,1)"><path fill="#000000" stroke="none" d="M 1549.837325142376 692.209517756016 L 1560 688 L 1549.837325142376 683.790482243984"/></g><g transform="translate(-22,-14) scale(1,1)"><path fill="none" stroke="#000000" d="M 1549.837325142376 692.209517756016 L 1560 688 L 1549.837325142376 683.790482243984 L 1549.837325142376 692.209517756016" stroke-miterlimit="10"/></g><g transform="translate(-22,-14) scale(1,1)"><g><path fill="none" stroke="none"/><text fill="#000000" stroke="none" font-family="Arial" font-size="13px" font-style="normal" font-weight="normal" text-decoration="none" x="1174.5" y="684.5">17 : VerifyItemCategoryBelongsToUser(_myNewPassword)</text></g></g><g transform="translate(-22,-14) scale(1,1)"><rect fill="#ffffff" stroke="none" x="1560" y="688" width="13" height="56"/></g><g transform="translate(-22,-14) scale(1,1)"><path fill="none" stroke="#000000" d="M 1560 688 L 1573 688 L 1573 744 L 1560 744 L 1560 688 Z Z" stroke-miterlimit="10"/></g><g transform="translate(-22,-14) scale(1,1)"><path fill="none" stroke="#000000" d="M 1573 708 L 2374 708" stroke-miterlimit="10"/></g><g transform="translate(-22,-14) scale(1,1)"><path fill="#000000" stroke="none" d="M 2363.837325142376 712.209517756016 L 2374 708 L 2363.837325142376 703.790482243984"/></g><g transform="translate(-22,-14) scale(1,1)"><path fill="none" stroke="#000000" d="M 2363.837325142376 712.209517756016 L 2374 708 L 2363.837325142376 703.790482243984 L 2363.837325142376 712.209517756016" stroke-miterlimit="10"/></g><g transform="translate(-22,-14) scale(1,1)"><g><path fill="none" stroke="none"/><text fill="#000000" stroke="none" font-family="Arial" font-size="13px" font-style="normal" font-weight="normal" text-decoration="none" x="1595.5" y="707.5">18 : CategoryBelongsToUser(_myNewPassword.Category, _myNewPassword.User)</text></g></g><g transform="translate(-22,-14) scale(1,1)"><rect fill="#ffffff" stroke="none" x="2374" y="708" width="13" height="36"/></g><g transform="translate(-22,-14) scale(1,1)"><path fill="none" stroke="#000000" d="M 2374 708 L 2387 708 L 2387 744 L 2374 744 L 2374 708 Z Z" stroke-miterlimit="10"/></g><g transform="translate(-22,-14) scale(1,1)"><path fill="none" stroke="#000000" d="M 2387 712 L 2822 712" stroke-miterlimit="10"/></g><g transform="translate(-22,-14) scale(1,1)"><path fill="#000000" stroke="none" d="M 2811.837325142376 716.209517756016 L 2822 712 L 2811.837325142376 707.790482243984"/></g><g transform="translate(-22,-14) scale(1,1)"><path fill="none" stroke="#000000" d="M 2811.837325142376 716.209517756016 L 2822 712 L 2811.837325142376 707.790482243984 L 2811.837325142376 716.209517756016" stroke-miterlimit="10"/></g><g transform="translate(-22,-14) scale(1,1)"><g><path fill="none" stroke="none"/><text fill="#000000" stroke="none" font-family="Arial" font-size="13px" font-style="normal" font-weight="normal" text-decoration="none" x="2514.5" y="708.5">19 : Check if user has category</text></g></g><g transform="translate(-22,-14) scale(1,1)"><rect fill="#ffffff" stroke="none" x="2822" y="712" width="13" height="28"/></g><g transform="translate(-22,-14) scale(1,1)"><path fill="none" stroke="#000000" d="M 2822 712 L 2835 712 L 2835 740 L 2822 740 L 2822 712 Z Z" stroke-miterlimit="10"/></g><g transform="translate(-22,-14) scale(1,1)"><path fill="none" stroke="#000000" d="M 2822 728 L 2387 728" stroke-miterlimit="10" stroke-dasharray="3"/></g><g transform="translate(-22,-14) scale(1,1)"><path fill="none" stroke="#000000" d="M 2397.162674857624 723.790482243984 L 2387 728 L 2397.162674857624 732.209517756016" stroke-miterlimit="10"/></g><g transform="translate(-22,-14) scale(1,1)"><g><path fill="none" stroke="none"/><text fill="#000000" stroke="none" font-family="Arial" font-size="13px" font-style="normal" font-weight="normal" text-decoration="none" x="2521.5" y="744.5">20 : categoryBelongsToUser</text></g></g><g transform="translate(-22,-14) scale(1,1)"><path fill="none" stroke="#000000" d="M 2374 736 L 1573 736" stroke-miterlimit="10" stroke-dasharray="3"/></g><g transform="translate(-22,-14) scale(1,1)"><path fill="none" stroke="#000000" d="M 1583.162674857624 731.790482243984 L 1573 736 L 1583.162674857624 740.209517756016" stroke-miterlimit="10"/></g><g transform="translate(-22,-14) scale(1,1)"><g><path fill="none" stroke="none"/><text fill="#000000" stroke="none" font-family="Arial" font-size="13px" font-style="normal" font-weight="normal" text-decoration="none" x="1890.5" y="752.5">21 : categoryBelongsToUser</text></g></g><g transform="translate(-22,-14) scale(1,1)"><path fill="none" stroke="#000000" d="M 1560 739 L 1130 739" stroke-miterlimit="10" stroke-dasharray="3"/></g><g transform="translate(-22,-14) scale(1,1)"><path fill="none" stroke="#000000" d="M 1140.162674857624 734.790482243984 L 1130 739 L 1140.162674857624 743.209517756016" stroke-miterlimit="10"/></g><g transform="translate(-22,-14) scale(1,1)"><g><path fill="none" stroke="none"/><text fill="#000000" stroke="none" font-family="Arial" font-size="13px" font-style="normal" font-weight="normal" text-decoration="none" x="1262.5" y="755.5">22 : categoryBelongsToUser</text></g></g><g transform="translate(-22,-14) scale(1,1)"><path fill="none" stroke="#000000" d="M 1110 778 L 272 778" stroke-miterlimit="10" stroke-dasharray="3"/></g><g transform="translate(-22,-14) scale(1,1)"><path fill="none" stroke="#000000" d="M 282.16267485762415 773.790482243984 L 272 778 L 282.16267485762415 782.209517756016" stroke-miterlimit="10"/></g><g transform="translate(-22,-14) scale(1,1)"><g><path fill="none" stroke="none"/><text fill="#000000" stroke="none" font-family="Arial" font-size="13px" font-style="normal" font-weight="normal" text-decoration="none" x="677.5" y="794.5">23 : </text></g></g><g transform="translate(-22,-14) scale(1,1)"><path fill="none" stroke="#000000" d="M 272 808 L 302 808 L 302 828 L 279 828" stroke-miterlimit="10"/></g><g transform="translate(-22,-14) scale(1,1)"><path fill="#000000" stroke="none" d="M 289.16267485762415 823.790482243984 L 279 828 L 289.16267485762415 832.209517756016"/></g><g transform="translate(-22,-14) scale(1,1)"><path fill="none" stroke="#000000" d="M 289.16267485762415 823.790482243984 L 279 828 L 289.16267485762415 832.209517756016 L 289.16267485762415 823.790482243984" stroke-miterlimit="10"/></g><g transform="translate(-22,-14) scale(1,1)"><g><path fill="none" stroke="none"/><text fill="#000000" stroke="none" font-family="Arial" font-size="13px" font-style="normal" font-weight="normal" text-decoration="none" x="299.5" y="820.5">24 : SuggestionsForPassword(_myNewPassword)</text></g></g><g transform="translate(-22,-14) scale(1,1)"><rect fill="#ffffff" stroke="none" x="266" y="828" width="13" height="324"/></g><g transform="translate(-22,-14) scale(1,1)"><path fill="none" stroke="#000000" d="M 266 828 L 279 828 L 279 1152 L 266 1152 L 266 828 Z Z" stroke-miterlimit="10"/></g><g transform="translate(-22,-14) scale(1,1)"><path fill="none" stroke="#000000" d="M 279 848 L 1769 848" stroke-miterlimit="10"/></g><g transform="translate(-22,-14) scale(1,1)"><path fill="#000000" stroke="none" d="M 1758.837325142376 852.209517756016 L 1769 848 L 1758.837325142376 843.790482243984"/></g><g transform="translate(-22,-14) scale(1,1)"><path fill="none" stroke="#000000" d="M 1758.837325142376 852.209517756016 L 1769 848 L 1758.837325142376 843.790482243984 L 1758.837325142376 852.209517756016" stroke-miterlimit="10"/></g><g transform="translate(-22,-14) scale(1,1)"><g><path fill="none" stroke="none"/><text fill="#000000" stroke="none" font-family="Arial" font-size="13px" font-style="normal" font-weight="normal" text-decoration="none" x="1182.5" y="844.5">25 : VerifyPasswordHasBeenBreached(_myNewPassword)</text></g></g><g transform="translate(-22,-14) scale(1,1)"><rect fill="#ffffff" stroke="none" x="1769" y="848" width="13" height="88"/></g><g transform="translate(-22,-14) scale(1,1)"><path fill="none" stroke="#000000" d="M 1769 848 L 1782 848 L 1782 936 L 1769 936 L 1769 848 Z Z" stroke-miterlimit="10"/></g><g transform="translate(-22,-14) scale(1,1)"><path fill="none" stroke="#000000" d="M 1782 849 L 1934 849" stroke-miterlimit="10"/></g><g transform="translate(-22,-14) scale(1,1)"><path fill="#000000" stroke="none" d="M 1923.837325142376 853.209517756016 L 1934 849 L 1923.837325142376 844.790482243984"/></g><g transform="translate(-22,-14) scale(1,1)"><path fill="none" stroke="#000000" d="M 1923.837325142376 853.209517756016 L 1934 849 L 1923.837325142376 844.790482243984 L 1923.837325142376 853.209517756016" stroke-miterlimit="10"/></g><g transform="translate(-22,-14) scale(1,1)"><g><path fill="none" stroke="none"/><text fill="#000000" stroke="none" font-family="Arial" font-size="13px" font-style="normal" font-weight="normal" text-decoration="none" x="1809.5" y="845.5">26 : CurrentUser</text></g></g><g transform="translate(-22,-14) scale(1,1)"><rect fill="#ffffff" stroke="none" x="1934" y="849" width="13" height="28"/></g><g transform="translate(-22,-14) scale(1,1)"><path fill="none" stroke="#000000" d="M 1934 849 L 1947 849 L 1947 877 L 1934 877 L 1934 849 Z Z" stroke-miterlimit="10"/></g><g transform="translate(-22,-14) scale(1,1)"><path fill="none" stroke="#000000" d="M 1934 868 L 1782 868" stroke-miterlimit="10" stroke-dasharray="3"/></g><g transform="translate(-22,-14) scale(1,1)"><path fill="none" stroke="#000000" d="M 1792.162674857624 863.790482243984 L 1782 868 L 1792.162674857624 872.209517756016" stroke-miterlimit="10"/></g><g transform="translate(-22,-14) scale(1,1)"><g><path fill="none" stroke="none"/><text fill="#000000" stroke="none" font-family="Arial" font-size="13px" font-style="normal" font-weight="normal" text-decoration="none" x="1844.5" y="884.5">27 : </text></g></g><g transform="translate(-22,-14) scale(1,1)"><path fill="none" stroke="#000000" d="M 1782 888 L 2633 888" stroke-miterlimit="10"/></g><g transform="translate(-22,-14) scale(1,1)"><path fill="#000000" stroke="none" d="M 2622.837325142376 892.209517756016 L 2633 888 L 2622.837325142376 883.790482243984"/></g><g transform="translate(-22,-14) scale(1,1)"><path fill="none" stroke="#000000" d="M 2622.837325142376 892.209517756016 L 2633 888 L 2622.837325142376 883.790482243984 L 2622.837325142376 892.209517756016" stroke-miterlimit="10"/></g><g transform="translate(-22,-14) scale(1,1)"><g><path fill="none" stroke="none"/><text fill="#000000" stroke="none" font-family="Arial" font-size="13px" font-style="normal" font-weight="normal" text-decoration="none" x="1993.508544921875" y="884.5">28 : CheckIfPasswordHasBeenBreached(currentUser, _myNewPassword)</text></g></g><g transform="translate(-22,-14) scale(1,1)"><rect fill="#ffffff" stroke="none" x="2633" y="888" width="13" height="40"/></g><g transform="translate(-22,-14) scale(1,1)"><path fill="none" stroke="#000000" d="M 2633 888 L 2646 888 L 2646 928 L 2633 928 L 2633 888 Z Z" stroke-miterlimit="10"/></g><g transform="translate(-22,-14) scale(1,1)"><path fill="none" stroke="#000000" d="M 2646 896 L 2822 896" stroke-miterlimit="10"/></g><g transform="translate(-22,-14) scale(1,1)"><path fill="#000000" stroke="none" d="M 2811.837325142376 900.209517756016 L 2822 896 L 2811.837325142376 891.790482243984"/></g><g transform="translate(-22,-14) scale(1,1)"><path fill="none" stroke="#000000" d="M 2811.837325142376 900.209517756016 L 2822 896 L 2811.837325142376 891.790482243984 L 2811.837325142376 900.209517756016" stroke-miterlimit="10"/></g><g transform="translate(-22,-14) scale(1,1)"><g><path fill="none" stroke="none"/><text fill="#000000" stroke="none" font-family="Arial" font-size="13px" font-style="normal" font-weight="normal" text-decoration="none" x="2635.5" y="891.5">29 : Check if pass was breached</text></g></g><g transform="translate(-22,-14) scale(1,1)"><rect fill="#ffffff" stroke="none" x="2822" y="896" width="13" height="28"/></g><g transform="translate(-22,-14) scale(1,1)"><path fill="none" stroke="#000000" d="M 2822 896 L 2835 896 L 2835 924 L 2822 924 L 2822 896 Z Z" stroke-miterlimit="10"/></g><g transform="translate(-22,-14) scale(1,1)"><path fill="none" stroke="#000000" d="M 2822 912 L 2646 912" stroke-miterlimit="10" stroke-dasharray="3"/></g><g transform="translate(-22,-14) scale(1,1)"><path fill="none" stroke="#000000" d="M 2656.162674857624 907.790482243984 L 2646 912 L 2656.162674857624 916.209517756016" stroke-miterlimit="10"/></g><g transform="translate(-22,-14) scale(1,1)"><g><path fill="none" stroke="none"/><text fill="#000000" stroke="none" font-family="Arial" font-size="13px" font-style="normal" font-weight="normal" text-decoration="none" x="2659.5" y="924.5">30 : passwordIsBreached</text></g></g><g transform="translate(-22,-14) scale(1,1)"><path fill="none" stroke="#000000" d="M 1769 920 L 279 920" stroke-miterlimit="10" stroke-dasharray="3"/></g><g transform="translate(-22,-14) scale(1,1)"><path fill="none" stroke="#000000" d="M 289.16267485762415 915.790482243984 L 279 920 L 289.16267485762415 924.209517756016" stroke-miterlimit="10"/></g><g transform="translate(-22,-14) scale(1,1)"><g><path fill="none" stroke="none"/><text fill="#000000" stroke="none" font-family="Arial" font-size="13px" font-style="normal" font-weight="normal" text-decoration="none" x="1141.5" y="939.5">31 : passwordIsBreached</text></g></g><g transform="translate(-22,-14) scale(1,1)"><path fill="none" stroke="#000000" d="M 2633 920 L 1782 920" stroke-miterlimit="10" stroke-dasharray="3"/></g><g transform="translate(-22,-14) scale(1,1)"><path fill="none" stroke="#000000" d="M 1792.162674857624 915.790482243984 L 1782 920 L 1792.162674857624 924.209517756016" stroke-miterlimit="10"/></g><g transform="translate(-22,-14) scale(1,1)"><g><path fill="none" stroke="none"/><text fill="#000000" stroke="none" font-family="Arial" font-size="13px" font-style="normal" font-weight="normal" text-decoration="none" x="2132.5" y="936.5">32 : passwordIsBreached</text></g></g><g transform="translate(-22,-14) scale(1,1)"><path fill="none" stroke="#000000" d="M 279 978 L 1110 978" stroke-miterlimit="10"/></g><g transform="translate(-22,-14) scale(1,1)"><path fill="#000000" stroke="none" d="M 1099.837325142376 982.209517756016 L 1110 978 L 1099.837325142376 973.790482243984"/></g><g transform="translate(-22,-14) scale(1,1)"><path fill="none" stroke="#000000" d="M 1099.837325142376 982.209517756016 L 1110 978 L 1099.837325142376 973.790482243984 L 1099.837325142376 982.209517756016" stroke-miterlimit="10"/></g><g transform="translate(-22,-14) scale(1,1)"><g><path fill="none" stroke="none"/><text fill="#000000" stroke="none" font-family="Arial" font-size="13px" font-style="normal" font-weight="normal" text-decoration="none" x="550.5" y="974.5">33 : PasswordTextIsDuplicate(_myNewPassword)</text></g></g><g transform="translate(-22,-14) scale(1,1)"><rect fill="#ffffff" stroke="none" x="1110" y="978" width="13" height="110"/></g><g transform="translate(-22,-14) scale(1,1)"><path fill="none" stroke="#000000" d="M 1110 978 L 1123 978 L 1123 1088 L 1110 1088 L 1110 978 Z Z" stroke-miterlimit="10"/></g><g transform="translate(-22,-14) scale(1,1)"><path fill="none" stroke="#000000" d="M 1123 992 L 1934 992" stroke-miterlimit="10"/></g><g transform="translate(-22,-14) scale(1,1)"><path fill="#000000" stroke="none" d="M 1923.837325142376 996.209517756016 L 1934 992 L 1923.837325142376 987.790482243984"/></g><g transform="translate(-22,-14) scale(1,1)"><path fill="none" stroke="#000000" d="M 1923.837325142376 996.209517756016 L 1934 992 L 1923.837325142376 987.790482243984 L 1923.837325142376 996.209517756016" stroke-miterlimit="10"/></g><g transform="translate(-22,-14) scale(1,1)"><g><path fill="none" stroke="none"/><text fill="#000000" stroke="none" font-family="Arial" font-size="13px" font-style="normal" font-weight="normal" text-decoration="none" x="1479.5" y="988.5">34 : CurrentUser</text></g></g><g transform="translate(-22,-14) scale(1,1)"><rect fill="#ffffff" stroke="none" x="1934" y="992" width="13" height="28"/></g><g transform="translate(-22,-14) scale(1,1)"><path fill="none" stroke="#000000" d="M 1934 992 L 1947 992 L 1947 1020 L 1934 1020 L 1934 992 Z Z" stroke-miterlimit="10"/></g><g transform="translate(-22,-14) scale(1,1)"><path fill="none" stroke="#000000" d="M 1934 1009 L 1123 1009" stroke-miterlimit="10" stroke-dasharray="3"/></g><g transform="translate(-22,-14) scale(1,1)"><path fill="none" stroke="#000000" d="M 1133.162674857624 1004.790482243984 L 1123 1009 L 1133.162674857624 1013.209517756016" stroke-miterlimit="10"/></g><g transform="translate(-22,-14) scale(1,1)"><g><path fill="none" stroke="none"/><text fill="#000000" stroke="none" font-family="Arial" font-size="13px" font-style="normal" font-weight="normal" text-decoration="none" x="1243.5" y="1020.5">35 : </text></g></g><g transform="translate(-22,-14) scale(1,1)"><path fill="none" stroke="#000000" d="M 1123 1032 L 2130 1032" stroke-miterlimit="10"/></g><g transform="translate(-22,-14) scale(1,1)"><path fill="#000000" stroke="none" d="M 2119.837325142376 1036.2095177560159 L 2130 1032 L 2119.837325142376 1027.7904822439841"/></g><g transform="translate(-22,-14) scale(1,1)"><path fill="none" stroke="#000000" d="M 2119.837325142376 1036.2095177560159 L 2130 1032 L 2119.837325142376 1027.7904822439841 L 2119.837325142376 1036.2095177560159" stroke-miterlimit="10"/></g><g transform="translate(-22,-14) scale(1,1)"><g><path fill="none" stroke="none"/><text fill="#000000" stroke="none" font-family="Arial" font-size="13px" font-style="normal" font-weight="normal" text-decoration="none" x="1489.3681640625" y="1028.5">36 : CheckTextIsDuplicate(_myPasswordManager, currentUser)</text></g></g><g transform="translate(-22,-14) scale(1,1)"><rect fill="#ffffff" stroke="none" x="2130" y="1032" width="13" height="40"/></g><g transform="translate(-22,-14) scale(1,1)"><path fill="none" stroke="#000000" d="M 2130 1032 L 2143 1032 L 2143 1072 L 2130 1072 L 2130 1032 Z Z" stroke-miterlimit="10"/></g><g transform="translate(-22,-14) scale(1,1)"><path fill="none" stroke="#000000" d="M 2143 1040 L 2822 1040" stroke-miterlimit="10"/></g><g transform="translate(-22,-14) scale(1,1)"><path fill="#000000" stroke="none" d="M 2811.837325142376 1044.2095177560159 L 2822 1040 L 2811.837325142376 1035.7904822439841"/></g><g transform="translate(-22,-14) scale(1,1)"><path fill="none" stroke="#000000" d="M 2811.837325142376 1044.2095177560159 L 2822 1040 L 2811.837325142376 1035.7904822439841 L 2811.837325142376 1044.2095177560159" stroke-miterlimit="10"/></g><g transform="translate(-22,-14) scale(1,1)"><g><path fill="none" stroke="none"/><text fill="#000000" stroke="none" font-family="Arial" font-size="13px" font-style="normal" font-weight="normal" text-decoration="none" x="2400.364013671875" y="1036.5">37 : check if text is duplicate</text></g></g><g transform="translate(-22,-14) scale(1,1)"><rect fill="#ffffff" stroke="none" x="2822" y="1040" width="13" height="28"/></g><g transform="translate(-22,-14) scale(1,1)"><path fill="none" stroke="#000000" d="M 2822 1040 L 2835 1040 L 2835 1068 L 2822 1068 L 2822 1040 Z Z" stroke-miterlimit="10"/></g><g transform="translate(-22,-14) scale(1,1)"><path fill="none" stroke="#000000" d="M 2822 1057 L 2143 1057" stroke-miterlimit="10" stroke-dasharray="3"/></g><g transform="translate(-22,-14) scale(1,1)"><path fill="none" stroke="#000000" d="M 2153.162674857624 1052.7904822439841 L 2143 1057 L 2153.162674857624 1061.2095177560159" stroke-miterlimit="10"/></g><g transform="translate(-22,-14) scale(1,1)"><g><path fill="none" stroke="none"/><text fill="#000000" stroke="none" font-family="Arial" font-size="13px" font-style="normal" font-weight="normal" text-decoration="none" x="2410.5" y="1073.5">38 : passTextIsDuplicate</text></g></g><g transform="translate(-22,-14) scale(1,1)"><path fill="none" stroke="#000000" d="M 2130 1064 L 1123 1064" stroke-miterlimit="10" stroke-dasharray="3"/></g><g transform="translate(-22,-14) scale(1,1)"><path fill="none" stroke="#000000" d="M 1133.162674857624 1059.7904822439841 L 1123 1064 L 1133.162674857624 1068.2095177560159" stroke-miterlimit="10"/></g><g transform="translate(-22,-14) scale(1,1)"><g><path fill="none" stroke="none"/><text fill="#000000" stroke="none" font-family="Arial" font-size="13px" font-style="normal" font-weight="normal" text-decoration="none" x="1554.5" y="1080.5">39 : passTextIsDuplicate</text></g></g><g transform="translate(-22,-14) scale(1,1)"><path fill="none" stroke="#000000" d="M 1110 1080 L 279 1080" stroke-miterlimit="10" stroke-dasharray="3"/></g><g transform="translate(-22,-14) scale(1,1)"><path fill="none" stroke="#000000" d="M 289.16267485762415 1075.7904822439841 L 279 1080 L 289.16267485762415 1084.2095177560159" stroke-miterlimit="10"/></g><g transform="translate(-22,-14) scale(1,1)"><g><path fill="none" stroke="none"/><text fill="#000000" stroke="none" font-family="Arial" font-size="13px" font-style="normal" font-weight="normal" text-decoration="none" x="622.5" y="1096.5">40 : passTextIsDuplicate</text></g></g><g transform="translate(-22,-14) scale(1,1)"><path fill="none" stroke="#000000" d="M 279 1128 L 1320 1128" stroke-miterlimit="10"/></g><g transform="translate(-22,-14) scale(1,1)"><path fill="#000000" stroke="none" d="M 1309.837325142376 1132.2095177560159 L 1320 1128 L 1309.837325142376 1123.7904822439841"/></g><g transform="translate(-22,-14) scale(1,1)"><path fill="none" stroke="#000000" d="M 1309.837325142376 1132.2095177560159 L 1320 1128 L 1309.837325142376 1123.7904822439841 L 1309.837325142376 1132.2095177560159" stroke-miterlimit="10"/></g><g transform="translate(-22,-14) scale(1,1)"><g><path fill="none" stroke="none"/><text fill="#000000" stroke="none" font-family="Arial" font-size="13px" font-style="normal" font-weight="normal" text-decoration="none" x="645.5" y="1124.5">41 : PasswordIsNotGreenSecure(_myNewPassword)</text></g></g><g transform="translate(-22,-14) scale(1,1)"><rect fill="#ffffff" stroke="none" x="1320" y="1128" width="13" height="28"/></g><g transform="translate(-22,-14) scale(1,1)"><path fill="none" stroke="#000000" d="M 1320 1128 L 1333 1128 L 1333 1156 L 1320 1156 L 1320 1128 Z Z" stroke-miterlimit="10"/></g><g transform="translate(-22,-14) scale(1,1)"><path fill="none" stroke="#000000" d="M 1320 1144 L 279 1144" stroke-miterlimit="10" stroke-dasharray="3"/></g><g transform="translate(-22,-14) scale(1,1)"><path fill="none" stroke="#000000" d="M 289.16267485762415 1139.7904822439841 L 279 1144 L 289.16267485762415 1148.2095177560159" stroke-miterlimit="10"/></g><g transform="translate(-22,-14) scale(1,1)"><g><path fill="none" stroke="none"/><text fill="#000000" stroke="none" font-family="Arial" font-size="13px" font-style="normal" font-weight="normal" text-decoration="none" x="703.220458984375" y="1160.5">42 : passwordIsNotGreenSecure</text></g></g><g transform="translate(-22,-14) scale(1,1)"><path fill="none" stroke="#000000" d="M 272 1205 L 1110 1205" stroke-miterlimit="10"/></g><g transform="translate(-22,-14) scale(1,1)"><path fill="#000000" stroke="none" d="M 1099.837325142376 1209.2095177560159 L 1110 1205 L 1099.837325142376 1200.7904822439841"/></g><g transform="translate(-22,-14) scale(1,1)"><path fill="none" stroke="#000000" d="M 1099.837325142376 1209.2095177560159 L 1110 1205 L 1099.837325142376 1200.7904822439841 L 1099.837325142376 1209.2095177560159" stroke-miterlimit="10"/></g><g transform="translate(-22,-14) scale(1,1)"><g><path fill="none" stroke="none"/><text fill="#000000" stroke="none" font-family="Arial" font-size="13px" font-style="normal" font-weight="normal" text-decoration="none" x="572.5" y="1201.5">43 : CreatePassword(_myNewPassword)</text></g></g><g transform="translate(-22,-14) scale(1,1)"><rect fill="#ffffff" stroke="none" x="1110" y="1205" width="13" height="123"/></g><g transform="translate(-22,-14) scale(1,1)"><path fill="none" stroke="#000000" d="M 1110 1205 L 1123 1205 L 1123 1328 L 1110 1328 L 1110 1205 Z Z" stroke-miterlimit="10"/></g><g transform="translate(-22,-14) scale(1,1)"><path fill="none" stroke="#000000" d="M 1123 1216 L 1153 1216 L 1153 1236 L 1130 1236" stroke-miterlimit="10"/></g><g transform="translate(-22,-14) scale(1,1)"><path fill="#000000" stroke="none" d="M 1140.162674857624 1231.7904822439841 L 1130 1236 L 1140.162674857624 1240.2095177560159"/></g><g transform="translate(-22,-14) scale(1,1)"><path fill="none" stroke="#000000" d="M 1140.162674857624 1231.7904822439841 L 1130 1236 L 1140.162674857624 1240.2095177560159 L 1140.162674857624 1231.7904822439841" stroke-miterlimit="10"/></g><g transform="translate(-22,-14) scale(1,1)"><g><path fill="none" stroke="none"/><text fill="#000000" stroke="none" font-family="Arial" font-size="13px" font-style="normal" font-weight="normal" text-decoration="none" x="1143.5" y="1212.5">44 : VerifyPassword(_myNewPassword)</text></g></g><g transform="translate(-22,-14) scale(1,1)"><rect fill="#ffffff" stroke="none" x="1117" y="1236" width="13" height="28"/></g><g transform="translate(-22,-14) scale(1,1)"><path fill="none" stroke="#000000" d="M 1117 1236 L 1130 1236 L 1130 1264 L 1117 1264 L 1117 1236 Z Z" stroke-miterlimit="10"/></g><g transform="translate(-22,-14) scale(1,1)"><path fill="none" stroke="#000000" d="M 1123 1272 L 1320 1272" stroke-miterlimit="10"/></g><g transform="translate(-22,-14) scale(1,1)"><path fill="#000000" stroke="none" d="M 1309.837325142376 1276.2095177560159 L 1320 1272 L 1309.837325142376 1267.7904822439841"/></g><g transform="translate(-22,-14) scale(1,1)"><path fill="none" stroke="#000000" d="M 1309.837325142376 1276.2095177560159 L 1320 1272 L 1309.837325142376 1267.7904822439841 L 1309.837325142376 1276.2095177560159" stroke-miterlimit="10"/></g><g transform="translate(-22,-14) scale(1,1)"><g><path fill="none" stroke="none"/><text fill="#000000" stroke="none" font-family="Arial" font-size="13px" font-style="normal" font-weight="normal" text-decoration="none" x="1138.5" y="1268.5">45 : Add(_myNewPassword)</text></g></g><g transform="translate(-22,-14) scale(1,1)"><rect fill="#ffffff" stroke="none" x="1320" y="1272" width="13" height="40"/></g><g transform="translate(-22,-14) scale(1,1)"><path fill="none" stroke="#000000" d="M 1320 1272 L 1333 1272 L 1333 1312 L 1320 1312 L 1320 1272 Z Z" stroke-miterlimit="10"/></g><g transform="translate(-22,-14) scale(1,1)"><path fill="none" stroke="#000000" d="M 1333 1280 L 2130 1280" stroke-miterlimit="10"/></g><g transform="translate(-22,-14) scale(1,1)"><path fill="#000000" stroke="none" d="M 2119.837325142376 1284.2095177560159 L 2130 1280 L 2119.837325142376 1275.7904822439841"/></g><g transform="translate(-22,-14) scale(1,1)"><path fill="none" stroke="#000000" d="M 2119.837325142376 1284.2095177560159 L 2130 1280 L 2119.837325142376 1275.7904822439841 L 2119.837325142376 1284.2095177560159" stroke-miterlimit="10"/></g><g transform="translate(-22,-14) scale(1,1)"><g><path fill="none" stroke="none"/><text fill="#000000" stroke="none" font-family="Arial" font-size="13px" font-style="normal" font-weight="normal" text-decoration="none" x="1648.5" y="1276.5">46 : Add(_myNewPassword)</text></g></g><g transform="translate(-22,-14) scale(1,1)"><rect fill="#ffffff" stroke="none" x="2130" y="1280" width="13" height="32"/></g><g transform="translate(-22,-14) scale(1,1)"><path fill="none" stroke="#000000" d="M 2130 1280 L 2143 1280 L 2143 1312 L 2130 1312 L 2130 1280 Z Z" stroke-miterlimit="10"/></g><g transform="translate(-22,-14) scale(1,1)"><path fill="none" stroke="#000000" d="M 2143 1289 L 2822 1289" stroke-miterlimit="10"/></g><g transform="translate(-22,-14) scale(1,1)"><path fill="#000000" stroke="none" d="M 2811.837325142376 1293.2095177560159 L 2822 1289 L 2811.837325142376 1284.7904822439841"/></g><g transform="translate(-22,-14) scale(1,1)"><path fill="none" stroke="#000000" d="M 2811.837325142376 1293.2095177560159 L 2822 1289 L 2811.837325142376 1284.7904822439841 L 2811.837325142376 1293.2095177560159" stroke-miterlimit="10"/></g><g transform="translate(-22,-14) scale(1,1)"><g><path fill="none" stroke="none"/><text fill="#000000" stroke="none" font-family="Arial" font-size="13px" font-style="normal" font-weight="normal" text-decoration="none" x="2424.5" y="1285.5">47 : Save password</text></g></g><g transform="translate(-22,-14) scale(1,1)"><rect fill="#ffffff" stroke="none" x="2822" y="1289" width="13" height="55"/></g><g transform="translate(-22,-14) scale(1,1)"><path fill="none" stroke="#000000" d="M 2822 1289 L 2835 1289 L 2835 1344 L 2822 1344 L 2822 1289 Z Z" stroke-miterlimit="10"/></g><g transform="translate(-22,-14) scale(1,1)"><path fill="none" stroke="#000000" d="M 40 80 L 888 80 L 888 296 L 40 296 L 40 80" stroke-miterlimit="10"/></g><g transform="translate(-22,-14) scale(1,1)"><path fill="#ffffff" stroke="none" d="M 40 80 L 40 102 L 95.03173828125 102 L 106.03173828125 91 L 106.03173828125 80 L 40 80"/></g><g transform="translate(-22,-14) scale(1,1)"><path fill="none" stroke="#000000" d="M 40 80 L 40 102 L 95.03173828125 102 L 106.03173828125 91 L 106.03173828125 80 L 40 80 L 40 80" stroke-miterlimit="10"/></g><g transform="translate(-22,-14) scale(1,1)"><g><path fill="none" stroke="none"/><text fill="#000000" stroke="none" font-family="Arial" font-size="13px" font-style="normal" font-weight="normal" text-decoration="none" x="71.9599609375" y="97.5">opt</text></g></g><g transform="translate(-22,-14) scale(1,1)"><g><path fill="none" stroke="none"/><text fill="#000000" stroke="none" font-family="Arial" font-size="13px" font-style="normal" font-weight="bold" text-decoration="none" x="45" y="97.5">seq</text></g></g></g></svg>