<svg version="1.1" xmlns="http://www.w3.org/2000/svg" xmlns:xlink="http://www.w3.org/1999/xlink" width="713.103515625" height="171"><defs/><g><g transform="translate(-46,-150) scale(1,1)"><path fill="#C0C0C0" stroke="none" d="M 130.0517578125 178.5 C 130.0517578125 172.1487248 135.2004826125 167 141.5517578125 167 C 147.9030330125 167 153.0517578125 172.1487248 153.0517578125 178.5 C 153.0517578125 184.8512752 147.9030330125 190 141.5517578125 190 C 135.2004826125 190 130.0517578125 184.8512752 130.0517578125 178.5 Z" opacity="0.2"/></g><g transform="translate(-46,-150) scale(1,1)"><path fill="#ffffff" stroke="none" d="M 123.0517578125 171.5 C 123.0517578125 165.1487248 128.2004826125 160 134.5517578125 160 C 140.9030330125 160 146.0517578125 165.1487248 146.0517578125 171.5 C 146.0517578125 177.8512752 140.9030330125 183 134.5517578125 183 C 128.2004826125 183 123.0517578125 177.8512752 123.0517578125 171.5 Z"/></g><g transform="translate(-46,-150) scale(1,1)"><path fill="none" stroke="#000000" d="M 123.0517578125 171.5 C 123.0517578125 165.1487248 128.2004826125 160 134.5517578125 160 C 140.9030330125 160 146.0517578125 165.1487248 146.0517578125 171.5 C 146.0517578125 177.8512752 140.9030330125 183 134.5517578125 183 C 128.2004826125 183 123.0517578125 177.8512752 123.0517578125 171.5 Z" stroke-miterlimit="10"/></g><g transform="translate(-46,-150) scale(1,1)"><g><path fill="none" stroke="none"/><text fill="#000000" stroke="none" font-family="Arial" font-size="13px" font-style="normal" font-weight="bold" text-decoration="none" x="78.194091796875" y="202.5">ICategoryController</text></g></g><g transform="translate(-46,-150) scale(1,1)"><g><path fill="none" stroke="none"/><text fill="#000000" stroke="none" font-family="Arial" font-size="13px" font-style="normal" font-weight="normal" text-decoration="none" x="60.5" y="217.5">(from BusinessInterfaces)</text></g></g><g transform="translate(-46,-150) scale(1,1)"><path fill="#C0C0C0" stroke="none" d="M 130.0517578125 258.5 C 130.0517578125 252.1487248 135.2004826125 247 141.5517578125 247 C 147.9030330125 247 153.0517578125 252.1487248 153.0517578125 258.5 C 153.0517578125 264.8512752 147.9030330125 270 141.5517578125 270 C 135.2004826125 270 130.0517578125 264.8512752 130.0517578125 258.5 Z" opacity="0.2"/></g><g transform="translate(-46,-150) scale(1,1)"><path fill="#ffffff" stroke="none" d="M 123.0517578125 251.5 C 123.0517578125 245.1487248 128.2004826125 240 134.5517578125 240 C 140.9030330125 240 146.0517578125 245.1487248 146.0517578125 251.5 C 146.0517578125 257.8512752 140.9030330125 263 134.5517578125 263 C 128.2004826125 263 123.0517578125 257.8512752 123.0517578125 251.5 Z"/></g><g transform="translate(-46,-150) scale(1,1)"><path fill="none" stroke="#000000" d="M 123.0517578125 251.5 C 123.0517578125 245.1487248 128.2004826125 240 134.5517578125 240 C 140.9030330125 240 146.0517578125 245.1487248 146.0517578125 251.5 C 146.0517578125 257.8512752 140.9030330125 263 134.5517578125 263 C 128.2004826125 263 123.0517578125 257.8512752 123.0517578125 251.5 Z" stroke-miterlimit="10"/></g><g transform="translate(-46,-150) scale(1,1)"><g><path fill="none" stroke="none"/><text fill="#000000" stroke="none" font-family="Arial" font-size="13px" font-style="normal" font-weight="bold" text-decoration="none" x="73.141357421875" y="282.5">ICreditCardController</text></g></g><g transform="translate(-46,-150) scale(1,1)"><g><path fill="none" stroke="none"/><text fill="#000000" stroke="none" font-family="Arial" font-size="13px" font-style="normal" font-weight="normal" text-decoration="none" x="60.5" y="297.5">(from BusinessInterfaces)</text></g></g><g transform="translate(-46,-150) scale(1,1)"><path fill="#C0C0C0" stroke="none" d="M 341.483154296875 266.5 C 341.483154296875 260.1487248 346.631879096875 255 352.983154296875 255 C 359.334429496875 255 364.483154296875 260.1487248 364.483154296875 266.5 C 364.483154296875 272.8512752 359.334429496875 278 352.983154296875 278 C 346.631879096875 278 341.483154296875 272.8512752 341.483154296875 266.5 Z" opacity="0.2"/></g><g transform="translate(-46,-150) scale(1,1)"><path fill="#ffffff" stroke="none" d="M 334.483154296875 259.5 C 334.483154296875 253.1487248 339.631879096875 248 345.983154296875 248 C 352.334429496875 248 357.483154296875 253.1487248 357.483154296875 259.5 C 357.483154296875 265.8512752 352.334429496875 271 345.983154296875 271 C 339.631879096875 271 334.483154296875 265.8512752 334.483154296875 259.5 Z"/></g><g transform="translate(-46,-150) scale(1,1)"><path fill="none" stroke="#000000" d="M 334.483154296875 259.5 C 334.483154296875 253.1487248 339.631879096875 248 345.983154296875 248 C 352.334429496875 248 357.483154296875 253.1487248 357.483154296875 259.5 C 357.483154296875 265.8512752 352.334429496875 271 345.983154296875 271 C 339.631879096875 271 334.483154296875 265.8512752 334.483154296875 259.5 Z" stroke-miterlimit="10"/></g><g transform="translate(-46,-150) scale(1,1)"><g><path fill="none" stroke="none"/><text fill="#000000" stroke="none" font-family="Arial" font-size="13px" font-style="normal" font-weight="bold" text-decoration="none" x="252.418701171875" y="290.5">IPasswordColorReportController</text></g></g><g transform="translate(-46,-150) scale(1,1)"><g><path fill="none" stroke="none"/><text fill="#000000" stroke="none" font-family="Arial" font-size="13px" font-style="normal" font-weight="normal" text-decoration="none" x="271.931396484375" y="305.5">(from BusinessInterfaces)</text></g></g><g transform="translate(-46,-150) scale(1,1)"><path fill="#C0C0C0" stroke="none" d="M 482.0517578125 178.5 C 482.0517578125 172.1487248 487.2004826125 167 493.5517578125 167 C 499.9030330125 167 505.0517578125 172.1487248 505.0517578125 178.5 C 505.0517578125 184.8512752 499.9030330125 190 493.5517578125 190 C 487.2004826125 190 482.0517578125 184.8512752 482.0517578125 178.5 Z" opacity="0.2"/></g><g transform="translate(-46,-150) scale(1,1)"><path fill="#ffffff" stroke="none" d="M 475.0517578125 171.5 C 475.0517578125 165.1487248 480.2004826125 160 486.5517578125 160 C 492.9030330125 160 498.0517578125 165.1487248 498.0517578125 171.5 C 498.0517578125 177.8512752 492.9030330125 183 486.5517578125 183 C 480.2004826125 183 475.0517578125 177.8512752 475.0517578125 171.5 Z"/></g><g transform="translate(-46,-150) scale(1,1)"><path fill="none" stroke="#000000" d="M 475.0517578125 171.5 C 475.0517578125 165.1487248 480.2004826125 160 486.5517578125 160 C 492.9030330125 160 498.0517578125 165.1487248 498.0517578125 171.5 C 498.0517578125 177.8512752 492.9030330125 183 486.5517578125 183 C 480.2004826125 183 475.0517578125 177.8512752 475.0517578125 171.5 Z" stroke-miterlimit="10"/></g><g transform="translate(-46,-150) scale(1,1)"><g><path fill="none" stroke="none"/><text fill="#000000" stroke="none" font-family="Arial" font-size="13px" font-style="normal" font-weight="bold" text-decoration="none" x="422.24365234375" y="202.5">IDataBreachController</text></g></g><g transform="translate(-46,-150) scale(1,1)"><g><path fill="none" stroke="none"/><text fill="#000000" stroke="none" font-family="Arial" font-size="13px" font-style="normal" font-weight="normal" text-decoration="none" x="412.5" y="217.5">(from BusinessInterfaces)</text></g></g><g transform="translate(-46,-150) scale(1,1)"><path fill="#C0C0C0" stroke="none" d="M 306.0517578125 178.5 C 306.0517578125 172.1487248 311.2004826125 167 317.5517578125 167 C 323.9030330125 167 329.0517578125 172.1487248 329.0517578125 178.5 C 329.0517578125 184.8512752 323.9030330125 190 317.5517578125 190 C 311.2004826125 190 306.0517578125 184.8512752 306.0517578125 178.5 Z" opacity="0.2"/></g><g transform="translate(-46,-150) scale(1,1)"><path fill="#ffffff" stroke="none" d="M 299.0517578125 171.5 C 299.0517578125 165.1487248 304.2004826125 160 310.5517578125 160 C 316.9030330125 160 322.0517578125 165.1487248 322.0517578125 171.5 C 322.0517578125 177.8512752 316.9030330125 183 310.5517578125 183 C 304.2004826125 183 299.0517578125 177.8512752 299.0517578125 171.5 Z"/></g><g transform="translate(-46,-150) scale(1,1)"><path fill="none" stroke="#000000" d="M 299.0517578125 171.5 C 299.0517578125 165.1487248 304.2004826125 160 310.5517578125 160 C 316.9030330125 160 322.0517578125 165.1487248 322.0517578125 171.5 C 322.0517578125 177.8512752 316.9030330125 183 310.5517578125 183 C 304.2004826125 183 299.0517578125 177.8512752 299.0517578125 171.5 Z" stroke-miterlimit="10"/></g><g transform="translate(-46,-150) scale(1,1)"><g><path fill="none" stroke="none"/><text fill="#000000" stroke="none" font-family="Arial" font-size="13px" font-style="normal" font-weight="bold" text-decoration="none" x="252.029541015625" y="202.5">IPasswordController</text></g></g><g transform="translate(-46,-150) scale(1,1)"><g><path fill="none" stroke="none"/><text fill="#000000" stroke="none" font-family="Arial" font-size="13px" font-style="normal" font-weight="normal" text-decoration="none" x="236.5" y="217.5">(from BusinessInterfaces)</text></g></g><g transform="translate(-46,-150) scale(1,1)"><path fill="#C0C0C0" stroke="none" d="M 666.0517578125 178.5 C 666.0517578125 172.1487248 671.2004826125 167 677.5517578125 167 C 683.9030330125 167 689.0517578125 172.1487248 689.0517578125 178.5 C 689.0517578125 184.8512752 683.9030330125 190 677.5517578125 190 C 671.2004826125 190 666.0517578125 184.8512752 666.0517578125 178.5 Z" opacity="0.2"/></g><g transform="translate(-46,-150) scale(1,1)"><path fill="#ffffff" stroke="none" d="M 659.0517578125 171.5 C 659.0517578125 165.1487248 664.2004826125 160 670.5517578125 160 C 676.9030330125 160 682.0517578125 165.1487248 682.0517578125 171.5 C 682.0517578125 177.8512752 676.9030330125 183 670.5517578125 183 C 664.2004826125 183 659.0517578125 177.8512752 659.0517578125 171.5 Z"/></g><g transform="translate(-46,-150) scale(1,1)"><path fill="none" stroke="#000000" d="M 659.0517578125 171.5 C 659.0517578125 165.1487248 664.2004826125 160 670.5517578125 160 C 676.9030330125 160 682.0517578125 165.1487248 682.0517578125 171.5 C 682.0517578125 177.8512752 676.9030330125 183 670.5517578125 183 C 664.2004826125 183 659.0517578125 177.8512752 659.0517578125 171.5 Z" stroke-miterlimit="10"/></g><g transform="translate(-46,-150) scale(1,1)"><g><path fill="none" stroke="none"/><text fill="#000000" stroke="none" font-family="Arial" font-size="13px" font-style="normal" font-weight="bold" text-decoration="none" x="617.444091796875" y="202.5">ISessionController</text></g></g><g transform="translate(-46,-150) scale(1,1)"><g><path fill="none" stroke="none"/><text fill="#000000" stroke="none" font-family="Arial" font-size="13px" font-style="normal" font-weight="normal" text-decoration="none" x="596.5" y="217.5">(from BusinessInterfaces)</text></g></g><g transform="translate(-46,-150) scale(1,1)"><path fill="#C0C0C0" stroke="none" d="M 585.634033203125 266.5 C 585.634033203125 260.1487248 590.782758003125 255 597.134033203125 255 C 603.485308403125 255 608.634033203125 260.1487248 608.634033203125 266.5 C 608.634033203125 272.8512752 603.485308403125 278 597.134033203125 278 C 590.782758003125 278 585.634033203125 272.8512752 585.634033203125 266.5 Z" opacity="0.2"/></g><g transform="translate(-46,-150) scale(1,1)"><path fill="#ffffff" stroke="none" d="M 578.634033203125 259.5 C 578.634033203125 253.1487248 583.782758003125 248 590.134033203125 248 C 596.485308403125 248 601.634033203125 253.1487248 601.634033203125 259.5 C 601.634033203125 265.8512752 596.485308403125 271 590.134033203125 271 C 583.782758003125 271 578.634033203125 265.8512752 578.634033203125 259.5 Z"/></g><g transform="translate(-46,-150) scale(1,1)"><path fill="none" stroke="#000000" d="M 578.634033203125 259.5 C 578.634033203125 253.1487248 583.782758003125 248 590.134033203125 248 C 596.485308403125 248 601.634033203125 253.1487248 601.634033203125 259.5 C 601.634033203125 265.8512752 596.485308403125 271 590.134033203125 271 C 583.782758003125 271 578.634033203125 265.8512752 578.634033203125 259.5 Z" stroke-miterlimit="10"/></g><g transform="translate(-46,-150) scale(1,1)"><g><path fill="none" stroke="none"/><text fill="#000000" stroke="none" font-family="Arial" font-size="13px" font-style="normal" font-weight="bold" text-decoration="none" x="514.266845703125" y="290.5">ISharePasswordController</text></g></g><g transform="translate(-46,-150) scale(1,1)"><g><path fill="none" stroke="none"/><text fill="#000000" stroke="none" font-family="Arial" font-size="13px" font-style="normal" font-weight="normal" text-decoration="none" x="516.082275390625" y="305.5">(from BusinessInterfaces)</text></g></g></g></svg>