<svg version="1.1" xmlns="http://www.w3.org/2000/svg" xmlns:xlink="http://www.w3.org/1999/xlink" width="1260" height="443"><defs/><g><g transform="translate(2,-78) scale(1,1)"><rect fill="#C0C0C0" stroke="none" x="15" y="399" width="496" height="15" opacity="0.2"/></g><g transform="translate(2,-78) scale(1,1)"><rect fill="#C0C0C0" stroke="none" x="15" y="413" width="1240" height="105" opacity="0.2"/></g><g transform="translate(2,-78) scale(1,1)"><rect fill="#ffffff" stroke="none" x="8" y="407" width="1240" height="104"/></g><g transform="translate(2,-78) scale(1,1)"><path fill="none" stroke="#000000" d="M 8 407 L 1248 407 L 1248 511 L 8 511 L 8 407 Z Z" stroke-miterlimit="10"/></g><g transform="translate(2,-78) scale(1,1)"><rect fill="#ffffff" stroke="none" x="8" y="392" width="496" height="15"/></g><g transform="translate(2,-78) scale(1,1)"><path fill="none" stroke="#000000" d="M 8 392 L 504 392 L 504 407 L 8 407 L 8 392 Z Z" stroke-miterlimit="10"/></g><g transform="translate(2,-78) scale(1,1)"><rect fill="#ffffff" stroke="none" x="8" y="406" width="1240" height="105"/></g><g transform="translate(2,-78) scale(1,1)"><path fill="none" stroke="#000000" d="M 8 406 L 1248 406 L 1248 511 L 8 511 L 8 406 Z Z" stroke-miterlimit="10"/></g><g transform="translate(2,-78) scale(1,1)"><g><path fill="none" stroke="none"/><text fill="#000000" stroke="none" font-family="Arial" font-size="13px" font-style="normal" font-weight="bold" text-decoration="none" x="573.083251953125" y="426.5">BusinessInterfaces</text></g></g><g transform="translate(2,-78) scale(1,1)"><rect fill="#C0C0C0" stroke="none" x="447" y="95" width="442.138671875" height="162" opacity="0.2"/></g><g transform="translate(2,-78) scale(1,1)"><rect fill="#ffffff" stroke="none" x="440" y="88" width="442.138671875" height="162"/></g><g transform="translate(2,-78) scale(1,1)"><path fill="none" stroke="#000000" d="M 440 88 L 882.138671875 88 L 882.138671875 250 L 440 250 L 440 88 Z Z" stroke-miterlimit="10"/></g><g transform="translate(2,-78) scale(1,1)"><path fill="none" stroke="#000000" d="M 440 128 L 882.138671875 128" stroke-miterlimit="10"/></g><g transform="translate(2,-78) scale(1,1)"><path fill="none" stroke="#000000" d="M 440 138 L 882.138671875 138" stroke-miterlimit="10"/></g><g transform="translate(2,-78) scale(1,1)"><g><path fill="none" stroke="none"/><text fill="#000000" stroke="none" font-family="Arial" font-size="13px" font-style="normal" font-weight="bold" text-decoration="none" x="584.481689453125" y="107.5">FactoryBusinessInterfaces</text></g></g><g transform="translate(2,-78) scale(1,1)"><g><path fill="none" stroke="none"/><text fill="#000000" stroke="none" font-family="Arial" font-size="13px" font-style="normal" font-weight="normal" text-decoration="none" x="593.888916015625" y="122.5">(from BusinessFactory)</text></g></g><g transform="translate(2,-78) scale(1,1)"><g><path fill="none" stroke="none"/><text fill="#000000" stroke="none" font-family="Arial" font-size="13px" font-style="normal" font-weight="normal" text-decoration="none" x="445" y="155.5">+GetInstanceSessionController(): ISessionController</text><path fill="none" stroke="#000000" d="M 445 155.5 L 747.3896484375 155.5" stroke-miterlimit="10"/></g></g><g transform="translate(2,-78) scale(1,1)"><g><path fill="none" stroke="none"/><text fill="#000000" stroke="none" font-family="Arial" font-size="13px" font-style="normal" font-weight="normal" text-decoration="none" x="445" y="170.5">+CreateCategoryController(): ICategoryController</text><path fill="none" stroke="#000000" d="M 445 170.5 L 729.3115234375 170.5" stroke-miterlimit="10"/></g></g><g transform="translate(2,-78) scale(1,1)"><g><path fill="none" stroke="none"/><text fill="#000000" stroke="none" font-family="Arial" font-size="13px" font-style="normal" font-weight="normal" text-decoration="none" x="445" y="185.5">+CreateCreditCardController(): ICreditCardController</text><path fill="none" stroke="#000000" d="M 445 185.5 L 749.5224609375 185.5" stroke-miterlimit="10"/></g></g><g transform="translate(2,-78) scale(1,1)"><g><path fill="none" stroke="none"/><text fill="#000000" stroke="none" font-family="Arial" font-size="13px" font-style="normal" font-weight="normal" text-decoration="none" x="445" y="200.5">+CreateDataBreachController(): IDataBreachController</text><path fill="none" stroke="#000000" d="M 445 200.5 L 761.11328125 200.5" stroke-miterlimit="10"/></g></g><g transform="translate(2,-78) scale(1,1)"><g><path fill="none" stroke="none"/><text fill="#000000" stroke="none" font-family="Arial" font-size="13px" font-style="normal" font-weight="normal" text-decoration="none" x="445" y="215.5">+CreatePasswordColorReportController(): IPasswordColorReportController</text><path fill="none" stroke="#000000" d="M 445 215.5 L 878.138671875 215.5" stroke-miterlimit="10"/></g></g><g transform="translate(2,-78) scale(1,1)"><g><path fill="none" stroke="none"/><text fill="#000000" stroke="none" font-family="Arial" font-size="13px" font-style="normal" font-weight="normal" text-decoration="none" x="445" y="230.5">+CreatePasswordController(): IPasswordController</text><path fill="none" stroke="#000000" d="M 445 230.5 L 737.9697265625 230.5" stroke-miterlimit="10"/></g></g><g transform="translate(2,-78) scale(1,1)"><g><path fill="none" stroke="none"/><text fill="#000000" stroke="none" font-family="Arial" font-size="13px" font-style="normal" font-weight="normal" text-decoration="none" x="445" y="245.5">+CreateSharePasswordController(): ISharePasswordController</text><path fill="none" stroke="#000000" d="M 445 245.5 L 807.349609375 245.5" stroke-miterlimit="10"/></g></g><g transform="translate(2,-78) scale(1,1)"><rect fill="#C0C0C0" stroke="none" x="207" y="439" width="137.58447265625" height="59" opacity="0.2"/></g><g transform="translate(2,-78) scale(1,1)"><rect fill="#ffffff" stroke="none" x="200" y="432" width="137.58447265625" height="59"/></g><g transform="translate(2,-78) scale(1,1)"><path fill="none" stroke="#00d600" d="M 200 432 L 337.58447265625 432 L 337.58447265625 491 L 200 491 L 200 432 Z Z" stroke-miterlimit="10"/></g><g transform="translate(2,-78) scale(1,1)"><path fill="none" stroke="#00d600" d="M 200 457 L 337.58447265625 457" stroke-miterlimit="10"/></g><g transform="translate(2,-78) scale(1,1)"><path fill="none" stroke="#00d600" d="M 200 467 L 337.58447265625 467" stroke-miterlimit="10"/></g><g transform="translate(2,-78) scale(1,1)"><g><path fill="none" stroke="none"/><text fill="#000000" stroke="none" font-family="Arial" font-size="13px" font-style="normal" font-weight="bold" text-decoration="none" x="215.6845703125" y="451.5">ISessionController</text></g></g><g transform="translate(2,-78) scale(1,1)"><rect fill="#C0C0C0" stroke="none" x="359" y="439" width="137.58447265625" height="59" opacity="0.2"/></g><g transform="translate(2,-78) scale(1,1)"><rect fill="#ffffff" stroke="none" x="352" y="432" width="137.58447265625" height="59"/></g><g transform="translate(2,-78) scale(1,1)"><path fill="none" stroke="#00d600" d="M 352 432 L 489.58447265625 432 L 489.58447265625 491 L 352 491 L 352 432 Z Z" stroke-miterlimit="10"/></g><g transform="translate(2,-78) scale(1,1)"><path fill="none" stroke="#00d600" d="M 352 457 L 489.58447265625 457" stroke-miterlimit="10"/></g><g transform="translate(2,-78) scale(1,1)"><path fill="none" stroke="#00d600" d="M 352 467 L 489.58447265625 467" stroke-miterlimit="10"/></g><g transform="translate(2,-78) scale(1,1)"><g><path fill="none" stroke="none"/><text fill="#000000" stroke="none" font-family="Arial" font-size="13px" font-style="normal" font-weight="bold" text-decoration="none" x="364.4345703125" y="451.5">ICategoryController</text></g></g><g transform="translate(2,-78) scale(1,1)"><rect fill="#C0C0C0" stroke="none" x="511" y="439" width="141.90087890625" height="59" opacity="0.2"/></g><g transform="translate(2,-78) scale(1,1)"><rect fill="#ffffff" stroke="none" x="504" y="432" width="141.90087890625" height="59"/></g><g transform="translate(2,-78) scale(1,1)"><path fill="none" stroke="#00d600" d="M 504 432 L 645.90087890625 432 L 645.90087890625 491 L 504 491 L 504 432 Z Z" stroke-miterlimit="10"/></g><g transform="translate(2,-78) scale(1,1)"><path fill="none" stroke="#00d600" d="M 504 457 L 645.90087890625 457" stroke-miterlimit="10"/></g><g transform="translate(2,-78) scale(1,1)"><path fill="none" stroke="#00d600" d="M 504 467 L 645.90087890625 467" stroke-miterlimit="10"/></g><g transform="translate(2,-78) scale(1,1)"><g><path fill="none" stroke="none"/><text fill="#000000" stroke="none" font-family="Arial" font-size="13px" font-style="normal" font-weight="bold" text-decoration="none" x="513.5400390625" y="451.5">ICreditCardController</text></g></g><g transform="translate(2,-78) scale(1,1)"><rect fill="#C0C0C0" stroke="none" x="671" y="439" width="146.97900390625" height="59" opacity="0.2"/></g><g transform="translate(2,-78) scale(1,1)"><rect fill="#ffffff" stroke="none" x="664" y="432" width="146.97900390625" height="59"/></g><g transform="translate(2,-78) scale(1,1)"><path fill="none" stroke="#00d600" d="M 664 432 L 810.97900390625 432 L 810.97900390625 491 L 664 491 L 664 432 Z Z" stroke-miterlimit="10"/></g><g transform="translate(2,-78) scale(1,1)"><path fill="none" stroke="#00d600" d="M 664 457 L 810.97900390625 457" stroke-miterlimit="10"/></g><g transform="translate(2,-78) scale(1,1)"><path fill="none" stroke="#00d600" d="M 664 467 L 810.97900390625 467" stroke-miterlimit="10"/></g><g transform="translate(2,-78) scale(1,1)"><g><path fill="none" stroke="none"/><text fill="#000000" stroke="none" font-family="Arial" font-size="13px" font-style="normal" font-weight="bold" text-decoration="none" x="673.181396484375" y="451.5">IDataBreachController</text></g></g><g transform="translate(2,-78) scale(1,1)"><rect fill="#C0C0C0" stroke="none" x="831" y="439" width="211.96630859375" height="59" opacity="0.2"/></g><g transform="translate(2,-78) scale(1,1)"><rect fill="#ffffff" stroke="none" x="824" y="432" width="211.96630859375" height="59"/></g><g transform="translate(2,-78) scale(1,1)"><path fill="none" stroke="#00d600" d="M 824 432 L 1035.96630859375 432 L 1035.96630859375 491 L 824 491 L 824 432 Z Z" stroke-miterlimit="10"/></g><g transform="translate(2,-78) scale(1,1)"><path fill="none" stroke="#00d600" d="M 824 457 L 1035.96630859375 457" stroke-miterlimit="10"/></g><g transform="translate(2,-78) scale(1,1)"><path fill="none" stroke="#00d600" d="M 824 467 L 1035.96630859375 467" stroke-miterlimit="10"/></g><g transform="translate(2,-78) scale(1,1)"><g><path fill="none" stroke="none"/><text fill="#000000" stroke="none" font-family="Arial" font-size="13px" font-style="normal" font-weight="bold" text-decoration="none" x="836.418701171875" y="451.5">IPasswordColorReportController</text></g></g><g transform="translate(2,-78) scale(1,1)"><rect fill="#C0C0C0" stroke="none" x="1063" y="439" width="137.58447265625" height="59" opacity="0.2"/></g><g transform="translate(2,-78) scale(1,1)"><rect fill="#ffffff" stroke="none" x="1056" y="432" width="137.58447265625" height="59"/></g><g transform="translate(2,-78) scale(1,1)"><path fill="none" stroke="#00d600" d="M 1056 432 L 1193.58447265625 432 L 1193.58447265625 491 L 1056 491 L 1056 432 Z Z" stroke-miterlimit="10"/></g><g transform="translate(2,-78) scale(1,1)"><path fill="none" stroke="#00d600" d="M 1056 457 L 1193.58447265625 457" stroke-miterlimit="10"/></g><g transform="translate(2,-78) scale(1,1)"><path fill="none" stroke="#00d600" d="M 1056 467 L 1193.58447265625 467" stroke-miterlimit="10"/></g><g transform="translate(2,-78) scale(1,1)"><g><path fill="none" stroke="none"/><text fill="#000000" stroke="none" font-family="Arial" font-size="13px" font-style="normal" font-weight="bold" text-decoration="none" x="1066.27001953125" y="451.5">IPasswordController</text></g></g><g transform="translate(2,-78) scale(1,1)"><rect fill="#C0C0C0" stroke="none" x="23" y="439" width="172.26806640625" height="59" opacity="0.2"/></g><g transform="translate(2,-78) scale(1,1)"><rect fill="#ffffff" stroke="none" x="16" y="432" width="172.26806640625" height="59"/></g><g transform="translate(2,-78) scale(1,1)"><path fill="none" stroke="#00d600" d="M 16 432 L 188.26806640625 432 L 188.26806640625 491 L 16 491 L 16 432 Z Z" stroke-miterlimit="10"/></g><g transform="translate(2,-78) scale(1,1)"><path fill="none" stroke="#00d600" d="M 16 457 L 188.26806640625 457" stroke-miterlimit="10"/></g><g transform="translate(2,-78) scale(1,1)"><path fill="none" stroke="#00d600" d="M 16 467 L 188.26806640625 467" stroke-miterlimit="10"/></g><g transform="translate(2,-78) scale(1,1)"><g><path fill="none" stroke="none"/><text fill="#000000" stroke="none" font-family="Arial" font-size="13px" font-style="normal" font-weight="bold" text-decoration="none" x="26.266845703125" y="451.5">ISharePasswordController</text></g></g><g transform="translate(2,-78) scale(1,1)"><path fill="none" stroke="#000000" d="M 448 250 L 448 272 L 120 272 L 120 432" stroke-miterlimit="10" stroke-dasharray="3"/></g><g transform="translate(2,-78) scale(1,1)"><path fill="none" stroke="#000000" d="M 115.79048224398402 421.83732514237585 L 120 432 L 124.20951775601598 421.83732514237585" stroke-miterlimit="10"/></g><g transform="translate(2,-78) scale(1,1)"><path fill="none" stroke="#000000" d="M 464 250 L 464 288 L 232 288 L 232 432" stroke-miterlimit="10" stroke-dasharray="3"/></g><g transform="translate(2,-78) scale(1,1)"><path fill="none" stroke="#000000" d="M 227.790482243984 421.83732514237585 L 232 432 L 236.209517756016 421.83732514237585" stroke-miterlimit="10"/></g><g transform="translate(2,-78) scale(1,1)"><path fill="none" stroke="#000000" d="M 480 250 L 480 432" stroke-miterlimit="10" stroke-dasharray="3"/></g><g transform="translate(2,-78) scale(1,1)"><path fill="none" stroke="#000000" d="M 475.790482243984 421.83732514237585 L 480 432 L 484.209517756016 421.83732514237585" stroke-miterlimit="10"/></g><g transform="translate(2,-78) scale(1,1)"><path fill="none" stroke="#000000" d="M 544 250 L 544 432" stroke-miterlimit="10" stroke-dasharray="3"/></g><g transform="translate(2,-78) scale(1,1)"><path fill="none" stroke="#000000" d="M 539.790482243984 421.83732514237585 L 544 432 L 548.209517756016 421.83732514237585" stroke-miterlimit="10"/></g><g transform="translate(2,-78) scale(1,1)"><path fill="none" stroke="#000000" d="M 696 250 L 696 432" stroke-miterlimit="10" stroke-dasharray="3"/></g><g transform="translate(2,-78) scale(1,1)"><path fill="none" stroke="#000000" d="M 691.790482243984 421.83732514237585 L 696 432 L 700.209517756016 421.83732514237585" stroke-miterlimit="10"/></g><g transform="translate(2,-78) scale(1,1)"><path fill="none" stroke="#000000" d="M 856 250 L 856 432" stroke-miterlimit="10" stroke-dasharray="3"/></g><g transform="translate(2,-78) scale(1,1)"><path fill="none" stroke="#000000" d="M 851.790482243984 421.83732514237585 L 856 432 L 860.209517756016 421.83732514237585" stroke-miterlimit="10"/></g><g transform="translate(2,-78) scale(1,1)"><path fill="none" stroke="#000000" d="M 864 250 L 864 280 L 1088 280 L 1088 432" stroke-miterlimit="10" stroke-dasharray="3"/></g><g transform="translate(2,-78) scale(1,1)"><path fill="none" stroke="#000000" d="M 1083.7904822439841 421.83732514237585 L 1088 432 L 1092.2095177560159 421.83732514237585" stroke-miterlimit="10"/></g></g></svg>