<svg version="1.1" xmlns="http://www.w3.org/2000/svg" xmlns:xlink="http://www.w3.org/1999/xlink" width="996" height="364"><defs/><g><g transform="translate(-54,-62) scale(1,1)"><rect fill="#C0C0C0" stroke="none" x="399" y="79" width="351.1259765625" height="132" opacity="0.2"/></g><g transform="translate(-54,-62) scale(1,1)"><rect fill="#ffffff" stroke="none" x="392" y="72" width="351.1259765625" height="132"/></g><g transform="translate(-54,-62) scale(1,1)"><path fill="none" stroke="#000000" d="M 392 72 L 743.1259765625 72 L 743.1259765625 204 L 392 204 L 392 72 Z Z" stroke-miterlimit="10"/></g><g transform="translate(-54,-62) scale(1,1)"><path fill="none" stroke="#000000" d="M 392 112 L 743.1259765625 112" stroke-miterlimit="10"/></g><g transform="translate(-54,-62) scale(1,1)"><path fill="none" stroke="#000000" d="M 392 122 L 743.1259765625 122" stroke-miterlimit="10"/></g><g transform="translate(-54,-62) scale(1,1)"><g><path fill="none" stroke="none"/><text fill="#000000" stroke="none" font-family="Arial" font-size="13px" font-style="normal" font-weight="bold" text-decoration="none" x="482.66943359375" y="91.5">FactoryDataAccessInterfaces</text></g></g><g transform="translate(-54,-62) scale(1,1)"><g><path fill="none" stroke="none"/><text fill="#000000" stroke="none" font-family="Arial" font-size="13px" font-style="normal" font-weight="normal" text-decoration="none" x="492.07666015625" y="106.5">(from DataAccessFactory)</text></g></g><g transform="translate(-54,-62) scale(1,1)"><g><path fill="none" stroke="none"/><text fill="#000000" stroke="none" font-family="Arial" font-size="13px" font-style="normal" font-weight="normal" text-decoration="none" x="397" y="139.5">+CreateDataAccessCategory(): IDataAccessCategory</text><path fill="none" stroke="#000000" d="M 397 139.5 L 707.32421875 139.5" stroke-miterlimit="10"/></g></g><g transform="translate(-54,-62) scale(1,1)"><g><path fill="none" stroke="none"/><text fill="#000000" stroke="none" font-family="Arial" font-size="13px" font-style="normal" font-weight="normal" text-decoration="none" x="397" y="154.5">+CreateDataAccessCreditCard(): IDataAccessCreditCard</text><path fill="none" stroke="#000000" d="M 397 154.5 L 727.53515625 154.5" stroke-miterlimit="10"/></g></g><g transform="translate(-54,-62) scale(1,1)"><g><path fill="none" stroke="none"/><text fill="#000000" stroke="none" font-family="Arial" font-size="13px" font-style="normal" font-weight="normal" text-decoration="none" x="397" y="169.5">+CreateDataAccessPassword(): IDataAccessPassword</text><path fill="none" stroke="#000000" d="M 397 169.5 L 715.982421875 169.5" stroke-miterlimit="10"/></g></g><g transform="translate(-54,-62) scale(1,1)"><g><path fill="none" stroke="none"/><text fill="#000000" stroke="none" font-family="Arial" font-size="13px" font-style="normal" font-weight="normal" text-decoration="none" x="397" y="184.5">+CreateDataAccessDataBreach(): IDataAccessDataBreach</text><path fill="none" stroke="#000000" d="M 397 184.5 L 739.1259765625 184.5" stroke-miterlimit="10"/></g></g><g transform="translate(-54,-62) scale(1,1)"><g><path fill="none" stroke="none"/><text fill="#000000" stroke="none" font-family="Arial" font-size="13px" font-style="normal" font-weight="normal" text-decoration="none" x="397" y="199.5">+CreateDataAccessUser(): IDataAccessUser</text><path fill="none" stroke="#000000" d="M 397 199.5 L 656.720703125 199.5" stroke-miterlimit="10"/></g></g><g transform="translate(-54,-62) scale(1,1)"><rect fill="#C0C0C0" stroke="none" x="71" y="271" width="390.4" height="15" opacity="0.2"/></g><g transform="translate(-54,-62) scale(1,1)"><rect fill="#C0C0C0" stroke="none" x="71" y="285" width="976" height="138" opacity="0.2"/></g><g transform="translate(-54,-62) scale(1,1)"><rect fill="#ffffff" stroke="none" x="64" y="279" width="976" height="137"/></g><g transform="translate(-54,-62) scale(1,1)"><path fill="none" stroke="#0000a0" d="M 64 279 L 1040 279 L 1040 416 L 64 416 L 64 279 Z Z" stroke-miterlimit="10"/></g><g transform="translate(-54,-62) scale(1,1)"><rect fill="#ffffff" stroke="none" x="64" y="264" width="390.4" height="15"/></g><g transform="translate(-54,-62) scale(1,1)"><path fill="none" stroke="#0000a0" d="M 64 264 L 454.4 264 L 454.4 279 L 64 279 L 64 264 Z Z" stroke-miterlimit="10"/></g><g transform="translate(-54,-62) scale(1,1)"><rect fill="#ffffff" stroke="none" x="64" y="278" width="976" height="138"/></g><g transform="translate(-54,-62) scale(1,1)"><path fill="none" stroke="#0000a0" d="M 64 278 L 1040 278 L 1040 416 L 64 416 L 64 278 Z Z" stroke-miterlimit="10"/></g><g transform="translate(-54,-62) scale(1,1)"><g><path fill="none" stroke="none"/><text fill="#000000" stroke="none" font-family="Arial" font-size="13px" font-style="normal" font-weight="bold" text-decoration="none" x="488.77734375" y="298.5">DataAccessInterfaces</text></g></g><g transform="translate(-54,-62) scale(1,1)"><rect fill="#C0C0C0" stroke="none" x="87" y="343" width="173.71533203125" height="59" opacity="0.2"/></g><g transform="translate(-54,-62) scale(1,1)"><rect fill="#ffffff" stroke="none" x="80" y="336" width="173.71533203125" height="59"/></g><g transform="translate(-54,-62) scale(1,1)"><path fill="none" stroke="#2b2bff" d="M 80 336 L 253.71533203125 336 L 253.71533203125 395 L 80 395 L 80 336 Z Z" stroke-miterlimit="10"/></g><g transform="translate(-54,-62) scale(1,1)"><path fill="none" stroke="#2b2bff" d="M 80 361 L 253.71533203125 361" stroke-miterlimit="10"/></g><g transform="translate(-54,-62) scale(1,1)"><path fill="none" stroke="#2b2bff" d="M 80 371 L 253.71533203125 371" stroke-miterlimit="10"/></g><g transform="translate(-54,-62) scale(1,1)"><g><path fill="none" stroke="none"/><text fill="#000000" stroke="none" font-family="Arial" font-size="13px" font-style="normal" font-weight="bold" text-decoration="none" x="103.996826171875" y="355.5">IDataAccessCategory</text></g></g><g transform="translate(-54,-62) scale(1,1)"><rect fill="#C0C0C0" stroke="none" x="279" y="343" width="173.71533203125" height="59" opacity="0.2"/></g><g transform="translate(-54,-62) scale(1,1)"><rect fill="#ffffff" stroke="none" x="272" y="336" width="173.71533203125" height="59"/></g><g transform="translate(-54,-62) scale(1,1)"><path fill="none" stroke="#2b2bff" d="M 272 336 L 445.71533203125 336 L 445.71533203125 395 L 272 395 L 272 336 Z Z" stroke-miterlimit="10"/></g><g transform="translate(-54,-62) scale(1,1)"><path fill="none" stroke="#2b2bff" d="M 272 361 L 445.71533203125 361" stroke-miterlimit="10"/></g><g transform="translate(-54,-62) scale(1,1)"><path fill="none" stroke="#2b2bff" d="M 272 371 L 445.71533203125 371" stroke-miterlimit="10"/></g><g transform="translate(-54,-62) scale(1,1)"><g><path fill="none" stroke="none"/><text fill="#000000" stroke="none" font-family="Arial" font-size="13px" font-style="normal" font-weight="bold" text-decoration="none" x="290.944091796875" y="355.5">IDataAccessCreditCard</text></g></g><g transform="translate(-54,-62) scale(1,1)"><rect fill="#C0C0C0" stroke="none" x="479" y="343" width="173.71533203125" height="59" opacity="0.2"/></g><g transform="translate(-54,-62) scale(1,1)"><rect fill="#ffffff" stroke="none" x="472" y="336" width="173.71533203125" height="59"/></g><g transform="translate(-54,-62) scale(1,1)"><path fill="none" stroke="#2b2bff" d="M 472 336 L 645.71533203125 336 L 645.71533203125 395 L 472 395 L 472 336 Z Z" stroke-miterlimit="10"/></g><g transform="translate(-54,-62) scale(1,1)"><path fill="none" stroke="#2b2bff" d="M 472 361 L 645.71533203125 361" stroke-miterlimit="10"/></g><g transform="translate(-54,-62) scale(1,1)"><path fill="none" stroke="#2b2bff" d="M 472 371 L 645.71533203125 371" stroke-miterlimit="10"/></g><g transform="translate(-54,-62) scale(1,1)"><g><path fill="none" stroke="none"/><text fill="#000000" stroke="none" font-family="Arial" font-size="13px" font-style="normal" font-weight="bold" text-decoration="none" x="508.647705078125" y="355.5">IDataAccessUser</text></g></g><g transform="translate(-54,-62) scale(1,1)"><rect fill="#C0C0C0" stroke="none" x="663" y="343" width="173.71533203125" height="59" opacity="0.2"/></g><g transform="translate(-54,-62) scale(1,1)"><rect fill="#ffffff" stroke="none" x="656" y="336" width="173.71533203125" height="59"/></g><g transform="translate(-54,-62) scale(1,1)"><path fill="none" stroke="#2b2bff" d="M 656 336 L 829.71533203125 336 L 829.71533203125 395 L 656 395 L 656 336 Z Z" stroke-miterlimit="10"/></g><g transform="translate(-54,-62) scale(1,1)"><path fill="none" stroke="#2b2bff" d="M 656 361 L 829.71533203125 361" stroke-miterlimit="10"/></g><g transform="translate(-54,-62) scale(1,1)"><path fill="none" stroke="#2b2bff" d="M 656 371 L 829.71533203125 371" stroke-miterlimit="10"/></g><g transform="translate(-54,-62) scale(1,1)"><g><path fill="none" stroke="none"/><text fill="#000000" stroke="none" font-family="Arial" font-size="13px" font-style="normal" font-weight="bold" text-decoration="none" x="672.04638671875" y="355.5">IDataAccessDataBreach</text></g></g><g transform="translate(-54,-62) scale(1,1)"><rect fill="#C0C0C0" stroke="none" x="855" y="343" width="173.71533203125" height="59" opacity="0.2"/></g><g transform="translate(-54,-62) scale(1,1)"><rect fill="#ffffff" stroke="none" x="848" y="336" width="173.71533203125" height="59"/></g><g transform="translate(-54,-62) scale(1,1)"><path fill="none" stroke="#2b2bff" d="M 848 336 L 1021.71533203125 336 L 1021.71533203125 395 L 848 395 L 848 336 Z Z" stroke-miterlimit="10"/></g><g transform="translate(-54,-62) scale(1,1)"><path fill="none" stroke="#2b2bff" d="M 848 361 L 1021.71533203125 361" stroke-miterlimit="10"/></g><g transform="translate(-54,-62) scale(1,1)"><path fill="none" stroke="#2b2bff" d="M 848 371 L 1021.71533203125 371" stroke-miterlimit="10"/></g><g transform="translate(-54,-62) scale(1,1)"><g><path fill="none" stroke="none"/><text fill="#000000" stroke="none" font-family="Arial" font-size="13px" font-style="normal" font-weight="bold" text-decoration="none" x="869.832275390625" y="355.5">IDataAccessPassword</text></g></g><g transform="translate(-54,-62) scale(1,1)"><path fill="none" stroke="#000000" d="M 392 192 L 216 192 L 216 336" stroke-miterlimit="10" stroke-dasharray="3"/></g><g transform="translate(-54,-62) scale(1,1)"><path fill="none" stroke="#000000" d="M 211.790482243984 325.83732514237585 L 216 336 L 220.209517756016 325.83732514237585" stroke-miterlimit="10"/></g><g transform="translate(-54,-62) scale(1,1)"><path fill="none" stroke="#000000" d="M 416 204 L 416 336" stroke-miterlimit="10" stroke-dasharray="3"/></g><g transform="translate(-54,-62) scale(1,1)"><path fill="none" stroke="#000000" d="M 411.790482243984 325.83732514237585 L 416 336 L 420.209517756016 325.83732514237585" stroke-miterlimit="10"/></g><g transform="translate(-54,-62) scale(1,1)"><path fill="none" stroke="#000000" d="M 564 204 L 564 336" stroke-miterlimit="10" stroke-dasharray="3"/></g><g transform="translate(-54,-62) scale(1,1)"><path fill="none" stroke="#000000" d="M 559.790482243984 325.83732514237585 L 564 336 L 568.209517756016 325.83732514237585" stroke-miterlimit="10"/></g><g transform="translate(-54,-62) scale(1,1)"><path fill="none" stroke="#000000" d="M 704 204 L 704 336" stroke-miterlimit="10" stroke-dasharray="3"/></g><g transform="translate(-54,-62) scale(1,1)"><path fill="none" stroke="#000000" d="M 699.790482243984 325.83732514237585 L 704 336 L 708.209517756016 325.83732514237585" stroke-miterlimit="10"/></g><g transform="translate(-54,-62) scale(1,1)"><path fill="none" stroke="#000000" d="M 743 192 L 912 192 L 912 336" stroke-miterlimit="10" stroke-dasharray="3"/></g><g transform="translate(-54,-62) scale(1,1)"><path fill="none" stroke="#000000" d="M 907.790482243984 325.83732514237585 L 912 336 L 916.209517756016 325.83732514237585" stroke-miterlimit="10"/></g></g></svg>