<svg version="1.1" xmlns="http://www.w3.org/2000/svg" xmlns:xlink="http://www.w3.org/1999/xlink" width="929.71533203125" height="219"><defs/><g><g transform="translate(-94,-22) scale(1,1)"><path fill="#C0C0C0" stroke="none" d="M 186.357666015625 186.5 C 186.357666015625 180.1487248 191.506390815625 175 197.857666015625 175 C 204.208941215625 175 209.357666015625 180.1487248 209.357666015625 186.5 C 209.357666015625 192.8512752 204.208941215625 198 197.857666015625 198 C 191.506390815625 198 186.357666015625 192.8512752 186.357666015625 186.5 Z" opacity="0.2"/></g><g transform="translate(-94,-22) scale(1,1)"><path fill="#ffffff" stroke="none" d="M 179.357666015625 179.5 C 179.357666015625 173.1487248 184.506390815625 168 190.857666015625 168 C 197.208941215625 168 202.357666015625 173.1487248 202.357666015625 179.5 C 202.357666015625 185.8512752 197.208941215625 191 190.857666015625 191 C 184.506390815625 191 179.357666015625 185.8512752 179.357666015625 179.5 Z"/></g><g transform="translate(-94,-22) scale(1,1)"><path fill="none" stroke="#000000" d="M 179.357666015625 179.5 C 179.357666015625 173.1487248 184.506390815625 168 190.857666015625 168 C 197.208941215625 168 202.357666015625 173.1487248 202.357666015625 179.5 C 202.357666015625 185.8512752 197.208941215625 191 190.857666015625 191 C 184.506390815625 191 179.357666015625 185.8512752 179.357666015625 179.5 Z" stroke-miterlimit="10"/></g><g transform="translate(-94,-22) scale(1,1)"><g><path fill="none" stroke="none"/><text fill="#000000" stroke="none" font-family="Arial" font-size="13px" font-style="normal" font-weight="bold" text-decoration="none" x="127.996826171875" y="210.5">IDataAccessCategory</text></g></g><g transform="translate(-94,-22) scale(1,1)"><g><path fill="none" stroke="none"/><text fill="#000000" stroke="none" font-family="Arial" font-size="13px" font-style="normal" font-weight="normal" text-decoration="none" x="108.5" y="225.5">(from DataAccessInterfaces)</text></g></g><g transform="translate(-94,-22) scale(1,1)"><path fill="#C0C0C0" stroke="none" d="M 362.357666015625 186.5 C 362.357666015625 180.1487248 367.506390815625 175 373.857666015625 175 C 380.208941215625 175 385.357666015625 180.1487248 385.357666015625 186.5 C 385.357666015625 192.8512752 380.208941215625 198 373.857666015625 198 C 367.506390815625 198 362.357666015625 192.8512752 362.357666015625 186.5 Z" opacity="0.2"/></g><g transform="translate(-94,-22) scale(1,1)"><path fill="#ffffff" stroke="none" d="M 355.357666015625 179.5 C 355.357666015625 173.1487248 360.506390815625 168 366.857666015625 168 C 373.208941215625 168 378.357666015625 173.1487248 378.357666015625 179.5 C 378.357666015625 185.8512752 373.208941215625 191 366.857666015625 191 C 360.506390815625 191 355.357666015625 185.8512752 355.357666015625 179.5 Z"/></g><g transform="translate(-94,-22) scale(1,1)"><path fill="none" stroke="#000000" d="M 355.357666015625 179.5 C 355.357666015625 173.1487248 360.506390815625 168 366.857666015625 168 C 373.208941215625 168 378.357666015625 173.1487248 378.357666015625 179.5 C 378.357666015625 185.8512752 373.208941215625 191 366.857666015625 191 C 360.506390815625 191 355.357666015625 185.8512752 355.357666015625 179.5 Z" stroke-miterlimit="10"/></g><g transform="translate(-94,-22) scale(1,1)"><g><path fill="none" stroke="none"/><text fill="#000000" stroke="none" font-family="Arial" font-size="13px" font-style="normal" font-weight="bold" text-decoration="none" x="298.944091796875" y="210.5">IDataAccessCreditCard</text></g></g><g transform="translate(-94,-22) scale(1,1)"><g><path fill="none" stroke="none"/><text fill="#000000" stroke="none" font-family="Arial" font-size="13px" font-style="normal" font-weight="normal" text-decoration="none" x="284.5" y="225.5">(from DataAccessInterfaces)</text></g></g><g transform="translate(-94,-22) scale(1,1)"><path fill="#C0C0C0" stroke="none" d="M 730.357666015625 186.5 C 730.357666015625 180.1487248 735.506390815625 175 741.857666015625 175 C 748.208941215625 175 753.357666015625 180.1487248 753.357666015625 186.5 C 753.357666015625 192.8512752 748.208941215625 198 741.857666015625 198 C 735.506390815625 198 730.357666015625 192.8512752 730.357666015625 186.5 Z" opacity="0.2"/></g><g transform="translate(-94,-22) scale(1,1)"><path fill="#ffffff" stroke="none" d="M 723.357666015625 179.5 C 723.357666015625 173.1487248 728.506390815625 168 734.857666015625 168 C 741.208941215625 168 746.357666015625 173.1487248 746.357666015625 179.5 C 746.357666015625 185.8512752 741.208941215625 191 734.857666015625 191 C 728.506390815625 191 723.357666015625 185.8512752 723.357666015625 179.5 Z"/></g><g transform="translate(-94,-22) scale(1,1)"><path fill="none" stroke="#000000" d="M 723.357666015625 179.5 C 723.357666015625 173.1487248 728.506390815625 168 734.857666015625 168 C 741.208941215625 168 746.357666015625 173.1487248 746.357666015625 179.5 C 746.357666015625 185.8512752 741.208941215625 191 734.857666015625 191 C 728.506390815625 191 723.357666015625 185.8512752 723.357666015625 179.5 Z" stroke-miterlimit="10"/></g><g transform="translate(-94,-22) scale(1,1)"><g><path fill="none" stroke="none"/><text fill="#000000" stroke="none" font-family="Arial" font-size="13px" font-style="normal" font-weight="bold" text-decoration="none" x="664.04638671875" y="210.5">IDataAccessDataBreach</text></g></g><g transform="translate(-94,-22) scale(1,1)"><g><path fill="none" stroke="none"/><text fill="#000000" stroke="none" font-family="Arial" font-size="13px" font-style="normal" font-weight="normal" text-decoration="none" x="652.5" y="225.5">(from DataAccessInterfaces)</text></g></g><g transform="translate(-94,-22) scale(1,1)"><path fill="#C0C0C0" stroke="none" d="M 450.357666015625 50.5 C 450.357666015625 44.1487248 455.506390815625 39 461.857666015625 39 C 468.208941215625 39 473.357666015625 44.1487248 473.357666015625 50.5 C 473.357666015625 56.8512752 468.208941215625 62 461.857666015625 62 C 455.506390815625 62 450.357666015625 56.8512752 450.357666015625 50.5 Z" opacity="0.2"/></g><g transform="translate(-94,-22) scale(1,1)"><path fill="#ffffff" stroke="none" d="M 443.357666015625 43.5 C 443.357666015625 37.1487248 448.506390815625 32 454.857666015625 32 C 461.208941215625 32 466.357666015625 37.1487248 466.357666015625 43.5 C 466.357666015625 49.8512752 461.208941215625 55 454.857666015625 55 C 448.506390815625 55 443.357666015625 49.8512752 443.357666015625 43.5 Z"/></g><g transform="translate(-94,-22) scale(1,1)"><path fill="none" stroke="#000000" d="M 443.357666015625 43.5 C 443.357666015625 37.1487248 448.506390815625 32 454.857666015625 32 C 461.208941215625 32 466.357666015625 37.1487248 466.357666015625 43.5 C 466.357666015625 49.8512752 461.208941215625 55 454.857666015625 55 C 448.506390815625 55 443.357666015625 49.8512752 443.357666015625 43.5 Z" stroke-miterlimit="10"/></g><g transform="translate(-94,-22) scale(1,1)"><g><path fill="none" stroke="none"/><text fill="#000000" stroke="none" font-family="Arial" font-size="13px" font-style="normal" font-weight="bold" text-decoration="none" x="405.72998046875" y="74.5">IDataAccessItem</text></g></g><g transform="translate(-94,-22) scale(1,1)"><g><path fill="none" stroke="none"/><text fill="#000000" stroke="none" font-family="Arial" font-size="13px" font-style="normal" font-weight="normal" text-decoration="none" x="372.5" y="89.5">(from DataAccessInterfaces)</text></g></g><g transform="translate(-94,-22) scale(1,1)"><path fill="none" stroke="#000000" d="M 432 168 L 432 95" stroke-miterlimit="10"/></g><g transform="translate(-94,-22) scale(1,1)"><path fill="#FFFFFF" stroke="none" d="M 440.419035512032 115.32534971524831 L 432 95 L 423.580964487968 115.32534971524831"/></g><g transform="translate(-94,-22) scale(1,1)"><path fill="none" stroke="#000000" d="M 440.419035512032 115.32534971524831 L 432 95 L 423.580964487968 115.32534971524831 L 440.419035512032 115.32534971524831" stroke-miterlimit="10"/></g><g transform="translate(-94,-22) scale(1,1)"><path fill="#C0C0C0" stroke="none" d="M 538.357666015625 186.5 C 538.357666015625 180.1487248 543.506390815625 175 549.857666015625 175 C 556.208941215625 175 561.357666015625 180.1487248 561.357666015625 186.5 C 561.357666015625 192.8512752 556.208941215625 198 549.857666015625 198 C 543.506390815625 198 538.357666015625 192.8512752 538.357666015625 186.5 Z" opacity="0.2"/></g><g transform="translate(-94,-22) scale(1,1)"><path fill="#ffffff" stroke="none" d="M 531.357666015625 179.5 C 531.357666015625 173.1487248 536.506390815625 168 542.857666015625 168 C 549.208941215625 168 554.357666015625 173.1487248 554.357666015625 179.5 C 554.357666015625 185.8512752 549.208941215625 191 542.857666015625 191 C 536.506390815625 191 531.357666015625 185.8512752 531.357666015625 179.5 Z"/></g><g transform="translate(-94,-22) scale(1,1)"><path fill="none" stroke="#000000" d="M 531.357666015625 179.5 C 531.357666015625 173.1487248 536.506390815625 168 542.857666015625 168 C 549.208941215625 168 554.357666015625 173.1487248 554.357666015625 179.5 C 554.357666015625 185.8512752 549.208941215625 191 542.857666015625 191 C 536.506390815625 191 531.357666015625 185.8512752 531.357666015625 179.5 Z" stroke-miterlimit="10"/></g><g transform="translate(-94,-22) scale(1,1)"><g><path fill="none" stroke="none"/><text fill="#000000" stroke="none" font-family="Arial" font-size="13px" font-style="normal" font-weight="bold" text-decoration="none" x="477.832275390625" y="210.5">IDataAccessPassword</text></g></g><g transform="translate(-94,-22) scale(1,1)"><g><path fill="none" stroke="none"/><text fill="#000000" stroke="none" font-family="Arial" font-size="13px" font-style="normal" font-weight="normal" text-decoration="none" x="460.5" y="225.5">(from DataAccessInterfaces)</text></g></g><g transform="translate(-94,-22) scale(1,1)"><path fill="none" stroke="#000000" d="M 488 168 L 488 95" stroke-miterlimit="10"/></g><g transform="translate(-94,-22) scale(1,1)"><path fill="#FFFFFF" stroke="none" d="M 496.419035512032 115.32534971524831 L 488 95 L 479.580964487968 115.32534971524831"/></g><g transform="translate(-94,-22) scale(1,1)"><path fill="none" stroke="#000000" d="M 496.419035512032 115.32534971524831 L 488 95 L 479.580964487968 115.32534971524831 L 496.419035512032 115.32534971524831" stroke-miterlimit="10"/></g><g transform="translate(-94,-22) scale(1,1)"><path fill="#C0C0C0" stroke="none" d="M 922.357666015625 186.5 C 922.357666015625 180.1487248 927.506390815625 175 933.857666015625 175 C 940.208941215625 175 945.357666015625 180.1487248 945.357666015625 186.5 C 945.357666015625 192.8512752 940.208941215625 198 933.857666015625 198 C 927.506390815625 198 922.357666015625 192.8512752 922.357666015625 186.5 Z" opacity="0.2"/></g><g transform="translate(-94,-22) scale(1,1)"><path fill="#ffffff" stroke="none" d="M 915.357666015625 179.5 C 915.357666015625 173.1487248 920.506390815625 168 926.857666015625 168 C 933.208941215625 168 938.357666015625 173.1487248 938.357666015625 179.5 C 938.357666015625 185.8512752 933.208941215625 191 926.857666015625 191 C 920.506390815625 191 915.357666015625 185.8512752 915.357666015625 179.5 Z"/></g><g transform="translate(-94,-22) scale(1,1)"><path fill="none" stroke="#000000" d="M 915.357666015625 179.5 C 915.357666015625 173.1487248 920.506390815625 168 926.857666015625 168 C 933.208941215625 168 938.357666015625 173.1487248 938.357666015625 179.5 C 938.357666015625 185.8512752 933.208941215625 191 926.857666015625 191 C 920.506390815625 191 915.357666015625 185.8512752 915.357666015625 179.5 Z" stroke-miterlimit="10"/></g><g transform="translate(-94,-22) scale(1,1)"><g><path fill="none" stroke="none"/><text fill="#000000" stroke="none" font-family="Arial" font-size="13px" font-style="normal" font-weight="bold" text-decoration="none" x="876.647705078125" y="210.5">IDataAccessUser</text></g></g><g transform="translate(-94,-22) scale(1,1)"><g><path fill="none" stroke="none"/><text fill="#000000" stroke="none" font-family="Arial" font-size="13px" font-style="normal" font-weight="normal" text-decoration="none" x="844.5" y="225.5">(from DataAccessInterfaces)</text></g></g></g></svg>