<svg version="1.1" xmlns="http://www.w3.org/2000/svg" xmlns:xlink="http://www.w3.org/1999/xlink" width="1645.0263671875" height="700"><defs/><g><g transform="translate(-14,-38) scale(1,1)"><rect fill="#C0C0C0" stroke="none" x="1383" y="455" width="108.79999999999995" height="15" opacity="0.2"/></g><g transform="translate(-14,-38) scale(1,1)"><rect fill="#C0C0C0" stroke="none" x="1383" y="469" width="272" height="266" opacity="0.2"/></g><g transform="translate(-14,-38) scale(1,1)"><rect fill="#ffffff" stroke="none" x="1376" y="463" width="272" height="265"/></g><g transform="translate(-14,-38) scale(1,1)"><path fill="none" stroke="#008400" d="M 1376 463 L 1648 463 L 1648 728 L 1376 728 L 1376 463 Z Z" stroke-miterlimit="10"/></g><g transform="translate(-14,-38) scale(1,1)"><rect fill="#ffffff" stroke="none" x="1376" y="448" width="108.79999999999995" height="15"/></g><g transform="translate(-14,-38) scale(1,1)"><path fill="none" stroke="#008400" d="M 1376 448 L 1484.8 448 L 1484.8 463 L 1376 463 L 1376 448 Z Z" stroke-miterlimit="10"/></g><g transform="translate(-14,-38) scale(1,1)"><rect fill="#ffffff" stroke="none" x="1376" y="462" width="272" height="266"/></g><g transform="translate(-14,-38) scale(1,1)"><path fill="none" stroke="#008400" d="M 1376 462 L 1648 462 L 1648 728 L 1376 728 L 1376 462 Z Z" stroke-miterlimit="10"/></g><g transform="translate(-14,-38) scale(1,1)"><g><path fill="none" stroke="none"/><text fill="#000000" stroke="none" font-family="Arial" font-size="13px" font-style="normal" font-weight="bold" text-decoration="none" x="1491.052734375" y="482.5">Utilities</text></g></g><g transform="translate(-14,-38) scale(1,1)"><rect fill="#C0C0C0" stroke="none" x="1439" y="575" width="152" height="59" opacity="0.2"/></g><g transform="translate(-14,-38) scale(1,1)"><rect fill="#ffffff" stroke="none" x="1432" y="568" width="152" height="59"/></g><g transform="translate(-14,-38) scale(1,1)"><path fill="none" stroke="#008400" d="M 1432 568 L 1584 568 L 1584 627 L 1432 627 L 1432 568 Z Z" stroke-miterlimit="10"/></g><g transform="translate(-14,-38) scale(1,1)"><path fill="none" stroke="#008400" d="M 1432 593 L 1584 593" stroke-miterlimit="10"/></g><g transform="translate(-14,-38) scale(1,1)"><path fill="none" stroke="#008400" d="M 1432 603 L 1584 603" stroke-miterlimit="10"/></g><g transform="translate(-14,-38) scale(1,1)"><g><path fill="none" stroke="none"/><text fill="#000000" stroke="none" font-family="Arial" font-size="13px" font-style="normal" font-weight="bold" text-decoration="none" x="1475.484130859375" y="587.5">IEncryption</text></g></g><g transform="translate(-14,-38) scale(1,1)"><rect fill="#C0C0C0" stroke="none" x="1439" y="655" width="157.79541015625" height="59" opacity="0.2"/></g><g transform="translate(-14,-38) scale(1,1)"><rect fill="#ffffff" stroke="none" x="1432" y="648" width="157.79541015625" height="59"/></g><g transform="translate(-14,-38) scale(1,1)"><path fill="none" stroke="#008400" d="M 1432 648 L 1589.79541015625 648 L 1589.79541015625 707 L 1432 707 L 1432 648 Z Z" stroke-miterlimit="10"/></g><g transform="translate(-14,-38) scale(1,1)"><path fill="none" stroke="#008400" d="M 1432 673 L 1589.79541015625 673" stroke-miterlimit="10"/></g><g transform="translate(-14,-38) scale(1,1)"><path fill="none" stroke="#008400" d="M 1432 683 L 1589.79541015625 683" stroke-miterlimit="10"/></g><g transform="translate(-14,-38) scale(1,1)"><g><path fill="none" stroke="none"/><text fill="#000000" stroke="none" font-family="Arial" font-size="13px" font-style="normal" font-weight="bold" text-decoration="none" x="1442.254150390625" y="667.5">PasswordStrengthColor</text></g></g><g transform="translate(-14,-38) scale(1,1)"><rect fill="#C0C0C0" stroke="none" x="1039" y="111" width="265.0263671875" height="175" opacity="0.2"/></g><g transform="translate(-14,-38) scale(1,1)"><rect fill="#ffffff" stroke="none" x="1032" y="104" width="265.0263671875" height="175"/></g><g transform="translate(-14,-38) scale(1,1)"><path fill="none" stroke="#000000" d="M 1032 104 L 1297.0263671875 104 L 1297.0263671875 279 L 1032 279 L 1032 104 Z Z" stroke-miterlimit="10"/></g><g transform="translate(-14,-38) scale(1,1)"><path fill="none" stroke="#000000" d="M 1032 144 L 1297.0263671875 144" stroke-miterlimit="10"/></g><g transform="translate(-14,-38) scale(1,1)"><path fill="none" stroke="#000000" d="M 1032 212 L 1297.0263671875 212" stroke-miterlimit="10"/></g><g transform="translate(-14,-38) scale(1,1)"><g><path fill="none" stroke="none"/><text fill="#000000" stroke="none" font-family="Arial" font-size="13px" font-style="normal" font-weight="bold" text-decoration="none" x="1138.138671875" y="123.5">Category</text></g></g><g transform="translate(-14,-38) scale(1,1)"><g><path fill="none" stroke="none"/><text fill="#000000" stroke="none" font-family="Arial" font-size="13px" font-style="normal" font-weight="normal" text-decoration="none" x="1122.98046875" y="138.5">(from Domain)</text></g></g><g transform="translate(-14,-38) scale(1,1)"><g><path fill="none" stroke="none"/><text fill="#000000" stroke="none" font-family="Arial" font-size="13px" font-style="normal" font-weight="normal" text-decoration="none" x="1037" y="161.5">-_name: string</text></g></g><g transform="translate(-14,-38) scale(1,1)"><g><path fill="none" stroke="none"/><text fill="#000000" stroke="none" font-family="Arial" font-size="13px" font-style="normal" font-weight="normal" text-decoration="none" x="1037" y="176.5">+Id: int</text></g></g><g transform="translate(-14,-38) scale(1,1)"><g><path fill="none" stroke="none"/><text fill="#000000" stroke="none" font-family="Arial" font-size="13px" font-style="normal" font-weight="normal" text-decoration="none" x="1037" y="191.5">+Name: string</text></g></g><g transform="translate(-14,-38) scale(1,1)"><g><path fill="none" stroke="none"/><text fill="#000000" stroke="none" font-family="Arial" font-size="13px" font-style="normal" font-weight="normal" text-decoration="none" x="1037" y="206.5">+User: User</text></g></g><g transform="translate(-14,-38) scale(1,1)"><g><path fill="none" stroke="none"/><text fill="#000000" stroke="none" font-family="Arial" font-size="13px" font-style="normal" font-weight="normal" text-decoration="none" x="1037" y="229.5">-ValidateName(nameToValidate: string): void</text></g></g><g transform="translate(-14,-38) scale(1,1)"><g><path fill="none" stroke="none"/><text fill="#000000" stroke="none" font-family="Arial" font-size="13px" font-style="normal" font-weight="normal" text-decoration="none" x="1037" y="244.5">+ToString(): string</text></g></g><g transform="translate(-14,-38) scale(1,1)"><g><path fill="none" stroke="none"/><text fill="#000000" stroke="none" font-family="Arial" font-size="13px" font-style="normal" font-weight="normal" text-decoration="none" x="1037" y="259.5">+Equals(obj: object): bool</text></g></g><g transform="translate(-14,-38) scale(1,1)"><g><path fill="none" stroke="none"/><text fill="#000000" stroke="none" font-family="Arial" font-size="13px" font-style="normal" font-weight="normal" text-decoration="none" x="1037" y="274.5">+GetUserMasterName(): string</text></g></g><g transform="translate(-14,-38) scale(1,1)"><rect fill="#C0C0C0" stroke="none" x="775" y="319" width="521.98583984375" height="415" opacity="0.2"/></g><g transform="translate(-14,-38) scale(1,1)"><rect fill="#ffffff" stroke="none" x="768" y="312" width="521.98583984375" height="415"/></g><g transform="translate(-14,-38) scale(1,1)"><path fill="none" stroke="#000000" d="M 768 312 L 1289.98583984375 312 L 1289.98583984375 727 L 768 727 L 768 312 Z Z" stroke-miterlimit="10"/></g><g transform="translate(-14,-38) scale(1,1)"><path fill="none" stroke="#000000" d="M 768 352 L 1289.98583984375 352" stroke-miterlimit="10"/></g><g transform="translate(-14,-38) scale(1,1)"><path fill="none" stroke="#000000" d="M 768 570 L 1289.98583984375 570" stroke-miterlimit="10"/></g><g transform="translate(-14,-38) scale(1,1)"><g><path fill="none" stroke="none"/><text fill="#000000" stroke="none" font-family="Arial" font-size="13px" font-style="normal" font-weight="bold" text-decoration="none" x="1000.453857421875" y="331.5">Password</text></g></g><g transform="translate(-14,-38) scale(1,1)"><g><path fill="none" stroke="none"/><text fill="#000000" stroke="none" font-family="Arial" font-size="13px" font-style="normal" font-weight="normal" text-decoration="none" x="987.460205078125" y="346.5">(from Domain)</text></g></g><g transform="translate(-14,-38) scale(1,1)"><g><path fill="none" stroke="none"/><text fill="#000000" stroke="none" font-family="Arial" font-size="13px" font-style="normal" font-weight="normal" text-decoration="none" x="773" y="369.5">-_site: string</text></g></g><g transform="translate(-14,-38) scale(1,1)"><g><path fill="none" stroke="none"/><text fill="#000000" stroke="none" font-family="Arial" font-size="13px" font-style="normal" font-weight="normal" text-decoration="none" x="773" y="384.5">-_username: string</text></g></g><g transform="translate(-14,-38) scale(1,1)"><g><path fill="none" stroke="none"/><text fill="#000000" stroke="none" font-family="Arial" font-size="13px" font-style="normal" font-weight="normal" text-decoration="none" x="773" y="399.5">-_pass: string</text></g></g><g transform="translate(-14,-38) scale(1,1)"><g><path fill="none" stroke="none"/><text fill="#000000" stroke="none" font-family="Arial" font-size="13px" font-style="normal" font-weight="normal" text-decoration="none" x="773" y="414.5">-_encryptedPass: string</text></g></g><g transform="translate(-14,-38) scale(1,1)"><g><path fill="none" stroke="none"/><text fill="#000000" stroke="none" font-family="Arial" font-size="13px" font-style="normal" font-weight="normal" text-decoration="none" x="773" y="429.5">-_sharedWith: List&lt;User&gt;</text></g></g><g transform="translate(-14,-38) scale(1,1)"><g><path fill="none" stroke="none"/><text fill="#000000" stroke="none" font-family="Arial" font-size="13px" font-style="normal" font-weight="normal" text-decoration="none" x="773" y="444.5">-_lastModification: DateTime</text></g></g><g transform="translate(-14,-38) scale(1,1)"><g><path fill="none" stroke="none"/><text fill="#000000" stroke="none" font-family="Arial" font-size="13px" font-style="normal" font-weight="normal" text-decoration="none" x="773" y="459.5">-encryption: IEncryption</text></g></g><g transform="translate(-14,-38) scale(1,1)"><g><path fill="none" stroke="none"/><text fill="#000000" stroke="none" font-family="Arial" font-size="13px" font-style="normal" font-weight="normal" text-decoration="none" x="773" y="474.5">+PasswordStrength: PasswordStrengthColor</text></g></g><g transform="translate(-14,-38) scale(1,1)"><g><path fill="none" stroke="none"/><text fill="#000000" stroke="none" font-family="Arial" font-size="13px" font-style="normal" font-weight="normal" text-decoration="none" x="773" y="489.5">+SharedWith: List&lt;User&gt;</text></g></g><g transform="translate(-14,-38) scale(1,1)"><g><path fill="none" stroke="none"/><text fill="#000000" stroke="none" font-family="Arial" font-size="13px" font-style="normal" font-weight="normal" text-decoration="none" x="773" y="504.5">+Site: string</text></g></g><g transform="translate(-14,-38) scale(1,1)"><g><path fill="none" stroke="none"/><text fill="#000000" stroke="none" font-family="Arial" font-size="13px" font-style="normal" font-weight="normal" text-decoration="none" x="773" y="519.5">+Username: string</text></g></g><g transform="translate(-14,-38) scale(1,1)"><g><path fill="none" stroke="none"/><text fill="#000000" stroke="none" font-family="Arial" font-size="13px" font-style="normal" font-weight="normal" text-decoration="none" x="773" y="534.5">+Pass: string</text></g></g><g transform="translate(-14,-38) scale(1,1)"><g><path fill="none" stroke="none"/><text fill="#000000" stroke="none" font-family="Arial" font-size="13px" font-style="normal" font-weight="normal" text-decoration="none" x="773" y="549.5">+LastModification: DateTime</text></g></g><g transform="translate(-14,-38) scale(1,1)"><g><path fill="none" stroke="none"/><text fill="#000000" stroke="none" font-family="Arial" font-size="13px" font-style="normal" font-weight="normal" text-decoration="none" x="773" y="564.5">+EncryptedPass: string</text></g></g><g transform="translate(-14,-38) scale(1,1)"><g><path fill="none" stroke="none"/><text fill="#000000" stroke="none" font-family="Arial" font-size="13px" font-style="normal" font-weight="normal" text-decoration="none" x="773" y="587.5">«constructor»+Password()</text></g></g><g transform="translate(-14,-38) scale(1,1)"><g><path fill="none" stroke="none"/><text fill="#000000" stroke="none" font-family="Arial" font-size="13px" font-style="normal" font-weight="normal" text-decoration="none" x="773" y="602.5">-DecryptPass(encryptedPass: string): string</text></g></g><g transform="translate(-14,-38) scale(1,1)"><g><path fill="none" stroke="none"/><text fill="#000000" stroke="none" font-family="Arial" font-size="13px" font-style="normal" font-weight="normal" text-decoration="none" x="773" y="617.5">-EncryptPass(pass: string): string</text></g></g><g transform="translate(-14,-38) scale(1,1)"><g><path fill="none" stroke="none"/><text fill="#000000" stroke="none" font-family="Arial" font-size="13px" font-style="normal" font-weight="normal" text-decoration="none" x="773" y="632.5">-ValidateSite(siteToValidate: string): void</text></g></g><g transform="translate(-14,-38) scale(1,1)"><g><path fill="none" stroke="none"/><text fill="#000000" stroke="none" font-family="Arial" font-size="13px" font-style="normal" font-weight="normal" text-decoration="none" x="773" y="647.5">-ValidateUsername(usernameToValidate: string): void</text></g></g><g transform="translate(-14,-38) scale(1,1)"><g><path fill="none" stroke="none"/><text fill="#000000" stroke="none" font-family="Arial" font-size="13px" font-style="normal" font-weight="normal" text-decoration="none" x="773" y="662.5">+ValidatePass(passToValidate: string): void</text></g></g><g transform="translate(-14,-38) scale(1,1)"><g><path fill="none" stroke="none"/><text fill="#000000" stroke="none" font-family="Arial" font-size="13px" font-style="normal" font-weight="normal" text-decoration="none" x="773" y="677.5">+ShareWithUser(userShareWith: User): void</text></g></g><g transform="translate(-14,-38) scale(1,1)"><g><path fill="none" stroke="none"/><text fill="#000000" stroke="none" font-family="Arial" font-size="13px" font-style="normal" font-weight="normal" text-decoration="none" x="773" y="692.5">+UnShareWithUser(userRemoveShare: User): void</text></g></g><g transform="translate(-14,-38) scale(1,1)"><g><path fill="none" stroke="none"/><text fill="#000000" stroke="none" font-family="Arial" font-size="13px" font-style="normal" font-weight="normal" text-decoration="none" x="773" y="707.5">+Equals(obj: object): bool</text></g></g><g transform="translate(-14,-38) scale(1,1)"><g><path fill="none" stroke="none"/><text fill="#000000" stroke="none" font-family="Arial" font-size="13px" font-style="normal" font-weight="normal" text-decoration="none" x="773" y="722.5">-CheckEqualityOfPassword(passwordToCompare: Password, password: Password): bool</text></g></g><g transform="translate(-14,-38) scale(1,1)"><rect fill="#C0C0C0" stroke="none" x="279" y="319" width="443.966796875" height="385" opacity="0.2"/></g><g transform="translate(-14,-38) scale(1,1)"><rect fill="#ffffff" stroke="none" x="272" y="312" width="443.966796875" height="385"/></g><g transform="translate(-14,-38) scale(1,1)"><path fill="none" stroke="#000000" d="M 272 312 L 715.966796875 312 L 715.966796875 697 L 272 697 L 272 312 Z Z" stroke-miterlimit="10"/></g><g transform="translate(-14,-38) scale(1,1)"><path fill="none" stroke="#000000" d="M 272 352 L 715.966796875 352" stroke-miterlimit="10"/></g><g transform="translate(-14,-38) scale(1,1)"><path fill="none" stroke="#000000" d="M 272 525 L 715.966796875 525" stroke-miterlimit="10"/></g><g transform="translate(-14,-38) scale(1,1)"><g><path fill="none" stroke="none"/><text fill="#000000" stroke="none" font-family="Arial" font-size="13px" font-style="normal" font-weight="bold" text-decoration="none" x="462.55615234375" y="331.5">CreditCard</text></g></g><g transform="translate(-14,-38) scale(1,1)"><g><path fill="none" stroke="none"/><text fill="#000000" stroke="none" font-family="Arial" font-size="13px" font-style="normal" font-weight="normal" text-decoration="none" x="452.45068359375" y="346.5">(from Domain)</text></g></g><g transform="translate(-14,-38) scale(1,1)"><g><path fill="none" stroke="none"/><text fill="#000000" stroke="none" font-family="Arial" font-size="13px" font-style="normal" font-weight="normal" text-decoration="none" x="277" y="369.5">-_number: string</text></g></g><g transform="translate(-14,-38) scale(1,1)"><g><path fill="none" stroke="none"/><text fill="#000000" stroke="none" font-family="Arial" font-size="13px" font-style="normal" font-weight="normal" text-decoration="none" x="277" y="384.5">-_name: string</text></g></g><g transform="translate(-14,-38) scale(1,1)"><g><path fill="none" stroke="none"/><text fill="#000000" stroke="none" font-family="Arial" font-size="13px" font-style="normal" font-weight="normal" text-decoration="none" x="277" y="399.5">-_type: string</text></g></g><g transform="translate(-14,-38) scale(1,1)"><g><path fill="none" stroke="none"/><text fill="#000000" stroke="none" font-family="Arial" font-size="13px" font-style="normal" font-weight="normal" text-decoration="none" x="277" y="414.5">-_secureCode: string</text></g></g><g transform="translate(-14,-38) scale(1,1)"><g><path fill="none" stroke="none"/><text fill="#000000" stroke="none" font-family="Arial" font-size="13px" font-style="normal" font-weight="normal" text-decoration="none" x="277" y="429.5">-_expirationDate: string</text></g></g><g transform="translate(-14,-38) scale(1,1)"><g><path fill="none" stroke="none"/><text fill="#000000" stroke="none" font-family="Arial" font-size="13px" font-style="normal" font-weight="normal" text-decoration="none" x="277" y="444.5">+Name: string</text></g></g><g transform="translate(-14,-38) scale(1,1)"><g><path fill="none" stroke="none"/><text fill="#000000" stroke="none" font-family="Arial" font-size="13px" font-style="normal" font-weight="normal" text-decoration="none" x="277" y="459.5">+Type: string</text></g></g><g transform="translate(-14,-38) scale(1,1)"><g><path fill="none" stroke="none"/><text fill="#000000" stroke="none" font-family="Arial" font-size="13px" font-style="normal" font-weight="normal" text-decoration="none" x="277" y="474.5">+Number: string</text></g></g><g transform="translate(-14,-38) scale(1,1)"><g><path fill="none" stroke="none"/><text fill="#000000" stroke="none" font-family="Arial" font-size="13px" font-style="normal" font-weight="normal" text-decoration="none" x="277" y="489.5">+SecretNumber: string</text></g></g><g transform="translate(-14,-38) scale(1,1)"><g><path fill="none" stroke="none"/><text fill="#000000" stroke="none" font-family="Arial" font-size="13px" font-style="normal" font-weight="normal" text-decoration="none" x="277" y="504.5">+SecureCode: string</text></g></g><g transform="translate(-14,-38) scale(1,1)"><g><path fill="none" stroke="none"/><text fill="#000000" stroke="none" font-family="Arial" font-size="13px" font-style="normal" font-weight="normal" text-decoration="none" x="277" y="519.5">+ExpirationDate: string</text></g></g><g transform="translate(-14,-38) scale(1,1)"><g><path fill="none" stroke="none"/><text fill="#000000" stroke="none" font-family="Arial" font-size="13px" font-style="normal" font-weight="normal" text-decoration="none" x="277" y="542.5">-ValidateNumber(numberToValidate: string): void</text></g></g><g transform="translate(-14,-38) scale(1,1)"><g><path fill="none" stroke="none"/><text fill="#000000" stroke="none" font-family="Arial" font-size="13px" font-style="normal" font-weight="normal" text-decoration="none" x="277" y="557.5">-ValidateName(nameToValidate: string): void</text></g></g><g transform="translate(-14,-38) scale(1,1)"><g><path fill="none" stroke="none"/><text fill="#000000" stroke="none" font-family="Arial" font-size="13px" font-style="normal" font-weight="normal" text-decoration="none" x="277" y="572.5">-ValidateType(typeToValidate: string): void</text></g></g><g transform="translate(-14,-38) scale(1,1)"><g><path fill="none" stroke="none"/><text fill="#000000" stroke="none" font-family="Arial" font-size="13px" font-style="normal" font-weight="normal" text-decoration="none" x="277" y="587.5">-ValidateSecureCode(secureCodeToValidate: string): void</text></g></g><g transform="translate(-14,-38) scale(1,1)"><g><path fill="none" stroke="none"/><text fill="#000000" stroke="none" font-family="Arial" font-size="13px" font-style="normal" font-weight="normal" text-decoration="none" x="277" y="602.5">-ValidateExpirationDate(expirationDateToValidate: string): void</text></g></g><g transform="translate(-14,-38) scale(1,1)"><g><path fill="none" stroke="none"/><text fill="#000000" stroke="none" font-family="Arial" font-size="13px" font-style="normal" font-weight="normal" text-decoration="none" x="277" y="617.5">-ValidateMonthExpirationDate(expirationDateToValidate: string): bool</text></g></g><g transform="translate(-14,-38) scale(1,1)"><g><path fill="none" stroke="none"/><text fill="#000000" stroke="none" font-family="Arial" font-size="13px" font-style="normal" font-weight="normal" text-decoration="none" x="277" y="632.5">-ValidateFormatExpirationDate(expirationDateToValidate: string): bool</text></g></g><g transform="translate(-14,-38) scale(1,1)"><g><path fill="none" stroke="none"/><text fill="#000000" stroke="none" font-family="Arial" font-size="13px" font-style="normal" font-weight="normal" text-decoration="none" x="277" y="647.5">+ShowOnly4LastDigits(): string</text></g></g><g transform="translate(-14,-38) scale(1,1)"><g><path fill="none" stroke="none"/><text fill="#000000" stroke="none" font-family="Arial" font-size="13px" font-style="normal" font-weight="normal" text-decoration="none" x="277" y="662.5">-ConvertCardNumberIntoSecretNumber(numberCard: string): string</text></g></g><g transform="translate(-14,-38) scale(1,1)"><g><path fill="none" stroke="none"/><text fill="#000000" stroke="none" font-family="Arial" font-size="13px" font-style="normal" font-weight="normal" text-decoration="none" x="277" y="677.5">-AgregateSpacesToNumberCard(numberCardWithoutSpaces: string): string</text><path fill="none" stroke="#000000" d="M 277 677.5 L 711.966796875 677.5" stroke-miterlimit="10"/></g></g><g transform="translate(-14,-38) scale(1,1)"><g><path fill="none" stroke="none"/><text fill="#000000" stroke="none" font-family="Arial" font-size="13px" font-style="normal" font-weight="normal" text-decoration="none" x="277" y="692.5">+Equals(obj: object): bool</text></g></g><g transform="translate(-14,-38) scale(1,1)"><rect fill="#C0C0C0" stroke="none" x="647" y="119" width="263.591796875" height="145" opacity="0.2"/></g><g transform="translate(-14,-38) scale(1,1)"><rect fill="#ffffff" stroke="none" x="640" y="112" width="263.591796875" height="145"/></g><g transform="translate(-14,-38) scale(1,1)"><path fill="none" stroke="#000000" d="M 640 112 L 903.591796875 112 L 903.591796875 257 L 640 257 L 640 112 Z Z" stroke-miterlimit="10"/></g><g transform="translate(-14,-38) scale(1,1)"><path fill="none" stroke="#000000" d="M 640 152 L 903.591796875 152" stroke-miterlimit="10"/></g><g transform="translate(-14,-38) scale(1,1)"><path fill="none" stroke="#000000" d="M 640 235 L 903.591796875 235" stroke-miterlimit="10"/></g><g transform="translate(-14,-38) scale(1,1)"><g><path fill="none" stroke="none"/><text fill="#000000" stroke="none" font-family="Arial" font-size="13px" font-style="italic" font-weight="bold" text-decoration="none" x="759.154541015625" y="131.5">Item</text></g></g><g transform="translate(-14,-38) scale(1,1)"><g><path fill="none" stroke="none"/><text fill="#000000" stroke="none" font-family="Arial" font-size="13px" font-style="normal" font-weight="normal" text-decoration="none" x="730.26318359375" y="146.5">(from Domain)</text></g></g><g transform="translate(-14,-38) scale(1,1)"><g><path fill="none" stroke="none"/><text fill="#000000" stroke="none" font-family="Arial" font-size="13px" font-style="normal" font-weight="normal" text-decoration="none" x="645" y="169.5">-_notes: string</text></g></g><g transform="translate(-14,-38) scale(1,1)"><g><path fill="none" stroke="none"/><text fill="#000000" stroke="none" font-family="Arial" font-size="13px" font-style="normal" font-weight="normal" text-decoration="none" x="645" y="184.5">+Id: int</text></g></g><g transform="translate(-14,-38) scale(1,1)"><g><path fill="none" stroke="none"/><text fill="#000000" stroke="none" font-family="Arial" font-size="13px" font-style="normal" font-weight="normal" text-decoration="none" x="645" y="199.5">+User: User</text></g></g><g transform="translate(-14,-38) scale(1,1)"><g><path fill="none" stroke="none"/><text fill="#000000" stroke="none" font-family="Arial" font-size="13px" font-style="normal" font-weight="normal" text-decoration="none" x="645" y="214.5">+Category: Category</text></g></g><g transform="translate(-14,-38) scale(1,1)"><g><path fill="none" stroke="none"/><text fill="#000000" stroke="none" font-family="Arial" font-size="13px" font-style="normal" font-weight="normal" text-decoration="none" x="645" y="229.5">+Notes: string</text></g></g><g transform="translate(-14,-38) scale(1,1)"><g><path fill="none" stroke="none"/><text fill="#000000" stroke="none" font-family="Arial" font-size="13px" font-style="normal" font-weight="normal" text-decoration="none" x="645" y="252.5">-ValidateNotes(notesToValidate: string): void</text></g></g><g transform="translate(-14,-38) scale(1,1)"><path fill="none" stroke="#000000" d="M 707 312 L 707 257" stroke-miterlimit="10"/></g><g transform="translate(-14,-38) scale(1,1)"><path fill="#FFFFFF" stroke="none" d="M 715.419035512032 277.3253497152483 L 707 257 L 698.580964487968 277.3253497152483"/></g><g transform="translate(-14,-38) scale(1,1)"><path fill="none" stroke="#000000" d="M 715.419035512032 277.3253497152483 L 707 257 L 698.580964487968 277.3253497152483 L 715.419035512032 277.3253497152483" stroke-miterlimit="10"/></g><g transform="translate(-14,-38) scale(1,1)"><path fill="none" stroke="#000000" d="M 707 312 L 707 257" stroke-miterlimit="10" stroke-dasharray="3"/></g><g transform="translate(-14,-38) scale(1,1)"><path fill="#FFFFFF" stroke="none" d="M 715.419035512032 277.3253497152483 L 707 257 L 698.580964487968 277.3253497152483"/></g><g transform="translate(-14,-38) scale(1,1)"><path fill="none" stroke="#000000" d="M 715.419035512032 277.3253497152483 L 707 257 L 698.580964487968 277.3253497152483 L 715.419035512032 277.3253497152483" stroke-miterlimit="10"/></g><g transform="translate(-14,-38) scale(1,1)"><path fill="none" stroke="#000000" d="M 828 312 L 828 257" stroke-miterlimit="10"/></g><g transform="translate(-14,-38) scale(1,1)"><path fill="#FFFFFF" stroke="none" d="M 836.419035512032 277.3253497152483 L 828 257 L 819.580964487968 277.3253497152483"/></g><g transform="translate(-14,-38) scale(1,1)"><path fill="none" stroke="#000000" d="M 836.419035512032 277.3253497152483 L 828 257 L 819.580964487968 277.3253497152483 L 836.419035512032 277.3253497152483" stroke-miterlimit="10"/></g><g transform="translate(-14,-38) scale(1,1)"><path fill="none" stroke="#000000" d="M 828 312 L 828 257" stroke-miterlimit="10" stroke-dasharray="3"/></g><g transform="translate(-14,-38) scale(1,1)"><path fill="#FFFFFF" stroke="none" d="M 836.419035512032 277.3253497152483 L 828 257 L 819.580964487968 277.3253497152483"/></g><g transform="translate(-14,-38) scale(1,1)"><path fill="none" stroke="#000000" d="M 836.419035512032 277.3253497152483 L 828 257 L 819.580964487968 277.3253497152483 L 836.419035512032 277.3253497152483" stroke-miterlimit="10"/></g><g transform="translate(-14,-38) scale(1,1)"><rect fill="#C0C0C0" stroke="none" x="1391" y="135" width="265.0263671875" height="280" opacity="0.2"/></g><g transform="translate(-14,-38) scale(1,1)"><rect fill="#ffffff" stroke="none" x="1384" y="128" width="265.0263671875" height="280"/></g><g transform="translate(-14,-38) scale(1,1)"><path fill="none" stroke="#000000" d="M 1384 128 L 1649.0263671875 128 L 1649.0263671875 408 L 1384 408 L 1384 128 Z Z" stroke-miterlimit="10"/></g><g transform="translate(-14,-38) scale(1,1)"><path fill="none" stroke="#000000" d="M 1384 168 L 1649.0263671875 168" stroke-miterlimit="10"/></g><g transform="translate(-14,-38) scale(1,1)"><path fill="none" stroke="#000000" d="M 1384 296 L 1649.0263671875 296" stroke-miterlimit="10"/></g><g transform="translate(-14,-38) scale(1,1)"><g><path fill="none" stroke="none"/><text fill="#000000" stroke="none" font-family="Arial" font-size="13px" font-style="normal" font-weight="bold" text-decoration="none" x="1502.78955078125" y="147.5">User</text></g></g><g transform="translate(-14,-38) scale(1,1)"><g><path fill="none" stroke="none"/><text fill="#000000" stroke="none" font-family="Arial" font-size="13px" font-style="normal" font-weight="normal" text-decoration="none" x="1474.98046875" y="162.5">(from Domain)</text></g></g><g transform="translate(-14,-38) scale(1,1)"><g><path fill="none" stroke="none"/><text fill="#000000" stroke="none" font-family="Arial" font-size="13px" font-style="normal" font-weight="normal" text-decoration="none" x="1389" y="185.5">-_masterName: string</text></g></g><g transform="translate(-14,-38) scale(1,1)"><g><path fill="none" stroke="none"/><text fill="#000000" stroke="none" font-family="Arial" font-size="13px" font-style="normal" font-weight="normal" text-decoration="none" x="1389" y="200.5">-_masterPass: string</text></g></g><g transform="translate(-14,-38) scale(1,1)"><g><path fill="none" stroke="none"/><text fill="#000000" stroke="none" font-family="Arial" font-size="13px" font-style="normal" font-weight="normal" text-decoration="none" x="1389" y="215.5">-_decryptionKey: string</text></g></g><g transform="translate(-14,-38) scale(1,1)"><g><path fill="none" stroke="none"/><text fill="#000000" stroke="none" font-family="Arial" font-size="13px" font-style="normal" font-weight="normal" text-decoration="none" x="1389" y="230.5">-_categories: List&lt;Category&gt;</text></g></g><g transform="translate(-14,-38) scale(1,1)"><g><path fill="none" stroke="none"/><text fill="#000000" stroke="none" font-family="Arial" font-size="13px" font-style="normal" font-weight="normal" text-decoration="none" x="1389" y="245.5">+MasterName: string</text></g></g><g transform="translate(-14,-38) scale(1,1)"><g><path fill="none" stroke="none"/><text fill="#000000" stroke="none" font-family="Arial" font-size="13px" font-style="normal" font-weight="normal" text-decoration="none" x="1389" y="260.5">+MasterPass: string</text></g></g><g transform="translate(-14,-38) scale(1,1)"><g><path fill="none" stroke="none"/><text fill="#000000" stroke="none" font-family="Arial" font-size="13px" font-style="normal" font-weight="normal" text-decoration="none" x="1389" y="275.5">+DecryptionKey: string</text></g></g><g transform="translate(-14,-38) scale(1,1)"><g><path fill="none" stroke="none"/><text fill="#000000" stroke="none" font-family="Arial" font-size="13px" font-style="normal" font-weight="normal" text-decoration="none" x="1389" y="290.5">+Categories: List&lt;Category&gt;</text></g></g><g transform="translate(-14,-38) scale(1,1)"><g><path fill="none" stroke="none"/><text fill="#000000" stroke="none" font-family="Arial" font-size="13px" font-style="normal" font-weight="normal" text-decoration="none" x="1389" y="313.5">«constructor»+User()</text></g></g><g transform="translate(-14,-38) scale(1,1)"><g><path fill="none" stroke="none"/><text fill="#000000" stroke="none" font-family="Arial" font-size="13px" font-style="normal" font-weight="normal" text-decoration="none" x="1389" y="328.5">«constructor»+User()</text></g></g><g transform="translate(-14,-38) scale(1,1)"><g><path fill="none" stroke="none"/><text fill="#000000" stroke="none" font-family="Arial" font-size="13px" font-style="normal" font-weight="normal" text-decoration="none" x="1389" y="343.5">-ValidateName(nameToValidate: string): void</text></g></g><g transform="translate(-14,-38) scale(1,1)"><g><path fill="none" stroke="none"/><text fill="#000000" stroke="none" font-family="Arial" font-size="13px" font-style="normal" font-weight="normal" text-decoration="none" x="1389" y="358.5">+ValidatePassword(): void</text></g></g><g transform="translate(-14,-38) scale(1,1)"><g><path fill="none" stroke="none"/><text fill="#000000" stroke="none" font-family="Arial" font-size="13px" font-style="normal" font-weight="normal" text-decoration="none" x="1389" y="373.5">+Equals(obj: object): bool</text></g></g><g transform="translate(-14,-38) scale(1,1)"><g><path fill="none" stroke="none"/><text fill="#000000" stroke="none" font-family="Arial" font-size="13px" font-style="normal" font-weight="normal" text-decoration="none" x="1389" y="388.5">+ToString(): string</text></g></g><g transform="translate(-14,-38) scale(1,1)"><g><path fill="none" stroke="none"/><text fill="#000000" stroke="none" font-family="Arial" font-size="13px" font-style="normal" font-weight="normal" text-decoration="none" x="1389" y="403.5">+HashPassword(): void</text></g></g><g transform="translate(-14,-38) scale(1,1)"><path fill="none" stroke="#000000" d="M 771 112 L 771 64 L 1424 64 L 1424 128" stroke-miterlimit="10"/></g><g transform="translate(-14,-38) scale(1,1)"><path fill="none" stroke="#000000" d="M 1419.7904822439841 117.83732514237585 L 1424 128 L 1428.2095177560159 117.83732514237585" stroke-miterlimit="10"/></g><g transform="translate(-14,-38) scale(1,1)"><g><path fill="none" stroke="none"/><text fill="#000000" stroke="none" font-family="Arial" font-size="13px" font-style="normal" font-weight="normal" text-decoration="none" x="775.5" y="96.5">0...n</text></g></g><g transform="translate(-14,-38) scale(1,1)"><g><path fill="none" stroke="none"/><text fill="#000000" stroke="none" font-family="Arial" font-size="13px" font-style="normal" font-weight="normal" text-decoration="none" x="1407.5" y="112.5">1</text></g></g><g transform="translate(-14,-38) scale(1,1)"><path fill="none" stroke="#000000" d="M 904 189 L 1032 189" stroke-miterlimit="10"/></g><g transform="translate(-14,-38) scale(1,1)"><path fill="none" stroke="#000000" d="M 1021.8373251423759 193.209517756016 L 1032 189 L 1021.8373251423758 184.790482243984" stroke-miterlimit="10"/></g><g transform="translate(-14,-38) scale(1,1)"><g><path fill="none" stroke="none"/><text fill="#000000" stroke="none" font-family="Arial" font-size="13px" font-style="normal" font-weight="normal" text-decoration="none" x="912.5" y="207.5">0...n</text></g></g><g transform="translate(-14,-38) scale(1,1)"><g><path fill="none" stroke="none"/><text fill="#000000" stroke="none" font-family="Arial" font-size="13px" font-style="normal" font-weight="normal" text-decoration="none" x="1006.5" y="207.5">1</text></g></g><g transform="translate(-14,-38) scale(1,1)"><path fill="none" stroke="#000000" d="M 1297 192 L 1384 192" stroke-miterlimit="10"/></g><g transform="translate(-14,-38) scale(1,1)"><path fill="#FFFFFF" stroke="none" d="M 1373.837325142376 196.209517756016 L 1384 192 L 1373.837325142376 187.790482243984 L 1362 192"/></g><g transform="translate(-14,-38) scale(1,1)"><path fill="none" stroke="#000000" d="M 1373.837325142376 196.209517756016 L 1384 192 L 1373.837325142376 187.790482243984 L 1362 192 L 1373.837325142376 196.209517756016" stroke-miterlimit="10"/></g><g transform="translate(-14,-38) scale(1,1)"><g><path fill="none" stroke="none"/><text fill="#000000" stroke="none" font-family="Arial" font-size="13px" font-style="normal" font-weight="normal" text-decoration="none" x="1305.5" y="210.5">0...n</text></g></g><g transform="translate(-14,-38) scale(1,1)"><g><path fill="none" stroke="none"/><text fill="#000000" stroke="none" font-family="Arial" font-size="13px" font-style="normal" font-weight="normal" text-decoration="none" x="1358.5" y="210.5">1</text></g></g><g transform="translate(-14,-38) scale(1,1)"><path fill="none" stroke="#000000" d="M 1384 384 L 1290 384" stroke-miterlimit="10"/></g><g transform="translate(-14,-38) scale(1,1)"><path fill="#FFFFFF" stroke="none" d="M 1300.162674857624 379.790482243984 L 1290 384 L 1300.162674857624 388.209517756016 L 1312 384"/></g><g transform="translate(-14,-38) scale(1,1)"><path fill="none" stroke="#000000" d="M 1300.162674857624 379.790482243984 L 1290 384 L 1300.162674857624 388.209517756016 L 1312 384 L 1300.162674857624 379.790482243984" stroke-miterlimit="10"/></g><g transform="translate(-14,-38) scale(1,1)"><g><path fill="none" stroke="none"/><text fill="#000000" stroke="none" font-family="Arial" font-size="13px" font-style="normal" font-weight="normal" text-decoration="none" x="1349.5" y="377.5">0...n</text></g></g><g transform="translate(-14,-38) scale(1,1)"><g><path fill="none" stroke="none"/><text fill="#000000" stroke="none" font-family="Arial" font-size="13px" font-style="normal" font-weight="normal" text-decoration="none" x="1298.5" y="377.5">0...n</text></g></g><g transform="translate(-14,-38) scale(1,1)"><path fill="none" stroke="#000000" d="M 1290 608 L 1432 608" stroke-miterlimit="10"/></g><g transform="translate(-14,-38) scale(1,1)"><path fill="none" stroke="#000000" d="M 1421.837325142376 612.209517756016 L 1432 608 L 1421.837325142376 603.790482243984" stroke-miterlimit="10"/></g><g transform="translate(-14,-38) scale(1,1)"><g><path fill="none" stroke="none"/><text fill="#000000" stroke="none" font-family="Arial" font-size="13px" font-style="normal" font-weight="normal" text-decoration="none" x="1298.5" y="626.5">0...n</text></g></g><g transform="translate(-14,-38) scale(1,1)"><g><path fill="none" stroke="none"/><text fill="#000000" stroke="none" font-family="Arial" font-size="13px" font-style="normal" font-weight="normal" text-decoration="none" x="1406.5" y="626.5">1</text></g></g><g transform="translate(-14,-38) scale(1,1)"><path fill="none" stroke="#000000" d="M 1290 672 L 1432 672" stroke-miterlimit="10"/></g><g transform="translate(-14,-38) scale(1,1)"><path fill="none" stroke="#000000" d="M 1421.837325142376 676.209517756016 L 1432 672 L 1421.837325142376 667.790482243984" stroke-miterlimit="10"/></g><g transform="translate(-14,-38) scale(1,1)"><g><path fill="none" stroke="none"/><text fill="#000000" stroke="none" font-family="Arial" font-size="13px" font-style="normal" font-weight="normal" text-decoration="none" x="1298.5" y="690.5">0...n</text></g></g><g transform="translate(-14,-38) scale(1,1)"><g><path fill="none" stroke="none"/><text fill="#000000" stroke="none" font-family="Arial" font-size="13px" font-style="normal" font-weight="normal" text-decoration="none" x="1406.5" y="690.5">1</text></g></g><g transform="translate(-14,-38) scale(1,1)"><rect fill="#C0C0C0" stroke="none" x="279" y="87" width="267.33056640625" height="175" opacity="0.2"/></g><g transform="translate(-14,-38) scale(1,1)"><rect fill="#ffffff" stroke="none" x="272" y="80" width="267.33056640625" height="175"/></g><g transform="translate(-14,-38) scale(1,1)"><path fill="none" stroke="#000000" d="M 272 80 L 539.33056640625 80 L 539.33056640625 255 L 272 255 L 272 80 Z Z" stroke-miterlimit="10"/></g><g transform="translate(-14,-38) scale(1,1)"><path fill="none" stroke="#000000" d="M 272 120 L 539.33056640625 120" stroke-miterlimit="10"/></g><g transform="translate(-14,-38) scale(1,1)"><path fill="none" stroke="#000000" d="M 272 233 L 539.33056640625 233" stroke-miterlimit="10"/></g><g transform="translate(-14,-38) scale(1,1)"><g><path fill="none" stroke="none"/><text fill="#000000" stroke="none" font-family="Arial" font-size="13px" font-style="normal" font-weight="bold" text-decoration="none" x="351.830810546875" y="99.5">DataBreachReport</text></g></g><g transform="translate(-14,-38) scale(1,1)"><g><path fill="none" stroke="none"/><text fill="#000000" stroke="none" font-family="Arial" font-size="13px" font-style="normal" font-weight="normal" text-decoration="none" x="364.132568359375" y="114.5">(from Domain)</text></g></g><g transform="translate(-14,-38) scale(1,1)"><g><path fill="none" stroke="none"/><text fill="#000000" stroke="none" font-family="Arial" font-size="13px" font-style="normal" font-weight="normal" text-decoration="none" x="277" y="137.5">+Entries: HashSet&lt;DataBreachReportEntry&gt;</text></g></g><g transform="translate(-14,-38) scale(1,1)"><g><path fill="none" stroke="none"/><text fill="#000000" stroke="none" font-family="Arial" font-size="13px" font-style="normal" font-weight="normal" text-decoration="none" x="277" y="152.5">+Date: DateTime</text></g></g><g transform="translate(-14,-38) scale(1,1)"><g><path fill="none" stroke="none"/><text fill="#000000" stroke="none" font-family="Arial" font-size="13px" font-style="normal" font-weight="normal" text-decoration="none" x="277" y="167.5">+Id: int</text></g></g><g transform="translate(-14,-38) scale(1,1)"><g><path fill="none" stroke="none"/><text fill="#000000" stroke="none" font-family="Arial" font-size="13px" font-style="normal" font-weight="normal" text-decoration="none" x="277" y="182.5">+BreachedItems: List&lt;Item&gt;</text></g></g><g transform="translate(-14,-38) scale(1,1)"><g><path fill="none" stroke="none"/><text fill="#000000" stroke="none" font-family="Arial" font-size="13px" font-style="normal" font-weight="normal" text-decoration="none" x="277" y="197.5">+User: User</text></g></g><g transform="translate(-14,-38) scale(1,1)"><g><path fill="none" stroke="none"/><text fill="#000000" stroke="none" font-family="Arial" font-size="13px" font-style="normal" font-weight="normal" text-decoration="none" x="277" y="212.5">+EntryQuantity: int</text></g></g><g transform="translate(-14,-38) scale(1,1)"><g><path fill="none" stroke="none"/><text fill="#000000" stroke="none" font-family="Arial" font-size="13px" font-style="normal" font-weight="normal" text-decoration="none" x="277" y="227.5">+ItemQuantity: int</text></g></g><g transform="translate(-14,-38) scale(1,1)"><g><path fill="none" stroke="none"/><text fill="#000000" stroke="none" font-family="Arial" font-size="13px" font-style="normal" font-weight="normal" text-decoration="none" x="277" y="250.5">«constructor»+DataBreachReport()</text></g></g><g transform="translate(-14,-38) scale(1,1)"><path fill="none" stroke="#000000" d="M 640 181 L 539 181" stroke-miterlimit="10"/></g><g transform="translate(-14,-38) scale(1,1)"><path fill="#FFFFFF" stroke="none" d="M 549.1626748576241 176.790482243984 L 539 181 L 549.1626748576241 185.209517756016 L 561 181"/></g><g transform="translate(-14,-38) scale(1,1)"><path fill="none" stroke="#000000" d="M 549.1626748576241 176.790482243984 L 539 181 L 549.1626748576241 185.209517756016 L 561 181 L 549.1626748576241 176.790482243984" stroke-miterlimit="10"/></g><g transform="translate(-14,-38) scale(1,1)"><g><path fill="none" stroke="none"/><text fill="#000000" stroke="none" font-family="Arial" font-size="13px" font-style="normal" font-weight="normal" text-decoration="none" x="605.5" y="174.5">0...n</text></g></g><g transform="translate(-14,-38) scale(1,1)"><g><path fill="none" stroke="none"/><text fill="#000000" stroke="none" font-family="Arial" font-size="13px" font-style="normal" font-weight="normal" text-decoration="none" x="547.5" y="174.5">0...n</text></g></g><g transform="translate(-14,-38) scale(1,1)"><rect fill="#C0C0C0" stroke="none" x="31" y="135" width="156.37353515625" height="87" opacity="0.2"/></g><g transform="translate(-14,-38) scale(1,1)"><rect fill="#ffffff" stroke="none" x="24" y="128" width="156.37353515625" height="87"/></g><g transform="translate(-14,-38) scale(1,1)"><path fill="none" stroke="#000000" d="M 24 128 L 180.37353515625 128 L 180.37353515625 215 L 24 215 L 24 128 Z Z" stroke-miterlimit="10"/></g><g transform="translate(-14,-38) scale(1,1)"><path fill="none" stroke="#000000" d="M 24 168 L 180.37353515625 168" stroke-miterlimit="10"/></g><g transform="translate(-14,-38) scale(1,1)"><path fill="none" stroke="#000000" d="M 24 206 L 180.37353515625 206" stroke-miterlimit="10"/></g><g transform="translate(-14,-38) scale(1,1)"><g><path fill="none" stroke="none"/><text fill="#000000" stroke="none" font-family="Arial" font-size="13px" font-style="normal" font-weight="bold" text-decoration="none" x="33.181396484375" y="147.5">DataBreachReportEntry</text></g></g><g transform="translate(-14,-38) scale(1,1)"><g><path fill="none" stroke="none"/><text fill="#000000" stroke="none" font-family="Arial" font-size="13px" font-style="normal" font-weight="normal" text-decoration="none" x="60.654052734375" y="162.5">(from Domain)</text></g></g><g transform="translate(-14,-38) scale(1,1)"><g><path fill="none" stroke="none"/><text fill="#000000" stroke="none" font-family="Arial" font-size="13px" font-style="normal" font-weight="normal" text-decoration="none" x="29" y="185.5">+Value: string</text></g></g><g transform="translate(-14,-38) scale(1,1)"><g><path fill="none" stroke="none"/><text fill="#000000" stroke="none" font-family="Arial" font-size="13px" font-style="normal" font-weight="normal" text-decoration="none" x="29" y="200.5">+Id: int</text></g></g><g transform="translate(-14,-38) scale(1,1)"><path fill="none" stroke="#000000" d="M 181 170 L 271 169" stroke-miterlimit="10"/></g><g transform="translate(-14,-38) scale(1,1)"><path fill="#FFFFFF" stroke="none" d="M 260.8847219424968 173.3221695731883 L 271 169 L 260.7911828773124 164.90365370659163 L 249.00135789896126 169.2444293566782"/></g><g transform="translate(-14,-38) scale(1,1)"><path fill="none" stroke="#000000" d="M 260.8847219424968 173.3221695731883 L 271 169 L 260.7911828773124 164.90365370659163 L 249.00135789896126 169.2444293566782 L 260.8847219424968 173.3221695731883" stroke-miterlimit="10"/></g><g transform="translate(-14,-38) scale(1,1)"><g><path fill="none" stroke="none"/><text fill="#000000" stroke="none" font-family="Arial" font-size="13px" font-style="normal" font-weight="normal" text-decoration="none" x="189.5" y="188.5">0...n</text></g></g><g transform="translate(-14,-38) scale(1,1)"><g><path fill="none" stroke="none"/><text fill="#000000" stroke="none" font-family="Arial" font-size="13px" font-style="normal" font-weight="normal" text-decoration="none" x="245.5" y="187.5">1</text></g></g><g transform="translate(-14,-38) scale(1,1)"><path fill="none" stroke="#000000" d="M 405 80 L 405 48 L 1456 48 L 1456 128" stroke-miterlimit="10"/></g><g transform="translate(-14,-38) scale(1,1)"><path fill="none" stroke="#000000" d="M 1451.7904822439841 117.83732514237585 L 1456 128 L 1460.2095177560159 117.83732514237585" stroke-miterlimit="10"/></g><g transform="translate(-14,-38) scale(1,1)"><g><path fill="none" stroke="none"/><text fill="#000000" stroke="none" font-family="Arial" font-size="13px" font-style="normal" font-weight="normal" text-decoration="none" x="414.5" y="75.5">0...n</text></g></g><g transform="translate(-14,-38) scale(1,1)"><g><path fill="none" stroke="none"/><text fill="#000000" stroke="none" font-family="Arial" font-size="13px" font-style="normal" font-weight="normal" text-decoration="none" x="1439.53271484375" y="112.5">1</text></g></g><g transform="translate(-14,-38) scale(1,1)"><rect fill="#C0C0C0" stroke="none" x="1439" y="511" width="152" height="44" opacity="0.2"/></g><g transform="translate(-14,-38) scale(1,1)"><rect fill="#ffffff" stroke="none" x="1432" y="504" width="152" height="44"/></g><g transform="translate(-14,-38) scale(1,1)"><path fill="none" stroke="#008400" d="M 1432 504 L 1584 504 L 1584 548 L 1432 548 L 1432 504 Z Z" stroke-miterlimit="10"/></g><g transform="translate(-14,-38) scale(1,1)"><path fill="none" stroke="#008400" d="M 1432 529 L 1584 529" stroke-miterlimit="10"/></g><g transform="translate(-14,-38) scale(1,1)"><path fill="none" stroke="#008400" d="M 1432 539 L 1584 539" stroke-miterlimit="10"/></g><g transform="translate(-14,-38) scale(1,1)"><g><path fill="none" stroke="none"/><text fill="#000000" stroke="none" font-family="Arial" font-size="13px" font-style="normal" font-weight="bold" text-decoration="none" x="1491.02001953125" y="523.5">IHash</text></g></g><g transform="translate(-14,-38) scale(1,1)"><path fill="none" stroke="#000000" d="M 1560 408 L 1560 504" stroke-miterlimit="10" stroke-dasharray="3"/></g><g transform="translate(-14,-38) scale(1,1)"><path fill="none" stroke="#000000" d="M 1555.7904822439841 493.83732514237585 L 1560 504 L 1564.2095177560159 493.83732514237585" stroke-miterlimit="10"/></g></g></svg>