<svg version="1.1" xmlns="http://www.w3.org/2000/svg" xmlns:xlink="http://www.w3.org/1999/xlink" width="1698.6240234375" height="1394"><defs/><g><g transform="translate(-38,-70) scale(1,1)"><rect fill="#C0C0C0" stroke="none" x="1327" y="191" width="203.84130859375" height="130" opacity="0.2"/></g><g transform="translate(-38,-70) scale(1,1)"><rect fill="#ffffff" stroke="none" x="1320" y="184" width="203.84130859375" height="130"/></g><g transform="translate(-38,-70) scale(1,1)"><path fill="none" stroke="#000000" d="M 1320 184 L 1523.84130859375 184 L 1523.84130859375 314 L 1320 314 L 1320 184 Z Z" stroke-miterlimit="10"/></g><g transform="translate(-38,-70) scale(1,1)"><path fill="none" stroke="#000000" d="M 1320 224 L 1523.84130859375 224" stroke-miterlimit="10"/></g><g transform="translate(-38,-70) scale(1,1)"><path fill="none" stroke="#000000" d="M 1320 262 L 1523.84130859375 262" stroke-miterlimit="10"/></g><g transform="translate(-38,-70) scale(1,1)"><g><path fill="none" stroke="none"/><text fill="#000000" stroke="none" font-family="Arial" font-size="13px" font-style="normal" font-weight="bold" text-decoration="none" x="1395.546142578125" y="203.5">Category</text></g></g><g transform="translate(-38,-70) scale(1,1)"><g><path fill="none" stroke="none"/><text fill="#000000" stroke="none" font-family="Arial" font-size="13px" font-style="normal" font-weight="normal" text-decoration="none" x="1380.387939453125" y="218.5">(from Domain)</text></g></g><g transform="translate(-38,-70) scale(1,1)"><g><path fill="none" stroke="none"/><text fill="#000000" stroke="none" font-family="Arial" font-size="13px" font-style="normal" font-weight="normal" text-decoration="none" x="1325" y="241.5">-_name: string</text></g></g><g transform="translate(-38,-70) scale(1,1)"><g><path fill="none" stroke="none"/><text fill="#000000" stroke="none" font-family="Arial" font-size="13px" font-style="normal" font-weight="normal" text-decoration="none" x="1325" y="256.5">+Name: string</text></g></g><g transform="translate(-38,-70) scale(1,1)"><g><path fill="none" stroke="none"/><text fill="#000000" stroke="none" font-family="Arial" font-size="13px" font-style="normal" font-weight="normal" text-decoration="none" x="1325" y="279.5">-ValidateName(value: string): void</text></g></g><g transform="translate(-38,-70) scale(1,1)"><g><path fill="none" stroke="none"/><text fill="#000000" stroke="none" font-family="Arial" font-size="13px" font-style="normal" font-weight="normal" text-decoration="none" x="1325" y="294.5">+ToString(): string</text></g></g><g transform="translate(-38,-70) scale(1,1)"><g><path fill="none" stroke="none"/><text fill="#000000" stroke="none" font-family="Arial" font-size="13px" font-style="normal" font-weight="normal" text-decoration="none" x="1325" y="309.5">+Equals(obj: object): bool</text></g></g><g transform="translate(-38,-70) scale(1,1)"><rect fill="#C0C0C0" stroke="none" x="790" y="289" width="443.966796875" height="385" opacity="0.2"/></g><g transform="translate(-38,-70) scale(1,1)"><rect fill="#ffffff" stroke="none" x="783" y="282" width="443.966796875" height="385"/></g><g transform="translate(-38,-70) scale(1,1)"><path fill="none" stroke="#000000" d="M 783 282 L 1226.966796875 282 L 1226.966796875 667 L 783 667 L 783 282 Z Z" stroke-miterlimit="10"/></g><g transform="translate(-38,-70) scale(1,1)"><path fill="none" stroke="#000000" d="M 783 322 L 1226.966796875 322" stroke-miterlimit="10"/></g><g transform="translate(-38,-70) scale(1,1)"><path fill="none" stroke="#000000" d="M 783 495 L 1226.966796875 495" stroke-miterlimit="10"/></g><g transform="translate(-38,-70) scale(1,1)"><g><path fill="none" stroke="none"/><text fill="#000000" stroke="none" font-family="Arial" font-size="13px" font-style="normal" font-weight="bold" text-decoration="none" x="973.55615234375" y="301.5">CreditCard</text></g></g><g transform="translate(-38,-70) scale(1,1)"><g><path fill="none" stroke="none"/><text fill="#000000" stroke="none" font-family="Arial" font-size="13px" font-style="normal" font-weight="normal" text-decoration="none" x="963.45068359375" y="316.5">(from Domain)</text></g></g><g transform="translate(-38,-70) scale(1,1)"><g><path fill="none" stroke="none"/><text fill="#000000" stroke="none" font-family="Arial" font-size="13px" font-style="normal" font-weight="normal" text-decoration="none" x="788" y="339.5">-_number: string</text></g></g><g transform="translate(-38,-70) scale(1,1)"><g><path fill="none" stroke="none"/><text fill="#000000" stroke="none" font-family="Arial" font-size="13px" font-style="normal" font-weight="normal" text-decoration="none" x="788" y="354.5">-_name: string</text></g></g><g transform="translate(-38,-70) scale(1,1)"><g><path fill="none" stroke="none"/><text fill="#000000" stroke="none" font-family="Arial" font-size="13px" font-style="normal" font-weight="normal" text-decoration="none" x="788" y="369.5">-_type: string</text></g></g><g transform="translate(-38,-70) scale(1,1)"><g><path fill="none" stroke="none"/><text fill="#000000" stroke="none" font-family="Arial" font-size="13px" font-style="normal" font-weight="normal" text-decoration="none" x="788" y="384.5">-_secureCode: string</text></g></g><g transform="translate(-38,-70) scale(1,1)"><g><path fill="none" stroke="none"/><text fill="#000000" stroke="none" font-family="Arial" font-size="13px" font-style="normal" font-weight="normal" text-decoration="none" x="788" y="399.5">-_expirationDate: string</text></g></g><g transform="translate(-38,-70) scale(1,1)"><g><path fill="none" stroke="none"/><text fill="#000000" stroke="none" font-family="Arial" font-size="13px" font-style="normal" font-weight="normal" text-decoration="none" x="788" y="414.5">+Name: string</text></g></g><g transform="translate(-38,-70) scale(1,1)"><g><path fill="none" stroke="none"/><text fill="#000000" stroke="none" font-family="Arial" font-size="13px" font-style="normal" font-weight="normal" text-decoration="none" x="788" y="429.5">+Type: string</text></g></g><g transform="translate(-38,-70) scale(1,1)"><g><path fill="none" stroke="none"/><text fill="#000000" stroke="none" font-family="Arial" font-size="13px" font-style="normal" font-weight="normal" text-decoration="none" x="788" y="444.5">+Number: string</text></g></g><g transform="translate(-38,-70) scale(1,1)"><g><path fill="none" stroke="none"/><text fill="#000000" stroke="none" font-family="Arial" font-size="13px" font-style="normal" font-weight="normal" text-decoration="none" x="788" y="459.5">+SecretNumber: string</text></g></g><g transform="translate(-38,-70) scale(1,1)"><g><path fill="none" stroke="none"/><text fill="#000000" stroke="none" font-family="Arial" font-size="13px" font-style="normal" font-weight="normal" text-decoration="none" x="788" y="474.5">+SecureCode: string</text></g></g><g transform="translate(-38,-70) scale(1,1)"><g><path fill="none" stroke="none"/><text fill="#000000" stroke="none" font-family="Arial" font-size="13px" font-style="normal" font-weight="normal" text-decoration="none" x="788" y="489.5">+ExpirationDate: string</text></g></g><g transform="translate(-38,-70) scale(1,1)"><g><path fill="none" stroke="none"/><text fill="#000000" stroke="none" font-family="Arial" font-size="13px" font-style="normal" font-weight="normal" text-decoration="none" x="788" y="512.5">-ValidateNumber(number: string): void</text></g></g><g transform="translate(-38,-70) scale(1,1)"><g><path fill="none" stroke="none"/><text fill="#000000" stroke="none" font-family="Arial" font-size="13px" font-style="normal" font-weight="normal" text-decoration="none" x="788" y="527.5">-ValidateName(name: string): void</text></g></g><g transform="translate(-38,-70) scale(1,1)"><g><path fill="none" stroke="none"/><text fill="#000000" stroke="none" font-family="Arial" font-size="13px" font-style="normal" font-weight="normal" text-decoration="none" x="788" y="542.5">-ValidateType(type: string): void</text></g></g><g transform="translate(-38,-70) scale(1,1)"><g><path fill="none" stroke="none"/><text fill="#000000" stroke="none" font-family="Arial" font-size="13px" font-style="normal" font-weight="normal" text-decoration="none" x="788" y="557.5">-ValidateSecureCode(secureCode: string): void</text></g></g><g transform="translate(-38,-70) scale(1,1)"><g><path fill="none" stroke="none"/><text fill="#000000" stroke="none" font-family="Arial" font-size="13px" font-style="normal" font-weight="normal" text-decoration="none" x="788" y="572.5">-ValidateExpirationDate(expirationDate: string): void</text></g></g><g transform="translate(-38,-70) scale(1,1)"><g><path fill="none" stroke="none"/><text fill="#000000" stroke="none" font-family="Arial" font-size="13px" font-style="normal" font-weight="normal" text-decoration="none" x="788" y="587.5">-ValidateMonthExpirationDate(expirationDate: string): bool</text></g></g><g transform="translate(-38,-70) scale(1,1)"><g><path fill="none" stroke="none"/><text fill="#000000" stroke="none" font-family="Arial" font-size="13px" font-style="normal" font-weight="normal" text-decoration="none" x="788" y="602.5">-ValidateFormatExpirationDate(expirationDate: string): bool</text></g></g><g transform="translate(-38,-70) scale(1,1)"><g><path fill="none" stroke="none"/><text fill="#000000" stroke="none" font-family="Arial" font-size="13px" font-style="normal" font-weight="normal" text-decoration="none" x="788" y="617.5">+ShowOnly4LastDigits(): string</text></g></g><g transform="translate(-38,-70) scale(1,1)"><g><path fill="none" stroke="none"/><text fill="#000000" stroke="none" font-family="Arial" font-size="13px" font-style="normal" font-weight="normal" text-decoration="none" x="788" y="632.5">-ConvertCardNumberIntoSecretNumber(numberCard: string): string</text></g></g><g transform="translate(-38,-70) scale(1,1)"><g><path fill="none" stroke="none"/><text fill="#000000" stroke="none" font-family="Arial" font-size="13px" font-style="normal" font-weight="normal" text-decoration="none" x="788" y="647.5">-AgregateSpacesToNumberCard(numberCardWithoutSpaces: string): string</text><path fill="none" stroke="#000000" d="M 788 647.5 L 1222.966796875 647.5" stroke-miterlimit="10"/></g></g><g transform="translate(-38,-70) scale(1,1)"><g><path fill="none" stroke="none"/><text fill="#000000" stroke="none" font-family="Arial" font-size="13px" font-style="normal" font-weight="normal" text-decoration="none" x="788" y="662.5">+Equals(obj: object): bool</text></g></g><g transform="translate(-38,-70) scale(1,1)"><rect fill="#C0C0C0" stroke="none" x="591" y="87" width="203.1240234375" height="130" opacity="0.2"/></g><g transform="translate(-38,-70) scale(1,1)"><rect fill="#ffffff" stroke="none" x="584" y="80" width="203.1240234375" height="130"/></g><g transform="translate(-38,-70) scale(1,1)"><path fill="none" stroke="#000000" d="M 584 80 L 787.1240234375 80 L 787.1240234375 210 L 584 210 L 584 80 Z Z" stroke-miterlimit="10"/></g><g transform="translate(-38,-70) scale(1,1)"><path fill="none" stroke="#000000" d="M 584 120 L 787.1240234375 120" stroke-miterlimit="10"/></g><g transform="translate(-38,-70) scale(1,1)"><path fill="none" stroke="#000000" d="M 584 188 L 787.1240234375 188" stroke-miterlimit="10"/></g><g transform="translate(-38,-70) scale(1,1)"><g><path fill="none" stroke="none"/><text fill="#000000" stroke="none" font-family="Arial" font-size="13px" font-style="italic" font-weight="bold" text-decoration="none" x="674.012451171875" y="99.5">Item</text></g></g><g transform="translate(-38,-70) scale(1,1)"><g><path fill="none" stroke="none"/><text fill="#000000" stroke="none" font-family="Arial" font-size="13px" font-style="normal" font-weight="normal" text-decoration="none" x="644.029296875" y="114.5">(from Domain)</text></g></g><g transform="translate(-38,-70) scale(1,1)"><g><path fill="none" stroke="none"/><text fill="#000000" stroke="none" font-family="Arial" font-size="13px" font-style="normal" font-weight="normal" text-decoration="none" x="589" y="137.5">-_notes: string</text></g></g><g transform="translate(-38,-70) scale(1,1)"><g><path fill="none" stroke="none"/><text fill="#000000" stroke="none" font-family="Arial" font-size="13px" font-style="normal" font-weight="normal" text-decoration="none" x="589" y="152.5">+Notes: string</text></g></g><g transform="translate(-38,-70) scale(1,1)"><g><path fill="none" stroke="none"/><text fill="#000000" stroke="none" font-family="Arial" font-size="13px" font-style="normal" font-weight="normal" text-decoration="none" x="589" y="167.5">+User: User</text></g></g><g transform="translate(-38,-70) scale(1,1)"><g><path fill="none" stroke="none"/><text fill="#000000" stroke="none" font-family="Arial" font-size="13px" font-style="normal" font-weight="normal" text-decoration="none" x="589" y="182.5">+Category: Category</text></g></g><g transform="translate(-38,-70) scale(1,1)"><g><path fill="none" stroke="none"/><text fill="#000000" stroke="none" font-family="Arial" font-size="13px" font-style="normal" font-weight="normal" text-decoration="none" x="589" y="205.5">-ValidateNotes(value: string): void</text></g></g><g transform="translate(-38,-70) scale(1,1)"><path fill="none" stroke="#000000" d="M 783 298 L 728 298 M 728 298 A 8 8 0 0 1 720 290 L 720 210" stroke-miterlimit="10"/></g><g transform="translate(-38,-70) scale(1,1)"><path fill="#FFFFFF" stroke="none" d="M 728.419035512032 230.3253497152483 L 720 210 L 711.580964487968 230.3253497152483"/></g><g transform="translate(-38,-70) scale(1,1)"><path fill="none" stroke="#000000" d="M 728.419035512032 230.3253497152483 L 720 210 L 711.580964487968 230.3253497152483 L 728.419035512032 230.3253497152483" stroke-miterlimit="10"/></g><g transform="translate(-38,-70) scale(1,1)"><path fill="none" stroke="#000000" d="M 787 200 L 1320 200" stroke-miterlimit="10"/></g><g transform="translate(-38,-70) scale(1,1)"><path fill="none" stroke="#000000" d="M 1309.837325142376 204.209517756016 L 1320 200 L 1309.837325142376 195.790482243984" stroke-miterlimit="10"/></g><g transform="translate(-38,-70) scale(1,1)"><rect fill="#C0C0C0" stroke="none" x="55" y="303" width="570.40576171875" height="535" opacity="0.2"/></g><g transform="translate(-38,-70) scale(1,1)"><rect fill="#ffffff" stroke="none" x="48" y="296" width="570.40576171875" height="535"/></g><g transform="translate(-38,-70) scale(1,1)"><path fill="none" stroke="#000000" d="M 48 296 L 618.40576171875 296 L 618.40576171875 831 L 48 831 L 48 296 Z Z" stroke-miterlimit="10"/></g><g transform="translate(-38,-70) scale(1,1)"><path fill="none" stroke="#000000" d="M 48 336 L 618.40576171875 336" stroke-miterlimit="10"/></g><g transform="translate(-38,-70) scale(1,1)"><path fill="none" stroke="#000000" d="M 48 509 L 618.40576171875 509" stroke-miterlimit="10"/></g><g transform="translate(-38,-70) scale(1,1)"><g><path fill="none" stroke="none"/><text fill="#000000" stroke="none" font-family="Arial" font-size="13px" font-style="normal" font-weight="bold" text-decoration="none" x="304.663818359375" y="315.5">Password</text></g></g><g transform="translate(-38,-70) scale(1,1)"><g><path fill="none" stroke="none"/><text fill="#000000" stroke="none" font-family="Arial" font-size="13px" font-style="normal" font-weight="normal" text-decoration="none" x="291.670166015625" y="330.5">(from Domain)</text></g></g><g transform="translate(-38,-70) scale(1,1)"><g><path fill="none" stroke="none"/><text fill="#000000" stroke="none" font-family="Arial" font-size="13px" font-style="normal" font-weight="normal" text-decoration="none" x="53" y="353.5">-_site: string</text></g></g><g transform="translate(-38,-70) scale(1,1)"><g><path fill="none" stroke="none"/><text fill="#000000" stroke="none" font-family="Arial" font-size="13px" font-style="normal" font-weight="normal" text-decoration="none" x="53" y="368.5">-_username: string</text></g></g><g transform="translate(-38,-70) scale(1,1)"><g><path fill="none" stroke="none"/><text fill="#000000" stroke="none" font-family="Arial" font-size="13px" font-style="normal" font-weight="normal" text-decoration="none" x="53" y="383.5">-_pass: string</text></g></g><g transform="translate(-38,-70) scale(1,1)"><g><path fill="none" stroke="none"/><text fill="#000000" stroke="none" font-family="Arial" font-size="13px" font-style="normal" font-weight="normal" text-decoration="none" x="53" y="398.5">-_sharedWith: List&lt;User&gt;</text></g></g><g transform="translate(-38,-70) scale(1,1)"><g><path fill="none" stroke="none"/><text fill="#000000" stroke="none" font-family="Arial" font-size="13px" font-style="normal" font-weight="normal" text-decoration="none" x="53" y="413.5">-_lastModification: DateTime</text></g></g><g transform="translate(-38,-70) scale(1,1)"><g><path fill="none" stroke="none"/><text fill="#000000" stroke="none" font-family="Arial" font-size="13px" font-style="normal" font-weight="normal" text-decoration="none" x="53" y="428.5">+PasswordStrength: PasswordStrengthColor</text></g></g><g transform="translate(-38,-70) scale(1,1)"><g><path fill="none" stroke="none"/><text fill="#000000" stroke="none" font-family="Arial" font-size="13px" font-style="normal" font-weight="normal" text-decoration="none" x="53" y="443.5">+SharedWith: List&lt;User&gt;</text></g></g><g transform="translate(-38,-70) scale(1,1)"><g><path fill="none" stroke="none"/><text fill="#000000" stroke="none" font-family="Arial" font-size="13px" font-style="normal" font-weight="normal" text-decoration="none" x="53" y="458.5">+Site: string</text></g></g><g transform="translate(-38,-70) scale(1,1)"><g><path fill="none" stroke="none"/><text fill="#000000" stroke="none" font-family="Arial" font-size="13px" font-style="normal" font-weight="normal" text-decoration="none" x="53" y="473.5">+Username: string</text></g></g><g transform="translate(-38,-70) scale(1,1)"><g><path fill="none" stroke="none"/><text fill="#000000" stroke="none" font-family="Arial" font-size="13px" font-style="normal" font-weight="normal" text-decoration="none" x="53" y="488.5">+Pass: string</text></g></g><g transform="translate(-38,-70) scale(1,1)"><g><path fill="none" stroke="none"/><text fill="#000000" stroke="none" font-family="Arial" font-size="13px" font-style="normal" font-weight="normal" text-decoration="none" x="53" y="503.5">+LastModification: DateTime</text></g></g><g transform="translate(-38,-70) scale(1,1)"><g><path fill="none" stroke="none"/><text fill="#000000" stroke="none" font-family="Arial" font-size="13px" font-style="normal" font-weight="normal" text-decoration="none" x="53" y="526.5">«constructor»+Password()</text></g></g><g transform="translate(-38,-70) scale(1,1)"><g><path fill="none" stroke="none"/><text fill="#000000" stroke="none" font-family="Arial" font-size="13px" font-style="normal" font-weight="normal" text-decoration="none" x="53" y="541.5">-ValidateSite(value: string): void</text></g></g><g transform="translate(-38,-70) scale(1,1)"><g><path fill="none" stroke="none"/><text fill="#000000" stroke="none" font-family="Arial" font-size="13px" font-style="normal" font-weight="normal" text-decoration="none" x="53" y="556.5">-ValidateUsername(username: string): void</text></g></g><g transform="translate(-38,-70) scale(1,1)"><g><path fill="none" stroke="none"/><text fill="#000000" stroke="none" font-family="Arial" font-size="13px" font-style="normal" font-weight="normal" text-decoration="none" x="53" y="571.5">-ValidatePass(value: string): void</text></g></g><g transform="translate(-38,-70) scale(1,1)"><g><path fill="none" stroke="none"/><text fill="#000000" stroke="none" font-family="Arial" font-size="13px" font-style="normal" font-weight="normal" text-decoration="none" x="53" y="586.5">+GenerateRandomPassword(selectedOptions: PasswordGenerationOptions): string</text><path fill="none" stroke="#000000" d="M 53 586.5 L 535.32666015625 586.5" stroke-miterlimit="10"/></g></g><g transform="translate(-38,-70) scale(1,1)"><g><path fill="none" stroke="none"/><text fill="#000000" stroke="none" font-family="Arial" font-size="13px" font-style="normal" font-weight="normal" text-decoration="none" x="53" y="601.5">-AddRandomCharFromSubSet(word: string, subSet: string, random: Random, mainSet: List): void</text><path fill="none" stroke="#000000" d="M 53 601.5 L 614.40576171875 601.5" stroke-miterlimit="10"/></g></g><g transform="translate(-38,-70) scale(1,1)"><g><path fill="none" stroke="none"/><text fill="#000000" stroke="none" font-family="Arial" font-size="13px" font-style="normal" font-weight="normal" text-decoration="none" x="53" y="616.5">-AddRandomChar(word: string, validChars: List, random: Random): void</text><path fill="none" stroke="#000000" d="M 53 616.5 L 468.44775390625 616.5" stroke-miterlimit="10"/></g></g><g transform="translate(-38,-70) scale(1,1)"><g><path fill="none" stroke="none"/><text fill="#000000" stroke="none" font-family="Arial" font-size="13px" font-style="normal" font-weight="normal" text-decoration="none" x="53" y="631.5">-CalculatePasswordStrength(pass: string): PasswordStrengthColor</text></g></g><g transform="translate(-38,-70) scale(1,1)"><g><path fill="none" stroke="none"/><text fill="#000000" stroke="none" font-family="Arial" font-size="13px" font-style="normal" font-weight="normal" text-decoration="none" x="53" y="646.5">-CalculateLargePasswordStrength(pass: string): PasswordStrengthColor</text></g></g><g transform="translate(-38,-70) scale(1,1)"><g><path fill="none" stroke="none"/><text fill="#000000" stroke="none" font-family="Arial" font-size="13px" font-style="normal" font-weight="normal" text-decoration="none" x="53" y="661.5">-CheckResultDependingOnTypeCount(typeCount: int): PasswordStrengthColor</text></g></g><g transform="translate(-38,-70) scale(1,1)"><g><path fill="none" stroke="none"/><text fill="#000000" stroke="none" font-family="Arial" font-size="13px" font-style="normal" font-weight="normal" text-decoration="none" x="53" y="676.5">-IsRedStrength(pass: string): bool</text></g></g><g transform="translate(-38,-70) scale(1,1)"><g><path fill="none" stroke="none"/><text fill="#000000" stroke="none" font-family="Arial" font-size="13px" font-style="normal" font-weight="normal" text-decoration="none" x="53" y="691.5">-IsOrangeStrength(pass: string): bool</text></g></g><g transform="translate(-38,-70) scale(1,1)"><g><path fill="none" stroke="none"/><text fill="#000000" stroke="none" font-family="Arial" font-size="13px" font-style="normal" font-weight="normal" text-decoration="none" x="53" y="706.5">-IsSymbol(character: char): bool</text></g></g><g transform="translate(-38,-70) scale(1,1)"><g><path fill="none" stroke="none"/><text fill="#000000" stroke="none" font-family="Arial" font-size="13px" font-style="normal" font-weight="normal" text-decoration="none" x="53" y="721.5">-IsNumber(character: char): bool</text></g></g><g transform="translate(-38,-70) scale(1,1)"><g><path fill="none" stroke="none"/><text fill="#000000" stroke="none" font-family="Arial" font-size="13px" font-style="normal" font-weight="normal" text-decoration="none" x="53" y="736.5">-IsUpperCase(character: char): bool</text></g></g><g transform="translate(-38,-70) scale(1,1)"><g><path fill="none" stroke="none"/><text fill="#000000" stroke="none" font-family="Arial" font-size="13px" font-style="normal" font-weight="normal" text-decoration="none" x="53" y="751.5">-IsLowerCase(character: char): bool</text></g></g><g transform="translate(-38,-70) scale(1,1)"><g><path fill="none" stroke="none"/><text fill="#000000" stroke="none" font-family="Arial" font-size="13px" font-style="normal" font-weight="normal" text-decoration="none" x="53" y="766.5">+ShareWithUser(userShareWith: User): void</text></g></g><g transform="translate(-38,-70) scale(1,1)"><g><path fill="none" stroke="none"/><text fill="#000000" stroke="none" font-family="Arial" font-size="13px" font-style="normal" font-weight="normal" text-decoration="none" x="53" y="781.5">+GetUsersSharedWith(): List</text></g></g><g transform="translate(-38,-70) scale(1,1)"><g><path fill="none" stroke="none"/><text fill="#000000" stroke="none" font-family="Arial" font-size="13px" font-style="normal" font-weight="normal" text-decoration="none" x="53" y="796.5">+UnShareWithUser(userRemoveShare: User): void</text></g></g><g transform="translate(-38,-70) scale(1,1)"><g><path fill="none" stroke="none"/><text fill="#000000" stroke="none" font-family="Arial" font-size="13px" font-style="normal" font-weight="normal" text-decoration="none" x="53" y="811.5">+Equals(obj: object): bool</text></g></g><g transform="translate(-38,-70) scale(1,1)"><g><path fill="none" stroke="none"/><text fill="#000000" stroke="none" font-family="Arial" font-size="13px" font-style="normal" font-weight="normal" text-decoration="none" x="53" y="826.5">-CheckEqualityOfPassword(passwordToCompare: Password, password: Password): bool</text></g></g><g transform="translate(-38,-70) scale(1,1)"><path fill="none" stroke="#000000" d="M 618 296 L 672 296 L 672 210" stroke-miterlimit="10"/></g><g transform="translate(-38,-70) scale(1,1)"><path fill="#FFFFFF" stroke="none" d="M 680.419035512032 230.3253497152483 L 672 210 L 663.580964487968 230.3253497152483"/></g><g transform="translate(-38,-70) scale(1,1)"><path fill="none" stroke="#000000" d="M 680.419035512032 230.3253497152483 L 672 210 L 663.580964487968 230.3253497152483 L 680.419035512032 230.3253497152483" stroke-miterlimit="10"/></g><g transform="translate(-38,-70) scale(1,1)"><rect fill="#C0C0C0" stroke="none" x="735" y="911" width="559.8876953125" height="550" opacity="0.2"/></g><g transform="translate(-38,-70) scale(1,1)"><rect fill="#ffffff" stroke="none" x="728" y="904" width="559.8876953125" height="550"/></g><g transform="translate(-38,-70) scale(1,1)"><path fill="none" stroke="#000000" d="M 728 904 L 1287.8876953125 904 L 1287.8876953125 1454 L 728 1454 L 728 904 Z Z" stroke-miterlimit="10"/></g><g transform="translate(-38,-70) scale(1,1)"><path fill="none" stroke="#000000" d="M 728 944 L 1287.8876953125 944" stroke-miterlimit="10"/></g><g transform="translate(-38,-70) scale(1,1)"><path fill="none" stroke="#000000" d="M 728 1012 L 1287.8876953125 1012" stroke-miterlimit="10"/></g><g transform="translate(-38,-70) scale(1,1)"><g><path fill="none" stroke="none"/><text fill="#000000" stroke="none" font-family="Arial" font-size="13px" font-style="normal" font-weight="bold" text-decoration="none" x="953.750732421875" y="923.5">PasswordManager</text></g></g><g transform="translate(-38,-70) scale(1,1)"><g><path fill="none" stroke="none"/><text fill="#000000" stroke="none" font-family="Arial" font-size="13px" font-style="normal" font-weight="normal" text-decoration="none" x="966.4111328125" y="938.5">(from Domain)</text></g></g><g transform="translate(-38,-70) scale(1,1)"><g><path fill="none" stroke="none"/><text fill="#000000" stroke="none" font-family="Arial" font-size="13px" font-style="normal" font-weight="normal" text-decoration="none" x="733" y="961.5">-_users: List&lt;User&gt;</text></g></g><g transform="translate(-38,-70) scale(1,1)"><g><path fill="none" stroke="none"/><text fill="#000000" stroke="none" font-family="Arial" font-size="13px" font-style="normal" font-weight="normal" text-decoration="none" x="733" y="976.5">-_passwords: List&lt;Password&gt;</text></g></g><g transform="translate(-38,-70) scale(1,1)"><g><path fill="none" stroke="none"/><text fill="#000000" stroke="none" font-family="Arial" font-size="13px" font-style="normal" font-weight="normal" text-decoration="none" x="733" y="991.5">-_creditCards: List&lt;CreditCard&gt;</text></g></g><g transform="translate(-38,-70) scale(1,1)"><g><path fill="none" stroke="none"/><text fill="#000000" stroke="none" font-family="Arial" font-size="13px" font-style="normal" font-weight="normal" text-decoration="none" x="733" y="1006.5">+CurrentUser: User</text></g></g><g transform="translate(-38,-70) scale(1,1)"><g><path fill="none" stroke="none"/><text fill="#000000" stroke="none" font-family="Arial" font-size="13px" font-style="normal" font-weight="normal" text-decoration="none" x="733" y="1029.5">«constructor»+PasswordManager()</text></g></g><g transform="translate(-38,-70) scale(1,1)"><g><path fill="none" stroke="none"/><text fill="#000000" stroke="none" font-family="Arial" font-size="13px" font-style="normal" font-weight="normal" text-decoration="none" x="733" y="1044.5">+CreateUser(newUser: User): void</text></g></g><g transform="translate(-38,-70) scale(1,1)"><g><path fill="none" stroke="none"/><text fill="#000000" stroke="none" font-family="Arial" font-size="13px" font-style="normal" font-weight="normal" text-decoration="none" x="733" y="1059.5">+Login(name: string, password: string): void</text></g></g><g transform="translate(-38,-70) scale(1,1)"><g><path fill="none" stroke="none"/><text fill="#000000" stroke="none" font-family="Arial" font-size="13px" font-style="normal" font-weight="normal" text-decoration="none" x="733" y="1074.5">-ValidateUser(User)</text></g></g><g transform="translate(-38,-70) scale(1,1)"><g><path fill="none" stroke="none"/><text fill="#000000" stroke="none" font-family="Arial" font-size="13px" font-style="normal" font-weight="normal" text-decoration="none" x="733" y="1089.5">+GetCategoriesFromCurrentUser(): List</text></g></g><g transform="translate(-38,-70) scale(1,1)"><g><path fill="none" stroke="none"/><text fill="#000000" stroke="none" font-family="Arial" font-size="13px" font-style="normal" font-weight="normal" text-decoration="none" x="733" y="1104.5">+CreateCategoryOnCurrentUser(category: Category): void</text></g></g><g transform="translate(-38,-70) scale(1,1)"><g><path fill="none" stroke="none"/><text fill="#000000" stroke="none" font-family="Arial" font-size="13px" font-style="normal" font-weight="normal" text-decoration="none" x="733" y="1119.5">+ModifyCategoryOnCurrentUser(oldCategory: Category, newCategory: Category): void</text></g></g><g transform="translate(-38,-70) scale(1,1)"><g><path fill="none" stroke="none"/><text fill="#000000" stroke="none" font-family="Arial" font-size="13px" font-style="normal" font-weight="normal" text-decoration="none" x="733" y="1134.5">-ValidateCategoryIsUniqueInCurrentUser(Category)</text></g></g><g transform="translate(-38,-70) scale(1,1)"><g><path fill="none" stroke="none"/><text fill="#000000" stroke="none" font-family="Arial" font-size="13px" font-style="normal" font-weight="normal" text-decoration="none" x="733" y="1149.5">+CreatePassword(password: Password): void</text></g></g><g transform="translate(-38,-70) scale(1,1)"><g><path fill="none" stroke="none"/><text fill="#000000" stroke="none" font-family="Arial" font-size="13px" font-style="normal" font-weight="normal" text-decoration="none" x="733" y="1164.5">+GetPasswords(): List</text></g></g><g transform="translate(-38,-70) scale(1,1)"><g><path fill="none" stroke="none"/><text fill="#000000" stroke="none" font-family="Arial" font-size="13px" font-style="normal" font-weight="normal" text-decoration="none" x="733" y="1179.5">+GetSharedPasswordsWithCurrentUser(): List</text></g></g><g transform="translate(-38,-70) scale(1,1)"><g><path fill="none" stroke="none"/><text fill="#000000" stroke="none" font-family="Arial" font-size="13px" font-style="normal" font-weight="normal" text-decoration="none" x="733" y="1194.5">+DeletePassword(password: Password): void</text></g></g><g transform="translate(-38,-70) scale(1,1)"><g><path fill="none" stroke="none"/><text fill="#000000" stroke="none" font-family="Arial" font-size="13px" font-style="normal" font-weight="normal" text-decoration="none" x="733" y="1209.5">+ModifyPasswordOnCurrentUser(oldPassword: Password, newPassword: Password): void</text></g></g><g transform="translate(-38,-70) scale(1,1)"><g><path fill="none" stroke="none"/><text fill="#000000" stroke="none" font-family="Arial" font-size="13px" font-style="normal" font-weight="normal" text-decoration="none" x="733" y="1224.5">-VerifyPasswordBelongToCurrentUser(newPassword: Password): void</text></g></g><g transform="translate(-38,-70) scale(1,1)"><g><path fill="none" stroke="none"/><text fill="#000000" stroke="none" font-family="Arial" font-size="13px" font-style="normal" font-weight="normal" text-decoration="none" x="733" y="1239.5">-VerifyNonExistenceOfPasswordOnPasswordList(newPassword: Password): void</text></g></g><g transform="translate(-38,-70) scale(1,1)"><g><path fill="none" stroke="none"/><text fill="#000000" stroke="none" font-family="Arial" font-size="13px" font-style="normal" font-weight="normal" text-decoration="none" x="733" y="1254.5">+SharePassword(Password passwordToShare, User userShareTo)</text></g></g><g transform="translate(-38,-70) scale(1,1)"><g><path fill="none" stroke="none"/><text fill="#000000" stroke="none" font-family="Arial" font-size="13px" font-style="normal" font-weight="normal" text-decoration="none" x="733" y="1269.5">+GetUsersSharedWith(Password pass): List&lt;User&gt;</text></g></g><g transform="translate(-38,-70) scale(1,1)"><g><path fill="none" stroke="none"/><text fill="#000000" stroke="none" font-family="Arial" font-size="13px" font-style="normal" font-weight="normal" text-decoration="none" x="733" y="1284.5">+UnSharePassword(Password passwordToShare, User userUnshareTo)</text></g></g><g transform="translate(-38,-70) scale(1,1)"><g><path fill="none" stroke="none"/><text fill="#000000" stroke="none" font-family="Arial" font-size="13px" font-style="normal" font-weight="normal" text-decoration="none" x="733" y="1299.5">+GetPasswordReportByCategoryAndColor(): List</text></g></g><g transform="translate(-38,-70) scale(1,1)"><g><path fill="none" stroke="none"/><text fill="#000000" stroke="none" font-family="Arial" font-size="13px" font-style="normal" font-weight="normal" text-decoration="none" x="733" y="1314.5">+GetPasswordReportByColor(): List</text></g></g><g transform="translate(-38,-70) scale(1,1)"><g><path fill="none" stroke="none"/><text fill="#000000" stroke="none" font-family="Arial" font-size="13px" font-style="normal" font-weight="normal" text-decoration="none" x="733" y="1329.5">+GetPasswordsByColor(color: PasswordStrengthColor): List</text></g></g><g transform="translate(-38,-70) scale(1,1)"><g><path fill="none" stroke="none"/><text fill="#000000" stroke="none" font-family="Arial" font-size="13px" font-style="normal" font-weight="normal" text-decoration="none" x="733" y="1344.5">+CreateCreditCard(creditCard: CreditCard): void</text></g></g><g transform="translate(-38,-70) scale(1,1)"><g><path fill="none" stroke="none"/><text fill="#000000" stroke="none" font-family="Arial" font-size="13px" font-style="normal" font-weight="normal" text-decoration="none" x="733" y="1359.5">+GetCreditCards(): List</text></g></g><g transform="translate(-38,-70) scale(1,1)"><g><path fill="none" stroke="none"/><text fill="#000000" stroke="none" font-family="Arial" font-size="13px" font-style="normal" font-weight="normal" text-decoration="none" x="733" y="1374.5">+DeleteCreditCard(card: CreditCard): void</text></g></g><g transform="translate(-38,-70) scale(1,1)"><g><path fill="none" stroke="none"/><text fill="#000000" stroke="none" font-family="Arial" font-size="13px" font-style="normal" font-weight="normal" text-decoration="none" x="733" y="1389.5">+GetUsersPassNotSharedWith(password: Password): List</text></g></g><g transform="translate(-38,-70) scale(1,1)"><g><path fill="none" stroke="none"/><text fill="#000000" stroke="none" font-family="Arial" font-size="13px" font-style="normal" font-weight="normal" text-decoration="none" x="733" y="1404.5">+ModifyCreditCardOnCurrentUser(oldCreditCard: CreditCard, newCreditCard: CreditCard): void</text></g></g><g transform="translate(-38,-70) scale(1,1)"><g><path fill="none" stroke="none"/><text fill="#000000" stroke="none" font-family="Arial" font-size="13px" font-style="normal" font-weight="normal" text-decoration="none" x="733" y="1419.5">-VerifyCreditCardBelongToCurrentUser(newCreditCard: CreditCard): void</text></g></g><g transform="translate(-38,-70) scale(1,1)"><g><path fill="none" stroke="none"/><text fill="#000000" stroke="none" font-family="Arial" font-size="13px" font-style="normal" font-weight="normal" text-decoration="none" x="733" y="1434.5">-VerifyNonExistenceOfCreditCardOnCreditCardList(newCreditCard: CreditCard): void</text></g></g><g transform="translate(-38,-70) scale(1,1)"><g><path fill="none" stroke="none"/><text fill="#000000" stroke="none" font-family="Arial" font-size="13px" font-style="normal" font-weight="normal" text-decoration="none" x="733" y="1449.5">+(dataBreach: IDataBreach): List</text></g></g><g transform="translate(-38,-70) scale(1,1)"><rect fill="#C0C0C0" stroke="none" x="1511" y="671" width="222.6240234375" height="235" opacity="0.2"/></g><g transform="translate(-38,-70) scale(1,1)"><rect fill="#ffffff" stroke="none" x="1504" y="664" width="222.6240234375" height="235"/></g><g transform="translate(-38,-70) scale(1,1)"><path fill="none" stroke="#000000" d="M 1504 664 L 1726.6240234375 664 L 1726.6240234375 899 L 1504 899 L 1504 664 Z Z" stroke-miterlimit="10"/></g><g transform="translate(-38,-70) scale(1,1)"><path fill="none" stroke="#000000" d="M 1504 704 L 1726.6240234375 704" stroke-miterlimit="10"/></g><g transform="translate(-38,-70) scale(1,1)"><path fill="none" stroke="#000000" d="M 1504 802 L 1726.6240234375 802" stroke-miterlimit="10"/></g><g transform="translate(-38,-70) scale(1,1)"><g><path fill="none" stroke="none"/><text fill="#000000" stroke="none" font-family="Arial" font-size="13px" font-style="normal" font-weight="bold" text-decoration="none" x="1601.58837890625" y="683.5">User</text></g></g><g transform="translate(-38,-70) scale(1,1)"><g><path fill="none" stroke="none"/><text fill="#000000" stroke="none" font-family="Arial" font-size="13px" font-style="normal" font-weight="normal" text-decoration="none" x="1573.779296875" y="698.5">(from Domain)</text></g></g><g transform="translate(-38,-70) scale(1,1)"><g><path fill="none" stroke="none"/><text fill="#000000" stroke="none" font-family="Arial" font-size="13px" font-style="normal" font-weight="normal" text-decoration="none" x="1509" y="721.5">-_masterPass: string</text></g></g><g transform="translate(-38,-70) scale(1,1)"><g><path fill="none" stroke="none"/><text fill="#000000" stroke="none" font-family="Arial" font-size="13px" font-style="normal" font-weight="normal" text-decoration="none" x="1509" y="736.5">-_name: string</text></g></g><g transform="translate(-38,-70) scale(1,1)"><g><path fill="none" stroke="none"/><text fill="#000000" stroke="none" font-family="Arial" font-size="13px" font-style="normal" font-weight="normal" text-decoration="none" x="1509" y="751.5">-_categories: List</text></g></g><g transform="translate(-38,-70) scale(1,1)"><g><path fill="none" stroke="none"/><text fill="#000000" stroke="none" font-family="Arial" font-size="13px" font-style="normal" font-weight="normal" text-decoration="none" x="1509" y="766.5">+Name: string</text></g></g><g transform="translate(-38,-70) scale(1,1)"><g><path fill="none" stroke="none"/><text fill="#000000" stroke="none" font-family="Arial" font-size="13px" font-style="normal" font-weight="normal" text-decoration="none" x="1509" y="781.5">+MasterPass: string</text></g></g><g transform="translate(-38,-70) scale(1,1)"><g><path fill="none" stroke="none"/><text fill="#000000" stroke="none" font-family="Arial" font-size="13px" font-style="normal" font-weight="normal" text-decoration="none" x="1509" y="796.5">+Categories: List&lt;Category&gt;</text></g></g><g transform="translate(-38,-70) scale(1,1)"><g><path fill="none" stroke="none"/><text fill="#000000" stroke="none" font-family="Arial" font-size="13px" font-style="normal" font-weight="normal" text-decoration="none" x="1509" y="819.5">«constructor»+User()</text></g></g><g transform="translate(-38,-70) scale(1,1)"><g><path fill="none" stroke="none"/><text fill="#000000" stroke="none" font-family="Arial" font-size="13px" font-style="normal" font-weight="normal" text-decoration="none" x="1509" y="834.5">«constructor»+User()</text></g></g><g transform="translate(-38,-70) scale(1,1)"><g><path fill="none" stroke="none"/><text fill="#000000" stroke="none" font-family="Arial" font-size="13px" font-style="normal" font-weight="normal" text-decoration="none" x="1509" y="849.5">-ValidateName(name: string): void</text></g></g><g transform="translate(-38,-70) scale(1,1)"><g><path fill="none" stroke="none"/><text fill="#000000" stroke="none" font-family="Arial" font-size="13px" font-style="normal" font-weight="normal" text-decoration="none" x="1509" y="864.5">-ValidatePassword(pass: string): void</text></g></g><g transform="translate(-38,-70) scale(1,1)"><g><path fill="none" stroke="none"/><text fill="#000000" stroke="none" font-family="Arial" font-size="13px" font-style="normal" font-weight="normal" text-decoration="none" x="1509" y="879.5">+Equals(obj: object): bool</text></g></g><g transform="translate(-38,-70) scale(1,1)"><g><path fill="none" stroke="none"/><text fill="#000000" stroke="none" font-family="Arial" font-size="13px" font-style="normal" font-weight="normal" text-decoration="none" x="1509" y="894.5">+ToString(): string</text></g></g><g transform="translate(-38,-70) scale(1,1)"><path fill="none" stroke="#000000" d="M 787 138 L 1656 138 L 1656 664" stroke-miterlimit="10"/></g><g transform="translate(-38,-70) scale(1,1)"><path fill="none" stroke="#000000" d="M 1651.7904822439841 653.8373251423759 L 1656 664 L 1660.2095177560159 653.8373251423759" stroke-miterlimit="10"/></g><g transform="translate(-38,-70) scale(1,1)"><g><path fill="none" stroke="none"/><text fill="#000000" stroke="none" font-family="Arial" font-size="13px" font-style="normal" font-weight="normal" text-decoration="none" x="795.5" y="156.5">0...n</text></g></g><g transform="translate(-38,-70) scale(1,1)"><g><path fill="none" stroke="none"/><text fill="#000000" stroke="none" font-family="Arial" font-size="13px" font-style="normal" font-weight="normal" text-decoration="none" x="1639.5" y="648.5">1</text></g></g><g transform="translate(-38,-70) scale(1,1)"><path fill="none" stroke="#000000" d="M 1288 1176 L 1536 1176 L 1536 899" stroke-miterlimit="10"/></g><g transform="translate(-38,-70) scale(1,1)"><path fill="none" stroke="#000000" d="M 1540.2095177560159 909.1626748576241 L 1536 899 L 1531.7904822439841 909.1626748576241" stroke-miterlimit="10"/></g><g transform="translate(-38,-70) scale(1,1)"><g><path fill="none" stroke="none"/><text fill="#000000" stroke="none" font-family="Arial" font-size="13px" font-style="normal" font-weight="normal" text-decoration="none" x="1305.5" y="1194.5">1</text></g></g><g transform="translate(-38,-70) scale(1,1)"><g><path fill="none" stroke="none"/><text fill="#000000" stroke="none" font-family="Arial" font-size="13px" font-style="normal" font-weight="normal" text-decoration="none" x="1537.5" y="926.5">0..1</text></g></g><g transform="translate(-38,-70) scale(1,1)"><path fill="none" stroke="#000000" d="M 1005 667 L 1005 904" stroke-miterlimit="10"/></g><g transform="translate(-38,-70) scale(1,1)"><path fill="#FFFFFF" stroke="none" d="M 1000.790482243984 893.8373251423759 L 1005 904 L 1009.209517756016 893.8373251423759 L 1005 882"/></g><g transform="translate(-38,-70) scale(1,1)"><path fill="none" stroke="#000000" d="M 1000.790482243984 893.8373251423759 L 1005 904 L 1009.209517756016 893.8373251423759 L 1005 882 L 1000.790482243984 893.8373251423759" stroke-miterlimit="10"/></g><g transform="translate(-38,-70) scale(1,1)"><g><path fill="none" stroke="none"/><text fill="#000000" stroke="none" font-family="Arial" font-size="13px" font-style="normal" font-weight="normal" text-decoration="none" x="967.5" y="694.5">0...n</text></g></g><g transform="translate(-38,-70) scale(1,1)"><g><path fill="none" stroke="none"/><text fill="#000000" stroke="none" font-family="Arial" font-size="13px" font-style="normal" font-weight="normal" text-decoration="none" x="988.5" y="888.5">1</text></g></g><g transform="translate(-38,-70) scale(1,1)"><path fill="none" stroke="#000000" d="M 351 831 L 351 1136 L 728 1136" stroke-miterlimit="10"/></g><g transform="translate(-38,-70) scale(1,1)"><path fill="#FFFFFF" stroke="none" d="M 717.8373251423759 1140.2095177560159 L 728 1136 L 717.8373251423758 1131.7904822439841 L 706 1136"/></g><g transform="translate(-38,-70) scale(1,1)"><path fill="none" stroke="#000000" d="M 717.8373251423759 1140.2095177560159 L 728 1136 L 717.8373251423758 1131.7904822439841 L 706 1136 L 717.8373251423759 1140.2095177560159" stroke-miterlimit="10"/></g><g transform="translate(-38,-70) scale(1,1)"><g><path fill="none" stroke="none"/><text fill="#000000" stroke="none" font-family="Arial" font-size="13px" font-style="normal" font-weight="normal" text-decoration="none" x="311.5" y="858.5">0...n</text></g></g><g transform="translate(-38,-70) scale(1,1)"><g><path fill="none" stroke="none"/><text fill="#000000" stroke="none" font-family="Arial" font-size="13px" font-style="normal" font-weight="normal" text-decoration="none" x="702.5" y="1154.5">1</text></g></g><g transform="translate(-38,-70) scale(1,1)"><path fill="none" stroke="#000000" d="M 1504 800 L 1368 800 L 1368 1067 L 1288 1067" stroke-miterlimit="10"/></g><g transform="translate(-38,-70) scale(1,1)"><path fill="#FFFFFF" stroke="none" d="M 1298.162674857624 1062.7904822439841 L 1288 1067 L 1298.162674857624 1071.2095177560159 L 1310 1067"/></g><g transform="translate(-38,-70) scale(1,1)"><path fill="none" stroke="#000000" d="M 1298.162674857624 1062.7904822439841 L 1288 1067 L 1298.162674857624 1071.2095177560159 L 1310 1067 L 1298.162674857624 1062.7904822439841" stroke-miterlimit="10"/></g><g transform="translate(-38,-70) scale(1,1)"><g><path fill="none" stroke="none"/><text fill="#000000" stroke="none" font-family="Arial" font-size="13px" font-style="normal" font-weight="normal" text-decoration="none" x="1469.5" y="793.5">0...n</text></g></g><g transform="translate(-38,-70) scale(1,1)"><g><path fill="none" stroke="none"/><text fill="#000000" stroke="none" font-family="Arial" font-size="13px" font-style="normal" font-weight="normal" text-decoration="none" x="1305.5" y="1060.5">1</text></g></g><g transform="translate(-38,-70) scale(1,1)"><path fill="none" stroke="#000000" d="M 1524 248 L 1592 248 L 1592 664" stroke-miterlimit="10"/></g><g transform="translate(-38,-70) scale(1,1)"><path fill="#FFFFFF" stroke="none" d="M 1587.7904822439841 653.8373251423759 L 1592 664 L 1596.2095177560159 653.8373251423759 L 1592 642"/></g><g transform="translate(-38,-70) scale(1,1)"><path fill="none" stroke="#000000" d="M 1587.7904822439841 653.8373251423759 L 1592 664 L 1596.2095177560159 653.8373251423759 L 1592 642 L 1587.7904822439841 653.8373251423759" stroke-miterlimit="10"/></g><g transform="translate(-38,-70) scale(1,1)"><g><path fill="none" stroke="none"/><text fill="#000000" stroke="none" font-family="Arial" font-size="13px" font-style="normal" font-weight="normal" text-decoration="none" x="1532.5" y="266.5">0...n</text></g></g><g transform="translate(-38,-70) scale(1,1)"><g><path fill="none" stroke="none"/><text fill="#000000" stroke="none" font-family="Arial" font-size="13px" font-style="normal" font-weight="normal" text-decoration="none" x="1575.5" y="648.5">1</text></g></g><g transform="translate(-38,-70) scale(1,1)"><path fill="none" stroke="#000000" d="M 1504 762 L 618 762" stroke-miterlimit="10"/></g><g transform="translate(-38,-70) scale(1,1)"><path fill="#FFFFFF" stroke="none" d="M 628.1626748576241 757.790482243984 L 618 762 L 628.1626748576241 766.209517756016 L 640 762"/></g><g transform="translate(-38,-70) scale(1,1)"><path fill="none" stroke="#000000" d="M 628.1626748576241 757.790482243984 L 618 762 L 628.1626748576241 766.209517756016 L 640 762 L 628.1626748576241 757.790482243984" stroke-miterlimit="10"/></g><g transform="translate(-38,-70) scale(1,1)"><g><path fill="none" stroke="none"/><text fill="#000000" stroke="none" font-family="Arial" font-size="13px" font-style="normal" font-weight="normal" text-decoration="none" x="1469.5" y="755.5">0...n</text></g></g><g transform="translate(-38,-70) scale(1,1)"><g><path fill="none" stroke="none"/><text fill="#000000" stroke="none" font-family="Arial" font-size="13px" font-style="normal" font-weight="normal" text-decoration="none" x="626.5" y="755.5">0...n</text></g></g></g></svg>