<svg version="1.1" xmlns="http://www.w3.org/2000/svg" xmlns:xlink="http://www.w3.org/1999/xlink" width="1636" height="1092"><defs/><g><g transform="translate(-446,-190) scale(1,1)"><rect fill="#C0C0C0" stroke="none" x="463" y="799" width="646.4000000000001" height="15" opacity="0.2"/></g><g transform="translate(-446,-190) scale(1,1)"><rect fill="#C0C0C0" stroke="none" x="463" y="813" width="1616" height="466" opacity="0.2"/></g><g transform="translate(-446,-190) scale(1,1)"><rect fill="#ffffff" stroke="none" x="456" y="807" width="1616" height="465"/></g><g transform="translate(-446,-190) scale(1,1)"><path fill="none" stroke="#000000" d="M 456 807 L 2072 807 L 2072 1272 L 456 1272 L 456 807 Z Z" stroke-miterlimit="10"/></g><g transform="translate(-446,-190) scale(1,1)"><rect fill="#ffffff" stroke="none" x="456" y="792" width="646.4000000000001" height="15"/></g><g transform="translate(-446,-190) scale(1,1)"><path fill="none" stroke="#000000" d="M 456 792 L 1102.4 792 L 1102.4 807 L 456 807 L 456 792 Z Z" stroke-miterlimit="10"/></g><g transform="translate(-446,-190) scale(1,1)"><rect fill="#ffffff" stroke="none" x="456" y="806" width="1616" height="466"/></g><g transform="translate(-446,-190) scale(1,1)"><path fill="none" stroke="#000000" d="M 456 806 L 2072 806 L 2072 1272 L 456 1272 L 456 806 Z Z" stroke-miterlimit="10"/></g><g transform="translate(-446,-190) scale(1,1)"><g><path fill="none" stroke="none"/><text fill="#000000" stroke="none" font-family="Arial" font-size="13px" font-style="normal" font-weight="bold" text-decoration="none" x="1243.052734375" y="826.5">Utilities</text></g></g><g transform="translate(-446,-190) scale(1,1)"><rect fill="#C0C0C0" stroke="none" x="535" y="207" width="476.79999999999995" height="15" opacity="0.2"/></g><g transform="translate(-446,-190) scale(1,1)"><rect fill="#C0C0C0" stroke="none" x="535" y="221" width="1192" height="482" opacity="0.2"/></g><g transform="translate(-446,-190) scale(1,1)"><rect fill="#ffffff" stroke="none" x="528" y="215" width="1192" height="481"/></g><g transform="translate(-446,-190) scale(1,1)"><path fill="none" stroke="#000000" d="M 528 215 L 1720 215 L 1720 696 L 528 696 L 528 215 Z Z" stroke-miterlimit="10"/></g><g transform="translate(-446,-190) scale(1,1)"><rect fill="#ffffff" stroke="none" x="528" y="200" width="476.79999999999995" height="15"/></g><g transform="translate(-446,-190) scale(1,1)"><path fill="none" stroke="#000000" d="M 528 200 L 1004.8 200 L 1004.8 215 L 528 215 L 528 200 Z Z" stroke-miterlimit="10"/></g><g transform="translate(-446,-190) scale(1,1)"><rect fill="#ffffff" stroke="none" x="528" y="214" width="1192" height="482"/></g><g transform="translate(-446,-190) scale(1,1)"><path fill="none" stroke="#000000" d="M 528 214 L 1720 214 L 1720 696 L 528 696 L 528 214 Z Z" stroke-miterlimit="10"/></g><g transform="translate(-446,-190) scale(1,1)"><g><path fill="none" stroke="none"/><text fill="#000000" stroke="none" font-family="Arial" font-size="13px" font-style="normal" font-weight="bold" text-decoration="none" x="1101.602294921875" y="234.5">Domain</text></g></g><g transform="translate(-446,-190) scale(1,1)"><rect fill="#C0C0C0" stroke="none" x="615" y="271" width="521.98583984375" height="415" opacity="0.2"/></g><g transform="translate(-446,-190) scale(1,1)"><rect fill="#ffffff" stroke="none" x="608" y="264" width="521.98583984375" height="415"/></g><g transform="translate(-446,-190) scale(1,1)"><path fill="none" stroke="#000000" d="M 608 264 L 1129.98583984375 264 L 1129.98583984375 679 L 608 679 L 608 264 Z Z" stroke-miterlimit="10"/></g><g transform="translate(-446,-190) scale(1,1)"><path fill="none" stroke="#000000" d="M 608 304 L 1129.98583984375 304" stroke-miterlimit="10"/></g><g transform="translate(-446,-190) scale(1,1)"><path fill="none" stroke="#000000" d="M 608 522 L 1129.98583984375 522" stroke-miterlimit="10"/></g><g transform="translate(-446,-190) scale(1,1)"><g><path fill="none" stroke="none"/><text fill="#000000" stroke="none" font-family="Arial" font-size="13px" font-style="normal" font-weight="bold" text-decoration="none" x="840.453857421875" y="283.5">Password</text></g></g><g transform="translate(-446,-190) scale(1,1)"><g><path fill="none" stroke="none"/><text fill="#000000" stroke="none" font-family="Arial" font-size="13px" font-style="normal" font-weight="normal" text-decoration="none" x="827.460205078125" y="298.5">(from Domain)</text></g></g><g transform="translate(-446,-190) scale(1,1)"><g><path fill="none" stroke="none"/><text fill="#000000" stroke="none" font-family="Arial" font-size="13px" font-style="normal" font-weight="normal" text-decoration="none" x="613" y="321.5">-_site: string</text></g></g><g transform="translate(-446,-190) scale(1,1)"><g><path fill="none" stroke="none"/><text fill="#000000" stroke="none" font-family="Arial" font-size="13px" font-style="normal" font-weight="normal" text-decoration="none" x="613" y="336.5">-_username: string</text></g></g><g transform="translate(-446,-190) scale(1,1)"><g><path fill="none" stroke="none"/><text fill="#000000" stroke="none" font-family="Arial" font-size="13px" font-style="normal" font-weight="normal" text-decoration="none" x="613" y="351.5">-_pass: string</text></g></g><g transform="translate(-446,-190) scale(1,1)"><g><path fill="none" stroke="none"/><text fill="#000000" stroke="none" font-family="Arial" font-size="13px" font-style="normal" font-weight="normal" text-decoration="none" x="613" y="366.5">-_encryptedPass: string</text></g></g><g transform="translate(-446,-190) scale(1,1)"><g><path fill="none" stroke="none"/><text fill="#000000" stroke="none" font-family="Arial" font-size="13px" font-style="normal" font-weight="normal" text-decoration="none" x="613" y="381.5">-_sharedWith: List</text></g></g><g transform="translate(-446,-190) scale(1,1)"><g><path fill="none" stroke="none"/><text fill="#000000" stroke="none" font-family="Arial" font-size="13px" font-style="normal" font-weight="normal" text-decoration="none" x="613" y="396.5">-_lastModification: DateTime</text></g></g><g transform="translate(-446,-190) scale(1,1)"><g><path fill="none" stroke="none"/><text fill="#000000" stroke="none" font-family="Arial" font-size="13px" font-style="normal" font-weight="normal" text-decoration="none" x="613" y="411.5">-encryption: IEncryption</text></g></g><g transform="translate(-446,-190) scale(1,1)"><g><path fill="none" stroke="none"/><text fill="#000000" stroke="none" font-family="Arial" font-size="13px" font-style="normal" font-weight="normal" text-decoration="none" x="613" y="426.5">+PasswordStrength: PasswordStrengthColor</text></g></g><g transform="translate(-446,-190) scale(1,1)"><g><path fill="none" stroke="none"/><text fill="#000000" stroke="none" font-family="Arial" font-size="13px" font-style="normal" font-weight="normal" text-decoration="none" x="613" y="441.5">+SharedWith: List</text></g></g><g transform="translate(-446,-190) scale(1,1)"><g><path fill="none" stroke="none"/><text fill="#000000" stroke="none" font-family="Arial" font-size="13px" font-style="normal" font-weight="normal" text-decoration="none" x="613" y="456.5">+Site: string</text></g></g><g transform="translate(-446,-190) scale(1,1)"><g><path fill="none" stroke="none"/><text fill="#000000" stroke="none" font-family="Arial" font-size="13px" font-style="normal" font-weight="normal" text-decoration="none" x="613" y="471.5">+Username: string</text></g></g><g transform="translate(-446,-190) scale(1,1)"><g><path fill="none" stroke="none"/><text fill="#000000" stroke="none" font-family="Arial" font-size="13px" font-style="normal" font-weight="normal" text-decoration="none" x="613" y="486.5">+Pass: string</text></g></g><g transform="translate(-446,-190) scale(1,1)"><g><path fill="none" stroke="none"/><text fill="#000000" stroke="none" font-family="Arial" font-size="13px" font-style="normal" font-weight="normal" text-decoration="none" x="613" y="501.5">+LastModification: DateTime</text></g></g><g transform="translate(-446,-190) scale(1,1)"><g><path fill="none" stroke="none"/><text fill="#000000" stroke="none" font-family="Arial" font-size="13px" font-style="normal" font-weight="normal" text-decoration="none" x="613" y="516.5">+EncryptedPass: string</text></g></g><g transform="translate(-446,-190) scale(1,1)"><g><path fill="none" stroke="none"/><text fill="#000000" stroke="none" font-family="Arial" font-size="13px" font-style="normal" font-weight="normal" text-decoration="none" x="613" y="539.5">«constructor»+Password()</text></g></g><g transform="translate(-446,-190) scale(1,1)"><g><path fill="none" stroke="none"/><text fill="#000000" stroke="none" font-family="Arial" font-size="13px" font-style="normal" font-weight="normal" text-decoration="none" x="613" y="554.5">-DecryptPass(encryptedPass: string): string</text></g></g><g transform="translate(-446,-190) scale(1,1)"><g><path fill="none" stroke="none"/><text fill="#000000" stroke="none" font-family="Arial" font-size="13px" font-style="normal" font-weight="normal" text-decoration="none" x="613" y="569.5">-EncryptPass(pass: string): string</text></g></g><g transform="translate(-446,-190) scale(1,1)"><g><path fill="none" stroke="none"/><text fill="#000000" stroke="none" font-family="Arial" font-size="13px" font-style="normal" font-weight="normal" text-decoration="none" x="613" y="584.5">-ValidateSite(siteToValidate: string): void</text></g></g><g transform="translate(-446,-190) scale(1,1)"><g><path fill="none" stroke="none"/><text fill="#000000" stroke="none" font-family="Arial" font-size="13px" font-style="normal" font-weight="normal" text-decoration="none" x="613" y="599.5">-ValidateUsername(usernameToValidate: string): void</text></g></g><g transform="translate(-446,-190) scale(1,1)"><g><path fill="none" stroke="none"/><text fill="#000000" stroke="none" font-family="Arial" font-size="13px" font-style="normal" font-weight="normal" text-decoration="none" x="613" y="614.5">+ValidatePass(passToValidate: string): void</text></g></g><g transform="translate(-446,-190) scale(1,1)"><g><path fill="none" stroke="none"/><text fill="#000000" stroke="none" font-family="Arial" font-size="13px" font-style="normal" font-weight="normal" text-decoration="none" x="613" y="629.5">+ShareWithUser(userShareWith: User): void</text></g></g><g transform="translate(-446,-190) scale(1,1)"><g><path fill="none" stroke="none"/><text fill="#000000" stroke="none" font-family="Arial" font-size="13px" font-style="normal" font-weight="normal" text-decoration="none" x="613" y="644.5">+UnShareWithUser(userRemoveShare: User): void</text></g></g><g transform="translate(-446,-190) scale(1,1)"><g><path fill="none" stroke="none"/><text fill="#000000" stroke="none" font-family="Arial" font-size="13px" font-style="normal" font-weight="normal" text-decoration="none" x="613" y="659.5">+Equals(obj: object): bool</text></g></g><g transform="translate(-446,-190) scale(1,1)"><g><path fill="none" stroke="none"/><text fill="#000000" stroke="none" font-family="Arial" font-size="13px" font-style="normal" font-weight="normal" text-decoration="none" x="613" y="674.5">-CheckEqualityOfPassword(passwordToCompare: Password, password: Password): bool</text></g></g><g transform="translate(-446,-190) scale(1,1)"><rect fill="#C0C0C0" stroke="none" x="1415" y="1007" width="265.12158203125" height="72" opacity="0.2"/></g><g transform="translate(-446,-190) scale(1,1)"><rect fill="#ffffff" stroke="none" x="1408" y="1000" width="265.12158203125" height="72"/></g><g transform="translate(-446,-190) scale(1,1)"><path fill="none" stroke="#000000" d="M 1408 1000 L 1673.12158203125 1000 L 1673.12158203125 1072 L 1408 1072 L 1408 1000 Z Z" stroke-miterlimit="10"/></g><g transform="translate(-446,-190) scale(1,1)"><path fill="none" stroke="#000000" d="M 1408 1040 L 1673.12158203125 1040" stroke-miterlimit="10"/></g><g transform="translate(-446,-190) scale(1,1)"><path fill="none" stroke="#000000" d="M 1408 1050 L 1673.12158203125 1050" stroke-miterlimit="10"/></g><g transform="translate(-446,-190) scale(1,1)"><g><path fill="none" stroke="none"/><text fill="#000000" stroke="none" font-family="Arial" font-size="13px" font-style="normal" font-weight="bold" text-decoration="none" x="1496.476318359375" y="1019.5">AdvancedHash</text></g></g><g transform="translate(-446,-190) scale(1,1)"><g><path fill="none" stroke="none"/><text fill="#000000" stroke="none" font-family="Arial" font-size="13px" font-style="normal" font-weight="normal" text-decoration="none" x="1500.478515625" y="1034.5">(from Utilities)</text></g></g><g transform="translate(-446,-190) scale(1,1)"><g><path fill="none" stroke="none"/><text fill="#000000" stroke="none" font-family="Arial" font-size="13px" font-style="normal" font-weight="normal" text-decoration="none" x="1413" y="1067.5">+Hash(textToHash: string, salt: string): string</text></g></g><g transform="translate(-446,-190) scale(1,1)"><rect fill="#C0C0C0" stroke="none" x="519" y="1055" width="524.251953125" height="190" opacity="0.2"/></g><g transform="translate(-446,-190) scale(1,1)"><rect fill="#ffffff" stroke="none" x="512" y="1048" width="524.251953125" height="190"/></g><g transform="translate(-446,-190) scale(1,1)"><path fill="none" stroke="#000000" d="M 512 1048 L 1036.251953125 1048 L 1036.251953125 1238 L 512 1238 L 512 1048 Z Z" stroke-miterlimit="10"/></g><g transform="translate(-446,-190) scale(1,1)"><path fill="none" stroke="#000000" d="M 512 1088 L 1036.251953125 1088" stroke-miterlimit="10"/></g><g transform="translate(-446,-190) scale(1,1)"><path fill="none" stroke="#000000" d="M 512 1156 L 1036.251953125 1156" stroke-miterlimit="10"/></g><g transform="translate(-446,-190) scale(1,1)"><g><path fill="none" stroke="none"/><text fill="#000000" stroke="none" font-family="Arial" font-size="13px" font-style="normal" font-weight="bold" text-decoration="none" x="732.215576171875" y="1067.5">AesEncryption</text></g></g><g transform="translate(-446,-190) scale(1,1)"><g><path fill="none" stroke="none"/><text fill="#000000" stroke="none" font-family="Arial" font-size="13px" font-style="normal" font-weight="normal" text-decoration="none" x="734.043701171875" y="1082.5">(from Utilities)</text></g></g><g transform="translate(-446,-190) scale(1,1)"><g><path fill="none" stroke="none"/><text fill="#000000" stroke="none" font-family="Arial" font-size="13px" font-style="normal" font-weight="normal" text-decoration="none" x="517" y="1105.5">-keyPaddingChar: char = '0'</text><path fill="none" stroke="#000000" d="M 517 1105.5 L 676.96728515625 1105.5" stroke-miterlimit="10"/></g></g><g transform="translate(-446,-190) scale(1,1)"><g><path fill="none" stroke="none"/><text fill="#000000" stroke="none" font-family="Arial" font-size="13px" font-style="normal" font-weight="normal" text-decoration="none" x="517" y="1120.5">-keyLength: int = 32</text><path fill="none" stroke="#000000" d="M 517 1120.5 L 631.5498046875 1120.5" stroke-miterlimit="10"/></g></g><g transform="translate(-446,-190) scale(1,1)"><g><path fill="none" stroke="none"/><text fill="#000000" stroke="none" font-family="Arial" font-size="13px" font-style="normal" font-weight="normal" text-decoration="none" x="517" y="1135.5">-IV: byte[][*] = new byte[]{237,187,70,157,153,181,4,169,105,218,240,155,181,155,44,19}</text><path fill="none" stroke="#000000" d="M 517 1135.5 L 1032.251953125 1135.5" stroke-miterlimit="10"/></g></g><g transform="translate(-446,-190) scale(1,1)"><g><path fill="none" stroke="none"/><text fill="#000000" stroke="none" font-family="Arial" font-size="13px" font-style="normal" font-weight="normal" text-decoration="none" x="517" y="1150.5">-encoding: Encoding = Encoding.UTF8</text><path fill="none" stroke="#000000" d="M 517 1150.5 L 740.666015625 1150.5" stroke-miterlimit="10"/></g></g><g transform="translate(-446,-190) scale(1,1)"><g><path fill="none" stroke="none"/><text fill="#000000" stroke="none" font-family="Arial" font-size="13px" font-style="normal" font-weight="normal" text-decoration="none" x="517" y="1173.5">+Encrypt(textToEncrypt: string, key: string): string</text></g></g><g transform="translate(-446,-190) scale(1,1)"><g><path fill="none" stroke="none"/><text fill="#000000" stroke="none" font-family="Arial" font-size="13px" font-style="normal" font-weight="normal" text-decoration="none" x="517" y="1188.5">+Decrypt(encryptedText: string, key: string): string</text></g></g><g transform="translate(-446,-190) scale(1,1)"><g><path fill="none" stroke="none"/><text fill="#000000" stroke="none" font-family="Arial" font-size="13px" font-style="normal" font-weight="normal" text-decoration="none" x="517" y="1203.5">-EncryptAes(plainText: string, key: string): string</text><path fill="none" stroke="#000000" d="M 517 1203.5 L 792.259765625 1203.5" stroke-miterlimit="10"/></g></g><g transform="translate(-446,-190) scale(1,1)"><g><path fill="none" stroke="none"/><text fill="#000000" stroke="none" font-family="Arial" font-size="13px" font-style="normal" font-weight="normal" text-decoration="none" x="517" y="1218.5">-DecryptAes(plainText: string, key: string): string</text><path fill="none" stroke="#000000" d="M 517 1218.5 L 792.97705078125 1218.5" stroke-miterlimit="10"/></g></g><g transform="translate(-446,-190) scale(1,1)"><g><path fill="none" stroke="none"/><text fill="#000000" stroke="none" font-family="Arial" font-size="13px" font-style="normal" font-weight="normal" text-decoration="none" x="517" y="1233.5">-HmacSHA256(data: String, key: String): byte[][*]</text><path fill="none" stroke="#000000" d="M 517 1233.5 L 798.77880859375 1233.5" stroke-miterlimit="10"/></g></g><g transform="translate(-446,-190) scale(1,1)"><rect fill="#C0C0C0" stroke="none" x="1063" y="1055" width="295.46337890625" height="102" opacity="0.2"/></g><g transform="translate(-446,-190) scale(1,1)"><rect fill="#ffffff" stroke="none" x="1056" y="1048" width="295.46337890625" height="102"/></g><g transform="translate(-446,-190) scale(1,1)"><path fill="none" stroke="#000000" d="M 1056 1048 L 1351.46337890625 1048 L 1351.46337890625 1150 L 1056 1150 L 1056 1048 Z Z" stroke-miterlimit="10"/></g><g transform="translate(-446,-190) scale(1,1)"><path fill="none" stroke="#000000" d="M 1056 1088 L 1351.46337890625 1088" stroke-miterlimit="10"/></g><g transform="translate(-446,-190) scale(1,1)"><path fill="none" stroke="#000000" d="M 1056 1098 L 1351.46337890625 1098" stroke-miterlimit="10"/></g><g transform="translate(-446,-190) scale(1,1)"><g><path fill="none" stroke="none"/><text fill="#000000" stroke="none" font-family="Arial" font-size="13px" font-style="normal" font-weight="bold" text-decoration="none" x="1157.127197265625" y="1067.5">BasicEncryption</text></g></g><g transform="translate(-446,-190) scale(1,1)"><g><path fill="none" stroke="none"/><text fill="#000000" stroke="none" font-family="Arial" font-size="13px" font-style="normal" font-weight="normal" text-decoration="none" x="1163.6494140625" y="1082.5">(from Utilities)</text></g></g><g transform="translate(-446,-190) scale(1,1)"><g><path fill="none" stroke="none"/><text fill="#000000" stroke="none" font-family="Arial" font-size="13px" font-style="normal" font-weight="normal" text-decoration="none" x="1061" y="1115.5">+Encrypt(textToEncrypt: string, key: string): string</text></g></g><g transform="translate(-446,-190) scale(1,1)"><g><path fill="none" stroke="none"/><text fill="#000000" stroke="none" font-family="Arial" font-size="13px" font-style="normal" font-weight="normal" text-decoration="none" x="1061" y="1130.5">+Decrypt(encryptedText: string, key: string): string</text></g></g><g transform="translate(-446,-190) scale(1,1)"><g><path fill="none" stroke="none"/><text fill="#000000" stroke="none" font-family="Arial" font-size="13px" font-style="normal" font-weight="normal" text-decoration="none" x="1061" y="1145.5">-VerifyText(text: string): void</text></g></g><g transform="translate(-446,-190) scale(1,1)"><rect fill="#C0C0C0" stroke="none" x="1711" y="999" width="265.12158203125" height="72" opacity="0.2"/></g><g transform="translate(-446,-190) scale(1,1)"><rect fill="#ffffff" stroke="none" x="1704" y="992" width="265.12158203125" height="72"/></g><g transform="translate(-446,-190) scale(1,1)"><path fill="none" stroke="#000000" d="M 1704 992 L 1969.12158203125 992 L 1969.12158203125 1064 L 1704 1064 L 1704 992 Z Z" stroke-miterlimit="10"/></g><g transform="translate(-446,-190) scale(1,1)"><path fill="none" stroke="#000000" d="M 1704 1032 L 1969.12158203125 1032" stroke-miterlimit="10"/></g><g transform="translate(-446,-190) scale(1,1)"><path fill="none" stroke="#000000" d="M 1704 1042 L 1969.12158203125 1042" stroke-miterlimit="10"/></g><g transform="translate(-446,-190) scale(1,1)"><g><path fill="none" stroke="none"/><text fill="#000000" stroke="none" font-family="Arial" font-size="13px" font-style="normal" font-weight="bold" text-decoration="none" x="1805.4921875" y="1011.5">BasicHash</text></g></g><g transform="translate(-446,-190) scale(1,1)"><g><path fill="none" stroke="none"/><text fill="#000000" stroke="none" font-family="Arial" font-size="13px" font-style="normal" font-weight="normal" text-decoration="none" x="1796.478515625" y="1026.5">(from Utilities)</text></g></g><g transform="translate(-446,-190) scale(1,1)"><g><path fill="none" stroke="none"/><text fill="#000000" stroke="none" font-family="Arial" font-size="13px" font-style="normal" font-weight="normal" text-decoration="none" x="1709" y="1059.5">+Hash(textToHash: string, salt: string): string</text></g></g><g transform="translate(-446,-190) scale(1,1)"><path fill="#C0C0C0" stroke="none" d="M 1032.082275390625 882.5 C 1032.082275390625 876.1487248 1037.231000190625 871 1043.582275390625 871 C 1049.933550590625 871 1055.082275390625 876.1487248 1055.082275390625 882.5 C 1055.082275390625 888.8512752 1049.933550590625 894 1043.582275390625 894 C 1037.231000190625 894 1032.082275390625 888.8512752 1032.082275390625 882.5 Z" opacity="0.2"/></g><g transform="translate(-446,-190) scale(1,1)"><path fill="#ffffff" stroke="none" d="M 1025.082275390625 875.5 C 1025.082275390625 869.1487248 1030.231000190625 864 1036.582275390625 864 C 1042.933550590625 864 1048.082275390625 869.1487248 1048.082275390625 875.5 C 1048.082275390625 881.8512752 1042.933550590625 887 1036.582275390625 887 C 1030.231000190625 887 1025.082275390625 881.8512752 1025.082275390625 875.5 Z"/></g><g transform="translate(-446,-190) scale(1,1)"><path fill="none" stroke="#000000" d="M 1025.082275390625 875.5 C 1025.082275390625 869.1487248 1030.231000190625 864 1036.582275390625 864 C 1042.933550590625 864 1048.082275390625 869.1487248 1048.082275390625 875.5 C 1048.082275390625 881.8512752 1042.933550590625 887 1036.582275390625 887 C 1030.231000190625 887 1025.082275390625 881.8512752 1025.082275390625 875.5 Z" stroke-miterlimit="10"/></g><g transform="translate(-446,-190) scale(1,1)"><g><path fill="none" stroke="none"/><text fill="#000000" stroke="none" font-family="Arial" font-size="13px" font-style="normal" font-weight="bold" text-decoration="none" x="1004.06640625" y="906.5">IEncryption</text></g></g><g transform="translate(-446,-190) scale(1,1)"><g><path fill="none" stroke="none"/><text fill="#000000" stroke="none" font-family="Arial" font-size="13px" font-style="normal" font-weight="normal" text-decoration="none" x="996.5" y="921.5">(from Utilities)</text></g></g><g transform="translate(-446,-190) scale(1,1)"><path fill="none" stroke="#000000" d="M 1001 1048 L 1001 927" stroke-miterlimit="10"/></g><g transform="translate(-446,-190) scale(1,1)"><path fill="#FFFFFF" stroke="none" d="M 1009.419035512032 947.3253497152483 L 1001 927 L 992.580964487968 947.3253497152483"/></g><g transform="translate(-446,-190) scale(1,1)"><path fill="none" stroke="#000000" d="M 1009.419035512032 947.3253497152483 L 1001 927 L 992.580964487968 947.3253497152483 L 1009.419035512032 947.3253497152483" stroke-miterlimit="10"/></g><g transform="translate(-446,-190) scale(1,1)"><path fill="none" stroke="#000000" d="M 1071 1048 L 1071 927" stroke-miterlimit="10"/></g><g transform="translate(-446,-190) scale(1,1)"><path fill="#FFFFFF" stroke="none" d="M 1079.419035512032 947.3253497152483 L 1071 927 L 1062.580964487968 947.3253497152483"/></g><g transform="translate(-446,-190) scale(1,1)"><path fill="none" stroke="#000000" d="M 1079.419035512032 947.3253497152483 L 1071 927 L 1062.580964487968 947.3253497152483 L 1079.419035512032 947.3253497152483" stroke-miterlimit="10"/></g><g transform="translate(-446,-190) scale(1,1)"><path fill="#C0C0C0" stroke="none" d="M 1672.082275390625 858.5 C 1672.082275390625 852.1487248 1677.231000190625 847 1683.582275390625 847 C 1689.933550590625 847 1695.082275390625 852.1487248 1695.082275390625 858.5 C 1695.082275390625 864.8512752 1689.933550590625 870 1683.582275390625 870 C 1677.231000190625 870 1672.082275390625 864.8512752 1672.082275390625 858.5 Z" opacity="0.2"/></g><g transform="translate(-446,-190) scale(1,1)"><path fill="#ffffff" stroke="none" d="M 1665.082275390625 851.5 C 1665.082275390625 845.1487248 1670.231000190625 840 1676.582275390625 840 C 1682.933550590625 840 1688.082275390625 845.1487248 1688.082275390625 851.5 C 1688.082275390625 857.8512752 1682.933550590625 863 1676.582275390625 863 C 1670.231000190625 863 1665.082275390625 857.8512752 1665.082275390625 851.5 Z"/></g><g transform="translate(-446,-190) scale(1,1)"><path fill="none" stroke="#000000" d="M 1665.082275390625 851.5 C 1665.082275390625 845.1487248 1670.231000190625 840 1676.582275390625 840 C 1682.933550590625 840 1688.082275390625 845.1487248 1688.082275390625 851.5 C 1688.082275390625 857.8512752 1682.933550590625 863 1676.582275390625 863 C 1670.231000190625 863 1665.082275390625 857.8512752 1665.082275390625 851.5 Z" stroke-miterlimit="10"/></g><g transform="translate(-446,-190) scale(1,1)"><g><path fill="none" stroke="none"/><text fill="#000000" stroke="none" font-family="Arial" font-size="13px" font-style="normal" font-weight="bold" text-decoration="none" x="1659.602294921875" y="882.5">IHash</text></g></g><g transform="translate(-446,-190) scale(1,1)"><g><path fill="none" stroke="none"/><text fill="#000000" stroke="none" font-family="Arial" font-size="13px" font-style="normal" font-weight="normal" text-decoration="none" x="1636.5" y="897.5">(from Utilities)</text></g></g><g transform="translate(-446,-190) scale(1,1)"><path fill="none" stroke="#000000" d="M 1649 1000 L 1649 903" stroke-miterlimit="10"/></g><g transform="translate(-446,-190) scale(1,1)"><path fill="#FFFFFF" stroke="none" d="M 1657.419035512032 923.3253497152483 L 1649 903 L 1640.580964487968 923.3253497152483"/></g><g transform="translate(-446,-190) scale(1,1)"><path fill="none" stroke="#000000" d="M 1657.419035512032 923.3253497152483 L 1649 903 L 1640.580964487968 923.3253497152483 L 1657.419035512032 923.3253497152483" stroke-miterlimit="10"/></g><g transform="translate(-446,-190) scale(1,1)"><path fill="none" stroke="#000000" d="M 1721 992 L 1721 903" stroke-miterlimit="10"/></g><g transform="translate(-446,-190) scale(1,1)"><path fill="#FFFFFF" stroke="none" d="M 1729.419035512032 923.3253497152483 L 1721 903 L 1712.580964487968 923.3253497152483"/></g><g transform="translate(-446,-190) scale(1,1)"><path fill="none" stroke="#000000" d="M 1729.419035512032 923.3253497152483 L 1721 903 L 1712.580964487968 923.3253497152483 L 1729.419035512032 923.3253497152483" stroke-miterlimit="10"/></g><g transform="translate(-446,-190) scale(1,1)"><rect fill="#C0C0C0" stroke="none" x="1287" y="263" width="265.0263671875" height="280" opacity="0.2"/></g><g transform="translate(-446,-190) scale(1,1)"><rect fill="#ffffff" stroke="none" x="1280" y="256" width="265.0263671875" height="280"/></g><g transform="translate(-446,-190) scale(1,1)"><path fill="none" stroke="#000000" d="M 1280 256 L 1545.0263671875 256 L 1545.0263671875 536 L 1280 536 L 1280 256 Z Z" stroke-miterlimit="10"/></g><g transform="translate(-446,-190) scale(1,1)"><path fill="none" stroke="#000000" d="M 1280 296 L 1545.0263671875 296" stroke-miterlimit="10"/></g><g transform="translate(-446,-190) scale(1,1)"><path fill="none" stroke="#000000" d="M 1280 424 L 1545.0263671875 424" stroke-miterlimit="10"/></g><g transform="translate(-446,-190) scale(1,1)"><g><path fill="none" stroke="none"/><text fill="#000000" stroke="none" font-family="Arial" font-size="13px" font-style="normal" font-weight="bold" text-decoration="none" x="1398.78955078125" y="275.5">User</text></g></g><g transform="translate(-446,-190) scale(1,1)"><g><path fill="none" stroke="none"/><text fill="#000000" stroke="none" font-family="Arial" font-size="13px" font-style="normal" font-weight="normal" text-decoration="none" x="1370.98046875" y="290.5">(from Domain)</text></g></g><g transform="translate(-446,-190) scale(1,1)"><g><path fill="none" stroke="none"/><text fill="#000000" stroke="none" font-family="Arial" font-size="13px" font-style="normal" font-weight="normal" text-decoration="none" x="1285" y="313.5">-_masterName: string</text></g></g><g transform="translate(-446,-190) scale(1,1)"><g><path fill="none" stroke="none"/><text fill="#000000" stroke="none" font-family="Arial" font-size="13px" font-style="normal" font-weight="normal" text-decoration="none" x="1285" y="328.5">-_masterPass: string</text></g></g><g transform="translate(-446,-190) scale(1,1)"><g><path fill="none" stroke="none"/><text fill="#000000" stroke="none" font-family="Arial" font-size="13px" font-style="normal" font-weight="normal" text-decoration="none" x="1285" y="343.5">-_decryptionKey: string</text></g></g><g transform="translate(-446,-190) scale(1,1)"><g><path fill="none" stroke="none"/><text fill="#000000" stroke="none" font-family="Arial" font-size="13px" font-style="normal" font-weight="normal" text-decoration="none" x="1285" y="358.5">-_categories: List</text></g></g><g transform="translate(-446,-190) scale(1,1)"><g><path fill="none" stroke="none"/><text fill="#000000" stroke="none" font-family="Arial" font-size="13px" font-style="normal" font-weight="normal" text-decoration="none" x="1285" y="373.5">+MasterName: string</text></g></g><g transform="translate(-446,-190) scale(1,1)"><g><path fill="none" stroke="none"/><text fill="#000000" stroke="none" font-family="Arial" font-size="13px" font-style="normal" font-weight="normal" text-decoration="none" x="1285" y="388.5">+MasterPass: string</text></g></g><g transform="translate(-446,-190) scale(1,1)"><g><path fill="none" stroke="none"/><text fill="#000000" stroke="none" font-family="Arial" font-size="13px" font-style="normal" font-weight="normal" text-decoration="none" x="1285" y="403.5">+DecryptionKey: string</text></g></g><g transform="translate(-446,-190) scale(1,1)"><g><path fill="none" stroke="none"/><text fill="#000000" stroke="none" font-family="Arial" font-size="13px" font-style="normal" font-weight="normal" text-decoration="none" x="1285" y="418.5">+Categories: List</text></g></g><g transform="translate(-446,-190) scale(1,1)"><g><path fill="none" stroke="none"/><text fill="#000000" stroke="none" font-family="Arial" font-size="13px" font-style="normal" font-weight="normal" text-decoration="none" x="1285" y="441.5">«constructor»+User()</text></g></g><g transform="translate(-446,-190) scale(1,1)"><g><path fill="none" stroke="none"/><text fill="#000000" stroke="none" font-family="Arial" font-size="13px" font-style="normal" font-weight="normal" text-decoration="none" x="1285" y="456.5">«constructor»+User()</text></g></g><g transform="translate(-446,-190) scale(1,1)"><g><path fill="none" stroke="none"/><text fill="#000000" stroke="none" font-family="Arial" font-size="13px" font-style="normal" font-weight="normal" text-decoration="none" x="1285" y="471.5">-ValidateName(nameToValidate: string): void</text></g></g><g transform="translate(-446,-190) scale(1,1)"><g><path fill="none" stroke="none"/><text fill="#000000" stroke="none" font-family="Arial" font-size="13px" font-style="normal" font-weight="normal" text-decoration="none" x="1285" y="486.5">+ValidatePassword(): void</text></g></g><g transform="translate(-446,-190) scale(1,1)"><g><path fill="none" stroke="none"/><text fill="#000000" stroke="none" font-family="Arial" font-size="13px" font-style="normal" font-weight="normal" text-decoration="none" x="1285" y="501.5">+Equals(obj: object): bool</text></g></g><g transform="translate(-446,-190) scale(1,1)"><g><path fill="none" stroke="none"/><text fill="#000000" stroke="none" font-family="Arial" font-size="13px" font-style="normal" font-weight="normal" text-decoration="none" x="1285" y="516.5">+ToString(): string</text></g></g><g transform="translate(-446,-190) scale(1,1)"><g><path fill="none" stroke="none"/><text fill="#000000" stroke="none" font-family="Arial" font-size="13px" font-style="normal" font-weight="normal" text-decoration="none" x="1285" y="531.5">+HashPassword(): void</text></g></g><g transform="translate(-446,-190) scale(1,1)"><path fill="none" stroke="#000000" d="M 956 679 L 956 895 L 992 895" stroke-miterlimit="10"/></g><g transform="translate(-446,-190) scale(1,1)"><path fill="none" stroke="#000000" d="M 981.8373251423759 899.209517756016 L 992 895 L 981.8373251423758 890.790482243984" stroke-miterlimit="10"/></g><g transform="translate(-446,-190) scale(1,1)"><g><path fill="none" stroke="none"/><text fill="#000000" stroke="none" font-family="Arial" font-size="13px" font-style="normal" font-weight="normal" text-decoration="none" x="927.5" y="716.5">0..n</text></g></g><g transform="translate(-446,-190) scale(1,1)"><g><path fill="none" stroke="none"/><text fill="#000000" stroke="none" font-family="Arial" font-size="13px" font-style="normal" font-weight="normal" text-decoration="none" x="966.5" y="913.5">1</text></g></g><g transform="translate(-446,-190) scale(1,1)"><path fill="none" stroke="#000000" d="M 1466 536 L 1466 1000" stroke-miterlimit="10" stroke-dasharray="3"/></g><g transform="translate(-446,-190) scale(1,1)"><path fill="none" stroke="#000000" d="M 1461.7904822439841 989.8373251423759 L 1466 1000 L 1470.2095177560159 989.8373251423759" stroke-miterlimit="10"/></g><g transform="translate(-446,-190) scale(1,1)"><path fill="none" stroke="#000000" d="M 793 679 L 793 1048" stroke-miterlimit="10" stroke-dasharray="3"/></g><g transform="translate(-446,-190) scale(1,1)"><path fill="none" stroke="#000000" d="M 788.790482243984 1037.837325142376 L 793 1048 L 797.209517756016 1037.837325142376" stroke-miterlimit="10"/></g></g></svg>