<svg version="1.1" xmlns="http://www.w3.org/2000/svg" xmlns:xlink="http://www.w3.org/1999/xlink" width="961.88623046875" height="450"><defs/><g><g transform="translate(2,2) scale(1,1)"><rect fill="#C0C0C0" stroke="none" x="23" y="103" width="55.033789062500006" height="15" opacity="0.2"/></g><g transform="translate(2,2) scale(1,1)"><rect fill="#C0C0C0" stroke="none" x="23" y="117" width="137.58447265625" height="40" opacity="0.2"/></g><g transform="translate(2,2) scale(1,1)"><rect fill="#ffffff" stroke="none" x="16" y="111" width="137.58447265625" height="39"/></g><g transform="translate(2,2) scale(1,1)"><path fill="none" stroke="#000000" d="M 16 111 L 153.58447265625 111 L 153.58447265625 150 L 16 150 L 16 111 Z Z" stroke-miterlimit="10"/></g><g transform="translate(2,2) scale(1,1)"><rect fill="#ffffff" stroke="none" x="16" y="96" width="55.033789062500006" height="15"/></g><g transform="translate(2,2) scale(1,1)"><path fill="none" stroke="#000000" d="M 16 96 L 71.0337890625 96 L 71.0337890625 111 L 16 111 L 16 96 Z Z" stroke-miterlimit="10"/></g><g transform="translate(2,2) scale(1,1)"><rect fill="#ffffff" stroke="none" x="16" y="110" width="137.58447265625" height="40"/></g><g transform="translate(2,2) scale(1,1)"><path fill="none" stroke="#000000" d="M 16 110 L 153.58447265625 110 L 153.58447265625 150 L 16 150 L 16 110 Z Z" stroke-miterlimit="10"/></g><g transform="translate(2,2) scale(1,1)"><g><path fill="none" stroke="none"/><text fill="#000000" stroke="none" font-family="Arial" font-size="13px" font-style="normal" font-weight="bold" text-decoration="none" x="36.746826171875" y="130.5">BusinessFactory</text></g></g><g transform="translate(2,2) scale(1,1)"><rect fill="#C0C0C0" stroke="none" x="303" y="103" width="55.03378906249998" height="15" opacity="0.2"/></g><g transform="translate(2,2) scale(1,1)"><rect fill="#C0C0C0" stroke="none" x="303" y="117" width="137.58447265625" height="40" opacity="0.2"/></g><g transform="translate(2,2) scale(1,1)"><rect fill="#ffffff" stroke="none" x="296" y="111" width="137.58447265625" height="39"/></g><g transform="translate(2,2) scale(1,1)"><path fill="none" stroke="#000000" d="M 296 111 L 433.58447265625 111 L 433.58447265625 150 L 296 150 L 296 111 Z Z" stroke-miterlimit="10"/></g><g transform="translate(2,2) scale(1,1)"><rect fill="#ffffff" stroke="none" x="296" y="96" width="55.03378906249998" height="15"/></g><g transform="translate(2,2) scale(1,1)"><path fill="none" stroke="#000000" d="M 296 96 L 351.0337890625 96 L 351.0337890625 111 L 296 111 L 296 96 Z Z" stroke-miterlimit="10"/></g><g transform="translate(2,2) scale(1,1)"><rect fill="#ffffff" stroke="none" x="296" y="110" width="137.58447265625" height="40"/></g><g transform="translate(2,2) scale(1,1)"><path fill="none" stroke="#000000" d="M 296 110 L 433.58447265625 110 L 433.58447265625 150 L 296 150 L 296 110 Z Z" stroke-miterlimit="10"/></g><g transform="translate(2,2) scale(1,1)"><g><path fill="none" stroke="none"/><text fill="#000000" stroke="none" font-family="Arial" font-size="13px" font-style="normal" font-weight="bold" text-decoration="none" x="309.87548828125" y="130.5">BusinessInterfaces</text></g></g><g transform="translate(2,2) scale(1,1)"><rect fill="#C0C0C0" stroke="none" x="167" y="199" width="55.033789062500006" height="15" opacity="0.2"/></g><g transform="translate(2,2) scale(1,1)"><rect fill="#C0C0C0" stroke="none" x="167" y="213" width="137.58447265625" height="40" opacity="0.2"/></g><g transform="translate(2,2) scale(1,1)"><rect fill="#ffffff" stroke="none" x="160" y="207" width="137.58447265625" height="39"/></g><g transform="translate(2,2) scale(1,1)"><path fill="none" stroke="#000000" d="M 160 207 L 297.58447265625 207 L 297.58447265625 246 L 160 246 L 160 207 Z Z" stroke-miterlimit="10"/></g><g transform="translate(2,2) scale(1,1)"><rect fill="#ffffff" stroke="none" x="160" y="192" width="55.033789062500006" height="15"/></g><g transform="translate(2,2) scale(1,1)"><path fill="none" stroke="#000000" d="M 160 192 L 215.0337890625 192 L 215.0337890625 207 L 160 207 L 160 192 Z Z" stroke-miterlimit="10"/></g><g transform="translate(2,2) scale(1,1)"><rect fill="#ffffff" stroke="none" x="160" y="206" width="137.58447265625" height="40"/></g><g transform="translate(2,2) scale(1,1)"><path fill="none" stroke="#000000" d="M 160 206 L 297.58447265625 206 L 297.58447265625 246 L 160 246 L 160 206 Z Z" stroke-miterlimit="10"/></g><g transform="translate(2,2) scale(1,1)"><g><path fill="none" stroke="none"/><text fill="#000000" stroke="none" font-family="Arial" font-size="13px" font-style="normal" font-weight="bold" text-decoration="none" x="186.878662109375" y="226.5">BusinessLogic</text></g></g><g transform="translate(2,2) scale(1,1)"><rect fill="#C0C0C0" stroke="none" x="15" y="295" width="55.033789062500006" height="15" opacity="0.2"/></g><g transform="translate(2,2) scale(1,1)"><rect fill="#C0C0C0" stroke="none" x="15" y="309" width="137.58447265625" height="40" opacity="0.2"/></g><g transform="translate(2,2) scale(1,1)"><rect fill="#ffffff" stroke="none" x="8" y="303" width="137.58447265625" height="39"/></g><g transform="translate(2,2) scale(1,1)"><path fill="none" stroke="#000000" d="M 8 303 L 145.58447265625 303 L 145.58447265625 342 L 8 342 L 8 303 Z Z" stroke-miterlimit="10"/></g><g transform="translate(2,2) scale(1,1)"><rect fill="#ffffff" stroke="none" x="8" y="288" width="55.0337890625" height="15"/></g><g transform="translate(2,2) scale(1,1)"><path fill="none" stroke="#000000" d="M 8 288 L 63.0337890625 288 L 63.0337890625 303 L 8 303 L 8 288 Z Z" stroke-miterlimit="10"/></g><g transform="translate(2,2) scale(1,1)"><rect fill="#ffffff" stroke="none" x="8" y="302" width="137.58447265625" height="40"/></g><g transform="translate(2,2) scale(1,1)"><path fill="none" stroke="#000000" d="M 8 302 L 145.58447265625 302 L 145.58447265625 342 L 8 342 L 8 302 Z Z" stroke-miterlimit="10"/></g><g transform="translate(2,2) scale(1,1)"><g><path fill="none" stroke="none"/><text fill="#000000" stroke="none" font-family="Arial" font-size="13px" font-style="normal" font-weight="bold" text-decoration="none" x="20.44091796875" y="322.5">DataAccessFactory</text></g></g><g transform="translate(2,2) scale(1,1)"><rect fill="#C0C0C0" stroke="none" x="295" y="295" width="57.65410156249999" height="15" opacity="0.2"/></g><g transform="translate(2,2) scale(1,1)"><rect fill="#C0C0C0" stroke="none" x="295" y="309" width="144.13525390625" height="40" opacity="0.2"/></g><g transform="translate(2,2) scale(1,1)"><rect fill="#ffffff" stroke="none" x="288" y="303" width="144.13525390625" height="39"/></g><g transform="translate(2,2) scale(1,1)"><path fill="none" stroke="#000000" d="M 288 303 L 432.13525390625 303 L 432.13525390625 342 L 288 342 L 288 303 Z Z" stroke-miterlimit="10"/></g><g transform="translate(2,2) scale(1,1)"><rect fill="#ffffff" stroke="none" x="288" y="288" width="57.65410156249999" height="15"/></g><g transform="translate(2,2) scale(1,1)"><path fill="none" stroke="#000000" d="M 288 288 L 345.6541015625 288 L 345.6541015625 303 L 288 303 L 288 288 Z Z" stroke-miterlimit="10"/></g><g transform="translate(2,2) scale(1,1)"><rect fill="#ffffff" stroke="none" x="288" y="302" width="144.13525390625" height="40"/></g><g transform="translate(2,2) scale(1,1)"><path fill="none" stroke="#000000" d="M 288 302 L 432.13525390625 302 L 432.13525390625 342 L 288 342 L 288 302 Z Z" stroke-miterlimit="10"/></g><g transform="translate(2,2) scale(1,1)"><g><path fill="none" stroke="none"/><text fill="#000000" stroke="none" font-family="Arial" font-size="13px" font-style="normal" font-weight="bold" text-decoration="none" x="296.844970703125" y="322.5">DataAccessInterfaces</text></g></g><g transform="translate(2,2) scale(1,1)"><rect fill="#C0C0C0" stroke="none" x="583" y="207" width="64.6337890625" height="15" opacity="0.2"/></g><g transform="translate(2,2) scale(1,1)"><rect fill="#C0C0C0" stroke="none" x="583" y="221" width="161.58447265625" height="82" opacity="0.2"/></g><g transform="translate(2,2) scale(1,1)"><rect fill="#ffffff" stroke="none" x="576" y="215" width="161.58447265625" height="81"/></g><g transform="translate(2,2) scale(1,1)"><path fill="none" stroke="#000000" d="M 576 215 L 737.58447265625 215 L 737.58447265625 296 L 576 296 L 576 215 Z Z" stroke-miterlimit="10"/></g><g transform="translate(2,2) scale(1,1)"><rect fill="#ffffff" stroke="none" x="576" y="200" width="64.6337890625" height="15"/></g><g transform="translate(2,2) scale(1,1)"><path fill="none" stroke="#000000" d="M 576 200 L 640.6337890625 200 L 640.6337890625 215 L 576 215 L 576 200 Z Z" stroke-miterlimit="10"/></g><g transform="translate(2,2) scale(1,1)"><rect fill="#ffffff" stroke="none" x="576" y="214" width="161.58447265625" height="82"/></g><g transform="translate(2,2) scale(1,1)"><path fill="none" stroke="#000000" d="M 576 214 L 737.58447265625 214 L 737.58447265625 296 L 576 296 L 576 214 Z Z" stroke-miterlimit="10"/></g><g transform="translate(2,2) scale(1,1)"><g><path fill="none" stroke="none"/><text fill="#000000" stroke="none" font-family="Arial" font-size="13px" font-style="normal" font-weight="bold" text-decoration="none" x="605.484130859375" y="234.5">Obligatorio1_DA1</text></g></g><g transform="translate(2,2) scale(1,1)"><rect fill="#C0C0C0" stroke="none" x="807" y="239" width="59.95449218750002" height="15" opacity="0.2"/></g><g transform="translate(2,2) scale(1,1)"><rect fill="#C0C0C0" stroke="none" x="807" y="253" width="149.88623046875" height="40" opacity="0.2"/></g><g transform="translate(2,2) scale(1,1)"><rect fill="#ffffff" stroke="none" x="800" y="247" width="149.88623046875" height="39"/></g><g transform="translate(2,2) scale(1,1)"><path fill="none" stroke="#000000" d="M 800 247 L 949.88623046875 247 L 949.88623046875 286 L 800 286 L 800 247 Z Z" stroke-miterlimit="10"/></g><g transform="translate(2,2) scale(1,1)"><rect fill="#ffffff" stroke="none" x="800" y="232" width="59.95449218750002" height="15"/></g><g transform="translate(2,2) scale(1,1)"><path fill="none" stroke="#000000" d="M 800 232 L 859.9544921875 232 L 859.9544921875 247 L 800 247 L 800 232 Z Z" stroke-miterlimit="10"/></g><g transform="translate(2,2) scale(1,1)"><rect fill="#ffffff" stroke="none" x="800" y="246" width="149.88623046875" height="40"/></g><g transform="translate(2,2) scale(1,1)"><path fill="none" stroke="#000000" d="M 800 246 L 949.88623046875 246 L 949.88623046875 286 L 800 286 L 800 246 Z Z" stroke-miterlimit="10"/></g><g transform="translate(2,2) scale(1,1)"><g><path fill="none" stroke="none"/><text fill="#000000" stroke="none" font-family="Arial" font-size="13px" font-style="normal" font-weight="bold" text-decoration="none" x="852.54541015625" y="266.5">Domain</text></g></g><g transform="translate(2,2) scale(1,1)"><rect fill="#C0C0C0" stroke="none" x="807" y="151" width="59.95449218750002" height="15" opacity="0.2"/></g><g transform="translate(2,2) scale(1,1)"><rect fill="#C0C0C0" stroke="none" x="807" y="165" width="149.88623046875" height="40" opacity="0.2"/></g><g transform="translate(2,2) scale(1,1)"><rect fill="#ffffff" stroke="none" x="800" y="159" width="149.88623046875" height="39"/></g><g transform="translate(2,2) scale(1,1)"><path fill="none" stroke="#000000" d="M 800 159 L 949.88623046875 159 L 949.88623046875 198 L 800 198 L 800 159 Z Z" stroke-miterlimit="10"/></g><g transform="translate(2,2) scale(1,1)"><rect fill="#ffffff" stroke="none" x="800" y="144" width="59.95449218750002" height="15"/></g><g transform="translate(2,2) scale(1,1)"><path fill="none" stroke="#000000" d="M 800 144 L 859.9544921875 144 L 859.9544921875 159 L 800 159 L 800 144 Z Z" stroke-miterlimit="10"/></g><g transform="translate(2,2) scale(1,1)"><rect fill="#ffffff" stroke="none" x="800" y="158" width="149.88623046875" height="40"/></g><g transform="translate(2,2) scale(1,1)"><path fill="none" stroke="#000000" d="M 800 158 L 949.88623046875 158 L 949.88623046875 198 L 800 198 L 800 158 Z Z" stroke-miterlimit="10"/></g><g transform="translate(2,2) scale(1,1)"><g><path fill="none" stroke="none"/><text fill="#000000" stroke="none" font-family="Arial" font-size="13px" font-style="normal" font-weight="bold" text-decoration="none" x="843.147705078125" y="178.5">Exceptions</text></g></g><g transform="translate(2,2) scale(1,1)"><rect fill="#C0C0C0" stroke="none" x="807" y="311" width="59.95449218750002" height="15" opacity="0.2"/></g><g transform="translate(2,2) scale(1,1)"><rect fill="#C0C0C0" stroke="none" x="807" y="325" width="149.88623046875" height="40" opacity="0.2"/></g><g transform="translate(2,2) scale(1,1)"><rect fill="#ffffff" stroke="none" x="800" y="319" width="149.88623046875" height="39"/></g><g transform="translate(2,2) scale(1,1)"><path fill="none" stroke="#000000" d="M 800 319 L 949.88623046875 319 L 949.88623046875 358 L 800 358 L 800 319 Z Z" stroke-miterlimit="10"/></g><g transform="translate(2,2) scale(1,1)"><rect fill="#ffffff" stroke="none" x="800" y="304" width="59.95449218750002" height="15"/></g><g transform="translate(2,2) scale(1,1)"><path fill="none" stroke="#000000" d="M 800 304 L 859.9544921875 304 L 859.9544921875 319 L 800 319 L 800 304 Z Z" stroke-miterlimit="10"/></g><g transform="translate(2,2) scale(1,1)"><rect fill="#ffffff" stroke="none" x="800" y="318" width="149.88623046875" height="40"/></g><g transform="translate(2,2) scale(1,1)"><path fill="none" stroke="#000000" d="M 800 318 L 949.88623046875 318 L 949.88623046875 358 L 800 358 L 800 318 Z Z" stroke-miterlimit="10"/></g><g transform="translate(2,2) scale(1,1)"><g><path fill="none" stroke="none"/><text fill="#000000" stroke="none" font-family="Arial" font-size="13px" font-style="normal" font-weight="bold" text-decoration="none" x="853.995849609375" y="338.5">Utilities</text></g></g><g transform="translate(2,2) scale(1,1)"><rect fill="#C0C0C0" stroke="none" x="167" y="15" width="55.033789062500006" height="15" opacity="0.2"/></g><g transform="translate(2,2) scale(1,1)"><rect fill="#C0C0C0" stroke="none" x="167" y="29" width="137.58447265625" height="40" opacity="0.2"/></g><g transform="translate(2,2) scale(1,1)"><rect fill="#ffffff" stroke="none" x="160" y="23" width="137.58447265625" height="39"/></g><g transform="translate(2,2) scale(1,1)"><path fill="none" stroke="#000000" d="M 160 23 L 297.58447265625 23 L 297.58447265625 62 L 160 62 L 160 23 Z Z" stroke-miterlimit="10"/></g><g transform="translate(2,2) scale(1,1)"><rect fill="#ffffff" stroke="none" x="160" y="8" width="55.033789062500006" height="15"/></g><g transform="translate(2,2) scale(1,1)"><path fill="none" stroke="#000000" d="M 160 8 L 215.0337890625 8 L 215.0337890625 23 L 160 23 L 160 8 Z Z" stroke-miterlimit="10"/></g><g transform="translate(2,2) scale(1,1)"><rect fill="#ffffff" stroke="none" x="160" y="22" width="137.58447265625" height="40"/></g><g transform="translate(2,2) scale(1,1)"><path fill="none" stroke="#000000" d="M 160 22 L 297.58447265625 22 L 297.58447265625 62 L 160 62 L 160 22 Z Z" stroke-miterlimit="10"/></g><g transform="translate(2,2) scale(1,1)"><g><path fill="none" stroke="none"/><text fill="#000000" stroke="none" font-family="Arial" font-size="13px" font-style="normal" font-weight="bold" text-decoration="none" x="192.29638671875" y="42.5">Presentation</text></g></g><g transform="translate(2,2) scale(1,1)"><rect fill="#C0C0C0" stroke="none" x="151" y="391" width="55.033789062500006" height="15" opacity="0.2"/></g><g transform="translate(2,2) scale(1,1)"><rect fill="#C0C0C0" stroke="none" x="151" y="405" width="137.58447265625" height="40" opacity="0.2"/></g><g transform="translate(2,2) scale(1,1)"><rect fill="#ffffff" stroke="none" x="144" y="399" width="137.58447265625" height="39"/></g><g transform="translate(2,2) scale(1,1)"><path fill="none" stroke="#000000" d="M 144 399 L 281.58447265625 399 L 281.58447265625 438 L 144 438 L 144 399 Z Z" stroke-miterlimit="10"/></g><g transform="translate(2,2) scale(1,1)"><rect fill="#ffffff" stroke="none" x="144" y="384" width="55.033789062500006" height="15"/></g><g transform="translate(2,2) scale(1,1)"><path fill="none" stroke="#000000" d="M 144 384 L 199.0337890625 384 L 199.0337890625 399 L 144 399 L 144 384 Z Z" stroke-miterlimit="10"/></g><g transform="translate(2,2) scale(1,1)"><rect fill="#ffffff" stroke="none" x="144" y="398" width="137.58447265625" height="40"/></g><g transform="translate(2,2) scale(1,1)"><path fill="none" stroke="#000000" d="M 144 398 L 281.58447265625 398 L 281.58447265625 438 L 144 438 L 144 398 Z Z" stroke-miterlimit="10"/></g><g transform="translate(2,2) scale(1,1)"><g><path fill="none" stroke="none"/><text fill="#000000" stroke="none" font-family="Arial" font-size="13px" font-style="normal" font-weight="bold" text-decoration="none" x="181.7236328125" y="418.5">Repository</text></g></g><g transform="translate(2,2) scale(1,1)"><path fill="none" stroke="#000000" d="M 800 256 L 738 256" stroke-miterlimit="10"/></g><g transform="translate(2,2) scale(1,1)"><path fill="#FFFFFF" stroke="none" d="M 738 256 C 738 252.1340064 741.1340064 249 745 249 C 748.8659936 249 752 252.1340064 752 256 C 752 259.8659936 748.8659936 263 745 263 C 741.1340064 263 738 259.8659936 738 256 Z"/></g><g transform="translate(2,2) scale(1,1)"><path fill="none" stroke="#000000" d="M 738 256 C 738 252.1340064 741.1340064 249 745 249 C 748.8659936 249 752 252.1340064 752 256 C 752 259.8659936 748.8659936 263 745 263 C 741.1340064 263 738 259.8659936 738 256 Z" stroke-miterlimit="10"/></g><g transform="translate(2,2) scale(1,1)"><path fill="none" stroke="#000000" d="M 752 256 L 738 256" stroke-miterlimit="10"/></g><g transform="translate(2,2) scale(1,1)"><path fill="none" stroke="#000000" d="M 745 249 L 745 263" stroke-miterlimit="10"/></g><g transform="translate(2,2) scale(1,1)"><path fill="none" stroke="#000000" d="M 800 184 L 784 184 L 784 227 L 738 227" stroke-miterlimit="10"/></g><g transform="translate(2,2) scale(1,1)"><path fill="#FFFFFF" stroke="none" d="M 738 227 C 738 223.1340064 741.1340064 220 745 220 C 748.8659936 220 752 223.1340064 752 227 C 752 230.8659936 748.8659936 234 745 234 C 741.1340064 234 738 230.8659936 738 227 Z"/></g><g transform="translate(2,2) scale(1,1)"><path fill="none" stroke="#000000" d="M 738 227 C 738 223.1340064 741.1340064 220 745 220 C 748.8659936 220 752 223.1340064 752 227 C 752 230.8659936 748.8659936 234 745 234 C 741.1340064 234 738 230.8659936 738 227 Z" stroke-miterlimit="10"/></g><g transform="translate(2,2) scale(1,1)"><path fill="none" stroke="#000000" d="M 752 227 L 738 227" stroke-miterlimit="10"/></g><g transform="translate(2,2) scale(1,1)"><path fill="none" stroke="#000000" d="M 745 220 L 745 234" stroke-miterlimit="10"/></g><g transform="translate(2,2) scale(1,1)"><path fill="none" stroke="#000000" d="M 800 328 L 784 328 L 784 288 L 738 288" stroke-miterlimit="10"/></g><g transform="translate(2,2) scale(1,1)"><path fill="#FFFFFF" stroke="none" d="M 738 288 C 738 284.1340064 741.1340064 281 745 281 C 748.8659936 281 752 284.1340064 752 288 C 752 291.8659936 748.8659936 295 745 295 C 741.1340064 295 738 291.8659936 738 288 Z"/></g><g transform="translate(2,2) scale(1,1)"><path fill="none" stroke="#000000" d="M 738 288 C 738 284.1340064 741.1340064 281 745 281 C 748.8659936 281 752 284.1340064 752 288 C 752 291.8659936 748.8659936 295 745 295 C 741.1340064 295 738 291.8659936 738 288 Z" stroke-miterlimit="10"/></g><g transform="translate(2,2) scale(1,1)"><path fill="none" stroke="#000000" d="M 752 288 L 738 288" stroke-miterlimit="10"/></g><g transform="translate(2,2) scale(1,1)"><path fill="none" stroke="#000000" d="M 745 281 L 745 295" stroke-miterlimit="10"/></g><g transform="translate(2,2) scale(1,1)"><path fill="none" stroke="#000000" d="M 271 62 L 271 115 L 296 115" stroke-miterlimit="10" stroke-dasharray="3"/></g><g transform="translate(2,2) scale(1,1)"><path fill="none" stroke="#000000" d="M 285.83732514237585 119.20951775601598 L 296 115 L 285.83732514237585 110.79048224398402" stroke-miterlimit="10"/></g><g transform="translate(2,2) scale(1,1)"><path fill="none" stroke="#000000" d="M 182 62 L 182 115 L 154 115" stroke-miterlimit="10" stroke-dasharray="3"/></g><g transform="translate(2,2) scale(1,1)"><path fill="none" stroke="#000000" d="M 164.16267485762415 110.79048224398402 L 154 115 L 164.16267485762415 119.20951775601598" stroke-miterlimit="10"/></g><g transform="translate(2,2) scale(1,1)"><path fill="none" stroke="#000000" d="M 154 128 L 296 128" stroke-miterlimit="10" stroke-dasharray="3"/></g><g transform="translate(2,2) scale(1,1)"><path fill="none" stroke="#000000" d="M 285.83732514237585 132.209517756016 L 296 128 L 285.83732514237585 123.79048224398402" stroke-miterlimit="10"/></g><g transform="translate(2,2) scale(1,1)"><path fill="none" stroke="#000000" d="M 126 150 L 126 211 L 160 211" stroke-miterlimit="10" stroke-dasharray="3"/></g><g transform="translate(2,2) scale(1,1)"><path fill="none" stroke="#000000" d="M 149.83732514237585 215.209517756016 L 160 211 L 149.83732514237585 206.790482243984" stroke-miterlimit="10"/></g><g transform="translate(2,2) scale(1,1)"><path fill="none" stroke="#000000" d="M 298 211 L 324 211 L 324 150" stroke-miterlimit="10" stroke-dasharray="3"/></g><g transform="translate(2,2) scale(1,1)"><path fill="none" stroke="#000000" d="M 328.209517756016 160.16267485762415 L 324 150 L 319.790482243984 160.16267485762415" stroke-miterlimit="10"/></g><g transform="translate(2,2) scale(1,1)"><path fill="none" stroke="#000000" d="M 184 246 L 184 315 L 146 315" stroke-miterlimit="10" stroke-dasharray="3"/></g><g transform="translate(2,2) scale(1,1)"><path fill="none" stroke="#000000" d="M 156.16267485762415 310.790482243984 L 146 315 L 156.16267485762415 319.209517756016" stroke-miterlimit="10"/></g><g transform="translate(2,2) scale(1,1)"><path fill="none" stroke="#000000" d="M 146 328 L 288 328" stroke-miterlimit="10" stroke-dasharray="3"/></g><g transform="translate(2,2) scale(1,1)"><path fill="none" stroke="#000000" d="M 277.83732514237585 332.209517756016 L 288 328 L 277.83732514237585 323.790482243984" stroke-miterlimit="10"/></g><g transform="translate(2,2) scale(1,1)"><path fill="none" stroke="#000000" d="M 116 342 L 116 411 L 144 411" stroke-miterlimit="10" stroke-dasharray="3"/></g><g transform="translate(2,2) scale(1,1)"><path fill="none" stroke="#000000" d="M 133.83732514237585 415.209517756016 L 144 411 L 133.83732514237585 406.790482243984" stroke-miterlimit="10"/></g><g transform="translate(2,2) scale(1,1)"><path fill="none" stroke="#000000" d="M 267 246 L 267 315 L 288 315" stroke-miterlimit="10" stroke-dasharray="3"/></g><g transform="translate(2,2) scale(1,1)"><path fill="none" stroke="#000000" d="M 277.83732514237585 319.209517756016 L 288 315 L 277.83732514237585 310.790482243984" stroke-miterlimit="10"/></g><g transform="translate(2,2) scale(1,1)"><path fill="none" stroke="#000000" d="M 282 411 L 317 411 L 317 342" stroke-miterlimit="10" stroke-dasharray="3"/></g><g transform="translate(2,2) scale(1,1)"><path fill="none" stroke="#000000" d="M 321.209517756016 352.16267485762415 L 317 342 L 312.790482243984 352.16267485762415" stroke-miterlimit="10"/></g><g transform="translate(2,2) scale(1,1)"><path fill="none" stroke="#000000" d="M 298 48 L 528 48 L 528 216 L 576 216" stroke-miterlimit="10" stroke-dasharray="3"/></g><g transform="translate(2,2) scale(1,1)"><path fill="none" stroke="#000000" d="M 565.8373251423759 220.209517756016 L 576 216 L 565.8373251423758 211.790482243984" stroke-miterlimit="10"/></g><g transform="translate(2,2) scale(1,1)"><path fill="none" stroke="#000000" d="M 408 150 L 408 232 L 576 232" stroke-miterlimit="10" stroke-dasharray="3"/></g><g transform="translate(2,2) scale(1,1)"><path fill="none" stroke="#000000" d="M 565.8373251423759 236.209517756016 L 576 232 L 565.8373251423758 227.790482243984" stroke-miterlimit="10"/></g><g transform="translate(2,2) scale(1,1)"><path fill="none" stroke="#000000" d="M 228 246 L 228 248 L 576 248" stroke-miterlimit="10" stroke-dasharray="3"/></g><g transform="translate(2,2) scale(1,1)"><path fill="none" stroke="#000000" d="M 565.8373251423759 252.209517756016 L 576 248 L 565.8373251423758 243.790482243984" stroke-miterlimit="10"/></g><g transform="translate(2,2) scale(1,1)"><path fill="none" stroke="#000000" d="M 336 288 L 336 264 L 576 264" stroke-miterlimit="10" stroke-dasharray="3"/></g><g transform="translate(2,2) scale(1,1)"><path fill="none" stroke="#000000" d="M 565.8373251423759 268.209517756016 L 576 264 L 565.8373251423758 259.790482243984" stroke-miterlimit="10"/></g><g transform="translate(2,2) scale(1,1)"><path fill="none" stroke="#000000" d="M 282 416 L 520 416 L 520 280 L 576 280" stroke-miterlimit="10" stroke-dasharray="3"/></g><g transform="translate(2,2) scale(1,1)"><path fill="none" stroke="#000000" d="M 565.8373251423759 284.209517756016 L 576 280 L 565.8373251423758 275.790482243984" stroke-miterlimit="10"/></g></g></svg>