<svg version="1.1" xmlns="http://www.w3.org/2000/svg" xmlns:xlink="http://www.w3.org/1999/xlink" width="988.76171875" height="196"><defs/><g><g transform="translate(-126,-214) scale(1,1)"><rect fill="#C0C0C0" stroke="none" x="226.1181640625" y="259" width="47.51816406249998" height="15" opacity="0.2"/></g><g transform="translate(-126,-214) scale(1,1)"><rect fill="#C0C0C0" stroke="none" x="226.1181640625" y="273" width="118.79541015625" height="25" opacity="0.2"/></g><g transform="translate(-126,-214) scale(1,1)"><rect fill="#ffffff" stroke="none" x="219.1181640625" y="267" width="118.79541015625" height="24"/></g><g transform="translate(-126,-214) scale(1,1)"><path fill="none" stroke="#000000" d="M 219.1181640625 267 L 337.91357421875 267 L 337.91357421875 291 L 219.1181640625 291 L 219.1181640625 267 Z Z" stroke-miterlimit="10"/></g><g transform="translate(-126,-214) scale(1,1)"><rect fill="#ffffff" stroke="none" x="219.1181640625" y="252" width="47.51816406249998" height="15"/></g><g transform="translate(-126,-214) scale(1,1)"><path fill="none" stroke="#000000" d="M 219.1181640625 252 L 266.636328125 252 L 266.636328125 267 L 219.1181640625 267 L 219.1181640625 252 Z Z" stroke-miterlimit="10"/></g><g transform="translate(-126,-214) scale(1,1)"><rect fill="#ffffff" stroke="none" x="219.1181640625" y="266" width="118.79541015625" height="25"/></g><g transform="translate(-126,-214) scale(1,1)"><path fill="none" stroke="#000000" d="M 219.1181640625 266 L 337.91357421875 266 L 337.91357421875 291 L 219.1181640625 291 L 219.1181640625 266 Z Z" stroke-miterlimit="10"/></g><g transform="translate(-126,-214) scale(1,1)"><g><path fill="none" stroke="none"/><text fill="#000000" stroke="none" font-family="Arial" font-size="13px" font-style="normal" font-weight="bold" text-decoration="none" x="227.207763671875" y="286.5">Obligatorio1_DA1</text></g></g><g transform="translate(-126,-214) scale(1,1)"><rect fill="#C0C0C0" stroke="none" x="255" y="351" width="28.80000000000001" height="15" opacity="0.2"/></g><g transform="translate(-126,-214) scale(1,1)"><rect fill="#C0C0C0" stroke="none" x="255" y="365" width="72" height="42" opacity="0.2"/></g><g transform="translate(-126,-214) scale(1,1)"><rect fill="#ffffff" stroke="none" x="248" y="359" width="72" height="41"/></g><g transform="translate(-126,-214) scale(1,1)"><path fill="none" stroke="#000000" d="M 248 359 L 320 359 L 320 400 L 248 400 L 248 359 Z Z" stroke-miterlimit="10"/></g><g transform="translate(-126,-214) scale(1,1)"><rect fill="#ffffff" stroke="none" x="248" y="344" width="28.80000000000001" height="15"/></g><g transform="translate(-126,-214) scale(1,1)"><path fill="none" stroke="#000000" d="M 248 344 L 276.8 344 L 276.8 359 L 248 359 L 248 344 Z Z" stroke-miterlimit="10"/></g><g transform="translate(-126,-214) scale(1,1)"><rect fill="#ffffff" stroke="none" x="248" y="358" width="72" height="42"/></g><g transform="translate(-126,-214) scale(1,1)"><path fill="none" stroke="#000000" d="M 248 358 L 320 358 L 320 400 L 248 400 L 248 358 Z Z" stroke-miterlimit="10"/></g><g transform="translate(-126,-214) scale(1,1)"><g><path fill="none" stroke="none"/><text fill="#000000" stroke="none" font-family="Arial" font-size="13px" font-style="normal" font-weight="bold" text-decoration="none" x="261.602294921875" y="378.5">Domain</text></g></g><g transform="translate(-126,-214) scale(1,1)"><rect fill="#C0C0C0" stroke="none" x="143" y="351" width="31.341796875" height="15" opacity="0.2"/></g><g transform="translate(-126,-214) scale(1,1)"><rect fill="#C0C0C0" stroke="none" x="143" y="365" width="78.3544921875" height="42" opacity="0.2"/></g><g transform="translate(-126,-214) scale(1,1)"><rect fill="#ffffff" stroke="none" x="136" y="359" width="78.3544921875" height="41"/></g><g transform="translate(-126,-214) scale(1,1)"><path fill="none" stroke="#000000" d="M 136 359 L 214.3544921875 359 L 214.3544921875 400 L 136 400 L 136 359 Z Z" stroke-miterlimit="10"/></g><g transform="translate(-126,-214) scale(1,1)"><rect fill="#ffffff" stroke="none" x="136" y="344" width="31.341796875" height="15"/></g><g transform="translate(-126,-214) scale(1,1)"><path fill="none" stroke="#000000" d="M 136 344 L 167.341796875 344 L 167.341796875 359 L 136 359 L 136 344 Z Z" stroke-miterlimit="10"/></g><g transform="translate(-126,-214) scale(1,1)"><rect fill="#ffffff" stroke="none" x="136" y="358" width="78.3544921875" height="42"/></g><g transform="translate(-126,-214) scale(1,1)"><path fill="none" stroke="#000000" d="M 136 358 L 214.3544921875 358 L 214.3544921875 400 L 136 400 L 136 358 Z Z" stroke-miterlimit="10"/></g><g transform="translate(-126,-214) scale(1,1)"><g><path fill="none" stroke="none"/><text fill="#000000" stroke="none" font-family="Arial" font-size="13px" font-style="normal" font-weight="bold" text-decoration="none" x="143.3818359375" y="378.5">Exceptions</text></g></g><g transform="translate(-126,-214) scale(1,1)"><rect fill="#C0C0C0" stroke="none" x="375" y="351" width="32" height="15" opacity="0.2"/></g><g transform="translate(-126,-214) scale(1,1)"><rect fill="#C0C0C0" stroke="none" x="375" y="365" width="80" height="40" opacity="0.2"/></g><g transform="translate(-126,-214) scale(1,1)"><rect fill="#ffffff" stroke="none" x="368" y="359" width="80" height="39"/></g><g transform="translate(-126,-214) scale(1,1)"><path fill="none" stroke="#000000" d="M 368 359 L 448 359 L 448 398 L 368 398 L 368 359 Z Z" stroke-miterlimit="10"/></g><g transform="translate(-126,-214) scale(1,1)"><rect fill="#ffffff" stroke="none" x="368" y="344" width="32" height="15"/></g><g transform="translate(-126,-214) scale(1,1)"><path fill="none" stroke="#000000" d="M 368 344 L 400 344 L 400 359 L 368 359 L 368 344 Z Z" stroke-miterlimit="10"/></g><g transform="translate(-126,-214) scale(1,1)"><rect fill="#ffffff" stroke="none" x="368" y="358" width="80" height="40"/></g><g transform="translate(-126,-214) scale(1,1)"><path fill="none" stroke="#000000" d="M 368 358 L 448 358 L 448 398 L 368 398 L 368 358 Z Z" stroke-miterlimit="10"/></g><g transform="translate(-126,-214) scale(1,1)"><g><path fill="none" stroke="none"/><text fill="#000000" stroke="none" font-family="Arial" font-size="13px" font-style="normal" font-weight="bold" text-decoration="none" x="387.052734375" y="378.5">Utilities</text></g></g><g transform="translate(-126,-214) scale(1,1)"><rect fill="#C0C0C0" stroke="none" x="813.92236328125" y="267" width="35.09707031250002" height="15" opacity="0.2"/></g><g transform="translate(-126,-214) scale(1,1)"><rect fill="#C0C0C0" stroke="none" x="813.92236328125" y="281" width="87.74267578125" height="25" opacity="0.2"/></g><g transform="translate(-126,-214) scale(1,1)"><rect fill="#ffffff" stroke="none" x="806.92236328125" y="275" width="87.74267578125" height="24"/></g><g transform="translate(-126,-214) scale(1,1)"><path fill="none" stroke="#000000" d="M 806.92236328125 275 L 894.6650390625 275 L 894.6650390625 299 L 806.92236328125 299 L 806.92236328125 275 Z Z" stroke-miterlimit="10"/></g><g transform="translate(-126,-214) scale(1,1)"><rect fill="#ffffff" stroke="none" x="806.92236328125" y="260" width="35.09707031250002" height="15"/></g><g transform="translate(-126,-214) scale(1,1)"><path fill="none" stroke="#000000" d="M 806.92236328125 260 L 842.01943359375 260 L 842.01943359375 275 L 806.92236328125 275 L 806.92236328125 260 Z Z" stroke-miterlimit="10"/></g><g transform="translate(-126,-214) scale(1,1)"><rect fill="#ffffff" stroke="none" x="806.92236328125" y="274" width="87.74267578125" height="25"/></g><g transform="translate(-126,-214) scale(1,1)"><path fill="none" stroke="#000000" d="M 806.92236328125 274 L 894.6650390625 274 L 894.6650390625 299 L 806.92236328125 299 L 806.92236328125 274 Z Z" stroke-miterlimit="10"/></g><g transform="translate(-126,-214) scale(1,1)"><g><path fill="none" stroke="none"/><text fill="#000000" stroke="none" font-family="Arial" font-size="13px" font-style="normal" font-weight="bold" text-decoration="none" x="814.2978515625" y="294.5">Presentation</text></g></g><g transform="translate(-126,-214) scale(1,1)"><rect fill="#C0C0C0" stroke="none" x="591.052734375" y="337" width="69.42265625000005" height="15" opacity="0.2"/></g><g transform="translate(-126,-214) scale(1,1)"><rect fill="#C0C0C0" stroke="none" x="591.052734375" y="351" width="173.556640625" height="40" opacity="0.2"/></g><g transform="translate(-126,-214) scale(1,1)"><rect fill="#ffffff" stroke="none" x="584.052734375" y="345" width="173.556640625" height="39"/></g><g transform="translate(-126,-214) scale(1,1)"><path fill="none" stroke="#000000" d="M 584.052734375 345 L 757.609375 345 L 757.609375 384 L 584.052734375 384 L 584.052734375 345 Z Z" stroke-miterlimit="10"/></g><g transform="translate(-126,-214) scale(1,1)"><rect fill="#ffffff" stroke="none" x="584.052734375" y="330" width="69.42265625000005" height="15"/></g><g transform="translate(-126,-214) scale(1,1)"><path fill="none" stroke="#000000" d="M 584.052734375 330 L 653.475390625 330 L 653.475390625 345 L 584.052734375 345 L 584.052734375 330 Z Z" stroke-miterlimit="10"/></g><g transform="translate(-126,-214) scale(1,1)"><rect fill="#ffffff" stroke="none" x="584.052734375" y="344" width="173.556640625" height="40"/></g><g transform="translate(-126,-214) scale(1,1)"><path fill="none" stroke="#000000" d="M 584.052734375 344 L 757.609375 344 L 757.609375 384 L 584.052734375 384 L 584.052734375 344 Z Z" stroke-miterlimit="10"/></g><g transform="translate(-126,-214) scale(1,1)"><g><path fill="none" stroke="none"/><text fill="#000000" stroke="none" font-family="Arial" font-size="13px" font-style="normal" font-weight="bold" text-decoration="none" x="594.60205078125" y="364.5">PasswordStrengthWindow</text></g></g><g transform="translate(-126,-214) scale(1,1)"><rect fill="#C0C0C0" stroke="none" x="783" y="343" width="63.41015625" height="15" opacity="0.2"/></g><g transform="translate(-126,-214) scale(1,1)"><rect fill="#C0C0C0" stroke="none" x="783" y="357" width="158.525390625" height="40" opacity="0.2"/></g><g transform="translate(-126,-214) scale(1,1)"><rect fill="#ffffff" stroke="none" x="776" y="351" width="158.525390625" height="39"/></g><g transform="translate(-126,-214) scale(1,1)"><path fill="none" stroke="#000000" d="M 776 351 L 934.525390625 351 L 934.525390625 390 L 776 390 L 776 351 Z Z" stroke-miterlimit="10"/></g><g transform="translate(-126,-214) scale(1,1)"><rect fill="#ffffff" stroke="none" x="776" y="336" width="63.41015625" height="15"/></g><g transform="translate(-126,-214) scale(1,1)"><path fill="none" stroke="#000000" d="M 776 336 L 839.41015625 336 L 839.41015625 351 L 776 351 L 776 336 Z Z" stroke-miterlimit="10"/></g><g transform="translate(-126,-214) scale(1,1)"><rect fill="#ffffff" stroke="none" x="776" y="350" width="158.525390625" height="40"/></g><g transform="translate(-126,-214) scale(1,1)"><path fill="none" stroke="#000000" d="M 776 350 L 934.525390625 350 L 934.525390625 390 L 776 390 L 776 350 Z Z" stroke-miterlimit="10"/></g><g transform="translate(-126,-214) scale(1,1)"><g><path fill="none" stroke="none"/><text fill="#000000" stroke="none" font-family="Arial" font-size="13px" font-style="normal" font-weight="bold" text-decoration="none" x="785.908203125" y="370.5">CreditCardUserControls</text></g></g><g transform="translate(-126,-214) scale(1,1)"><rect fill="#C0C0C0" stroke="none" x="959" y="343" width="61.104687499999955" height="15" opacity="0.2"/></g><g transform="translate(-126,-214) scale(1,1)"><rect fill="#C0C0C0" stroke="none" x="959" y="357" width="152.76171875" height="42" opacity="0.2"/></g><g transform="translate(-126,-214) scale(1,1)"><rect fill="#ffffff" stroke="none" x="952" y="351" width="152.76171875" height="41"/></g><g transform="translate(-126,-214) scale(1,1)"><path fill="none" stroke="#000000" d="M 952 351 L 1104.76171875 351 L 1104.76171875 392 L 952 392 L 952 351 Z Z" stroke-miterlimit="10"/></g><g transform="translate(-126,-214) scale(1,1)"><rect fill="#ffffff" stroke="none" x="952" y="336" width="61.104687499999955" height="15"/></g><g transform="translate(-126,-214) scale(1,1)"><path fill="none" stroke="#000000" d="M 952 336 L 1013.1046875 336 L 1013.1046875 351 L 952 351 L 952 336 Z Z" stroke-miterlimit="10"/></g><g transform="translate(-126,-214) scale(1,1)"><rect fill="#ffffff" stroke="none" x="952" y="350" width="152.76171875" height="42"/></g><g transform="translate(-126,-214) scale(1,1)"><path fill="none" stroke="#000000" d="M 952 350 L 1104.76171875 350 L 1104.76171875 392 L 952 392 L 952 350 Z Z" stroke-miterlimit="10"/></g><g transform="translate(-126,-214) scale(1,1)"><g><path fill="none" stroke="none"/><text fill="#000000" stroke="none" font-family="Arial" font-size="13px" font-style="normal" font-weight="bold" text-decoration="none" x="961.91455078125" y="370.5">PasswordUserControls</text></g></g><g transform="translate(-126,-214) scale(1,1)"><path fill="none" stroke="#000000" d="M 280 344 L 280 291" stroke-miterlimit="10"/></g><g transform="translate(-126,-214) scale(1,1)"><path fill="#FFFFFF" stroke="none" d="M 273 298 C 273 294.1340064 276.1340064 291 280 291 C 283.8659936 291 287 294.1340064 287 298 C 287 301.8659936 283.8659936 305 280 305 C 276.1340064 305 273 301.8659936 273 298 Z"/></g><g transform="translate(-126,-214) scale(1,1)"><path fill="none" stroke="#000000" d="M 273 298 C 273 294.1340064 276.1340064 291 280 291 C 283.8659936 291 287 294.1340064 287 298 C 287 301.8659936 283.8659936 305 280 305 C 276.1340064 305 273 301.8659936 273 298 Z" stroke-miterlimit="10"/></g><g transform="translate(-126,-214) scale(1,1)"><path fill="none" stroke="#000000" d="M 280 305 L 280 291" stroke-miterlimit="10"/></g><g transform="translate(-126,-214) scale(1,1)"><path fill="none" stroke="#000000" d="M 287 298 L 273 298" stroke-miterlimit="10"/></g><g transform="translate(-126,-214) scale(1,1)"><path fill="none" stroke="#000000" d="M 175 343 L 176 272 L 218 272" stroke-miterlimit="10"/></g><g transform="translate(-126,-214) scale(1,1)"><path fill="#FFFFFF" stroke="none" d="M 204 272 C 204 268.1340064 207.1340064 265 211 265 C 214.8659936 265 218 268.1340064 218 272 C 218 275.8659936 214.8659936 279 211 279 C 207.1340064 279 204 275.8659936 204 272 Z"/></g><g transform="translate(-126,-214) scale(1,1)"><path fill="none" stroke="#000000" d="M 204 272 C 204 268.1340064 207.1340064 265 211 265 C 214.8659936 265 218 268.1340064 218 272 C 218 275.8659936 214.8659936 279 211 279 C 207.1340064 279 204 275.8659936 204 272 Z" stroke-miterlimit="10"/></g><g transform="translate(-126,-214) scale(1,1)"><path fill="none" stroke="#000000" d="M 204 272 L 218 272" stroke-miterlimit="10"/></g><g transform="translate(-126,-214) scale(1,1)"><path fill="none" stroke="#000000" d="M 211 279 L 211 265" stroke-miterlimit="10"/></g><g transform="translate(-126,-214) scale(1,1)"><path fill="none" stroke="#000000" d="M 376 344 L 376 272 L 338 272" stroke-miterlimit="10"/></g><g transform="translate(-126,-214) scale(1,1)"><path fill="#FFFFFF" stroke="none" d="M 338 272 C 338 268.1340064 341.1340064 265 345 265 C 348.8659936 265 352 268.1340064 352 272 C 352 275.8659936 348.8659936 279 345 279 C 341.1340064 279 338 275.8659936 338 272 Z"/></g><g transform="translate(-126,-214) scale(1,1)"><path fill="none" stroke="#000000" d="M 338 272 C 338 268.1340064 341.1340064 265 345 265 C 348.8659936 265 352 268.1340064 352 272 C 352 275.8659936 348.8659936 279 345 279 C 341.1340064 279 338 275.8659936 338 272 Z" stroke-miterlimit="10"/></g><g transform="translate(-126,-214) scale(1,1)"><path fill="none" stroke="#000000" d="M 352 272 L 338 272" stroke-miterlimit="10"/></g><g transform="translate(-126,-214) scale(1,1)"><path fill="none" stroke="#000000" d="M 345 265 L 345 279" stroke-miterlimit="10"/></g><g transform="translate(-126,-214) scale(1,1)"><path fill="none" stroke="#000000" d="M 680 330 L 680 280 L 807 280" stroke-miterlimit="10"/></g><g transform="translate(-126,-214) scale(1,1)"><path fill="#FFFFFF" stroke="none" d="M 793 280 C 793 276.1340064 796.1340064 273 800 273 C 803.8659936 273 807 276.1340064 807 280 C 807 283.8659936 803.8659936 287 800 287 C 796.1340064 287 793 283.8659936 793 280 Z"/></g><g transform="translate(-126,-214) scale(1,1)"><path fill="none" stroke="#000000" d="M 793 280 C 793 276.1340064 796.1340064 273 800 273 C 803.8659936 273 807 276.1340064 807 280 C 807 283.8659936 803.8659936 287 800 287 C 796.1340064 287 793 283.8659936 793 280 Z" stroke-miterlimit="10"/></g><g transform="translate(-126,-214) scale(1,1)"><path fill="none" stroke="#000000" d="M 793 280 L 807 280" stroke-miterlimit="10"/></g><g transform="translate(-126,-214) scale(1,1)"><path fill="none" stroke="#000000" d="M 800 287 L 800 273" stroke-miterlimit="10"/></g><g transform="translate(-126,-214) scale(1,1)"><path fill="none" stroke="#000000" d="M 840 336 L 840 299" stroke-miterlimit="10"/></g><g transform="translate(-126,-214) scale(1,1)"><path fill="#FFFFFF" stroke="none" d="M 833 306 C 833 302.1340064 836.1340064 299 840 299 C 843.8659936 299 847 302.1340064 847 306 C 847 309.8659936 843.8659936 313 840 313 C 836.1340064 313 833 309.8659936 833 306 Z"/></g><g transform="translate(-126,-214) scale(1,1)"><path fill="none" stroke="#000000" d="M 833 306 C 833 302.1340064 836.1340064 299 840 299 C 843.8659936 299 847 302.1340064 847 306 C 847 309.8659936 843.8659936 313 840 313 C 836.1340064 313 833 309.8659936 833 306 Z" stroke-miterlimit="10"/></g><g transform="translate(-126,-214) scale(1,1)"><path fill="none" stroke="#000000" d="M 840 313 L 840 299" stroke-miterlimit="10"/></g><g transform="translate(-126,-214) scale(1,1)"><path fill="none" stroke="#000000" d="M 847 306 L 833 306" stroke-miterlimit="10"/></g><g transform="translate(-126,-214) scale(1,1)"><path fill="none" stroke="#000000" d="M 1008 336 L 1008 280 L 895 280" stroke-miterlimit="10"/></g><g transform="translate(-126,-214) scale(1,1)"><path fill="#FFFFFF" stroke="none" d="M 895 280 C 895 276.1340064 898.1340064 273 902 273 C 905.8659936 273 909 276.1340064 909 280 C 909 283.8659936 905.8659936 287 902 287 C 898.1340064 287 895 283.8659936 895 280 Z"/></g><g transform="translate(-126,-214) scale(1,1)"><path fill="none" stroke="#000000" d="M 895 280 C 895 276.1340064 898.1340064 273 902 273 C 905.8659936 273 909 276.1340064 909 280 C 909 283.8659936 905.8659936 287 902 287 C 898.1340064 287 895 283.8659936 895 280 Z" stroke-miterlimit="10"/></g><g transform="translate(-126,-214) scale(1,1)"><path fill="none" stroke="#000000" d="M 909 280 L 895 280" stroke-miterlimit="10"/></g><g transform="translate(-126,-214) scale(1,1)"><path fill="none" stroke="#000000" d="M 902 273 L 902 287" stroke-miterlimit="10"/></g><g transform="translate(-126,-214) scale(1,1)"><path fill="none" stroke="#000000" d="M 824 260 L 824 224 L 278 224 L 278 252" stroke-miterlimit="10" stroke-dasharray="3"/></g><g transform="translate(-126,-214) scale(1,1)"><path fill="none" stroke="#000000" d="M 273.790482243984 241.83732514237585 L 278 252 L 282.209517756016 241.83732514237585" stroke-miterlimit="10"/></g><g transform="translate(-126,-214) scale(1,1)"><path fill="none" stroke="#000000" d="M 321 372 L 367 371" stroke-miterlimit="10" stroke-dasharray="3"/></g><g transform="translate(-126,-214) scale(1,1)"><path fill="none" stroke="#000000" d="M 356.93121531934037 375.42939894957703 L 367 371 L 356.74823604017183 367.0123521078249" stroke-miterlimit="10"/></g><g transform="translate(-126,-214) scale(1,1)"><path fill="none" stroke="#000000" d="M 247 372 L 215 372" stroke-miterlimit="10" stroke-dasharray="3"/></g><g transform="translate(-126,-214) scale(1,1)"><path fill="none" stroke="#000000" d="M 225.16267485762415 367.790482243984 L 215 372 L 225.16267485762415 376.209517756016" stroke-miterlimit="10"/></g></g></svg>