<svg version="1.1" xmlns="http://www.w3.org/2000/svg" xmlns:xlink="http://www.w3.org/1999/xlink" width="1329.9658203125" height="852"><defs/><g><g transform="translate(2,2) scale(1,1)"><rect fill="#C0C0C0" stroke="none" x="15" y="135" width="265.12158203125" height="72" opacity="0.2"/></g><g transform="translate(2,2) scale(1,1)"><rect fill="#ffffff" stroke="none" x="8" y="128" width="265.12158203125" height="72"/></g><g transform="translate(2,2) scale(1,1)"><path fill="none" stroke="#000000" d="M 8 128 L 273.12158203125 128 L 273.12158203125 200 L 8 200 L 8 128 Z Z" stroke-miterlimit="10"/></g><g transform="translate(2,2) scale(1,1)"><path fill="none" stroke="#000000" d="M 8 168 L 273.12158203125 168" stroke-miterlimit="10"/></g><g transform="translate(2,2) scale(1,1)"><path fill="none" stroke="#000000" d="M 8 178 L 273.12158203125 178" stroke-miterlimit="10"/></g><g transform="translate(2,2) scale(1,1)"><g><path fill="none" stroke="none"/><text fill="#000000" stroke="none" font-family="Arial" font-size="13px" font-style="normal" font-weight="bold" text-decoration="none" x="96.476318359375" y="147.5">AdvancedHash</text></g></g><g transform="translate(2,2) scale(1,1)"><g><path fill="none" stroke="none"/><text fill="#000000" stroke="none" font-family="Arial" font-size="13px" font-style="normal" font-weight="normal" text-decoration="none" x="100.478515625" y="162.5">(from Utilities)</text></g></g><g transform="translate(2,2) scale(1,1)"><g><path fill="none" stroke="none"/><text fill="#000000" stroke="none" font-family="Arial" font-size="13px" font-style="normal" font-weight="normal" text-decoration="none" x="13" y="195.5">+Hash(textToHash: string, salt: string): string</text></g></g><g transform="translate(2,2) scale(1,1)"><rect fill="#C0C0C0" stroke="none" x="15" y="343" width="524.251953125" height="190" opacity="0.2"/></g><g transform="translate(2,2) scale(1,1)"><rect fill="#ffffff" stroke="none" x="8" y="336" width="524.251953125" height="190"/></g><g transform="translate(2,2) scale(1,1)"><path fill="none" stroke="#000000" d="M 8 336 L 532.251953125 336 L 532.251953125 526 L 8 526 L 8 336 Z Z" stroke-miterlimit="10"/></g><g transform="translate(2,2) scale(1,1)"><path fill="none" stroke="#000000" d="M 8 376 L 532.251953125 376" stroke-miterlimit="10"/></g><g transform="translate(2,2) scale(1,1)"><path fill="none" stroke="#000000" d="M 8 444 L 532.251953125 444" stroke-miterlimit="10"/></g><g transform="translate(2,2) scale(1,1)"><g><path fill="none" stroke="none"/><text fill="#000000" stroke="none" font-family="Arial" font-size="13px" font-style="normal" font-weight="bold" text-decoration="none" x="228.215576171875" y="355.5">AesEncryption</text></g></g><g transform="translate(2,2) scale(1,1)"><g><path fill="none" stroke="none"/><text fill="#000000" stroke="none" font-family="Arial" font-size="13px" font-style="normal" font-weight="normal" text-decoration="none" x="230.043701171875" y="370.5">(from Utilities)</text></g></g><g transform="translate(2,2) scale(1,1)"><g><path fill="none" stroke="none"/><text fill="#000000" stroke="none" font-family="Arial" font-size="13px" font-style="normal" font-weight="normal" text-decoration="none" x="13" y="393.5">-keyPaddingChar: char = '0'</text><path fill="none" stroke="#000000" d="M 13 393.5 L 172.96728515625 393.5" stroke-miterlimit="10"/></g></g><g transform="translate(2,2) scale(1,1)"><g><path fill="none" stroke="none"/><text fill="#000000" stroke="none" font-family="Arial" font-size="13px" font-style="normal" font-weight="normal" text-decoration="none" x="13" y="408.5">-keyLength: int = 32</text><path fill="none" stroke="#000000" d="M 13 408.5 L 127.5498046875 408.5" stroke-miterlimit="10"/></g></g><g transform="translate(2,2) scale(1,1)"><g><path fill="none" stroke="none"/><text fill="#000000" stroke="none" font-family="Arial" font-size="13px" font-style="normal" font-weight="normal" text-decoration="none" x="13" y="423.5">-IV: byte[][*] = new byte[]{237,187,70,157,153,181,4,169,105,218,240,155,181,155,44,19}</text><path fill="none" stroke="#000000" d="M 13 423.5 L 528.251953125 423.5" stroke-miterlimit="10"/></g></g><g transform="translate(2,2) scale(1,1)"><g><path fill="none" stroke="none"/><text fill="#000000" stroke="none" font-family="Arial" font-size="13px" font-style="normal" font-weight="normal" text-decoration="none" x="13" y="438.5">-encoding: Encoding = Encoding.UTF8</text><path fill="none" stroke="#000000" d="M 13 438.5 L 236.666015625 438.5" stroke-miterlimit="10"/></g></g><g transform="translate(2,2) scale(1,1)"><g><path fill="none" stroke="none"/><text fill="#000000" stroke="none" font-family="Arial" font-size="13px" font-style="normal" font-weight="normal" text-decoration="none" x="13" y="461.5">+Encrypt(textToEncrypt: string, key: string): string</text></g></g><g transform="translate(2,2) scale(1,1)"><g><path fill="none" stroke="none"/><text fill="#000000" stroke="none" font-family="Arial" font-size="13px" font-style="normal" font-weight="normal" text-decoration="none" x="13" y="476.5">+Decrypt(encryptedText: string, key: string): string</text></g></g><g transform="translate(2,2) scale(1,1)"><g><path fill="none" stroke="none"/><text fill="#000000" stroke="none" font-family="Arial" font-size="13px" font-style="normal" font-weight="normal" text-decoration="none" x="13" y="491.5">-EncryptAes(plainText: string, key: string): string</text><path fill="none" stroke="#000000" d="M 13 491.5 L 288.259765625 491.5" stroke-miterlimit="10"/></g></g><g transform="translate(2,2) scale(1,1)"><g><path fill="none" stroke="none"/><text fill="#000000" stroke="none" font-family="Arial" font-size="13px" font-style="normal" font-weight="normal" text-decoration="none" x="13" y="506.5">-DecryptAes(plainText: string, key: string): string</text><path fill="none" stroke="#000000" d="M 13 506.5 L 288.97705078125 506.5" stroke-miterlimit="10"/></g></g><g transform="translate(2,2) scale(1,1)"><g><path fill="none" stroke="none"/><text fill="#000000" stroke="none" font-family="Arial" font-size="13px" font-style="normal" font-weight="normal" text-decoration="none" x="13" y="521.5">-HmacSHA256(data: String, key: String): byte[][*]</text><path fill="none" stroke="#000000" d="M 13 521.5 L 294.77880859375 521.5" stroke-miterlimit="10"/></g></g><g transform="translate(2,2) scale(1,1)"><rect fill="#C0C0C0" stroke="none" x="287" y="135" width="265.12158203125" height="72" opacity="0.2"/></g><g transform="translate(2,2) scale(1,1)"><rect fill="#ffffff" stroke="none" x="280" y="128" width="265.12158203125" height="72"/></g><g transform="translate(2,2) scale(1,1)"><path fill="none" stroke="#000000" d="M 280 128 L 545.12158203125 128 L 545.12158203125 200 L 280 200 L 280 128 Z Z" stroke-miterlimit="10"/></g><g transform="translate(2,2) scale(1,1)"><path fill="none" stroke="#000000" d="M 280 168 L 545.12158203125 168" stroke-miterlimit="10"/></g><g transform="translate(2,2) scale(1,1)"><path fill="none" stroke="#000000" d="M 280 178 L 545.12158203125 178" stroke-miterlimit="10"/></g><g transform="translate(2,2) scale(1,1)"><g><path fill="none" stroke="none"/><text fill="#000000" stroke="none" font-family="Arial" font-size="13px" font-style="normal" font-weight="bold" text-decoration="none" x="381.4921875" y="147.5">BasicHash</text></g></g><g transform="translate(2,2) scale(1,1)"><g><path fill="none" stroke="none"/><text fill="#000000" stroke="none" font-family="Arial" font-size="13px" font-style="normal" font-weight="normal" text-decoration="none" x="372.478515625" y="162.5">(from Utilities)</text></g></g><g transform="translate(2,2) scale(1,1)"><g><path fill="none" stroke="none"/><text fill="#000000" stroke="none" font-family="Arial" font-size="13px" font-style="normal" font-weight="normal" text-decoration="none" x="285" y="195.5">+Hash(textToHash: string, salt: string): string</text></g></g><g transform="translate(2,2) scale(1,1)"><path fill="#C0C0C0" stroke="none" d="M 272.082275390625 26.5 C 272.082275390625 20.1487248 277.231000190625 15 283.582275390625 15 C 289.933550590625 15 295.082275390625 20.1487248 295.082275390625 26.5 C 295.082275390625 32.8512752 289.933550590625 38 283.582275390625 38 C 277.231000190625 38 272.082275390625 32.8512752 272.082275390625 26.5 Z" opacity="0.2"/></g><g transform="translate(2,2) scale(1,1)"><path fill="#ffffff" stroke="none" d="M 265.082275390625 19.5 C 265.082275390625 13.1487248 270.231000190625 8 276.582275390625 8 C 282.933550590625 8 288.082275390625 13.1487248 288.082275390625 19.5 C 288.082275390625 25.8512752 282.933550590625 31 276.582275390625 31 C 270.231000190625 31 265.082275390625 25.8512752 265.082275390625 19.5 Z"/></g><g transform="translate(2,2) scale(1,1)"><path fill="none" stroke="#000000" d="M 265.082275390625 19.5 C 265.082275390625 13.1487248 270.231000190625 8 276.582275390625 8 C 282.933550590625 8 288.082275390625 13.1487248 288.082275390625 19.5 C 288.082275390625 25.8512752 282.933550590625 31 276.582275390625 31 C 270.231000190625 31 265.082275390625 25.8512752 265.082275390625 19.5 Z" stroke-miterlimit="10"/></g><g transform="translate(2,2) scale(1,1)"><g><path fill="none" stroke="none"/><text fill="#000000" stroke="none" font-family="Arial" font-size="13px" font-style="normal" font-weight="bold" text-decoration="none" x="259.602294921875" y="50.5">IHash</text></g></g><g transform="translate(2,2) scale(1,1)"><g><path fill="none" stroke="none"/><text fill="#000000" stroke="none" font-family="Arial" font-size="13px" font-style="normal" font-weight="normal" text-decoration="none" x="236.5" y="65.5">(from Utilities)</text></g></g><g transform="translate(2,2) scale(1,1)"><path fill="none" stroke="#000000" d="M 264 128 L 264 71" stroke-miterlimit="10"/></g><g transform="translate(2,2) scale(1,1)"><path fill="#FFFFFF" stroke="none" d="M 272.419035512032 91.32534971524831 L 264 71 L 255.58096448796803 91.32534971524831"/></g><g transform="translate(2,2) scale(1,1)"><path fill="none" stroke="#000000" d="M 272.419035512032 91.32534971524831 L 264 71 L 255.58096448796803 91.32534971524831 L 272.419035512032 91.32534971524831" stroke-miterlimit="10"/></g><g transform="translate(2,2) scale(1,1)"><path fill="none" stroke="#000000" d="M 296 128 L 296 71" stroke-miterlimit="10"/></g><g transform="translate(2,2) scale(1,1)"><path fill="#FFFFFF" stroke="none" d="M 304.419035512032 91.32534971524831 L 296 71 L 287.580964487968 91.32534971524831"/></g><g transform="translate(2,2) scale(1,1)"><path fill="none" stroke="#000000" d="M 304.419035512032 91.32534971524831 L 296 71 L 287.580964487968 91.32534971524831 L 304.419035512032 91.32534971524831" stroke-miterlimit="10"/></g><g transform="translate(2,2) scale(1,1)"><path fill="#C0C0C0" stroke="none" d="M 520.082275390625 234.5 C 520.082275390625 228.1487248 525.231000190625 223 531.582275390625 223 C 537.933550590625 223 543.082275390625 228.1487248 543.082275390625 234.5 C 543.082275390625 240.8512752 537.933550590625 246 531.582275390625 246 C 525.231000190625 246 520.082275390625 240.8512752 520.082275390625 234.5 Z" opacity="0.2"/></g><g transform="translate(2,2) scale(1,1)"><path fill="#ffffff" stroke="none" d="M 513.082275390625 227.5 C 513.082275390625 221.1487248 518.231000190625 216 524.582275390625 216 C 530.933550590625 216 536.082275390625 221.1487248 536.082275390625 227.5 C 536.082275390625 233.8512752 530.933550590625 239 524.582275390625 239 C 518.231000190625 239 513.082275390625 233.8512752 513.082275390625 227.5 Z"/></g><g transform="translate(2,2) scale(1,1)"><path fill="none" stroke="#000000" d="M 513.082275390625 227.5 C 513.082275390625 221.1487248 518.231000190625 216 524.582275390625 216 C 530.933550590625 216 536.082275390625 221.1487248 536.082275390625 227.5 C 536.082275390625 233.8512752 530.933550590625 239 524.582275390625 239 C 518.231000190625 239 513.082275390625 233.8512752 513.082275390625 227.5 Z" stroke-miterlimit="10"/></g><g transform="translate(2,2) scale(1,1)"><g><path fill="none" stroke="none"/><text fill="#000000" stroke="none" font-family="Arial" font-size="13px" font-style="normal" font-weight="bold" text-decoration="none" x="492.06640625" y="258.5">IEncryption</text></g></g><g transform="translate(2,2) scale(1,1)"><g><path fill="none" stroke="none"/><text fill="#000000" stroke="none" font-family="Arial" font-size="13px" font-style="normal" font-weight="normal" text-decoration="none" x="484.5" y="273.5">(from Utilities)</text></g></g><g transform="translate(2,2) scale(1,1)"><path fill="none" stroke="#000000" d="M 496 336 L 496 279" stroke-miterlimit="10"/></g><g transform="translate(2,2) scale(1,1)"><path fill="#FFFFFF" stroke="none" d="M 504.419035512032 299.3253497152483 L 496 279 L 487.580964487968 299.3253497152483"/></g><g transform="translate(2,2) scale(1,1)"><path fill="none" stroke="#000000" d="M 504.419035512032 299.3253497152483 L 496 279 L 487.580964487968 299.3253497152483 L 504.419035512032 299.3253497152483" stroke-miterlimit="10"/></g><g transform="translate(2,2) scale(1,1)"><rect fill="#C0C0C0" stroke="none" x="551" y="343" width="295.46337890625" height="102" opacity="0.2"/></g><g transform="translate(2,2) scale(1,1)"><rect fill="#ffffff" stroke="none" x="544" y="336" width="295.46337890625" height="102"/></g><g transform="translate(2,2) scale(1,1)"><path fill="none" stroke="#000000" d="M 544 336 L 839.46337890625 336 L 839.46337890625 438 L 544 438 L 544 336 Z Z" stroke-miterlimit="10"/></g><g transform="translate(2,2) scale(1,1)"><path fill="none" stroke="#000000" d="M 544 376 L 839.46337890625 376" stroke-miterlimit="10"/></g><g transform="translate(2,2) scale(1,1)"><path fill="none" stroke="#000000" d="M 544 386 L 839.46337890625 386" stroke-miterlimit="10"/></g><g transform="translate(2,2) scale(1,1)"><g><path fill="none" stroke="none"/><text fill="#000000" stroke="none" font-family="Arial" font-size="13px" font-style="normal" font-weight="bold" text-decoration="none" x="645.127197265625" y="355.5">BasicEncryption</text></g></g><g transform="translate(2,2) scale(1,1)"><g><path fill="none" stroke="none"/><text fill="#000000" stroke="none" font-family="Arial" font-size="13px" font-style="normal" font-weight="normal" text-decoration="none" x="651.6494140625" y="370.5">(from Utilities)</text></g></g><g transform="translate(2,2) scale(1,1)"><g><path fill="none" stroke="none"/><text fill="#000000" stroke="none" font-family="Arial" font-size="13px" font-style="normal" font-weight="normal" text-decoration="none" x="549" y="403.5">+Encrypt(textToEncrypt: string, key: string): string</text></g></g><g transform="translate(2,2) scale(1,1)"><g><path fill="none" stroke="none"/><text fill="#000000" stroke="none" font-family="Arial" font-size="13px" font-style="normal" font-weight="normal" text-decoration="none" x="549" y="418.5">+Decrypt(encryptedText: string, key: string): string</text></g></g><g transform="translate(2,2) scale(1,1)"><g><path fill="none" stroke="none"/><text fill="#000000" stroke="none" font-family="Arial" font-size="13px" font-style="normal" font-weight="normal" text-decoration="none" x="549" y="433.5">-VerifyText(text: string): void</text></g></g><g transform="translate(2,2) scale(1,1)"><path fill="none" stroke="#000000" d="M 552 336 L 552 279" stroke-miterlimit="10"/></g><g transform="translate(2,2) scale(1,1)"><path fill="#FFFFFF" stroke="none" d="M 560.419035512032 299.3253497152483 L 552 279 L 543.580964487968 299.3253497152483"/></g><g transform="translate(2,2) scale(1,1)"><path fill="none" stroke="#000000" d="M 560.419035512032 299.3253497152483 L 552 279 L 543.580964487968 299.3253497152483 L 560.419035512032 299.3253497152483" stroke-miterlimit="10"/></g><g transform="translate(2,2) scale(1,1)"><rect fill="#C0C0C0" stroke="none" x="895" y="39" width="192.16796875" height="87" opacity="0.2"/></g><g transform="translate(2,2) scale(1,1)"><rect fill="#ffffff" stroke="none" x="888" y="32" width="192.16796875" height="87"/></g><g transform="translate(2,2) scale(1,1)"><path fill="none" stroke="#000000" d="M 888 32 L 1080.16796875 32 L 1080.16796875 119 L 888 119 L 888 32 Z Z" stroke-miterlimit="10"/></g><g transform="translate(2,2) scale(1,1)"><path fill="none" stroke="#000000" d="M 888 72 L 1080.16796875 72" stroke-miterlimit="10"/></g><g transform="translate(2,2) scale(1,1)"><path fill="none" stroke="#000000" d="M 888 110 L 1080.16796875 110" stroke-miterlimit="10"/></g><g transform="translate(2,2) scale(1,1)"><g><path fill="none" stroke="none"/><text fill="#000000" stroke="none" font-family="Arial" font-size="13px" font-style="normal" font-weight="bold" text-decoration="none" x="912.917236328125" y="51.5">PasswordReportByColor</text></g></g><g transform="translate(2,2) scale(1,1)"><g><path fill="none" stroke="none"/><text fill="#000000" stroke="none" font-family="Arial" font-size="13px" font-style="normal" font-weight="normal" text-decoration="none" x="944.001708984375" y="66.5">(from Utilities)</text></g></g><g transform="translate(2,2) scale(1,1)"><g><path fill="none" stroke="none"/><text fill="#000000" stroke="none" font-family="Arial" font-size="13px" font-style="normal" font-weight="normal" text-decoration="none" x="893" y="89.5">+Quantity: int</text></g></g><g transform="translate(2,2) scale(1,1)"><g><path fill="none" stroke="none"/><text fill="#000000" stroke="none" font-family="Arial" font-size="13px" font-style="normal" font-weight="normal" text-decoration="none" x="893" y="104.5">+Color: PasswordStrengthColor</text></g></g><g transform="translate(2,2) scale(1,1)"><rect fill="#C0C0C0" stroke="none" x="887" y="343" width="244.47900390625" height="102" opacity="0.2"/></g><g transform="translate(2,2) scale(1,1)"><rect fill="#ffffff" stroke="none" x="880" y="336" width="244.47900390625" height="102"/></g><g transform="translate(2,2) scale(1,1)"><path fill="none" stroke="#000000" d="M 880 336 L 1124.47900390625 336 L 1124.47900390625 438 L 880 438 L 880 336 Z Z" stroke-miterlimit="10"/></g><g transform="translate(2,2) scale(1,1)"><path fill="none" stroke="#000000" d="M 880 376 L 1124.47900390625 376" stroke-miterlimit="10"/></g><g transform="translate(2,2) scale(1,1)"><path fill="none" stroke="#000000" d="M 880 429 L 1124.47900390625 429" stroke-miterlimit="10"/></g><g transform="translate(2,2) scale(1,1)"><g><path fill="none" stroke="none"/><text fill="#000000" stroke="none" font-family="Arial" font-size="13px" font-style="normal" font-weight="bold" text-decoration="none" x="893.1328125" y="355.5">PasswordReportByCategoryAndColor</text></g></g><g transform="translate(2,2) scale(1,1)"><g><path fill="none" stroke="none"/><text fill="#000000" stroke="none" font-family="Arial" font-size="13px" font-style="normal" font-weight="normal" text-decoration="none" x="962.1572265625" y="370.5">(from Utilities)</text></g></g><g transform="translate(2,2) scale(1,1)"><g><path fill="none" stroke="none"/><text fill="#000000" stroke="none" font-family="Arial" font-size="13px" font-style="normal" font-weight="normal" text-decoration="none" x="885" y="393.5">+Category: Category</text></g></g><g transform="translate(2,2) scale(1,1)"><g><path fill="none" stroke="none"/><text fill="#000000" stroke="none" font-family="Arial" font-size="13px" font-style="normal" font-weight="normal" text-decoration="none" x="885" y="408.5">+Quantity: int</text></g></g><g transform="translate(2,2) scale(1,1)"><g><path fill="none" stroke="none"/><text fill="#000000" stroke="none" font-family="Arial" font-size="13px" font-style="normal" font-weight="normal" text-decoration="none" x="885" y="423.5">+Color: PasswordStrengthColor</text></g></g><g transform="translate(2,2) scale(1,1)"><rect fill="#C0C0C0" stroke="none" x="911" y="191" width="157.79541015625" height="59" opacity="0.2"/></g><g transform="translate(2,2) scale(1,1)"><rect fill="#ffffff" stroke="none" x="904" y="184" width="157.79541015625" height="59"/></g><g transform="translate(2,2) scale(1,1)"><path fill="none" stroke="#000000" d="M 904 184 L 1061.79541015625 184 L 1061.79541015625 243 L 904 243 L 904 184 Z Z" stroke-miterlimit="10"/></g><g transform="translate(2,2) scale(1,1)"><path fill="none" stroke="#000000" d="M 904 224 L 1061.79541015625 224" stroke-miterlimit="10"/></g><g transform="translate(2,2) scale(1,1)"><path fill="none" stroke="#000000" d="M 904 234 L 1061.79541015625 234" stroke-miterlimit="10"/></g><g transform="translate(2,2) scale(1,1)"><g><path fill="none" stroke="none"/><text fill="#000000" stroke="none" font-family="Arial" font-size="13px" font-style="normal" font-weight="bold" text-decoration="none" x="914.254150390625" y="203.5">PasswordStrengthColor</text></g></g><g transform="translate(2,2) scale(1,1)"><g><path fill="none" stroke="none"/><text fill="#000000" stroke="none" font-family="Arial" font-size="13px" font-style="normal" font-weight="normal" text-decoration="none" x="942.8154296875" y="218.5">(from Utilities)</text></g></g><g transform="translate(2,2) scale(1,1)"><rect fill="#C0C0C0" stroke="none" x="15" y="655" width="540.8193359375" height="192" opacity="0.2"/></g><g transform="translate(2,2) scale(1,1)"><rect fill="#ffffff" stroke="none" x="8" y="648" width="540.8193359375" height="192"/></g><g transform="translate(2,2) scale(1,1)"><path fill="none" stroke="#000000" d="M 8 648 L 548.8193359375 648 L 548.8193359375 840 L 8 840 L 8 648 Z Z" stroke-miterlimit="10"/></g><g transform="translate(2,2) scale(1,1)"><path fill="none" stroke="#000000" d="M 8 688 L 548.8193359375 688" stroke-miterlimit="10"/></g><g transform="translate(2,2) scale(1,1)"><path fill="none" stroke="#000000" d="M 8 698 L 548.8193359375 698" stroke-miterlimit="10"/></g><g transform="translate(2,2) scale(1,1)"><g><path fill="none" stroke="none"/><text fill="#000000" stroke="none" font-family="Arial" font-size="13px" font-style="normal" font-weight="bold" text-decoration="none" x="193.1416015625" y="667.5">PasswordStrengthCalculation</text></g></g><g transform="translate(2,2) scale(1,1)"><g><path fill="none" stroke="none"/><text fill="#000000" stroke="none" font-family="Arial" font-size="13px" font-style="normal" font-weight="normal" text-decoration="none" x="238.327392578125" y="682.5">(from Utilities)</text></g></g><g transform="translate(2,2) scale(1,1)"><g><path fill="none" stroke="none"/><text fill="#000000" stroke="none" font-family="Arial" font-size="13px" font-style="normal" font-weight="normal" text-decoration="none" x="13" y="715.5">+CalculatePasswordStrength(passToCheckedStrength: string): PasswordStrengthColor</text><path fill="none" stroke="#000000" d="M 13 715.5 L 514.8330078125 715.5" stroke-miterlimit="10"/></g></g><g transform="translate(2,2) scale(1,1)"><g><path fill="none" stroke="none"/><text fill="#000000" stroke="none" font-family="Arial" font-size="13px" font-style="normal" font-weight="normal" text-decoration="none" x="13" y="730.5">-CalculateLargePasswordStrength(passToCheckedStrength: string): PasswordStrengthColor</text><path fill="none" stroke="#000000" d="M 13 730.5 L 544.8193359375 730.5" stroke-miterlimit="10"/></g></g><g transform="translate(2,2) scale(1,1)"><g><path fill="none" stroke="none"/><text fill="#000000" stroke="none" font-family="Arial" font-size="13px" font-style="normal" font-weight="normal" text-decoration="none" x="13" y="745.5">-CheckResultDependingOnTypeCount(typeCount: int): PasswordStrengthColor</text><path fill="none" stroke="#000000" d="M 13 745.5 L 467.51123046875 745.5" stroke-miterlimit="10"/></g></g><g transform="translate(2,2) scale(1,1)"><g><path fill="none" stroke="none"/><text fill="#000000" stroke="none" font-family="Arial" font-size="13px" font-style="normal" font-weight="normal" text-decoration="none" x="13" y="760.5">-IsRedStrength(passToCheckedStrength: string): bool</text><path fill="none" stroke="#000000" d="M 13 760.5 L 321.546875 760.5" stroke-miterlimit="10"/></g></g><g transform="translate(2,2) scale(1,1)"><g><path fill="none" stroke="none"/><text fill="#000000" stroke="none" font-family="Arial" font-size="13px" font-style="normal" font-weight="normal" text-decoration="none" x="13" y="775.5">-IsOrangeStrength(passToCheckedStrength: string): bool</text><path fill="none" stroke="#000000" d="M 13 775.5 L 341.0595703125 775.5" stroke-miterlimit="10"/></g></g><g transform="translate(2,2) scale(1,1)"><g><path fill="none" stroke="none"/><text fill="#000000" stroke="none" font-family="Arial" font-size="13px" font-style="normal" font-weight="normal" text-decoration="none" x="13" y="790.5">-IsSymbol(characterToCheck: char): bool</text><path fill="none" stroke="#000000" d="M 13 790.5 L 248.52978515625 790.5" stroke-miterlimit="10"/></g></g><g transform="translate(2,2) scale(1,1)"><g><path fill="none" stroke="none"/><text fill="#000000" stroke="none" font-family="Arial" font-size="13px" font-style="normal" font-weight="normal" text-decoration="none" x="13" y="805.5">-IsNumber(characterToCheck: char): bool</text><path fill="none" stroke="#000000" d="M 13 805.5 L 251.41796875 805.5" stroke-miterlimit="10"/></g></g><g transform="translate(2,2) scale(1,1)"><g><path fill="none" stroke="none"/><text fill="#000000" stroke="none" font-family="Arial" font-size="13px" font-style="normal" font-weight="normal" text-decoration="none" x="13" y="820.5">-IsUpperCase(characterToCheck: char): bool</text><path fill="none" stroke="#000000" d="M 13 820.5 L 270.93701171875 820.5" stroke-miterlimit="10"/></g></g><g transform="translate(2,2) scale(1,1)"><g><path fill="none" stroke="none"/><text fill="#000000" stroke="none" font-family="Arial" font-size="13px" font-style="normal" font-weight="normal" text-decoration="none" x="13" y="835.5">-IsLowerCase(characterToCheck: char): bool</text><path fill="none" stroke="#000000" d="M 13 835.5 L 270.93701171875 835.5" stroke-miterlimit="10"/></g></g><g transform="translate(2,2) scale(1,1)"><rect fill="#C0C0C0" stroke="none" x="575" y="655" width="188.1435546875" height="132" opacity="0.2"/></g><g transform="translate(2,2) scale(1,1)"><rect fill="#ffffff" stroke="none" x="568" y="648" width="188.1435546875" height="132"/></g><g transform="translate(2,2) scale(1,1)"><path fill="none" stroke="#000000" d="M 568 648 L 756.1435546875 648 L 756.1435546875 780 L 568 780 L 568 648 Z Z" stroke-miterlimit="10"/></g><g transform="translate(2,2) scale(1,1)"><path fill="none" stroke="#000000" d="M 568 688 L 756.1435546875 688" stroke-miterlimit="10"/></g><g transform="translate(2,2) scale(1,1)"><path fill="none" stroke="#000000" d="M 568 771 L 756.1435546875 771" stroke-miterlimit="10"/></g><g transform="translate(2,2) scale(1,1)"><g><path fill="none" stroke="none"/><text fill="#000000" stroke="none" font-family="Arial" font-size="13px" font-style="normal" font-weight="bold" text-decoration="none" x="578.971435546875" y="667.5">PasswordGenerationOptions</text></g></g><g transform="translate(2,2) scale(1,1)"><g><path fill="none" stroke="none"/><text fill="#000000" stroke="none" font-family="Arial" font-size="13px" font-style="normal" font-weight="normal" text-decoration="none" x="621.989501953125" y="682.5">(from Utilities)</text></g></g><g transform="translate(2,2) scale(1,1)"><g><path fill="none" stroke="none"/><text fill="#000000" stroke="none" font-family="Arial" font-size="13px" font-style="normal" font-weight="normal" text-decoration="none" x="573" y="705.5">+Length: int</text></g></g><g transform="translate(2,2) scale(1,1)"><g><path fill="none" stroke="none"/><text fill="#000000" stroke="none" font-family="Arial" font-size="13px" font-style="normal" font-weight="normal" text-decoration="none" x="573" y="720.5">+Uppercase: bool</text></g></g><g transform="translate(2,2) scale(1,1)"><g><path fill="none" stroke="none"/><text fill="#000000" stroke="none" font-family="Arial" font-size="13px" font-style="normal" font-weight="normal" text-decoration="none" x="573" y="735.5">+Lowercase: bool</text></g></g><g transform="translate(2,2) scale(1,1)"><g><path fill="none" stroke="none"/><text fill="#000000" stroke="none" font-family="Arial" font-size="13px" font-style="normal" font-weight="normal" text-decoration="none" x="573" y="750.5">+Digits: bool</text></g></g><g transform="translate(2,2) scale(1,1)"><g><path fill="none" stroke="none"/><text fill="#000000" stroke="none" font-family="Arial" font-size="13px" font-style="normal" font-weight="normal" text-decoration="none" x="573" y="765.5">+SpecialDigits: bool</text></g></g><g transform="translate(2,2) scale(1,1)"><rect fill="#C0C0C0" stroke="none" x="575" y="503" width="614.48388671875" height="117" opacity="0.2"/></g><g transform="translate(2,2) scale(1,1)"><rect fill="#ffffff" stroke="none" x="568" y="496" width="614.48388671875" height="117"/></g><g transform="translate(2,2) scale(1,1)"><path fill="none" stroke="#000000" d="M 568 496 L 1182.48388671875 496 L 1182.48388671875 613 L 568 613 L 568 496 Z Z" stroke-miterlimit="10"/></g><g transform="translate(2,2) scale(1,1)"><path fill="none" stroke="#000000" d="M 568 536 L 1182.48388671875 536" stroke-miterlimit="10"/></g><g transform="translate(2,2) scale(1,1)"><path fill="none" stroke="#000000" d="M 568 546 L 1182.48388671875 546" stroke-miterlimit="10"/></g><g transform="translate(2,2) scale(1,1)"><g><path fill="none" stroke="none"/><text fill="#000000" stroke="none" font-family="Arial" font-size="13px" font-style="normal" font-weight="bold" text-decoration="none" x="814.54248046875" y="515.5">PasswordGeneration</text></g></g><g transform="translate(2,2) scale(1,1)"><g><path fill="none" stroke="none"/><text fill="#000000" stroke="none" font-family="Arial" font-size="13px" font-style="normal" font-weight="normal" text-decoration="none" x="835.15966796875" y="530.5">(from Utilities)</text></g></g><g transform="translate(2,2) scale(1,1)"><g><path fill="none" stroke="none"/><text fill="#000000" stroke="none" font-family="Arial" font-size="13px" font-style="normal" font-weight="normal" text-decoration="none" x="573" y="563.5">+GenerateRandomPassword(selectedOptions: PasswordGenerationOptions): string</text><path fill="none" stroke="#000000" d="M 573 563.5 L 1055.32666015625 563.5" stroke-miterlimit="10"/></g></g><g transform="translate(2,2) scale(1,1)"><g><path fill="none" stroke="none"/><text fill="#000000" stroke="none" font-family="Arial" font-size="13px" font-style="normal" font-weight="normal" text-decoration="none" x="573" y="578.5">-ValidatePasswordGenerationOptions(selectedOptions: PasswordGenerationOptions): void</text><path fill="none" stroke="#000000" d="M 573 578.5 L 1095.919921875 578.5" stroke-miterlimit="10"/></g></g><g transform="translate(2,2) scale(1,1)"><g><path fill="none" stroke="none"/><text fill="#000000" stroke="none" font-family="Arial" font-size="13px" font-style="normal" font-weight="normal" text-decoration="none" x="573" y="593.5">-AddRandomCharFromSubSet(word: string, subSet: string, randomnumber: Random, mainSet: List): void</text><path fill="none" stroke="#000000" d="M 573 593.5 L 1178.48388671875 593.5" stroke-miterlimit="10"/></g></g><g transform="translate(2,2) scale(1,1)"><g><path fill="none" stroke="none"/><text fill="#000000" stroke="none" font-family="Arial" font-size="13px" font-style="normal" font-weight="normal" text-decoration="none" x="573" y="608.5">-AddRandomCharAtRandomPosition(word: string, validChars: List, randomNumber: Random): void</text><path fill="none" stroke="#000000" d="M 573 608.5 L 1142.35302734375 608.5" stroke-miterlimit="10"/></g></g><g transform="translate(2,2) scale(1,1)"><path fill="none" stroke="#000000" d="M 981 119 L 981 184" stroke-miterlimit="10"/></g><g transform="translate(2,2) scale(1,1)"><path fill="none" stroke="#000000" d="M 976.790482243984 173.83732514237585 L 981 184 L 985.209517756016 173.83732514237585" stroke-miterlimit="10"/></g><g transform="translate(2,2) scale(1,1)"><g><path fill="none" stroke="none"/><text fill="#000000" stroke="none" font-family="Arial" font-size="13px" font-style="normal" font-weight="normal" text-decoration="none" x="955.5" y="132.5">0...n</text></g></g><g transform="translate(2,2) scale(1,1)"><g><path fill="none" stroke="none"/><text fill="#000000" stroke="none" font-family="Arial" font-size="13px" font-style="normal" font-weight="normal" text-decoration="none" x="959.5" y="171.5">1</text></g></g><g transform="translate(2,2) scale(1,1)"><path fill="none" stroke="#000000" d="M 986 336 L 986 243" stroke-miterlimit="10"/></g><g transform="translate(2,2) scale(1,1)"><path fill="none" stroke="#000000" d="M 990.209517756016 253.16267485762415 L 986 243 L 981.790482243984 253.16267485762415" stroke-miterlimit="10"/></g><g transform="translate(2,2) scale(1,1)"><g><path fill="none" stroke="none"/><text fill="#000000" stroke="none" font-family="Arial" font-size="13px" font-style="normal" font-weight="normal" text-decoration="none" x="991.5" y="332.5">0...n</text></g></g><g transform="translate(2,2) scale(1,1)"><g><path fill="none" stroke="none"/><text fill="#000000" stroke="none" font-family="Arial" font-size="13px" font-style="normal" font-weight="normal" text-decoration="none" x="994.5" y="270.5">1</text></g></g><g transform="translate(2,2) scale(1,1)"><rect fill="#C0C0C0" stroke="none" x="799" y="655" width="525.9658203125" height="147" opacity="0.2"/></g><g transform="translate(2,2) scale(1,1)"><rect fill="#ffffff" stroke="none" x="792" y="648" width="525.9658203125" height="147"/></g><g transform="translate(2,2) scale(1,1)"><path fill="none" stroke="#000000" d="M 792 648 L 1317.9658203125 648 L 1317.9658203125 795 L 792 795 L 792 648 Z Z" stroke-miterlimit="10"/></g><g transform="translate(2,2) scale(1,1)"><path fill="none" stroke="#000000" d="M 792 688 L 1317.9658203125 688" stroke-miterlimit="10"/></g><g transform="translate(2,2) scale(1,1)"><path fill="none" stroke="#000000" d="M 792 698 L 1317.9658203125 698" stroke-miterlimit="10"/></g><g transform="translate(2,2) scale(1,1)"><g><path fill="none" stroke="none"/><text fill="#000000" stroke="none" font-family="Arial" font-size="13px" font-style="normal" font-weight="bold" text-decoration="none" x="1029.811279296875" y="667.5">Validator</text></g></g><g transform="translate(2,2) scale(1,1)"><g><path fill="none" stroke="none"/><text fill="#000000" stroke="none" font-family="Arial" font-size="13px" font-style="normal" font-weight="normal" text-decoration="none" x="1014.900634765625" y="682.5">(from Utilities)</text></g></g><g transform="translate(2,2) scale(1,1)"><g><path fill="none" stroke="none"/><text fill="#000000" stroke="none" font-family="Arial" font-size="13px" font-style="normal" font-weight="normal" text-decoration="none" x="797" y="715.5">+MaxLengthOfString(text: string, maxNumber: int): bool</text><path fill="none" stroke="#000000" d="M 797 715.5 L 1115.9951171875 715.5" stroke-miterlimit="10"/></g></g><g transform="translate(2,2) scale(1,1)"><g><path fill="none" stroke="none"/><text fill="#000000" stroke="none" font-family="Arial" font-size="13px" font-style="normal" font-weight="normal" text-decoration="none" x="797" y="730.5">+MinLengthOfString(text: string, minNumber: int): bool</text><path fill="none" stroke="#000000" d="M 797 730.5 L 1108.771484375 730.5" stroke-miterlimit="10"/></g></g><g transform="translate(2,2) scale(1,1)"><g><path fill="none" stroke="none"/><text fill="#000000" stroke="none" font-family="Arial" font-size="13px" font-style="normal" font-weight="normal" text-decoration="none" x="797" y="745.5">+LengthOfStringBetweenTwoNumbers(text: string, minNumber: int, maxNumber: int): bool</text><path fill="none" stroke="#000000" d="M 797 745.5 L 1313.9658203125 745.5" stroke-miterlimit="10"/></g></g><g transform="translate(2,2) scale(1,1)"><g><path fill="none" stroke="none"/><text fill="#000000" stroke="none" font-family="Arial" font-size="13px" font-style="normal" font-weight="normal" text-decoration="none" x="797" y="760.5">+AsciiCharacterRangeForPassword(text: string): bool</text><path fill="none" stroke="#000000" d="M 797 760.5 L 1104.4296875 760.5" stroke-miterlimit="10"/></g></g><g transform="translate(2,2) scale(1,1)"><g><path fill="none" stroke="none"/><text fill="#000000" stroke="none" font-family="Arial" font-size="13px" font-style="normal" font-weight="normal" text-decoration="none" x="797" y="775.5">+StringIsExactlyThisLong(supposedLong: int, text: string): bool</text><path fill="none" stroke="#000000" d="M 797 775.5 L 1157.94677734375 775.5" stroke-miterlimit="10"/></g></g><g transform="translate(2,2) scale(1,1)"><g><path fill="none" stroke="none"/><text fill="#000000" stroke="none" font-family="Arial" font-size="13px" font-style="normal" font-weight="normal" text-decoration="none" x="797" y="790.5">+OnlyDigits(text: string): bool</text><path fill="none" stroke="#000000" d="M 797 790.5 L 964.25439453125 790.5" stroke-miterlimit="10"/></g></g></g></svg>