<svg version="1.1" xmlns="http://www.w3.org/2000/svg" xmlns:xlink="http://www.w3.org/1999/xlink" width="829.94677734375" height="683"><defs/><g><g transform="translate(-102,-46) scale(1,1)"><rect fill="#C0C0C0" stroke="none" x="559" y="423" width="369.94677734375" height="132" opacity="0.2"/></g><g transform="translate(-102,-46) scale(1,1)"><rect fill="#ffffff" stroke="none" x="552" y="416" width="369.94677734375" height="132"/></g><g transform="translate(-102,-46) scale(1,1)"><path fill="none" stroke="#000000" d="M 552 416 L 921.94677734375 416 L 921.94677734375 548 L 552 548 L 552 416 Z Z" stroke-miterlimit="10"/></g><g transform="translate(-102,-46) scale(1,1)"><path fill="none" stroke="#000000" d="M 552 456 L 921.94677734375 456" stroke-miterlimit="10"/></g><g transform="translate(-102,-46) scale(1,1)"><path fill="none" stroke="#000000" d="M 552 466 L 921.94677734375 466" stroke-miterlimit="10"/></g><g transform="translate(-102,-46) scale(1,1)"><g><path fill="none" stroke="none"/><text fill="#000000" stroke="none" font-family="Arial" font-size="13px" font-style="normal" font-weight="bold" text-decoration="none" x="711.8017578125" y="435.5">Validator</text></g></g><g transform="translate(-102,-46) scale(1,1)"><g><path fill="none" stroke="none"/><text fill="#000000" stroke="none" font-family="Arial" font-size="13px" font-style="normal" font-weight="normal" text-decoration="none" x="696.89111328125" y="450.5">(from Utilities)</text></g></g><g transform="translate(-102,-46) scale(1,1)"><g><path fill="none" stroke="none"/><text fill="#000000" stroke="none" font-family="Arial" font-size="13px" font-style="normal" font-weight="normal" text-decoration="none" x="557" y="483.5">+MaxLengthOfString(text: string, maxNumber: int): bool</text><path fill="none" stroke="#000000" d="M 557 483.5 L 875.9951171875 483.5" stroke-miterlimit="10"/></g></g><g transform="translate(-102,-46) scale(1,1)"><g><path fill="none" stroke="none"/><text fill="#000000" stroke="none" font-family="Arial" font-size="13px" font-style="normal" font-weight="normal" text-decoration="none" x="557" y="498.5">+MinLengthOfString(text: string, minNumber: int): bool</text><path fill="none" stroke="#000000" d="M 557 498.5 L 868.771484375 498.5" stroke-miterlimit="10"/></g></g><g transform="translate(-102,-46) scale(1,1)"><g><path fill="none" stroke="none"/><text fill="#000000" stroke="none" font-family="Arial" font-size="13px" font-style="normal" font-weight="normal" text-decoration="none" x="557" y="513.5">+AsciiCharacterRangeForPassword(text: string): bool</text><path fill="none" stroke="#000000" d="M 557 513.5 L 864.4296875 513.5" stroke-miterlimit="10"/></g></g><g transform="translate(-102,-46) scale(1,1)"><g><path fill="none" stroke="none"/><text fill="#000000" stroke="none" font-family="Arial" font-size="13px" font-style="normal" font-weight="normal" text-decoration="none" x="557" y="528.5">+StringIsExactlyThisLong(supposedLong: int, text: string): bool</text><path fill="none" stroke="#000000" d="M 557 528.5 L 917.94677734375 528.5" stroke-miterlimit="10"/></g></g><g transform="translate(-102,-46) scale(1,1)"><g><path fill="none" stroke="none"/><text fill="#000000" stroke="none" font-family="Arial" font-size="13px" font-style="normal" font-weight="normal" text-decoration="none" x="557" y="543.5">+OnlyDigits(text: string): bool</text><path fill="none" stroke="#000000" d="M 557 543.5 L 724.25439453125 543.5" stroke-miterlimit="10"/></g></g><g transform="translate(-102,-46) scale(1,1)"><rect fill="#C0C0C0" stroke="none" x="151" y="639" width="192.16796875" height="87" opacity="0.2"/></g><g transform="translate(-102,-46) scale(1,1)"><rect fill="#ffffff" stroke="none" x="144" y="632" width="192.16796875" height="87"/></g><g transform="translate(-102,-46) scale(1,1)"><path fill="none" stroke="#000000" d="M 144 632 L 336.16796875 632 L 336.16796875 719 L 144 719 L 144 632 Z Z" stroke-miterlimit="10"/></g><g transform="translate(-102,-46) scale(1,1)"><path fill="none" stroke="#000000" d="M 144 672 L 336.16796875 672" stroke-miterlimit="10"/></g><g transform="translate(-102,-46) scale(1,1)"><path fill="none" stroke="#000000" d="M 144 710 L 336.16796875 710" stroke-miterlimit="10"/></g><g transform="translate(-102,-46) scale(1,1)"><g><path fill="none" stroke="none"/><text fill="#000000" stroke="none" font-family="Arial" font-size="13px" font-style="normal" font-weight="bold" text-decoration="none" x="168.917236328125" y="651.5">PasswordReportByColor</text></g></g><g transform="translate(-102,-46) scale(1,1)"><g><path fill="none" stroke="none"/><text fill="#000000" stroke="none" font-family="Arial" font-size="13px" font-style="normal" font-weight="normal" text-decoration="none" x="200.001708984375" y="666.5">(from Utilities)</text></g></g><g transform="translate(-102,-46) scale(1,1)"><g><path fill="none" stroke="none"/><text fill="#000000" stroke="none" font-family="Arial" font-size="13px" font-style="normal" font-weight="normal" text-decoration="none" x="149" y="689.5">+Quantity: int</text></g></g><g transform="translate(-102,-46) scale(1,1)"><g><path fill="none" stroke="none"/><text fill="#000000" stroke="none" font-family="Arial" font-size="13px" font-style="normal" font-weight="normal" text-decoration="none" x="149" y="704.5">+Color: PasswordStrengthColor</text></g></g><g transform="translate(-102,-46) scale(1,1)"><rect fill="#C0C0C0" stroke="none" x="119" y="319" width="244.47900390625" height="102" opacity="0.2"/></g><g transform="translate(-102,-46) scale(1,1)"><rect fill="#ffffff" stroke="none" x="112" y="312" width="244.47900390625" height="102"/></g><g transform="translate(-102,-46) scale(1,1)"><path fill="none" stroke="#000000" d="M 112 312 L 356.47900390625 312 L 356.47900390625 414 L 112 414 L 112 312 Z Z" stroke-miterlimit="10"/></g><g transform="translate(-102,-46) scale(1,1)"><path fill="none" stroke="#000000" d="M 112 352 L 356.47900390625 352" stroke-miterlimit="10"/></g><g transform="translate(-102,-46) scale(1,1)"><path fill="none" stroke="#000000" d="M 112 405 L 356.47900390625 405" stroke-miterlimit="10"/></g><g transform="translate(-102,-46) scale(1,1)"><g><path fill="none" stroke="none"/><text fill="#000000" stroke="none" font-family="Arial" font-size="13px" font-style="normal" font-weight="bold" text-decoration="none" x="125.1328125" y="331.5">PasswordReportByCategoryAndColor</text></g></g><g transform="translate(-102,-46) scale(1,1)"><g><path fill="none" stroke="none"/><text fill="#000000" stroke="none" font-family="Arial" font-size="13px" font-style="normal" font-weight="normal" text-decoration="none" x="194.1572265625" y="346.5">(from Utilities)</text></g></g><g transform="translate(-102,-46) scale(1,1)"><g><path fill="none" stroke="none"/><text fill="#000000" stroke="none" font-family="Arial" font-size="13px" font-style="normal" font-weight="normal" text-decoration="none" x="117" y="369.5">+Category: Category</text></g></g><g transform="translate(-102,-46) scale(1,1)"><g><path fill="none" stroke="none"/><text fill="#000000" stroke="none" font-family="Arial" font-size="13px" font-style="normal" font-weight="normal" text-decoration="none" x="117" y="384.5">+Quantity: int</text></g></g><g transform="translate(-102,-46) scale(1,1)"><g><path fill="none" stroke="none"/><text fill="#000000" stroke="none" font-family="Arial" font-size="13px" font-style="normal" font-weight="normal" text-decoration="none" x="117" y="399.5">+Color: PasswordStrengthColor</text></g></g><g transform="translate(-102,-46) scale(1,1)"><rect fill="#C0C0C0" stroke="none" x="559" y="239" width="188.1435546875" height="132" opacity="0.2"/></g><g transform="translate(-102,-46) scale(1,1)"><rect fill="#ffffff" stroke="none" x="552" y="232" width="188.1435546875" height="132"/></g><g transform="translate(-102,-46) scale(1,1)"><path fill="none" stroke="#000000" d="M 552 232 L 740.1435546875 232 L 740.1435546875 364 L 552 364 L 552 232 Z Z" stroke-miterlimit="10"/></g><g transform="translate(-102,-46) scale(1,1)"><path fill="none" stroke="#000000" d="M 552 272 L 740.1435546875 272" stroke-miterlimit="10"/></g><g transform="translate(-102,-46) scale(1,1)"><path fill="none" stroke="#000000" d="M 552 355 L 740.1435546875 355" stroke-miterlimit="10"/></g><g transform="translate(-102,-46) scale(1,1)"><g><path fill="none" stroke="none"/><text fill="#000000" stroke="none" font-family="Arial" font-size="13px" font-style="normal" font-weight="bold" text-decoration="none" x="562.971435546875" y="251.5">PasswordGenerationOptions</text></g></g><g transform="translate(-102,-46) scale(1,1)"><g><path fill="none" stroke="none"/><text fill="#000000" stroke="none" font-family="Arial" font-size="13px" font-style="normal" font-weight="normal" text-decoration="none" x="605.989501953125" y="266.5">(from Utilities)</text></g></g><g transform="translate(-102,-46) scale(1,1)"><g><path fill="none" stroke="none"/><text fill="#000000" stroke="none" font-family="Arial" font-size="13px" font-style="normal" font-weight="normal" text-decoration="none" x="557" y="289.5">+Length: int</text></g></g><g transform="translate(-102,-46) scale(1,1)"><g><path fill="none" stroke="none"/><text fill="#000000" stroke="none" font-family="Arial" font-size="13px" font-style="normal" font-weight="normal" text-decoration="none" x="557" y="304.5">+Uppercase: bool</text></g></g><g transform="translate(-102,-46) scale(1,1)"><g><path fill="none" stroke="none"/><text fill="#000000" stroke="none" font-family="Arial" font-size="13px" font-style="normal" font-weight="normal" text-decoration="none" x="557" y="319.5">+Lowercase: bool</text></g></g><g transform="translate(-102,-46) scale(1,1)"><g><path fill="none" stroke="none"/><text fill="#000000" stroke="none" font-family="Arial" font-size="13px" font-style="normal" font-weight="normal" text-decoration="none" x="557" y="334.5">+Digits: bool</text></g></g><g transform="translate(-102,-46) scale(1,1)"><g><path fill="none" stroke="none"/><text fill="#000000" stroke="none" font-family="Arial" font-size="13px" font-style="normal" font-weight="normal" text-decoration="none" x="557" y="349.5">+SpecialDigits: bool</text></g></g><g transform="translate(-102,-46) scale(1,1)"><rect fill="#C0C0C0" stroke="none" x="159" y="167" width="187.826171875" height="85" opacity="0.2"/></g><g transform="translate(-102,-46) scale(1,1)"><rect fill="#ffffff" stroke="none" x="152" y="160" width="187.826171875" height="85"/></g><g transform="translate(-102,-46) scale(1,1)"><path fill="none" stroke="#000000" d="M 152 160 L 339.826171875 160 L 339.826171875 245 L 152 245 L 152 160 Z Z" stroke-miterlimit="10"/></g><g transform="translate(-102,-46) scale(1,1)"><path fill="none" stroke="#000000" d="M 152 200 L 339.826171875 200" stroke-miterlimit="10"/></g><g transform="translate(-102,-46) scale(1,1)"><path fill="none" stroke="#000000" d="M 152 223 L 339.826171875 223" stroke-miterlimit="10"/></g><g transform="translate(-102,-46) scale(1,1)"><g><path fill="none" stroke="none"/><text fill="#000000" stroke="none" font-family="Arial" font-size="13px" font-style="normal" font-weight="bold" text-decoration="none" x="179.443603515625" y="179.5">DataBreachFromString</text></g></g><g transform="translate(-102,-46) scale(1,1)"><g><path fill="none" stroke="none"/><text fill="#000000" stroke="none" font-family="Arial" font-size="13px" font-style="normal" font-weight="normal" text-decoration="none" x="205.830810546875" y="194.5">(from Utilities)</text></g></g><g transform="translate(-102,-46) scale(1,1)"><g><path fill="none" stroke="none"/><text fill="#000000" stroke="none" font-family="Arial" font-size="13px" font-style="normal" font-weight="normal" text-decoration="none" x="157" y="217.5">+Data: string</text></g></g><g transform="translate(-102,-46) scale(1,1)"><g><path fill="none" stroke="none"/><text fill="#000000" stroke="none" font-family="Arial" font-size="13px" font-style="normal" font-weight="normal" text-decoration="none" x="157" y="240.5">+GetDataBreachString(): string</text></g></g><g transform="translate(-102,-46) scale(1,1)"><path fill="#C0C0C0" stroke="none" d="M 448.082275390625 74.5 C 448.082275390625 68.1487248 453.231000190625 63 459.582275390625 63 C 465.933550590625 63 471.082275390625 68.1487248 471.082275390625 74.5 C 471.082275390625 80.8512752 465.933550590625 86 459.582275390625 86 C 453.231000190625 86 448.082275390625 80.8512752 448.082275390625 74.5 Z" opacity="0.2"/></g><g transform="translate(-102,-46) scale(1,1)"><path fill="#ffffff" stroke="none" d="M 441.082275390625 67.5 C 441.082275390625 61.1487248 446.231000190625 56 452.582275390625 56 C 458.933550590625 56 464.082275390625 61.1487248 464.082275390625 67.5 C 464.082275390625 73.8512752 458.933550590625 79 452.582275390625 79 C 446.231000190625 79 441.082275390625 73.8512752 441.082275390625 67.5 Z"/></g><g transform="translate(-102,-46) scale(1,1)"><path fill="none" stroke="#000000" d="M 441.082275390625 67.5 C 441.082275390625 61.1487248 446.231000190625 56 452.582275390625 56 C 458.933550590625 56 464.082275390625 61.1487248 464.082275390625 67.5 C 464.082275390625 73.8512752 458.933550590625 79 452.582275390625 79 C 446.231000190625 79 441.082275390625 73.8512752 441.082275390625 67.5 Z" stroke-miterlimit="10"/></g><g transform="translate(-102,-46) scale(1,1)"><g><path fill="none" stroke="none"/><text fill="#000000" stroke="none" font-family="Arial" font-size="13px" font-style="normal" font-weight="bold" text-decoration="none" x="416.451416015625" y="98.5">IDataBreach</text></g></g><g transform="translate(-102,-46) scale(1,1)"><g><path fill="none" stroke="none"/><text fill="#000000" stroke="none" font-family="Arial" font-size="13px" font-style="normal" font-weight="normal" text-decoration="none" x="412.5" y="113.5">(from Utilities)</text></g></g><g transform="translate(-102,-46) scale(1,1)"><path fill="none" stroke="#000000" d="M 328 160 L 328 67 L 441.082275390625 67" stroke-miterlimit="10"/></g><g transform="translate(-102,-46) scale(1,1)"><rect fill="#C0C0C0" stroke="none" x="167" y="495" width="157.79541015625" height="62" opacity="0.2"/></g><g transform="translate(-102,-46) scale(1,1)"><rect fill="#ffffff" stroke="none" x="160" y="488" width="157.79541015625" height="62"/></g><g transform="translate(-102,-46) scale(1,1)"><path fill="none" stroke="#000000" d="M 160 488 L 317.79541015625 488 L 317.79541015625 550 L 160 550 L 160 488 Z Z" stroke-miterlimit="10"/></g><g transform="translate(-102,-46) scale(1,1)"><path fill="none" stroke="#000000" d="M 160 541 L 317.79541015625 541" stroke-miterlimit="10"/></g><g transform="translate(-102,-46) scale(1,1)"><g><path fill="none" stroke="none"/><text fill="#000000" stroke="none" font-family="Arial" font-size="13px" font-style="normal" font-weight="normal" text-decoration="none" x="195.53369140625" y="505.5">«enumeration»</text></g></g><g transform="translate(-102,-46) scale(1,1)"><g><path fill="none" stroke="none"/><text fill="#000000" stroke="none" font-family="Arial" font-size="13px" font-style="normal" font-weight="bold" text-decoration="none" x="170.254150390625" y="520.5">PasswordStrengthColor</text></g></g><g transform="translate(-102,-46) scale(1,1)"><g><path fill="none" stroke="none"/><text fill="#000000" stroke="none" font-family="Arial" font-size="13px" font-style="normal" font-weight="normal" text-decoration="none" x="198.8154296875" y="535.5">(from Utilities)</text></g></g><g transform="translate(-102,-46) scale(1,1)"><path fill="none" stroke="#000000" d="M 235 415 L 237 487" stroke-miterlimit="10"/></g><g transform="translate(-102,-46) scale(1,1)"><path fill="none" stroke="#000000" d="M 232.50991767097926 476.9581296224948 L 237 487 L 240.92570697679375 476.72435769733335" stroke-miterlimit="10"/></g><g transform="translate(-102,-46) scale(1,1)"><path fill="none" stroke="#000000" d="M 239 631 L 238 551" stroke-miterlimit="10"/></g><g transform="translate(-102,-46) scale(1,1)"><path fill="none" stroke="#000000" d="M 242.33621243837158 561.1092661301061 L 238 551 L 233.91783458642044 561.2144958532556" stroke-miterlimit="10"/></g></g></svg>